%TF.GenerationSoftware,Altium Limited,Altium Designer,25.6.2 (33)*%
G04 Layer_Color=128*
%FSLAX45Y45*%
%MOMM*%
%TF.SameCoordinates,FD7FA593-DE0F-41FC-BB63-5AA315FDC3F2*%
%TF.FilePolarity,Positive*%
%TF.FileFunction,Drillmap*%
%TF.Part,Single*%
G01*
G75*
%TA.AperFunction,NonConductor*%
%ADD158C,0.12700*%
D158*
X12060811Y10012391D02*
X12159811D01*
X12110311Y9962891D02*
Y10061891D01*
X11601191Y10472011D02*
X11700191D01*
X11650691Y10422511D02*
Y10521511D01*
X12379009Y10330589D02*
X12478009D01*
X12428509Y10281089D02*
Y10380089D01*
X11919389Y10790209D02*
X12018389D01*
X11968889Y10740709D02*
Y10839709D01*
X12886264Y10983779D02*
X12981264D01*
X12933765Y10936279D02*
Y11031279D01*
X12744843Y11125200D02*
X12839844D01*
X12792343Y11077700D02*
Y11172700D01*
X13528764Y9596036D02*
X13608765D01*
X13568764Y9556036D02*
Y9636036D01*
X12462000Y11408043D02*
X12557000D01*
X12509500Y11360543D02*
Y11455543D01*
X11625600Y11709400D02*
X11945600D01*
X11785600Y11549400D02*
Y11869400D01*
X13660800Y7273900D02*
X13745799D01*
X13703300Y7231400D02*
Y7316400D01*
X13660800Y6673900D02*
X13745799D01*
X13703300Y6631400D02*
Y6716400D01*
X12446764Y4932764D02*
X12531764D01*
X12489264Y4890264D02*
Y4975264D01*
X12022500Y4508500D02*
X12107500D01*
X12065000Y4466000D02*
Y4551000D01*
X11625600Y3683000D02*
X11945600D01*
X11785600Y3523000D02*
Y3843000D01*
X9424100Y11685100D02*
X9634100D01*
X9529100Y11580100D02*
Y11790100D01*
X9459100Y12023100D02*
X9599100D01*
X9529100Y11953100D02*
Y12093100D01*
X9374100Y11722100D02*
X9414100D01*
X9394100Y11702100D02*
Y11742100D01*
X8779100Y11722100D02*
X8819100D01*
X8799100Y11702100D02*
Y11742100D01*
X8779100Y11587100D02*
X8819100D01*
X8799100Y11567100D02*
Y11607100D01*
X9374100Y11587100D02*
X9414100D01*
X9394100Y11567100D02*
Y11607100D01*
X8559100Y11685100D02*
X8769100D01*
X8664100Y11580100D02*
Y11790100D01*
X8594100Y12023100D02*
X8734100D01*
X8664100Y11953100D02*
Y12093100D01*
X8006100Y11709400D02*
X8326100D01*
X8166100Y11549400D02*
Y11869400D01*
X6462400Y10198100D02*
X6542400D01*
X6502400Y10158100D02*
Y10238100D01*
X8006100Y3683000D02*
X8326100D01*
X8166100Y3523000D02*
Y3843000D01*
X7586757Y4778643D02*
X7671757D01*
X7629257Y4736143D02*
Y4821143D01*
X7445336Y4920064D02*
X7530336D01*
X7487836Y4877564D02*
Y4962564D01*
X6193200Y6845300D02*
X6278200D01*
X6235700Y6802800D02*
Y6887800D01*
X13027686Y10842357D02*
X13122685D01*
X13075185Y10794857D02*
Y10889857D01*
X12603421Y11266621D02*
X12698421D01*
X12650921Y11219121D02*
Y11314121D01*
X6193200Y7445300D02*
X6278200D01*
X6235700Y7402800D02*
Y7487800D01*
X9034100Y11722100D02*
X9074100D01*
X9054100Y11702100D02*
Y11742100D01*
X9119100Y11587100D02*
X9159100D01*
X9139100Y11567100D02*
Y11607100D01*
X9119100Y11722100D02*
X9159100D01*
X9139100Y11702100D02*
Y11742100D01*
X9034100Y11587100D02*
X9074100D01*
X9054100Y11567100D02*
Y11607100D01*
X8011021Y4354379D02*
X8096021D01*
X8053521Y4311879D02*
Y4396879D01*
X13014821Y5500821D02*
X13099821D01*
X13057321Y5458321D02*
Y5543321D01*
X7869600Y4495800D02*
X7954600D01*
X7912100Y4453300D02*
Y4538300D01*
X7162493Y5202907D02*
X7247493D01*
X7204993Y5160407D02*
Y5245407D01*
X10666800Y3962400D02*
X10751800D01*
X10709300Y3919900D02*
Y4004900D01*
X12305343Y4791343D02*
X12390343D01*
X12347843Y4748843D02*
Y4833843D01*
X10466800Y3962400D02*
X10551800D01*
X10509300Y3919900D02*
Y4004900D01*
X12886264Y10700936D02*
X12981264D01*
X12933765Y10653436D02*
Y10748436D01*
X7303915Y5061485D02*
X7388915D01*
X7346415Y5018985D02*
Y5103985D01*
X12163921Y4649921D02*
X12248921D01*
X12206421Y4607421D02*
Y4692421D01*
X13660800Y6873900D02*
X13745799D01*
X13703300Y6831400D02*
Y6916400D01*
X10866800Y3962400D02*
X10951800D01*
X10909300Y3919900D02*
Y4004900D01*
X12873399Y5359400D02*
X12958400D01*
X12915900Y5316900D02*
Y5401900D01*
X7728179Y4637221D02*
X7813179D01*
X7770679Y4594721D02*
Y4679721D01*
X13660800Y7073900D02*
X13745799D01*
X13703300Y7031400D02*
Y7116400D01*
X12462000Y11125200D02*
X12557000D01*
X12509500Y11077700D02*
Y11172700D01*
X6251536Y6113864D02*
X6336536D01*
X6294036Y6071364D02*
Y6156364D01*
X11066800Y3962400D02*
X11151800D01*
X11109300Y3919900D02*
Y4004900D01*
X7021072Y5344328D02*
X7106072D01*
X7063572Y5301828D02*
Y5386828D01*
X11525595Y10098305D02*
X11635595D01*
X11580595Y10043305D02*
Y10153305D01*
X12320579Y11266621D02*
X12415579D01*
X12368079Y11219121D02*
Y11314121D01*
X6534379Y5831021D02*
X6619379D01*
X6576879Y5788521D02*
Y5873521D01*
X13297664Y5783664D02*
X13382664D01*
X13340164Y5741164D02*
Y5826164D01*
X6392957Y5972443D02*
X6477957D01*
X6435457Y5929943D02*
Y6014943D01*
X13156242Y5642243D02*
X13241243D01*
X13198743Y5599743D02*
Y5684743D01*
X6675800Y5689600D02*
X6760800D01*
X6718300Y5647100D02*
Y5732100D01*
X12744842Y10842357D02*
X12839842D01*
X12792342Y10794857D02*
Y10889857D01*
X13104500Y10020300D02*
X13184500D01*
X13144501Y9980300D02*
Y10060300D01*
X6639177Y10374877D02*
X6719177D01*
X6679177Y10334877D02*
Y10414877D01*
X9289100Y11587100D02*
X9329100D01*
X9309100Y11567100D02*
Y11607100D01*
X8864100Y11587100D02*
X8904100D01*
X8884100Y11567100D02*
Y11607100D01*
X8864100Y11722100D02*
X8904100D01*
X8884100Y11702100D02*
Y11742100D01*
X9289100Y11722100D02*
X9329100D01*
X9309100Y11702100D02*
Y11742100D01*
X9835600Y3987800D02*
X9925600D01*
X9880600Y3942800D02*
Y4032800D01*
X9635600Y3987800D02*
X9725600D01*
X9680600Y3942800D02*
Y4032800D01*
X9435600Y3987800D02*
X9525600D01*
X9480600Y3942800D02*
Y4032800D01*
X9235600Y3987800D02*
X9325600D01*
X9280600Y3942800D02*
Y4032800D01*
X9035600Y3987800D02*
X9125600D01*
X9080600Y3942800D02*
Y4032800D01*
X8835600Y3987800D02*
X8925600D01*
X8880600Y3942800D02*
Y4032800D01*
X5662300Y8619300D02*
X5742300D01*
X5702300Y8579300D02*
Y8659300D01*
X5662300Y8369300D02*
X5742300D01*
X5702300Y8329300D02*
Y8409300D01*
X9204100Y11587100D02*
X9244100D01*
X9224100Y11567100D02*
Y11607100D01*
X8949100Y11587100D02*
X8989100D01*
X8969100Y11567100D02*
Y11607100D01*
X8949100Y11722100D02*
X8989100D01*
X8969100Y11702100D02*
Y11742100D01*
X9204100Y11722100D02*
X9244100D01*
X9224100Y11702100D02*
Y11742100D01*
X12603421Y10983779D02*
X12698421D01*
X12650921Y10936279D02*
Y11031279D01*
X11705200Y9918700D02*
X11815200D01*
X11760200Y9863700D02*
Y9973700D01*
X6193200Y7045300D02*
X6278200D01*
X6235700Y7002800D02*
Y7087800D01*
X6193200Y7245300D02*
X6278200D01*
X6235700Y7202800D02*
Y7287800D01*
X12011900Y7607300D02*
X12041900D01*
X12026900Y7592300D02*
Y7622300D01*
X12824699Y10223500D02*
X12854700D01*
X12839700Y10208500D02*
Y10238500D01*
X13713699Y8915400D02*
X13743700D01*
X13728700Y8900400D02*
Y8930400D01*
X13831958Y8898742D02*
X13861958D01*
X13846957Y8883742D02*
Y8913742D01*
X13484996Y9899997D02*
X13514996D01*
X13499995Y9884997D02*
Y9914997D01*
X13334996Y10199997D02*
X13364996D01*
X13349995Y10184997D02*
Y10214997D01*
X12884996Y9899997D02*
X12914996D01*
X12899995Y9884997D02*
Y9914997D01*
X12291300Y9296400D02*
X12321300D01*
X12306300Y9281400D02*
Y9311400D01*
X13383501Y8978900D02*
X13413499D01*
X13398500Y8963900D02*
Y8993900D01*
X14234996Y8399997D02*
X14264996D01*
X14249995Y8384997D02*
Y8414997D01*
X13091400Y8978900D02*
X13121400D01*
X13106400Y8963900D02*
Y8993900D01*
X11770600Y9715500D02*
X11800600D01*
X11785600Y9700500D02*
Y9730500D01*
X11408400Y9353300D02*
X11438400D01*
X11423400Y9338300D02*
Y9368300D01*
X10634997Y11999996D02*
X10664997D01*
X10649997Y11984996D02*
Y12014996D01*
X10334997Y11999996D02*
X10364997D01*
X10349997Y11984996D02*
Y12014996D01*
X11834100Y9156700D02*
X11864100D01*
X11849100Y9141700D02*
Y9171700D01*
X11684996Y8099998D02*
X11714996D01*
X11699996Y8084998D02*
Y8114997D01*
X11384997Y8099998D02*
X11414996D01*
X11399997Y8084998D02*
Y8114997D01*
X10640300Y8255000D02*
X10670300D01*
X10655300Y8240000D02*
Y8270000D01*
X14069299Y8046204D02*
X14099300D01*
X14084300Y8031204D02*
Y8061204D01*
X13320000Y8089900D02*
X13350000D01*
X13335001Y8074900D02*
Y8104900D01*
X14234996Y7199998D02*
X14264996D01*
X14249995Y7184998D02*
Y7214998D01*
X13332700Y7594600D02*
X13362700D01*
X13347701Y7579600D02*
Y7609600D01*
X13332700Y6946900D02*
X13362700D01*
X13347701Y6931900D02*
Y6961900D01*
X14234996Y6599998D02*
X14264996D01*
X14249995Y6584998D02*
Y6614998D01*
X14084996Y6899998D02*
X14114996D01*
X14099995Y6884998D02*
Y6914998D01*
X14084996Y6299998D02*
X14114996D01*
X14099995Y6284998D02*
Y6314998D01*
X13934996Y5999998D02*
X13964996D01*
X13949995Y5984998D02*
Y6014998D01*
X13784996Y6299998D02*
X13814996D01*
X13799995Y6284998D02*
Y6314998D01*
X14234996Y5999998D02*
X14264996D01*
X14249995Y5984998D02*
Y6014998D01*
X14084996Y5699998D02*
X14114996D01*
X14099995Y5684998D02*
Y5714998D01*
X13934996Y5399998D02*
X13964996D01*
X13949995Y5384998D02*
Y5414998D01*
X13484996Y5099998D02*
X13514996D01*
X13499995Y5084998D02*
Y5114998D01*
X13184996Y5099998D02*
X13214996D01*
X13199995Y5084998D02*
Y5114998D01*
X13334996Y4799999D02*
X13364996D01*
X13349995Y4784999D02*
Y4814998D01*
X12494500Y6400800D02*
X12524500D01*
X12509500Y6385800D02*
Y6415800D01*
X13034996Y4799999D02*
X13064996D01*
X13049995Y4784999D02*
Y4814998D01*
X12884996Y5099998D02*
X12914996D01*
X12899995Y5084998D02*
Y5114998D01*
X12884996Y4499999D02*
X12914996D01*
X12899995Y4484999D02*
Y4514999D01*
X12584996Y4499999D02*
X12614996D01*
X12599996Y4484999D02*
Y4514999D01*
X12734996Y4199999D02*
X12764996D01*
X12749996Y4184999D02*
Y4214999D01*
X11834996Y7799998D02*
X11864996D01*
X11849996Y7784998D02*
Y7814998D01*
X11534996Y7799998D02*
X11564996D01*
X11549996Y7784998D02*
Y7814998D01*
X11554700Y6578600D02*
X11584700D01*
X11569700Y6563600D02*
Y6593600D01*
X10500600Y7823200D02*
X10530600D01*
X10515600Y7808200D02*
Y7838200D01*
X10411700Y7023100D02*
X10441700D01*
X10426700Y7008100D02*
Y7038100D01*
X12434996Y4199999D02*
X12464996D01*
X12449996Y4184999D02*
Y4214999D01*
X12284996Y3899999D02*
X12314996D01*
X12299996Y3884999D02*
Y3914999D01*
X12138900Y5867400D02*
X12168900D01*
X12153900Y5852400D02*
Y5882400D01*
X12134996Y4199999D02*
X12164996D01*
X12149996Y4184999D02*
Y4214999D01*
X11084997Y3299999D02*
X11114997D01*
X11099997Y3284999D02*
Y3314999D01*
X11046700Y6184900D02*
X11076700D01*
X11061700Y6169900D02*
Y6199900D01*
X10284700Y11569700D02*
X10314700D01*
X10299700Y11554700D02*
Y11584700D01*
X9725900Y11366500D02*
X9755900D01*
X9740900Y11351500D02*
Y11381500D01*
X9573500Y11137900D02*
X9603500D01*
X9588500Y11122900D02*
Y11152900D01*
X9134997Y11999996D02*
X9164997D01*
X9149997Y11984996D02*
Y12014996D01*
X9370300Y10401300D02*
X9400300D01*
X9385300Y10386300D02*
Y10416300D01*
X9548100Y8775700D02*
X9578100D01*
X9563100Y8760700D02*
Y8790700D01*
X8984997Y9899997D02*
X9014997D01*
X8999997Y9884997D02*
Y9914997D01*
X9134997Y8399997D02*
X9164997D01*
X9149997Y8384997D02*
Y8414997D01*
X8984997Y9299997D02*
X9014997D01*
X8999997Y9284997D02*
Y9314997D01*
X8834997Y9599997D02*
X8864997D01*
X8849997Y9584997D02*
Y9614997D01*
X8697200Y11264900D02*
X8727200D01*
X8712200Y11249900D02*
Y11279900D01*
X7634998Y11399997D02*
X7664998D01*
X7649998Y11384997D02*
Y11414996D01*
X6284998Y9899997D02*
X6314998D01*
X6299998Y9884997D02*
Y9914997D01*
X5984998Y9899997D02*
X6014998D01*
X5999998Y9884997D02*
Y9914997D01*
X5834998Y9599997D02*
X5864998D01*
X5849998Y9584997D02*
Y9614997D01*
X6734998Y9599997D02*
X6764998D01*
X6749998Y9584997D02*
Y9614997D01*
X6434998Y9599997D02*
X6464998D01*
X6449998Y9584997D02*
Y9614997D01*
X6584998Y9299997D02*
X6614998D01*
X6599998Y9284997D02*
Y9314997D01*
X6134998Y9599997D02*
X6164998D01*
X6149998Y9584997D02*
Y9614997D01*
X5684998Y9299997D02*
X5714998D01*
X5699998Y9284997D02*
Y9314997D01*
X5984998Y9299997D02*
X6014998D01*
X5999998Y9284997D02*
Y9314997D01*
X8735300Y8547100D02*
X8765300D01*
X8750300Y8532100D02*
Y8562100D01*
X6631058Y8720942D02*
X6661058D01*
X6646058Y8705942D02*
Y8735942D01*
X6434998Y8999997D02*
X6464998D01*
X6449998Y8984997D02*
Y9014997D01*
X6284998Y9299997D02*
X6314998D01*
X6299998Y9284997D02*
Y9314997D01*
X5834998Y8999997D02*
X5864998D01*
X5849998Y8984997D02*
Y9014997D01*
X6134998Y8999997D02*
X6164998D01*
X6149998Y8984997D02*
Y9014997D01*
X8862300Y7683500D02*
X8892300D01*
X8877300Y7668500D02*
Y7698500D01*
X8405100Y6883400D02*
X8435100D01*
X8420100Y6868400D02*
Y6898400D01*
X10034997Y4199999D02*
X10064997D01*
X10049997Y4184999D02*
Y4214999D01*
X9802100Y3187700D02*
X9832100D01*
X9817100Y3172700D02*
Y3202700D01*
X9434997Y6599998D02*
X9464997D01*
X9449997Y6584998D02*
Y6614998D01*
X9284997Y6299998D02*
X9314997D01*
X9299997Y6284998D02*
Y6314998D01*
X9134997Y5999998D02*
X9164997D01*
X9149997Y5984998D02*
Y6014998D01*
X9573500Y3797300D02*
X9603500D01*
X9588500Y3782300D02*
Y3812300D01*
X8684997Y3299999D02*
X8714997D01*
X8699997Y3284999D02*
Y3314999D01*
X8062200Y7518400D02*
X8092200D01*
X8077200Y7503400D02*
Y7533400D01*
X7184998Y8099998D02*
X7214998D01*
X7199998Y8084998D02*
Y8114997D01*
X8125700Y7353300D02*
X8155700D01*
X8140700Y7338300D02*
Y7368300D01*
X6884998Y8099998D02*
X6914998D01*
X6899998Y8084998D02*
Y8114997D01*
X6584998Y8099998D02*
X6614998D01*
X6599998Y8084998D02*
Y8114997D01*
X6434998Y7799998D02*
X6464998D01*
X6449998Y7784998D02*
Y7814998D01*
X5984998Y8099998D02*
X6014998D01*
X5999998Y8084998D02*
Y8114997D01*
X5684998Y8099998D02*
X5714998D01*
X5699998Y8084998D02*
Y8114997D01*
X5834998Y7799998D02*
X5864998D01*
X5849998Y7784998D02*
Y7814998D01*
X6734998Y7799998D02*
X6764998D01*
X6749998Y7784998D02*
Y7814998D01*
X5684998Y7499998D02*
X5714998D01*
X5699998Y7484998D02*
Y7514998D01*
X7784998Y6299998D02*
X7814998D01*
X7799998Y6284998D02*
Y6314998D01*
X8113000Y6146800D02*
X8143000D01*
X8128000Y6131800D02*
Y6161800D01*
X7484998Y3899999D02*
X7514998D01*
X7499998Y3884999D02*
Y3914999D01*
X7338300Y7010400D02*
X7368300D01*
X7353300Y6995400D02*
Y7025400D01*
X7334998Y5399998D02*
X7364998D01*
X7349998Y5384998D02*
Y5414998D01*
X6884998Y4499999D02*
X6914998D01*
X6899998Y4484999D02*
Y4514999D01*
X6734998Y5399998D02*
X6764998D01*
X6749998Y5384998D02*
Y5414998D01*
X6284998Y5099998D02*
X6314998D01*
X6299998Y5084998D02*
Y5114998D01*
X13269200Y10568121D02*
X13299200D01*
X13284200Y10553121D02*
Y10583121D01*
X13320000Y8242300D02*
X13350000D01*
X13335001Y8227300D02*
Y8257300D01*
X12862801Y8877300D02*
X12892799D01*
X12877800Y8862300D02*
Y8892300D01*
X12253200Y11442700D02*
X12283200D01*
X12268200Y11427700D02*
Y11457700D01*
X11914507Y11117969D02*
X11944507D01*
X11929507Y11102969D02*
Y11132969D01*
X11249900Y10706100D02*
X11279900D01*
X11264900Y10691100D02*
Y10721100D01*
X10957800Y9359900D02*
X10987800D01*
X10972800Y9344900D02*
Y9374900D01*
X13330850Y7745150D02*
X13360851D01*
X13345850Y7730150D02*
Y7760150D01*
X14259801Y7632700D02*
X14289799D01*
X14274800Y7617700D02*
Y7647700D01*
X13320000Y7099300D02*
X13350000D01*
X13335001Y7084300D02*
Y7114300D01*
X12634200Y6400800D02*
X12664200D01*
X12649200Y6385800D02*
Y6415800D01*
X11999200Y6591300D02*
X12029200D01*
X12014200Y6576300D02*
Y6606300D01*
X10462500Y10375900D02*
X10492500D01*
X10477500Y10360900D02*
Y10390900D01*
X9764000Y10363200D02*
X9794000D01*
X9779000Y10348200D02*
Y10378200D01*
X9230600Y10160000D02*
X9260600D01*
X9245600Y10145000D02*
Y10175000D01*
X9891000Y9918700D02*
X9921000D01*
X9906000Y9903700D02*
Y9933700D01*
X9560800Y8636000D02*
X9590800D01*
X9575800Y8621000D02*
Y8651000D01*
X8227300Y10782300D02*
X8257300D01*
X8242300Y10767300D02*
Y10797300D01*
X8849600Y9067800D02*
X8879600D01*
X8864600Y9052800D02*
Y9082800D01*
X8684500Y9067800D02*
X8714500D01*
X8699500Y9052800D02*
Y9082800D01*
X8494000Y8890000D02*
X8524000D01*
X8509000Y8875000D02*
Y8905000D01*
X8265400Y8890000D02*
X8295400D01*
X8280400Y8875000D02*
Y8905000D01*
X8684500Y8890000D02*
X8714500D01*
X8699500Y8875000D02*
Y8905000D01*
X8849600Y8890000D02*
X8879600D01*
X8864600Y8875000D02*
Y8905000D01*
X8582900Y8534400D02*
X8612900D01*
X8597900Y8519400D02*
Y8549400D01*
X7211300Y9334500D02*
X7241300D01*
X7226300Y9319500D02*
Y9349500D01*
X6627100Y8851900D02*
X6657100D01*
X6642100Y8836900D02*
Y8866900D01*
X10411700Y8039100D02*
X10441700D01*
X10426700Y8024100D02*
Y8054100D01*
X10386300Y7505700D02*
X10416300D01*
X10401300Y7490700D02*
Y7520700D01*
X10068800Y8420100D02*
X10098800D01*
X10083800Y8405100D02*
Y8435100D01*
X9738600Y8051800D02*
X9768600D01*
X9753600Y8036800D02*
Y8066800D01*
X10551400Y7099300D02*
X10581400D01*
X10566400Y7084300D02*
Y7114300D01*
X10551400Y6667500D02*
X10581400D01*
X10566400Y6652500D02*
Y6682500D01*
X9419600Y7785100D02*
X9449600D01*
X9434600Y7770100D02*
Y7800100D01*
X8519400Y6680200D02*
X8549400D01*
X8534400Y6665200D02*
Y6695200D01*
X9675100Y3390900D02*
X9705100D01*
X9690100Y3375900D02*
Y3405900D01*
X7327450Y6669350D02*
X7357450D01*
X7342450Y6654350D02*
Y6684350D01*
X8100300Y6515100D02*
X8130300D01*
X8115300Y6500100D02*
Y6530100D01*
X8697200Y4711700D02*
X8727200D01*
X8712200Y4696700D02*
Y4726700D01*
X11364200Y7632700D02*
X11394200D01*
X11379200Y7617700D02*
Y7647700D01*
X10099345Y9161845D02*
X10129345D01*
X10114345Y9146845D02*
Y9176845D01*
X10005300Y9096300D02*
X10035300D01*
X10020300Y9081300D02*
Y9111300D01*
X10056100Y9296400D02*
X10086100D01*
X10071100Y9281400D02*
Y9311400D01*
X10634290Y7843952D02*
X10664290D01*
X10649290Y7828952D02*
Y7858952D01*
X10653000Y7937500D02*
X10683000D01*
X10668000Y7922500D02*
Y7952500D01*
X11059400Y7772400D02*
X11089400D01*
X11074400Y7757400D02*
Y7787400D01*
X11389600Y8636000D02*
X11419600D01*
X11404600Y8621000D02*
Y8651000D01*
X10094200Y10756900D02*
X10124200D01*
X10109200Y10741900D02*
Y10771900D01*
X11491200Y5016500D02*
X11521200D01*
X11506200Y5001500D02*
Y5031500D01*
X12686935Y7197331D02*
X12716935D01*
X12701935Y7182331D02*
Y7212331D01*
X10995900Y8293100D02*
X11025900D01*
X11010900Y8278100D02*
Y8308100D01*
X10386300Y7696200D02*
X10416300D01*
X10401300Y7681200D02*
Y7711200D01*
X10830800Y9906000D02*
X10860800D01*
X10845800Y9891000D02*
Y9921000D01*
X10919700Y10706100D02*
X10949700D01*
X10934700Y10691100D02*
Y10721100D01*
X11059400Y7658100D02*
X11089400D01*
X11074400Y7643100D02*
Y7673100D01*
X8190306Y7429500D02*
X8220306D01*
X8205306Y7414500D02*
Y7444500D01*
X10767300Y10731500D02*
X10797300D01*
X10782300Y10716500D02*
Y10746500D01*
X10703800Y9969500D02*
X10733800D01*
X10718800Y9954500D02*
Y9984500D01*
X11529300Y8648700D02*
X11559300D01*
X11544300Y8633700D02*
Y8663700D01*
X10411700Y10515600D02*
X10441700D01*
X10426700Y10500600D02*
Y10530600D01*
X11948400Y6959600D02*
X11978400D01*
X11963400Y6944600D02*
Y6974600D01*
X11135600Y7035800D02*
X11165600D01*
X11150600Y7020800D02*
Y7050800D01*
X11224500Y5194300D02*
X11254500D01*
X11239500Y5179300D02*
Y5209300D01*
X8608300Y4991100D02*
X8638300D01*
X8623300Y4976100D02*
Y5006100D01*
X10233900Y8394700D02*
X10263900D01*
X10248900Y8379700D02*
Y8409700D01*
X7643100Y7099300D02*
X7673100D01*
X7658100Y7084300D02*
Y7114300D01*
X7460136Y6113864D02*
X7490136D01*
X7475136Y6098864D02*
Y6128864D01*
X8773400Y4483100D02*
X8803400D01*
X8788400Y4468100D02*
Y4498100D01*
X8951200Y4635500D02*
X8981200D01*
X8966200Y4620500D02*
Y4650500D01*
X8989300Y4368800D02*
X9019300D01*
X9004300Y4353800D02*
Y4383800D01*
X8951200Y4787900D02*
X8981200D01*
X8966200Y4772900D02*
Y4802900D01*
X11973800Y5105400D02*
X12003800D01*
X11988800Y5090400D02*
Y5120400D01*
X11859500Y5245100D02*
X11889500D01*
X11874500Y5230100D02*
Y5260100D01*
X11973800Y7416800D02*
X12003800D01*
X11988800Y7401800D02*
Y7431800D01*
X12570700Y7759700D02*
X12600700D01*
X12585700Y7744700D02*
Y7774700D01*
X12685000Y7747000D02*
X12715000D01*
X12700000Y7732000D02*
Y7762000D01*
X11732500Y5143500D02*
X11762500D01*
X11747500Y5128500D02*
Y5158500D01*
X11605500Y5130800D02*
X11635500D01*
X11620500Y5115800D02*
Y5145800D01*
X8849600Y6972300D02*
X8879600D01*
X8864600Y6957300D02*
Y6987300D01*
X8925800Y7099300D02*
X8955800D01*
X8940800Y7084300D02*
Y7114300D01*
X10983200Y8039100D02*
X11013200D01*
X10998200Y8024100D02*
Y8054100D01*
X11516600Y6921500D02*
X11546600D01*
X11531600Y6906500D02*
Y6936500D01*
X9165600Y7948700D02*
X9195600D01*
X9180600Y7933700D02*
Y7963700D01*
X10373600Y7797800D02*
X10403600D01*
X10388600Y7782800D02*
Y7812800D01*
X11415000Y6921500D02*
X11445000D01*
X11430000Y6906500D02*
Y6936500D01*
X9865600Y8445500D02*
X9895600D01*
X9880600Y8430500D02*
Y8460500D01*
X11211800Y7264400D02*
X11241800D01*
X11226800Y7249400D02*
Y7279400D01*
X12583400Y8686800D02*
X12613400D01*
X12598400Y8671800D02*
Y8701800D01*
X13789900Y8128000D02*
X13819901D01*
X13804900Y8113000D02*
Y8143000D01*
X9637000Y10134600D02*
X9667000D01*
X9652000Y10119600D02*
Y10149600D01*
X11338800Y9664700D02*
X11368800D01*
X11353800Y9649700D02*
Y9679700D01*
X9078200Y10134600D02*
X9108200D01*
X9093200Y10119600D02*
Y10149600D01*
X11264363Y8481837D02*
X11294363D01*
X11279363Y8466837D02*
Y8496837D01*
X11097500Y8026400D02*
X11127500D01*
X11112500Y8011400D02*
Y8041400D01*
X10145000Y9525000D02*
X10175000D01*
X10160000Y9510000D02*
Y9540000D01*
X11138317Y7337500D02*
X11168317D01*
X11153317Y7322500D02*
Y7352500D01*
X12304000Y8343900D02*
X12334000D01*
X12319000Y8328900D02*
Y8358900D01*
X8227300Y7528000D02*
X8257300D01*
X8242300Y7513000D02*
Y7543000D01*
X10545940Y7384160D02*
X10575939D01*
X10560940Y7369160D02*
Y7399160D01*
X8252700Y7327900D02*
X8282700D01*
X8267700Y7312900D02*
Y7342900D01*
X11021300Y8610600D02*
X11051300D01*
X11036300Y8595600D02*
Y8625600D01*
X10431400Y10827400D02*
X10461400D01*
X10446400Y10812400D02*
Y10842400D01*
X10992545Y7093087D02*
X11022545D01*
X11007545Y7078087D02*
Y7108087D01*
X12710400Y7289800D02*
X12740400D01*
X12725400Y7274800D02*
Y7304800D01*
X11275300Y9867900D02*
X11305300D01*
X11290300Y9852900D02*
Y9882900D01*
X11273167Y8600033D02*
X11303167D01*
X11288167Y8585033D02*
Y8615033D01*
X10627600Y10782300D02*
X10657600D01*
X10642600Y10767300D02*
Y10797300D01*
X10564100Y9982200D02*
X10594100D01*
X10579100Y9967200D02*
Y9997200D01*
X11059400Y7404100D02*
X11089400D01*
X11074400Y7389100D02*
Y7419100D01*
X7732000Y7632700D02*
X7762000D01*
X7747000Y7617700D02*
Y7647700D01*
X11364200Y5105400D02*
X11394200D01*
X11379200Y5090400D02*
Y5120400D01*
X11143603Y6935870D02*
X11173603D01*
X11158603Y6920870D02*
Y6950870D01*
X8671800Y4876800D02*
X8701800D01*
X8686800Y4861800D02*
Y4891800D01*
X9205200Y7137400D02*
X9235200D01*
X9220200Y7122400D02*
Y7152400D01*
X7808200Y8775700D02*
X7838200D01*
X7823200Y8760700D02*
Y8790700D01*
X10957800Y6946900D02*
X10987800D01*
X10972800Y6931900D02*
Y6961900D01*
X12710400Y8674100D02*
X12740400D01*
X12725400Y8659100D02*
Y8689100D01*
X13675600Y8280400D02*
X13705600D01*
X13690601Y8265400D02*
Y8295400D01*
X12710400Y7035800D02*
X12740400D01*
X12725400Y7020800D02*
Y7050800D01*
X9395700Y7150100D02*
X9425700D01*
X9410700Y7135100D02*
Y7165100D01*
X12634200Y7112000D02*
X12664200D01*
X12649200Y7097000D02*
Y7127000D01*
X9776700Y6870700D02*
X9806700D01*
X9791700Y6855700D02*
Y6885700D01*
X10112441Y6857208D02*
X10142441D01*
X10127441Y6842208D02*
Y6872208D01*
X10056100Y5791200D02*
X10086100D01*
X10071100Y5776200D02*
Y5806200D01*
X9840200Y5803900D02*
X9870200D01*
X9855200Y5788900D02*
Y5818900D01*
X9934560Y5785740D02*
X9964560D01*
X9949560Y5770740D02*
Y5800739D01*
X9684700Y5791200D02*
X9714700D01*
X9699700Y5776200D02*
Y5806200D01*
X9535400Y6032500D02*
X9565400D01*
X9550400Y6017500D02*
Y6047500D01*
X9611600Y5880100D02*
X9641600D01*
X9626600Y5865100D02*
Y5895100D01*
X9916400Y6896100D02*
X9946400D01*
X9931400Y6881100D02*
Y6911100D01*
X10017110Y6871590D02*
X10047110D01*
X10032110Y6856590D02*
Y6886589D01*
%TF.MD5,4939cf93ac9b1ae87e0c3427bd6f7517*%
M02*
