%TF.GenerationSoftware,Altium Limited,Altium Designer,25.6.2 (33)*%
G04 Layer_Color=8388736*
%FSLAX45Y45*%
%MOMM*%
%TF.SameCoordinates,FD7FA593-DE0F-41FC-BB63-5AA315FDC3F2*%
%TF.FilePolarity,Negative*%
%TF.FileFunction,Soldermask,Top*%
%TF.Part,Single*%
G01*
G75*
%TA.AperFunction,SMDPad,CuDef*%
G04:AMPARAMS|DCode=21|XSize=1.4mm|YSize=1.2mm|CornerRadius=0mm|HoleSize=0mm|Usage=FLASHONLY|Rotation=315.000|XOffset=0mm|YOffset=0mm|HoleType=Round|Shape=Rectangle|*
%AMROTATEDRECTD21*
4,1,4,-0.91924,0.07071,-0.07071,0.91924,0.91924,-0.07071,0.07071,-0.91924,-0.91924,0.07071,0.0*
%
%ADD21ROTATEDRECTD21*%

%ADD28R,1.20000X1.20000*%
G04:AMPARAMS|DCode=31|XSize=2.10292mm|YSize=2.8062mm|CornerRadius=0mm|HoleSize=0mm|Usage=FLASHONLY|Rotation=45.000|XOffset=0mm|YOffset=0mm|HoleType=Round|Shape=Rectangle|*
%AMROTATEDRECTD31*
4,1,4,0.24865,-1.73564,-1.73564,0.24865,-0.24865,1.73564,1.73564,-0.24865,0.24865,-1.73564,0.0*
%
%ADD31ROTATEDRECTD31*%

G04:AMPARAMS|DCode=37|XSize=0.29247mm|YSize=1.08107mm|CornerRadius=0.14624mm|HoleSize=0mm|Usage=FLASHONLY|Rotation=270.000|XOffset=0mm|YOffset=0mm|HoleType=Round|Shape=RoundedRectangle|*
%AMROUNDEDRECTD37*
21,1,0.29247,0.78860,0,0,270.0*
21,1,0.00000,1.08107,0,0,270.0*
1,1,0.29247,-0.39430,0.00000*
1,1,0.29247,-0.39430,0.00000*
1,1,0.29247,0.39430,0.00000*
1,1,0.29247,0.39430,0.00000*
%
%ADD37ROUNDEDRECTD37*%
%ADD38R,4.25000X4.25000*%
%ADD39R,0.29247X1.08107*%
G04:AMPARAMS|DCode=40|XSize=1.08107mm|YSize=0.29247mm|CornerRadius=0.14624mm|HoleSize=0mm|Usage=FLASHONLY|Rotation=270.000|XOffset=0mm|YOffset=0mm|HoleType=Round|Shape=RoundedRectangle|*
%AMROUNDEDRECTD40*
21,1,1.08107,0.00000,0,0,270.0*
21,1,0.78860,0.29247,0,0,270.0*
1,1,0.29247,0.00000,-0.39430*
1,1,0.29247,0.00000,0.39430*
1,1,0.29247,0.00000,0.39430*
1,1,0.29247,0.00000,-0.39430*
%
%ADD40ROUNDEDRECTD40*%
%ADD42R,1.20000X1.20000*%
%ADD46R,1.05490X1.35620*%
%ADD50R,0.50000X1.00000*%
G04:AMPARAMS|DCode=51|XSize=2.5mm|YSize=1.7mm|CornerRadius=0mm|HoleSize=0mm|Usage=FLASHONLY|Rotation=225.000|XOffset=0mm|YOffset=0mm|HoleType=Round|Shape=Rectangle|*
%AMROTATEDRECTD51*
4,1,4,0.28284,1.48492,1.48492,0.28284,-0.28284,-1.48492,-1.48492,-0.28284,0.28284,1.48492,0.0*
%
%ADD51ROTATEDRECTD51*%

%TA.AperFunction,ComponentPad*%
%ADD57P,2.17789X4X270.0*%
%ADD58C,1.54000*%
G04:AMPARAMS|DCode=63|XSize=0.9mm|YSize=2.4mm|CornerRadius=0.45mm|HoleSize=0mm|Usage=FLASHONLY|Rotation=180.000|XOffset=0mm|YOffset=0mm|HoleType=Round|Shape=RoundedRectangle|*
%AMROUNDEDRECTD63*
21,1,0.90000,1.50000,0,0,180.0*
21,1,0.00000,2.40000,0,0,180.0*
1,1,0.90000,0.00000,0.75000*
1,1,0.90000,0.00000,0.75000*
1,1,0.90000,0.00000,-0.75000*
1,1,0.90000,0.00000,-0.75000*
%
%ADD63ROUNDEDRECTD63*%
G04:AMPARAMS|DCode=64|XSize=0.9mm|YSize=1.7mm|CornerRadius=0.45mm|HoleSize=0mm|Usage=FLASHONLY|Rotation=180.000|XOffset=0mm|YOffset=0mm|HoleType=Round|Shape=RoundedRectangle|*
%AMROUNDEDRECTD64*
21,1,0.90000,0.80000,0,0,180.0*
21,1,0.00000,1.70000,0,0,180.0*
1,1,0.90000,0.00000,0.40000*
1,1,0.90000,0.00000,0.40000*
1,1,0.90000,0.00000,-0.40000*
1,1,0.90000,0.00000,-0.40000*
%
%ADD64ROUNDEDRECTD64*%
%ADD65C,0.65000*%
%TA.AperFunction,NonConductor*%
%ADD83R,0.52500X0.30000*%
%ADD84R,0.52500X0.30000*%
%ADD85R,0.52500X0.30000*%
%ADD86R,0.52500X0.30000*%
%ADD87R,0.40000X0.52500*%
%ADD88R,0.40000X0.52500*%
%ADD89R,0.40000X0.52500*%
%ADD90R,0.40000X0.52500*%
%TA.AperFunction,SMDPad,CuDef*%
%ADD91R,1.15320X1.25320*%
G04:AMPARAMS|DCode=92|XSize=1.1532mm|YSize=1.0032mm|CornerRadius=0mm|HoleSize=0mm|Usage=FLASHONLY|Rotation=315.000|XOffset=0mm|YOffset=0mm|HoleType=Round|Shape=Rectangle|*
%AMROTATEDRECTD92*
4,1,4,-0.76240,0.05303,-0.05303,0.76240,0.76240,-0.05303,0.05303,-0.76240,-0.76240,0.05303,0.0*
%
%ADD92ROTATEDRECTD92*%

G04:AMPARAMS|DCode=93|XSize=1.2032mm|YSize=1.2532mm|CornerRadius=0mm|HoleSize=0mm|Usage=FLASHONLY|Rotation=135.000|XOffset=0mm|YOffset=0mm|HoleType=Round|Shape=Rectangle|*
%AMROTATEDRECTD93*
4,1,4,0.86847,0.01768,-0.01768,-0.86847,-0.86847,-0.01768,0.01768,0.86847,0.86847,0.01768,0.0*
%
%ADD93ROTATEDRECTD93*%

%ADD94R,1.70320X1.60320*%
%ADD95R,1.25320X1.15320*%
%ADD96R,0.45160X1.45160*%
%ADD97R,1.45160X0.45160*%
%ADD98R,1.65320X2.20320*%
%ADD99R,1.00320X1.70320*%
%ADD100R,0.85320X1.85320*%
G04:AMPARAMS|DCode=101|XSize=1.2032mm|YSize=1.2532mm|CornerRadius=0mm|HoleSize=0mm|Usage=FLASHONLY|Rotation=225.000|XOffset=0mm|YOffset=0mm|HoleType=Round|Shape=Rectangle|*
%AMROTATEDRECTD101*
4,1,4,-0.01768,0.86847,0.86847,-0.01768,0.01768,-0.86847,-0.86847,0.01768,-0.01768,0.86847,0.0*
%
%ADD101ROTATEDRECTD101*%

%ADD102R,1.20320X1.25320*%
%ADD103R,1.00320X1.15320*%
%ADD104R,2.25320X2.25320*%
%ADD105R,1.05320X0.50320*%
%ADD106R,0.70320X0.55320*%
%ADD107R,1.15320X1.00320*%
G04:AMPARAMS|DCode=108|XSize=6.5032mm|YSize=6.3032mm|CornerRadius=0mm|HoleSize=0mm|Usage=FLASHONLY|Rotation=315.000|XOffset=0mm|YOffset=0mm|HoleType=Round|Shape=Rectangle|*
%AMROTATEDRECTD108*
4,1,4,-4.52775,0.07071,-0.07071,4.52775,4.52775,-0.07071,0.07071,-4.52775,-4.52775,0.07071,0.0*
%
%ADD108ROTATEDRECTD108*%

%ADD109R,1.72820X0.85320*%
%ADD110R,0.65320X1.67820*%
%ADD111R,1.60320X1.70320*%
%ADD112R,0.80320X1.30320*%
G04:AMPARAMS|DCode=113|XSize=1.4532mm|YSize=0.8032mm|CornerRadius=0mm|HoleSize=0mm|Usage=FLASHONLY|Rotation=135.000|XOffset=0mm|YOffset=0mm|HoleType=Round|Shape=Rectangle|*
%AMROTATEDRECTD113*
4,1,4,0.79776,-0.22981,0.22981,-0.79776,-0.79776,0.22981,-0.22981,0.79776,0.79776,-0.22981,0.0*
%
%ADD113ROTATEDRECTD113*%

%ADD114R,0.50320X1.05320*%
G04:AMPARAMS|DCode=115|XSize=3.0032mm|YSize=1.7032mm|CornerRadius=0mm|HoleSize=0mm|Usage=FLASHONLY|Rotation=45.000|XOffset=0mm|YOffset=0mm|HoleType=Round|Shape=Rectangle|*
%AMROTATEDRECTD115*
4,1,4,-0.45962,-1.66396,-1.66396,-0.45962,0.45962,1.66396,1.66396,0.45962,-0.45962,-1.66396,0.0*
%
%ADD115ROTATEDRECTD115*%

%ADD116R,1.70320X1.45320*%
%ADD117O,0.45160X1.45160*%
G04:AMPARAMS|DCode=118|XSize=1.1532mm|YSize=1.0032mm|CornerRadius=0mm|HoleSize=0mm|Usage=FLASHONLY|Rotation=225.000|XOffset=0mm|YOffset=0mm|HoleType=Round|Shape=Rectangle|*
%AMROTATEDRECTD118*
4,1,4,0.05303,0.76240,0.76240,0.05303,-0.05303,-0.76240,-0.76240,-0.05303,0.05303,0.76240,0.0*
%
%ADD118ROTATEDRECTD118*%

%TA.AperFunction,ComponentPad*%
%ADD119C,1.62820*%
%ADD120C,1.50320*%
%TA.AperFunction,ViaPad*%
%ADD121C,6.40320*%
%TA.AperFunction,ComponentPad*%
%ADD122C,1.58420*%
%ADD123C,1.40320*%
%ADD124P,2.30262X4X180.0*%
%ADD125P,2.62082X4X360.0*%
%ADD126P,1.98443X4X270.0*%
%ADD127C,1.55320*%
%ADD128R,1.55320X1.55320*%
%ADD129R,1.40320X1.40320*%
%ADD130C,1.85320*%
D21*
X12171578Y6047014D02*
D03*
X12136222Y6322786D02*
D03*
X12016014Y6202578D02*
D03*
X12291786Y6167222D02*
D03*
D28*
X9369200Y9791700D02*
D03*
Y9550400D02*
D03*
X9365800Y9296400D02*
D03*
X9579200Y9791700D02*
D03*
Y9550400D02*
D03*
X9575800Y9296400D02*
D03*
D31*
X8572032Y9384832D02*
D03*
X7860832Y10731032D02*
D03*
X8395168Y9207968D02*
D03*
X7683968Y10554168D02*
D03*
D37*
X10263753Y6468800D02*
D03*
Y6078800D02*
D03*
Y6403800D02*
D03*
X9700647Y6273800D02*
D03*
X10263753Y6338800D02*
D03*
Y6273800D02*
D03*
Y6143800D02*
D03*
Y6208800D02*
D03*
X9700647Y6078800D02*
D03*
Y6143800D02*
D03*
Y6208800D02*
D03*
Y6338800D02*
D03*
Y6403800D02*
D03*
Y6468800D02*
D03*
D38*
X9982200Y6273800D02*
D03*
D39*
X10177200Y6555353D02*
D03*
D40*
X10112200D02*
D03*
X10177200Y5992247D02*
D03*
X10112200D02*
D03*
X10047200D02*
D03*
X9982200D02*
D03*
X9917200D02*
D03*
X9852200D02*
D03*
X9787200D02*
D03*
Y6555353D02*
D03*
X9852200D02*
D03*
X9917200D02*
D03*
X9982200D02*
D03*
X10047200D02*
D03*
D42*
X8267700Y7972200D02*
D03*
X7988300D02*
D03*
Y8182200D02*
D03*
X8267700D02*
D03*
D46*
X7162800Y6794500D02*
D03*
X7017670D02*
D03*
D50*
X11324200Y6273800D02*
D03*
X11434200D02*
D03*
D51*
X7083157Y9991457D02*
D03*
X7366000Y10274300D02*
D03*
D57*
X12110311Y10012391D02*
D03*
D58*
X11650691Y10472011D02*
D03*
X12428509Y10330589D02*
D03*
X11968889Y10790209D02*
D03*
D63*
X9529100Y11685100D02*
D03*
X8664100D02*
D03*
D64*
X9529100Y12023100D02*
D03*
X8664100D02*
D03*
D65*
X9394100Y11722100D02*
D03*
X8799100D02*
D03*
Y11587100D02*
D03*
X9394100D02*
D03*
X9054100Y11722100D02*
D03*
X9139100Y11587100D02*
D03*
Y11722100D02*
D03*
X9054100Y11587100D02*
D03*
X9309100D02*
D03*
X8884100D02*
D03*
Y11722100D02*
D03*
X9309100D02*
D03*
X9224100Y11587100D02*
D03*
X8969100D02*
D03*
Y11722100D02*
D03*
X9224100D02*
D03*
D83*
X10213450Y7771200D02*
D03*
D84*
X10213450Y7721200D02*
D03*
Y7671200D02*
D03*
X9750950D02*
D03*
Y7721200D02*
D03*
Y7771200D02*
D03*
D85*
X10213450Y7621200D02*
D03*
D86*
X9750950D02*
D03*
D87*
X10207200Y7852450D02*
D03*
X10107200Y7852450D02*
D03*
X10007200Y7852450D02*
D03*
X9957200D02*
D03*
X9857200Y7852450D02*
D03*
X9757200Y7852450D02*
D03*
X10207200Y7539950D02*
D03*
X10107200D02*
D03*
X10057200D02*
D03*
X10007200D02*
D03*
X9957200D02*
D03*
X9857200D02*
D03*
X9807200D02*
D03*
X9757200D02*
D03*
D88*
X10157200Y7852450D02*
D03*
X9907200D02*
D03*
D89*
X10057200D02*
D03*
X9807200D02*
D03*
D90*
X10157200Y7539950D02*
D03*
X9907200D02*
D03*
D91*
X13852000Y8775700D02*
D03*
X13707001D02*
D03*
X12302600Y9156700D02*
D03*
X11743800D02*
D03*
X11083400D02*
D03*
X12462400Y6540500D02*
D03*
X11700400Y6527800D02*
D03*
X10443100Y6972300D02*
D03*
Y6807200D02*
D03*
X9470500Y11137900D02*
D03*
X9381600Y10299700D02*
D03*
X8741300Y11137900D02*
D03*
X8746600Y8432800D02*
D03*
X9991200Y8051800D02*
D03*
X8385700Y6578600D02*
D03*
X7162800Y7048500D02*
D03*
X7489300Y6794500D02*
D03*
X12157600Y9156700D02*
D03*
X11598800D02*
D03*
X10938400D02*
D03*
X12607400Y6540500D02*
D03*
X11845400Y6527800D02*
D03*
X9236600Y10299700D02*
D03*
X9846200Y8051800D02*
D03*
X10588100Y6972300D02*
D03*
Y6807200D02*
D03*
X8601600Y8432800D02*
D03*
X8530700Y6578600D02*
D03*
X7344300Y6794500D02*
D03*
X9325500Y11137900D02*
D03*
X8886300D02*
D03*
X7017800Y7048500D02*
D03*
D92*
X12501638Y10571238D02*
D03*
X12641338Y10418838D02*
D03*
X12069838Y10977638D02*
D03*
X12733262Y10510762D02*
D03*
X12161762Y11069562D02*
D03*
X12615938Y9313938D02*
D03*
X12593562Y10663162D02*
D03*
X12707862Y9405862D02*
D03*
D93*
X11920834Y9634834D02*
D03*
X12342167Y5915967D02*
D03*
X12448233Y6022033D02*
D03*
X12026900Y9740900D02*
D03*
D94*
X13220700Y8870700D02*
D03*
X11633200Y11068300D02*
D03*
X11252200Y9353300D02*
D03*
X8521700Y10598400D02*
D03*
X11633200Y11258300D02*
D03*
X8521700Y10788400D02*
D03*
X13220700Y8680700D02*
D03*
X11252200Y9163300D02*
D03*
D95*
X12992101Y9017000D02*
D03*
X11442700Y11205100D02*
D03*
X10528300Y8184100D02*
D03*
X13220700Y8093600D02*
D03*
Y6950600D02*
D03*
Y7598300D02*
D03*
X10541000Y7676100D02*
D03*
X11150600Y6315600D02*
D03*
X10439400Y6460600D02*
D03*
X9677400Y8781000D02*
D03*
X8724900Y10620900D02*
D03*
X6781800Y8715900D02*
D03*
X6604000Y6994000D02*
D03*
Y6849000D02*
D03*
X12992101Y8872000D02*
D03*
X13220700Y8238600D02*
D03*
X11442700Y11350100D02*
D03*
X13220700Y7743300D02*
D03*
Y7095600D02*
D03*
X11150600Y6460600D02*
D03*
X9677400Y8636000D02*
D03*
X8724900Y10765900D02*
D03*
X6781800Y8860900D02*
D03*
X10528300Y8039100D02*
D03*
X10541000Y7531100D02*
D03*
X10439400Y6315600D02*
D03*
X6781800Y8568800D02*
D03*
Y8423800D02*
D03*
D96*
X12253801Y8877399D02*
D03*
X11703802D02*
D03*
X11053803D02*
D03*
X12503800Y6752402D02*
D03*
X11753802D02*
D03*
X12203801Y8877399D02*
D03*
X11653802D02*
D03*
X11003803D02*
D03*
X12603800Y6752402D02*
D03*
X12553800D02*
D03*
X12453801D02*
D03*
X11803802D02*
D03*
X11253803D02*
D03*
X11103803Y8877399D02*
D03*
X11153803D02*
D03*
X11203803D02*
D03*
X11253803D02*
D03*
X11303803D02*
D03*
X11353803D02*
D03*
X11403803D02*
D03*
X11453803D02*
D03*
X11503802D02*
D03*
X11553802D02*
D03*
X11603802D02*
D03*
X11753802D02*
D03*
X11803802D02*
D03*
X11853802D02*
D03*
X11903802D02*
D03*
X11953802D02*
D03*
X12003801D02*
D03*
X12053801D02*
D03*
X12103801D02*
D03*
X12153801D02*
D03*
X12303801D02*
D03*
X12353801D02*
D03*
X12403801D02*
D03*
X12453801D02*
D03*
X12503800D02*
D03*
X12553800D02*
D03*
X12603800D02*
D03*
X12653800D02*
D03*
X12703800D02*
D03*
X12753800D02*
D03*
Y6752402D02*
D03*
X12703800D02*
D03*
X12653800D02*
D03*
X12403801D02*
D03*
X12353801D02*
D03*
X12303801D02*
D03*
X12253801D02*
D03*
X12203801D02*
D03*
X12153801D02*
D03*
X12103801D02*
D03*
X12053801D02*
D03*
X12003801D02*
D03*
X11953802D02*
D03*
X11903802D02*
D03*
X11853802D02*
D03*
X11703802D02*
D03*
X11653802D02*
D03*
X11603802D02*
D03*
X11553802D02*
D03*
X11503802D02*
D03*
X11453803D02*
D03*
X11403803D02*
D03*
X11353803D02*
D03*
X11303803D02*
D03*
X11203803D02*
D03*
X11153803D02*
D03*
X11103803D02*
D03*
X11053803D02*
D03*
D97*
X12941299Y8139900D02*
D03*
X10816303D02*
D03*
X12941299Y7639901D02*
D03*
Y6989902D02*
D03*
X10816303Y7639901D02*
D03*
X12941299Y8689899D02*
D03*
Y8189900D02*
D03*
Y7689901D02*
D03*
Y7039902D02*
D03*
X10816303Y7589901D02*
D03*
Y8089900D02*
D03*
Y6989902D02*
D03*
Y6939902D02*
D03*
Y7039902D02*
D03*
Y7089902D02*
D03*
Y7139902D02*
D03*
Y7189902D02*
D03*
Y7239902D02*
D03*
Y7289902D02*
D03*
Y7339902D02*
D03*
Y7389901D02*
D03*
Y7439901D02*
D03*
Y7489901D02*
D03*
Y7539901D02*
D03*
Y7689901D02*
D03*
Y7739901D02*
D03*
Y7789901D02*
D03*
Y7839900D02*
D03*
Y7889900D02*
D03*
Y7939900D02*
D03*
Y7989900D02*
D03*
Y8039900D02*
D03*
Y8189900D02*
D03*
Y8239900D02*
D03*
Y8289900D02*
D03*
Y8339899D02*
D03*
Y8389899D02*
D03*
Y8439899D02*
D03*
Y8489899D02*
D03*
Y8539899D02*
D03*
Y8589899D02*
D03*
Y8639899D02*
D03*
Y8689899D02*
D03*
X12941299Y8639899D02*
D03*
Y8589899D02*
D03*
Y8539899D02*
D03*
Y8489899D02*
D03*
Y8439899D02*
D03*
Y8389899D02*
D03*
Y8339899D02*
D03*
Y8289900D02*
D03*
Y8239900D02*
D03*
Y8089900D02*
D03*
Y8039900D02*
D03*
Y7989900D02*
D03*
Y7939900D02*
D03*
Y7889900D02*
D03*
Y7839900D02*
D03*
Y7789901D02*
D03*
Y7739901D02*
D03*
Y7589901D02*
D03*
Y7539901D02*
D03*
Y7489901D02*
D03*
Y7439901D02*
D03*
Y7389901D02*
D03*
Y7339902D02*
D03*
Y7289902D02*
D03*
Y7239902D02*
D03*
Y7189902D02*
D03*
Y7139902D02*
D03*
Y7089902D02*
D03*
Y6939902D02*
D03*
D98*
X11253900Y11907800D02*
D03*
Y11077800D02*
D03*
X9878900Y11907800D02*
D03*
Y11077800D02*
D03*
D99*
X10336400Y11337800D02*
D03*
X10556400D02*
D03*
X10116400D02*
D03*
X10886400D02*
D03*
X10776400D02*
D03*
X10226400D02*
D03*
X10446400D02*
D03*
X10666400D02*
D03*
D100*
X14084300Y7869600D02*
D03*
X13703300Y8589600D02*
D03*
Y7869600D02*
D03*
X13830299D02*
D03*
X13957300D02*
D03*
X14084300Y8589600D02*
D03*
X13957300D02*
D03*
X13830299D02*
D03*
D101*
X11952933Y5941367D02*
D03*
X11846867Y6047433D02*
D03*
D102*
X11480800Y5895200D02*
D03*
X11290300D02*
D03*
Y6045200D02*
D03*
X11480800D02*
D03*
D103*
X9653500Y11366500D02*
D03*
X7951700Y7518400D02*
D03*
Y7353300D02*
D03*
X13831799Y7632700D02*
D03*
X9945600Y9791700D02*
D03*
X10225000Y7315200D02*
D03*
X9523500Y8445500D02*
D03*
X9310600Y7785100D02*
D03*
X9310600Y7607300D02*
D03*
X7821700Y7518400D02*
D03*
Y7353300D02*
D03*
X9180600Y7785100D02*
D03*
X9653500Y8445500D02*
D03*
X9944100Y9550400D02*
D03*
X13701801Y7632700D02*
D03*
X9945600Y9296400D02*
D03*
X10095000Y7315200D02*
D03*
X9815600Y9296400D02*
D03*
X9814100Y9550400D02*
D03*
X9815600Y9791700D02*
D03*
X9523500Y11366500D02*
D03*
X9180600Y7607300D02*
D03*
X6592800Y8585200D02*
D03*
X6462800D02*
D03*
X6592800Y8420100D02*
D03*
X6462800D02*
D03*
D104*
X9131300Y10668000D02*
D03*
D105*
X8936300D02*
D03*
X9326300D02*
D03*
X8936300Y10718000D02*
D03*
X9326300Y10568000D02*
D03*
Y10618000D02*
D03*
Y10718000D02*
D03*
Y10768000D02*
D03*
X8936300D02*
D03*
Y10618000D02*
D03*
Y10568000D02*
D03*
D106*
X10084700Y8822400D02*
D03*
X9879700Y8757400D02*
D03*
X10084700D02*
D03*
X9879700Y8692400D02*
D03*
Y8822400D02*
D03*
Y8627400D02*
D03*
X10084700D02*
D03*
Y8692400D02*
D03*
D107*
X8496300Y12091900D02*
D03*
X10947400Y10437900D02*
D03*
X10795000D02*
D03*
X10642600D02*
D03*
X10109200Y10450600D02*
D03*
X10261600D02*
D03*
X7099300Y9334500D02*
D03*
X6934200Y9336000D02*
D03*
X9588500Y7762700D02*
D03*
X8115300Y6427700D02*
D03*
X9042400Y11136400D02*
D03*
Y11266400D02*
D03*
X9169400Y11136400D02*
D03*
Y11266400D02*
D03*
X10109200Y10580600D02*
D03*
X10947400Y10567900D02*
D03*
X10795000D02*
D03*
X10261600Y10580600D02*
D03*
X7988300Y8393200D02*
D03*
Y8523200D02*
D03*
X10642600Y10567900D02*
D03*
X7099300Y9204500D02*
D03*
X8267700Y8523200D02*
D03*
X6934200Y9206000D02*
D03*
X9588500Y7632700D02*
D03*
X8267700Y8393200D02*
D03*
X6731000Y7494500D02*
D03*
Y7364500D02*
D03*
X8115300Y6297700D02*
D03*
X8496300Y11961900D02*
D03*
D108*
X8280400Y10020300D02*
D03*
D109*
X7561000Y8559800D02*
D03*
Y8432800D02*
D03*
X7018600Y8686800D02*
D03*
Y7620000D02*
D03*
Y8813800D02*
D03*
X7561000Y7366000D02*
D03*
Y7493000D02*
D03*
Y7239000D02*
D03*
Y7620000D02*
D03*
Y8813800D02*
D03*
Y8686800D02*
D03*
X7018600Y7239000D02*
D03*
Y7366000D02*
D03*
Y7493000D02*
D03*
Y8432800D02*
D03*
Y8559800D02*
D03*
D110*
X8732000Y8222200D02*
D03*
X8667000D02*
D03*
X8797000Y7779800D02*
D03*
Y8222200D02*
D03*
X8602000D02*
D03*
X8667000Y7779800D02*
D03*
X8602000D02*
D03*
X8732000D02*
D03*
D111*
X9709400Y7277100D02*
D03*
X9899400D02*
D03*
D112*
X8411400Y6375400D02*
D03*
X8286400Y6155400D02*
D03*
X8661400Y6375400D02*
D03*
X8536400D02*
D03*
X8661400Y6155400D02*
D03*
X8536400D02*
D03*
X8411400D02*
D03*
X8286400Y6375400D02*
D03*
D113*
X12365036Y9652121D02*
D03*
X12581057Y9571157D02*
D03*
X12446000Y9436100D02*
D03*
D114*
X9231300Y10473000D02*
D03*
X9031300Y10863000D02*
D03*
X9181300Y10473000D02*
D03*
X9231300Y10863000D02*
D03*
X9181300D02*
D03*
X9131300D02*
D03*
X9081300D02*
D03*
X9031300Y10473000D02*
D03*
X9081300D02*
D03*
X9131300D02*
D03*
D115*
X8000103Y9416713D02*
D03*
X7676813Y9740003D02*
D03*
D116*
X6248400Y8656100D02*
D03*
Y8311100D02*
D03*
D117*
X11003803Y6752402D02*
D03*
D118*
X12260338Y6497562D02*
D03*
X12352262Y6405638D02*
D03*
D119*
X12933765Y10983779D02*
D03*
X12792343Y11125200D02*
D03*
X12509500Y11408043D02*
D03*
X12650921Y11266621D02*
D03*
X12933765Y10700936D02*
D03*
X12509500Y11125200D02*
D03*
X12368079Y11266621D02*
D03*
X12792342Y10842357D02*
D03*
X12650921Y10983779D02*
D03*
D120*
X13568764Y9596036D02*
D03*
X13144501Y10020300D02*
D03*
D121*
X11785600Y11709400D02*
D03*
Y3683000D02*
D03*
X8166100Y11709400D02*
D03*
Y3683000D02*
D03*
D122*
X13703300Y7273900D02*
D03*
Y6673900D02*
D03*
X12489264Y4932764D02*
D03*
X12065000Y4508500D02*
D03*
X7629257Y4778643D02*
D03*
X7487836Y4920064D02*
D03*
X6235700Y6845300D02*
D03*
Y7445300D02*
D03*
X8053521Y4354379D02*
D03*
X13057321Y5500821D02*
D03*
X7912100Y4495800D02*
D03*
X7204993Y5202907D02*
D03*
X10709300Y3962400D02*
D03*
X12347843Y4791343D02*
D03*
X10509300Y3962400D02*
D03*
X7346415Y5061485D02*
D03*
X12206421Y4649921D02*
D03*
X13703300Y6873900D02*
D03*
X10909300Y3962400D02*
D03*
X12915900Y5359400D02*
D03*
X7770679Y4637221D02*
D03*
X13703300Y7073900D02*
D03*
X6294036Y6113864D02*
D03*
X11109300Y3962400D02*
D03*
X7063572Y5344328D02*
D03*
X6576879Y5831021D02*
D03*
X13340164Y5783664D02*
D03*
X6435457Y5972443D02*
D03*
X13198743Y5642243D02*
D03*
X6718300Y5689600D02*
D03*
X6235700Y7045300D02*
D03*
Y7245300D02*
D03*
D123*
X6502400Y10198100D02*
D03*
X5702300Y8619300D02*
D03*
D124*
X13075185Y10842357D02*
D03*
D125*
X11580595Y10098305D02*
D03*
D126*
X6679177Y10374877D02*
D03*
D127*
X9880600Y3987800D02*
D03*
X9680600D02*
D03*
X9480600D02*
D03*
X9280600D02*
D03*
X9080600D02*
D03*
D128*
X8880600D02*
D03*
D129*
X5702300Y8369300D02*
D03*
D130*
X11760200Y9918700D02*
D03*
%TF.MD5,28e6a55c489f3ed7b81177ec0aac68a4*%
M02*
