%TF.GenerationSoftware,Altium Limited,Altium Designer,25.6.2 (33)*%
G04 Layer_Physical_Order=3*
G04 Layer_Color=16440176*
%FSLAX45Y45*%
%MOMM*%
%TF.SameCoordinates,FD7FA593-DE0F-41FC-BB63-5AA315FDC3F2*%
%TF.FilePolarity,Positive*%
%TF.FileFunction,Copper,L3,Inr,Signal*%
%TF.Part,Single*%
G01*
G75*
%TA.AperFunction,ComponentPad*%
%ADD57P,2.17789X4X270.0*%
%ADD58C,1.54000*%
%ADD59C,1.42500*%
%ADD60C,1.30000*%
%TA.AperFunction,ViaPad*%
%ADD61C,6.20000*%
%TA.AperFunction,ComponentPad*%
%ADD62C,1.38100*%
G04:AMPARAMS|DCode=63|XSize=0.9mm|YSize=2.4mm|CornerRadius=0.45mm|HoleSize=0mm|Usage=FLASHONLY|Rotation=180.000|XOffset=0mm|YOffset=0mm|HoleType=Round|Shape=RoundedRectangle|*
%AMROUNDEDRECTD63*
21,1,0.90000,1.50000,0,0,180.0*
21,1,0.00000,2.40000,0,0,180.0*
1,1,0.90000,0.00000,0.75000*
1,1,0.90000,0.00000,0.75000*
1,1,0.90000,0.00000,-0.75000*
1,1,0.90000,0.00000,-0.75000*
%
%ADD63ROUNDEDRECTD63*%
G04:AMPARAMS|DCode=64|XSize=0.9mm|YSize=1.7mm|CornerRadius=0.45mm|HoleSize=0mm|Usage=FLASHONLY|Rotation=180.000|XOffset=0mm|YOffset=0mm|HoleType=Round|Shape=RoundedRectangle|*
%AMROUNDEDRECTD64*
21,1,0.90000,0.80000,0,0,180.0*
21,1,0.00000,1.70000,0,0,180.0*
1,1,0.90000,0.00000,0.40000*
1,1,0.90000,0.00000,0.40000*
1,1,0.90000,0.00000,-0.40000*
1,1,0.90000,0.00000,-0.40000*
%
%ADD64ROUNDEDRECTD64*%
%ADD65C,0.65000*%
%ADD66C,1.20000*%
%ADD67P,2.01526X4X180.0*%
%ADD68P,2.33345X4X360.0*%
%ADD69P,1.69706X4X270.0*%
%ADD70C,1.35000*%
%ADD71R,1.35000X1.35000*%
%ADD72R,1.20000X1.20000*%
%ADD73C,1.65000*%
%TA.AperFunction,ViaPad*%
%ADD74C,0.70000*%
G36*
X11309550Y12247848D02*
X11425552Y12232576D01*
X11540306Y12209750D01*
X11653322Y12179467D01*
X11764115Y12141857D01*
X11872210Y12097081D01*
X11977146Y12045332D01*
X12078473Y11986829D01*
X12175756Y11921825D01*
X12268579Y11850597D01*
X12356545Y11773450D01*
X12397910Y11732082D01*
X12397910D01*
X12397917Y11732083D01*
X14092117Y10037882D01*
X14127634Y10002366D01*
X14193871Y9926840D01*
X14255026Y9847144D01*
X14310837Y9763618D01*
X14361066Y9676621D01*
X14405495Y9586524D01*
X14443938Y9493715D01*
X14476227Y9398590D01*
X14502225Y9301556D01*
X14521822Y9203030D01*
X14534930Y9103433D01*
X14541496Y9003192D01*
X14541496Y8952964D01*
X14541495Y8952964D01*
X14541499Y8952961D01*
X14541499Y6357964D01*
X14541501Y6312167D01*
X14535512Y6220768D01*
X14523558Y6129956D01*
X14505690Y6040121D01*
X14481984Y5951647D01*
X14452542Y5864913D01*
X14417490Y5780291D01*
X14376978Y5698142D01*
X14331178Y5618819D01*
X14280290Y5542662D01*
X14224529Y5469996D01*
X14164134Y5401133D01*
X14131749Y5368751D01*
X14131749Y5368751D01*
X14131750Y5368750D01*
X12323885Y3560885D01*
X12287366Y3524364D01*
X12209706Y3456255D01*
X12127758Y3393372D01*
X12041872Y3335983D01*
X11952416Y3284335D01*
X11859773Y3238648D01*
X11764341Y3199119D01*
X11666528Y3165917D01*
X11566752Y3139183D01*
X11465442Y3119033D01*
X11363030Y3105552D01*
X11259956Y3098798D01*
X11208308Y3098800D01*
X8707469D01*
X8657657Y3098799D01*
X8558246Y3105314D01*
X8459474Y3118317D01*
X8361764Y3137752D01*
X8265534Y3163537D01*
X8171197Y3195560D01*
X8079156Y3233684D01*
X7989805Y3277747D01*
X7903528Y3327559D01*
X7820694Y3382908D01*
X7741657Y3443555D01*
X7666756Y3509243D01*
X7631534Y3544465D01*
X7631534Y3544466D01*
X5911927Y5264073D01*
X5871270Y5304730D01*
X5795450Y5391188D01*
X5725446Y5482420D01*
X5661558Y5578035D01*
X5604061Y5677623D01*
X5553201Y5780759D01*
X5509194Y5887000D01*
X5472230Y5995892D01*
X5442467Y6106968D01*
X5420032Y6219753D01*
X5405022Y6333764D01*
X5397500Y6448513D01*
X5397500Y6506010D01*
X5397500Y8922310D01*
X5397499Y8974961D01*
X5404386Y9080038D01*
X5418131Y9184439D01*
X5438674Y9287718D01*
X5465928Y9389432D01*
X5499776Y9489146D01*
X5540074Y9586432D01*
X5586648Y9680874D01*
X5639299Y9772069D01*
X5697802Y9859624D01*
X5761906Y9943166D01*
X5831336Y10022336D01*
X5868566Y10059566D01*
Y10059566D01*
X7571754Y11762754D01*
X7610697Y11801698D01*
X7693511Y11874324D01*
X7780898Y11941378D01*
X7872483Y12002573D01*
X7967874Y12057648D01*
X8066663Y12106365D01*
X8168427Y12148517D01*
X8272730Y12183923D01*
X8379126Y12212431D01*
X8487158Y12233920D01*
X8596364Y12248297D01*
X8706277Y12255500D01*
X8761351Y12255499D01*
X8761352Y12255500D01*
X9220200D01*
X11134297Y12255499D01*
X11192798Y12255500D01*
X11309550Y12247848D01*
D02*
G37*
%LPC*%
G36*
X9320617Y11780000D02*
X9297583D01*
X9276302Y11771185D01*
X9266600Y11761483D01*
X9256898Y11771185D01*
X9235617Y11780000D01*
X9212583D01*
X9191302Y11771185D01*
X9175015Y11754898D01*
X9170194Y11753939D01*
X9164307Y11759825D01*
X9147952Y11766600D01*
X9130248D01*
X9113893Y11759825D01*
X9113193Y11759126D01*
X9096600Y11749948D01*
X9080007Y11759126D01*
X9079307Y11759825D01*
X9062952Y11766600D01*
X9045248D01*
X9028893Y11759825D01*
X9023006Y11753939D01*
X9018185Y11754898D01*
X9001898Y11771185D01*
X8980617Y11780000D01*
X8957583D01*
X8936302Y11771185D01*
X8926600Y11761483D01*
X8916898Y11771185D01*
X8895617Y11780000D01*
X8872583D01*
X8851302Y11771185D01*
X8835015Y11754898D01*
X8826200Y11733617D01*
Y11710583D01*
X8835015Y11689302D01*
X8851302Y11673015D01*
X8862573Y11668346D01*
Y11640854D01*
X8851302Y11636185D01*
X8835015Y11619898D01*
X8826200Y11598617D01*
Y11575583D01*
X8835015Y11554302D01*
X8851302Y11538015D01*
X8872583Y11529200D01*
X8895617D01*
X8916898Y11538015D01*
X8926600Y11547717D01*
X8936302Y11538015D01*
X8957583Y11529200D01*
X8980617D01*
X9001898Y11538015D01*
X9018185Y11554302D01*
X9023006Y11555261D01*
X9028893Y11549375D01*
X9045248Y11542600D01*
X9062952D01*
X9079307Y11549375D01*
X9080007Y11550074D01*
X9096600Y11559252D01*
X9113193Y11550074D01*
X9113893Y11549375D01*
X9130248Y11542600D01*
X9147952D01*
X9164307Y11549375D01*
X9170194Y11555261D01*
X9175015Y11554302D01*
X9191302Y11538015D01*
X9212583Y11529200D01*
X9235617D01*
X9256898Y11538015D01*
X9266600Y11547717D01*
X9276302Y11538015D01*
X9297583Y11529200D01*
X9320617D01*
X9341898Y11538015D01*
X9358185Y11554302D01*
X9367000Y11575583D01*
Y11598617D01*
X9358185Y11619898D01*
X9341898Y11636185D01*
X9330628Y11640854D01*
Y11668346D01*
X9341898Y11673015D01*
X9358185Y11689302D01*
X9367000Y11710583D01*
Y11733617D01*
X9358185Y11754898D01*
X9341898Y11771185D01*
X9320617Y11780000D01*
D02*
G37*
G36*
X12280214Y11503100D02*
X12256186D01*
X12233986Y11493905D01*
X12216995Y11476914D01*
X12207800Y11454714D01*
Y11430686D01*
X12216995Y11408486D01*
X12233986Y11391495D01*
X12256186Y11382300D01*
X12280214D01*
X12302414Y11391495D01*
X12319405Y11408486D01*
X12328600Y11430686D01*
Y11454714D01*
X12319405Y11476914D01*
X12302414Y11493905D01*
X12280214Y11503100D01*
D02*
G37*
G36*
X12663645Y11363271D02*
X12638197D01*
X12613616Y11356685D01*
X12591577Y11343961D01*
X12573582Y11325966D01*
X12560858Y11303927D01*
X12554271Y11279345D01*
Y11253897D01*
X12558701Y11237366D01*
X12555628Y11231658D01*
X12544464Y11220493D01*
X12538755Y11217421D01*
X12522224Y11221850D01*
X12496776D01*
X12480245Y11217421D01*
X12474537Y11220492D01*
X12463371Y11231658D01*
X12460299Y11237366D01*
X12464729Y11253897D01*
Y11279345D01*
X12458142Y11303927D01*
X12445418Y11325966D01*
X12427423Y11343960D01*
X12405384Y11356684D01*
X12380803Y11363271D01*
X12355355D01*
X12330773Y11356684D01*
X12308734Y11343960D01*
X12290739Y11325966D01*
X12278015Y11303927D01*
X12271429Y11279345D01*
Y11253897D01*
X12278015Y11229316D01*
X12290739Y11207277D01*
X12308734Y11189282D01*
X12330773Y11176558D01*
X12355355Y11169971D01*
X12380803D01*
X12397334Y11174401D01*
X12403041Y11171329D01*
X12414207Y11160163D01*
X12417279Y11154455D01*
X12412850Y11137924D01*
Y11112476D01*
X12419437Y11087895D01*
X12432161Y11065855D01*
X12450155Y11047861D01*
X12472195Y11035137D01*
X12496776Y11028550D01*
X12522224D01*
X12538755Y11032979D01*
X12544464Y11029907D01*
X12555628Y11018742D01*
X12558701Y11013034D01*
X12554271Y10996503D01*
Y10971055D01*
X12560858Y10946473D01*
X12573582Y10924434D01*
X12591577Y10906439D01*
X12613616Y10893715D01*
X12638197Y10887129D01*
X12663645D01*
X12680176Y10891558D01*
X12685884Y10888486D01*
X12697050Y10877320D01*
X12700122Y10871612D01*
X12695692Y10855081D01*
Y10829633D01*
X12702279Y10805052D01*
X12715003Y10783013D01*
X12732998Y10765018D01*
X12755037Y10752294D01*
X12779618Y10745707D01*
X12805067D01*
X12821597Y10750137D01*
X12827307Y10747064D01*
X12838470Y10735900D01*
X12841544Y10730191D01*
X12837114Y10713660D01*
Y10688212D01*
X12843701Y10663630D01*
X12856425Y10641591D01*
X12874420Y10623597D01*
X12896458Y10610873D01*
X12921040Y10604286D01*
X12946487D01*
X12971069Y10610873D01*
X12993109Y10623597D01*
X13011102Y10641591D01*
X13023827Y10663630D01*
X13030414Y10688212D01*
Y10713660D01*
X13030098Y10714840D01*
X13052872Y10727988D01*
X13075185Y10705674D01*
X13211868Y10842357D01*
X13075185Y10979041D01*
X12938503Y10842357D01*
X12960815Y10820043D01*
X12947668Y10797270D01*
X12946487Y10797586D01*
X12921040D01*
X12904509Y10793156D01*
X12898801Y10796229D01*
X12887636Y10807393D01*
X12884563Y10813102D01*
X12888992Y10829633D01*
Y10855081D01*
X12882407Y10879663D01*
X12869682Y10901702D01*
X12851688Y10919696D01*
X12829648Y10932421D01*
X12805067Y10939007D01*
X12779618D01*
X12763088Y10934578D01*
X12757379Y10937650D01*
X12746214Y10948816D01*
X12743142Y10954524D01*
X12747571Y10971055D01*
Y10996503D01*
X12740985Y11021084D01*
X12728261Y11043123D01*
X12710266Y11061118D01*
X12688227Y11073842D01*
X12663645Y11080429D01*
X12638197D01*
X12621666Y11075999D01*
X12615958Y11079072D01*
X12604793Y11090236D01*
X12601721Y11095945D01*
X12606150Y11112476D01*
Y11137924D01*
X12601721Y11154455D01*
X12604793Y11160164D01*
X12615958Y11171328D01*
X12621666Y11174401D01*
X12638197Y11169971D01*
X12663645D01*
X12688227Y11176558D01*
X12710266Y11189282D01*
X12728261Y11207277D01*
X12740985Y11229316D01*
X12747571Y11253897D01*
Y11279345D01*
X12740985Y11303927D01*
X12728261Y11325966D01*
X12710266Y11343961D01*
X12688227Y11356685D01*
X12663645Y11363271D01*
D02*
G37*
G36*
X11941521Y11178369D02*
X11917493D01*
X11895293Y11169174D01*
X11878302Y11152183D01*
X11869107Y11129983D01*
Y11105955D01*
X11878302Y11083755D01*
X11895293Y11066765D01*
X11917493Y11057569D01*
X11941521D01*
X11963721Y11066765D01*
X11980712Y11083755D01*
X11989907Y11105955D01*
Y11129983D01*
X11980712Y11152183D01*
X11963721Y11169174D01*
X11941521Y11178369D01*
D02*
G37*
G36*
X10458414Y10887800D02*
X10434386D01*
X10412186Y10878605D01*
X10395196Y10861614D01*
X10386000Y10839414D01*
Y10815386D01*
X10395196Y10793186D01*
X10412186Y10776196D01*
X10434386Y10767000D01*
X10458414D01*
X10480614Y10776196D01*
X10497605Y10793186D01*
X10506800Y10815386D01*
Y10839414D01*
X10497605Y10861614D01*
X10480614Y10878605D01*
X10458414Y10887800D01*
D02*
G37*
G36*
X10654614Y10842700D02*
X10630586D01*
X10608386Y10833505D01*
X10591395Y10816514D01*
X10582200Y10794314D01*
Y10770286D01*
X10591395Y10748086D01*
X10608386Y10731095D01*
X10630586Y10721900D01*
X10654614D01*
X10676814Y10731095D01*
X10693805Y10748086D01*
X10703000Y10770286D01*
Y10794314D01*
X10693805Y10816514D01*
X10676814Y10833505D01*
X10654614Y10842700D01*
D02*
G37*
G36*
X8254314D02*
X8230286D01*
X8208086Y10833505D01*
X8191095Y10816514D01*
X8181900Y10794314D01*
Y10770286D01*
X8191095Y10748086D01*
X8208086Y10731095D01*
X8230286Y10721900D01*
X8254314D01*
X8276514Y10731095D01*
X8293505Y10748086D01*
X8302700Y10770286D01*
Y10794314D01*
X8293505Y10816514D01*
X8276514Y10833505D01*
X8254314Y10842700D01*
D02*
G37*
G36*
X10121214Y10817300D02*
X10097186D01*
X10074986Y10808105D01*
X10057995Y10791114D01*
X10048800Y10768914D01*
Y10744886D01*
X10057995Y10722686D01*
X10074986Y10705695D01*
X10097186Y10696500D01*
X10121214D01*
X10143414Y10705695D01*
X10160405Y10722686D01*
X10169600Y10744886D01*
Y10768914D01*
X10160405Y10791114D01*
X10143414Y10808105D01*
X10121214Y10817300D01*
D02*
G37*
G36*
X10794314Y10791900D02*
X10770286D01*
X10748086Y10782705D01*
X10731095Y10765714D01*
X10721900Y10743514D01*
Y10719486D01*
X10731095Y10697286D01*
X10748086Y10680295D01*
X10770286Y10671100D01*
X10794314D01*
X10816514Y10680295D01*
X10833505Y10697286D01*
X10842700Y10719486D01*
Y10743514D01*
X10833505Y10765714D01*
X10816514Y10782705D01*
X10794314Y10791900D01*
D02*
G37*
G36*
X11276914Y10766500D02*
X11252886D01*
X11230686Y10757305D01*
X11213695Y10740314D01*
X11204500Y10718114D01*
Y10694086D01*
X11213695Y10671886D01*
X11230686Y10654895D01*
X11252886Y10645700D01*
X11276914D01*
X11299114Y10654895D01*
X11316105Y10671886D01*
X11325300Y10694086D01*
Y10718114D01*
X11316105Y10740314D01*
X11299114Y10757305D01*
X11276914Y10766500D01*
D02*
G37*
G36*
X10946714D02*
X10922686D01*
X10900486Y10757305D01*
X10883495Y10740314D01*
X10874300Y10718114D01*
Y10694086D01*
X10883495Y10671886D01*
X10900486Y10654895D01*
X10922686Y10645700D01*
X10946714D01*
X10968914Y10654895D01*
X10985905Y10671886D01*
X10995100Y10694086D01*
Y10718114D01*
X10985905Y10740314D01*
X10968914Y10757305D01*
X10946714Y10766500D01*
D02*
G37*
G36*
X13296214Y10628521D02*
X13272186D01*
X13249986Y10619326D01*
X13232996Y10602335D01*
X13223801Y10580136D01*
Y10556107D01*
X13232996Y10533908D01*
X13249986Y10516917D01*
X13272186Y10507721D01*
X13296214D01*
X13318414Y10516917D01*
X13335405Y10533908D01*
X13344600Y10556107D01*
Y10580136D01*
X13335405Y10602335D01*
X13318414Y10619326D01*
X13296214Y10628521D01*
D02*
G37*
G36*
X10438714Y10576000D02*
X10414686D01*
X10392486Y10566805D01*
X10375495Y10549814D01*
X10366300Y10527614D01*
Y10503586D01*
X10375495Y10481386D01*
X10392486Y10464395D01*
X10414686Y10455200D01*
X10438714D01*
X10460914Y10464395D01*
X10477905Y10481386D01*
X10487100Y10503586D01*
Y10527614D01*
X10477905Y10549814D01*
X10460914Y10566805D01*
X10438714Y10576000D01*
D02*
G37*
G36*
X11664173Y10574411D02*
X11637210D01*
X11611167Y10567432D01*
X11587816Y10553951D01*
X11568751Y10534886D01*
X11555270Y10511535D01*
X11548291Y10485492D01*
Y10458530D01*
X11555270Y10432486D01*
X11568751Y10409136D01*
X11587816Y10390070D01*
X11611167Y10376589D01*
X11637210Y10369611D01*
X11664173D01*
X11690216Y10376589D01*
X11713566Y10390070D01*
X11732632Y10409136D01*
X11746113Y10432486D01*
X11753091Y10458530D01*
Y10485492D01*
X11746113Y10511535D01*
X11732632Y10534886D01*
X11713566Y10553951D01*
X11690216Y10567432D01*
X11664173Y10574411D01*
D02*
G37*
G36*
X10489514Y10436300D02*
X10465486D01*
X10443286Y10427105D01*
X10426295Y10410114D01*
X10417100Y10387914D01*
Y10363886D01*
X10426295Y10341686D01*
X10443286Y10324695D01*
X10465486Y10315500D01*
X10489514D01*
X10511714Y10324695D01*
X10528705Y10341686D01*
X10537900Y10363886D01*
Y10387914D01*
X10528705Y10410114D01*
X10511714Y10427105D01*
X10489514Y10436300D01*
D02*
G37*
G36*
X9791014Y10423600D02*
X9766986D01*
X9744786Y10414405D01*
X9727795Y10397414D01*
X9718600Y10375214D01*
Y10351186D01*
X9727795Y10328986D01*
X9744786Y10311995D01*
X9766986Y10302800D01*
X9791014D01*
X9813214Y10311995D01*
X9830205Y10328986D01*
X9839400Y10351186D01*
Y10375214D01*
X9830205Y10397414D01*
X9813214Y10414405D01*
X9791014Y10423600D01*
D02*
G37*
G36*
X6679177Y10495650D02*
X6558403Y10374877D01*
X6679177Y10254103D01*
X6799950Y10374877D01*
X6679177Y10495650D01*
D02*
G37*
G36*
X12851714Y10283900D02*
X12827686D01*
X12805486Y10274705D01*
X12788495Y10257714D01*
X12779300Y10235514D01*
Y10211486D01*
X12788495Y10189286D01*
X12805486Y10172295D01*
X12827686Y10163100D01*
X12851714D01*
X12873914Y10172295D01*
X12890906Y10189286D01*
X12900101Y10211486D01*
Y10235514D01*
X12890906Y10257714D01*
X12873914Y10274705D01*
X12851714Y10283900D01*
D02*
G37*
G36*
X9257614Y10220400D02*
X9233586D01*
X9211386Y10211205D01*
X9194395Y10194214D01*
X9185200Y10172014D01*
Y10147986D01*
X9194395Y10125786D01*
X9211386Y10108795D01*
X9233586Y10099600D01*
X9257614D01*
X9279814Y10108795D01*
X9296805Y10125786D01*
X9306000Y10147986D01*
Y10172014D01*
X9296805Y10194214D01*
X9279814Y10211205D01*
X9257614Y10220400D01*
D02*
G37*
G36*
X9664014Y10195000D02*
X9639986D01*
X9617786Y10185805D01*
X9600795Y10168814D01*
X9591600Y10146614D01*
Y10122586D01*
X9600795Y10100386D01*
X9617786Y10083395D01*
X9639986Y10074200D01*
X9664014D01*
X9686214Y10083395D01*
X9703205Y10100386D01*
X9712400Y10122586D01*
Y10146614D01*
X9703205Y10168814D01*
X9686214Y10185805D01*
X9664014Y10195000D01*
D02*
G37*
G36*
X9105214D02*
X9081186D01*
X9058986Y10185805D01*
X9041995Y10168814D01*
X9032800Y10146614D01*
Y10122586D01*
X9041995Y10100386D01*
X9058986Y10083395D01*
X9081186Y10074200D01*
X9105214D01*
X9127414Y10083395D01*
X9144405Y10100386D01*
X9153600Y10122586D01*
Y10146614D01*
X9144405Y10168814D01*
X9127414Y10185805D01*
X9105214Y10195000D01*
D02*
G37*
G36*
X11580595Y10250899D02*
X11428001Y10098305D01*
X11580595Y9945712D01*
X11733188Y10098305D01*
X11580595Y10250899D01*
D02*
G37*
G36*
X13156401Y10110700D02*
X13132599D01*
X13109607Y10104539D01*
X13088992Y10092638D01*
X13072162Y10075807D01*
X13060262Y10055193D01*
X13054100Y10032201D01*
Y10008399D01*
X13060262Y9985407D01*
X13072162Y9964793D01*
X13088992Y9947962D01*
X13109607Y9936061D01*
X13132599Y9929900D01*
X13156401D01*
X13179393Y9936061D01*
X13200008Y9947962D01*
X13216838Y9964793D01*
X13228738Y9985407D01*
X13234900Y10008399D01*
Y10032201D01*
X13228738Y10055193D01*
X13216838Y10075807D01*
X13200008Y10092638D01*
X13179393Y10104539D01*
X13156401Y10110700D01*
D02*
G37*
G36*
X12110311Y10157207D02*
X11965496Y10012391D01*
X12110311Y9867576D01*
X12255126Y10012391D01*
X12110311Y10157207D01*
D02*
G37*
G36*
X9918014Y9979100D02*
X9893986D01*
X9871786Y9969905D01*
X9854795Y9952914D01*
X9845600Y9930714D01*
Y9906686D01*
X9854795Y9884486D01*
X9871786Y9867495D01*
X9893986Y9858300D01*
X9918014D01*
X9940214Y9867495D01*
X9957205Y9884486D01*
X9966400Y9906686D01*
Y9930714D01*
X9957205Y9952914D01*
X9940214Y9969905D01*
X9918014Y9979100D01*
D02*
G37*
G36*
X10591114Y10042600D02*
X10567086D01*
X10544886Y10033405D01*
X10527895Y10016414D01*
X10518700Y9994214D01*
Y9970186D01*
X10527895Y9947986D01*
X10544886Y9930995D01*
X10567086Y9921800D01*
X10591114D01*
X10613314Y9930995D01*
X10630305Y9947986D01*
X10633620Y9955989D01*
X10645705Y9956719D01*
X10660066Y9953463D01*
X10667595Y9935286D01*
X10684586Y9918295D01*
X10706786Y9909100D01*
X10730814D01*
X10753014Y9918295D01*
X10761934Y9927215D01*
X10776857Y9921364D01*
X10785400Y9914760D01*
Y9893986D01*
X10794595Y9871786D01*
X10811586Y9854795D01*
X10833786Y9845600D01*
X10857814D01*
X10880014Y9854795D01*
X10897005Y9871786D01*
X10906200Y9893986D01*
Y9918014D01*
X10897005Y9940214D01*
X10880014Y9957205D01*
X10857814Y9966400D01*
X10833786D01*
X10811586Y9957205D01*
X10802666Y9948285D01*
X10787743Y9954136D01*
X10779200Y9960740D01*
Y9981514D01*
X10770005Y10003714D01*
X10753014Y10020705D01*
X10730814Y10029900D01*
X10706786D01*
X10684586Y10020705D01*
X10667595Y10003714D01*
X10664280Y9995711D01*
X10652195Y9994981D01*
X10637834Y9998237D01*
X10630305Y10016414D01*
X10613314Y10033405D01*
X10591114Y10042600D01*
D02*
G37*
G36*
X11774405Y10026600D02*
X11745995D01*
X11718552Y10019247D01*
X11693948Y10005041D01*
X11673859Y9984952D01*
X11659653Y9960348D01*
X11652300Y9932905D01*
Y9904495D01*
X11659653Y9877052D01*
X11673859Y9852448D01*
X11693948Y9832359D01*
X11718552Y9818153D01*
X11745995Y9810800D01*
X11774405D01*
X11801848Y9818153D01*
X11826452Y9832359D01*
X11846541Y9852448D01*
X11860747Y9877052D01*
X11868100Y9904495D01*
Y9932905D01*
X11860747Y9960348D01*
X11846541Y9984952D01*
X11826452Y10005041D01*
X11801848Y10019247D01*
X11774405Y10026600D01*
D02*
G37*
G36*
X11302314Y9928300D02*
X11278286D01*
X11256086Y9919105D01*
X11239095Y9902114D01*
X11229900Y9879914D01*
Y9855886D01*
X11239095Y9833686D01*
X11256086Y9816695D01*
X11278286Y9807500D01*
X11302314D01*
X11324514Y9816695D01*
X11341505Y9833686D01*
X11350700Y9855886D01*
Y9879914D01*
X11341505Y9902114D01*
X11324514Y9919105D01*
X11302314Y9928300D01*
D02*
G37*
G36*
X11365814Y9725100D02*
X11341786D01*
X11319586Y9715905D01*
X11302595Y9698914D01*
X11293400Y9676714D01*
Y9652686D01*
X11302595Y9630486D01*
X11319586Y9613495D01*
X11341786Y9604300D01*
X11365814D01*
X11388014Y9613495D01*
X11405005Y9630486D01*
X11414200Y9652686D01*
Y9676714D01*
X11405005Y9698914D01*
X11388014Y9715905D01*
X11365814Y9725100D01*
D02*
G37*
G36*
X10172014Y9585400D02*
X10147986D01*
X10125786Y9576205D01*
X10108795Y9559214D01*
X10099600Y9537014D01*
Y9512986D01*
X10108795Y9490786D01*
X10125786Y9473795D01*
X10147986Y9464600D01*
X10172014D01*
X10194214Y9473795D01*
X10211205Y9490786D01*
X10220400Y9512986D01*
Y9537014D01*
X10211205Y9559214D01*
X10194214Y9576205D01*
X10172014Y9585400D01*
D02*
G37*
G36*
X10984814Y9420300D02*
X10960786D01*
X10938586Y9411105D01*
X10921595Y9394114D01*
X10912400Y9371914D01*
Y9347886D01*
X10921595Y9325686D01*
X10938586Y9308695D01*
X10960786Y9299500D01*
X10984814D01*
X11007014Y9308695D01*
X11024005Y9325686D01*
X11033200Y9347886D01*
Y9371914D01*
X11024005Y9394114D01*
X11007014Y9411105D01*
X10984814Y9420300D01*
D02*
G37*
G36*
X7238314Y9394900D02*
X7214286D01*
X7192086Y9385705D01*
X7175095Y9368714D01*
X7165900Y9346514D01*
Y9322486D01*
X7175095Y9300286D01*
X7192086Y9283295D01*
X7214286Y9274100D01*
X7238314D01*
X7260514Y9283295D01*
X7277505Y9300286D01*
X7286700Y9322486D01*
Y9346514D01*
X7277505Y9368714D01*
X7260514Y9385705D01*
X7238314Y9394900D01*
D02*
G37*
G36*
X10083114Y9356800D02*
X10059086D01*
X10036886Y9347605D01*
X10019895Y9330614D01*
X10010700Y9308414D01*
Y9284386D01*
X10019895Y9262186D01*
X10036886Y9245195D01*
X10059086Y9236000D01*
X10069895D01*
X10076122Y9222039D01*
X10077682Y9210600D01*
X10063140Y9196059D01*
X10053945Y9173859D01*
X10032314Y9156700D01*
X10008286D01*
X9986086Y9147504D01*
X9969095Y9130514D01*
X9959900Y9108314D01*
Y9084286D01*
X9969095Y9062086D01*
X9986086Y9045095D01*
X10008286Y9035900D01*
X10032314D01*
X10054514Y9045095D01*
X10071505Y9062086D01*
X10080700Y9084285D01*
X10102331Y9101445D01*
X10126359D01*
X10148559Y9110640D01*
X10165549Y9127631D01*
X10174745Y9149831D01*
Y9173859D01*
X10165549Y9196059D01*
X10148559Y9213049D01*
X10126359Y9222245D01*
X10115550D01*
X10109323Y9236206D01*
X10107763Y9247645D01*
X10122305Y9262186D01*
X10131500Y9284386D01*
Y9308414D01*
X10122305Y9330614D01*
X10105314Y9347605D01*
X10083114Y9356800D01*
D02*
G37*
G36*
X8876614Y9128200D02*
X8852586D01*
X8830386Y9119005D01*
X8813395Y9102014D01*
X8804200Y9079814D01*
Y9055786D01*
X8813395Y9033586D01*
X8830386Y9016595D01*
X8852586Y9007400D01*
X8876614D01*
X8898814Y9016595D01*
X8915805Y9033586D01*
X8925000Y9055786D01*
Y9079814D01*
X8915805Y9102014D01*
X8898814Y9119005D01*
X8876614Y9128200D01*
D02*
G37*
G36*
X8711514D02*
X8687486D01*
X8665286Y9119005D01*
X8648295Y9102014D01*
X8639100Y9079814D01*
Y9055786D01*
X8648295Y9033586D01*
X8665286Y9016595D01*
X8687486Y9007400D01*
X8711514D01*
X8733714Y9016595D01*
X8750705Y9033586D01*
X8759900Y9055786D01*
Y9079814D01*
X8750705Y9102014D01*
X8733714Y9119005D01*
X8711514Y9128200D01*
D02*
G37*
G36*
X13740714Y8975800D02*
X13716685D01*
X13694485Y8966605D01*
X13677495Y8949614D01*
X13668300Y8927414D01*
Y8903386D01*
X13677495Y8881186D01*
X13694485Y8864195D01*
X13716685Y8855000D01*
X13740714D01*
X13762914Y8864195D01*
X13779906Y8881186D01*
X13789101Y8903386D01*
Y8927414D01*
X13779906Y8949614D01*
X13762914Y8966605D01*
X13740714Y8975800D01*
D02*
G37*
G36*
X8876614Y8950400D02*
X8852586D01*
X8830386Y8941205D01*
X8813395Y8924214D01*
X8804200Y8902014D01*
Y8877986D01*
X8813395Y8855786D01*
X8830386Y8838795D01*
X8852586Y8829600D01*
X8876614D01*
X8898814Y8838795D01*
X8915805Y8855786D01*
X8925000Y8877986D01*
Y8902014D01*
X8915805Y8924214D01*
X8898814Y8941205D01*
X8876614Y8950400D01*
D02*
G37*
G36*
X8711514D02*
X8687486D01*
X8665286Y8941205D01*
X8648295Y8924214D01*
X8639100Y8902014D01*
Y8877986D01*
X8648295Y8855786D01*
X8665286Y8838795D01*
X8687486Y8829600D01*
X8711514D01*
X8733714Y8838795D01*
X8750705Y8855786D01*
X8759900Y8877986D01*
Y8902014D01*
X8750705Y8924214D01*
X8733714Y8941205D01*
X8711514Y8950400D01*
D02*
G37*
G36*
X8521014D02*
X8496986D01*
X8474786Y8941205D01*
X8457795Y8924214D01*
X8448600Y8902014D01*
Y8877986D01*
X8457795Y8855786D01*
X8474786Y8838795D01*
X8496986Y8829600D01*
X8521014D01*
X8543214Y8838795D01*
X8560205Y8855786D01*
X8569400Y8877986D01*
Y8902014D01*
X8560205Y8924214D01*
X8543214Y8941205D01*
X8521014Y8950400D01*
D02*
G37*
G36*
X8292414D02*
X8268386D01*
X8246186Y8941205D01*
X8229195Y8924214D01*
X8220000Y8902014D01*
Y8877986D01*
X8229195Y8855786D01*
X8246186Y8838795D01*
X8268386Y8829600D01*
X8292414D01*
X8314614Y8838795D01*
X8331605Y8855786D01*
X8340800Y8877986D01*
Y8902014D01*
X8331605Y8924214D01*
X8314614Y8941205D01*
X8292414Y8950400D01*
D02*
G37*
G36*
X12889815Y8937700D02*
X12865787D01*
X12843587Y8928505D01*
X12826595Y8911514D01*
X12817400Y8889314D01*
Y8865286D01*
X12826595Y8843086D01*
X12843587Y8826095D01*
X12865787Y8816900D01*
X12889815D01*
X12912013Y8826095D01*
X12929005Y8843086D01*
X12938200Y8865286D01*
Y8889314D01*
X12929005Y8911514D01*
X12912013Y8928505D01*
X12889815Y8937700D01*
D02*
G37*
G36*
X6654114Y8912300D02*
X6630086D01*
X6607886Y8903105D01*
X6590895Y8886114D01*
X6581700Y8863914D01*
Y8839886D01*
X6590895Y8817686D01*
X6607886Y8800695D01*
X6630086Y8791500D01*
X6654114D01*
X6676314Y8800695D01*
X6693305Y8817686D01*
X6702500Y8839886D01*
Y8863914D01*
X6693305Y8886114D01*
X6676314Y8903105D01*
X6654114Y8912300D01*
D02*
G37*
G36*
X7835214Y8836100D02*
X7811186D01*
X7788986Y8826905D01*
X7771995Y8809914D01*
X7762800Y8787714D01*
Y8763686D01*
X7771995Y8741486D01*
X7788986Y8724495D01*
X7811186Y8715300D01*
X7835214D01*
X7857414Y8724495D01*
X7874405Y8741486D01*
X7883600Y8763686D01*
Y8787714D01*
X7874405Y8809914D01*
X7857414Y8826905D01*
X7835214Y8836100D01*
D02*
G37*
G36*
X11556314Y8709100D02*
X11532286D01*
X11510086Y8699905D01*
X11493095Y8682914D01*
X11485566Y8664737D01*
X11471205Y8661481D01*
X11459120Y8662211D01*
X11455805Y8670214D01*
X11438814Y8687205D01*
X11416614Y8696400D01*
X11392586D01*
X11370386Y8687205D01*
X11353395Y8670214D01*
X11349274Y8660265D01*
X11323310Y8651550D01*
X11320464Y8652032D01*
X11300181Y8660433D01*
X11276153D01*
X11253953Y8651238D01*
X11236962Y8634247D01*
X11227767Y8612047D01*
Y8588019D01*
X11236962Y8565819D01*
X11243097Y8559684D01*
X11244991Y8535090D01*
X11240851Y8528744D01*
X11228158Y8516051D01*
X11218963Y8493851D01*
Y8469823D01*
X11228158Y8447623D01*
X11245149Y8430632D01*
X11267349Y8421437D01*
X11291377D01*
X11313577Y8430632D01*
X11330568Y8447623D01*
X11339763Y8469823D01*
Y8493851D01*
X11330568Y8516051D01*
X11324433Y8522186D01*
X11322539Y8546780D01*
X11326679Y8553126D01*
X11339372Y8565819D01*
X11343492Y8575768D01*
X11369457Y8584483D01*
X11372303Y8584001D01*
X11392586Y8575600D01*
X11416614D01*
X11438814Y8584795D01*
X11455805Y8601786D01*
X11463334Y8619963D01*
X11477695Y8623219D01*
X11489780Y8622489D01*
X11493095Y8614486D01*
X11510086Y8597495D01*
X11532286Y8588300D01*
X11556314D01*
X11578514Y8597495D01*
X11595505Y8614486D01*
X11604700Y8636686D01*
Y8660714D01*
X11595505Y8682914D01*
X11578514Y8699905D01*
X11556314Y8709100D01*
D02*
G37*
G36*
X12610414Y8747200D02*
X12586386D01*
X12564186Y8738005D01*
X12547195Y8721014D01*
X12538000Y8698814D01*
Y8674786D01*
X12547195Y8652586D01*
X12564186Y8635595D01*
X12586386Y8626400D01*
X12610414D01*
X12632614Y8635595D01*
X12643833Y8646814D01*
X12666353Y8645570D01*
X12672993Y8642788D01*
X12674195Y8639886D01*
X12691186Y8622895D01*
X12713386Y8613700D01*
X12737414D01*
X12759614Y8622895D01*
X12776605Y8639886D01*
X12785800Y8662086D01*
Y8686114D01*
X12776605Y8708314D01*
X12759614Y8725305D01*
X12737414Y8734500D01*
X12713386D01*
X12691186Y8725305D01*
X12679967Y8714086D01*
X12657447Y8715330D01*
X12650807Y8718112D01*
X12649605Y8721014D01*
X12632614Y8738005D01*
X12610414Y8747200D01*
D02*
G37*
G36*
X9587814Y8696400D02*
X9563786D01*
X9541586Y8687205D01*
X9524595Y8670214D01*
X9515400Y8648014D01*
Y8623986D01*
X9524595Y8601786D01*
X9541586Y8584795D01*
X9563786Y8575600D01*
X9587814D01*
X9610014Y8584795D01*
X9627005Y8601786D01*
X9636200Y8623986D01*
Y8648014D01*
X9627005Y8670214D01*
X9610014Y8687205D01*
X9587814Y8696400D01*
D02*
G37*
G36*
X11048314Y8671000D02*
X11024286D01*
X11002086Y8661805D01*
X10985095Y8644814D01*
X10975900Y8622614D01*
Y8598586D01*
X10985095Y8576386D01*
X11002086Y8559395D01*
X11024286Y8550200D01*
X11048314D01*
X11070514Y8559395D01*
X11087505Y8576386D01*
X11096700Y8598586D01*
Y8622614D01*
X11087505Y8644814D01*
X11070514Y8661805D01*
X11048314Y8671000D01*
D02*
G37*
G36*
X5713543Y8704700D02*
X5691057D01*
X5669337Y8698880D01*
X5649863Y8687637D01*
X5633963Y8671737D01*
X5622720Y8652263D01*
X5616900Y8630543D01*
Y8608057D01*
X5622720Y8586337D01*
X5633963Y8566863D01*
X5649863Y8550963D01*
X5669337Y8539720D01*
X5691057Y8533900D01*
X5713543D01*
X5735263Y8539720D01*
X5754737Y8550963D01*
X5770637Y8566863D01*
X5781880Y8586337D01*
X5787700Y8608057D01*
Y8630543D01*
X5781880Y8652263D01*
X5770637Y8671737D01*
X5754737Y8687637D01*
X5735263Y8698880D01*
X5713543Y8704700D01*
D02*
G37*
G36*
X8609914Y8594800D02*
X8585886D01*
X8563686Y8585605D01*
X8546695Y8568614D01*
X8537500Y8546414D01*
Y8522386D01*
X8546695Y8500186D01*
X8563686Y8483195D01*
X8585886Y8474000D01*
X8609914D01*
X8632114Y8483195D01*
X8649105Y8500186D01*
X8658300Y8522386D01*
Y8546414D01*
X8649105Y8568614D01*
X8632114Y8585605D01*
X8609914Y8594800D01*
D02*
G37*
G36*
X9892614Y8505900D02*
X9868586D01*
X9846386Y8496705D01*
X9829395Y8479714D01*
X9820200Y8457514D01*
Y8433486D01*
X9829395Y8411286D01*
X9846386Y8394295D01*
X9868586Y8385100D01*
X9892614D01*
X9914814Y8394295D01*
X9931805Y8411286D01*
X9941000Y8433486D01*
Y8457514D01*
X9931805Y8479714D01*
X9914814Y8496705D01*
X9892614Y8505900D01*
D02*
G37*
G36*
X10095814Y8480500D02*
X10071786D01*
X10049586Y8471305D01*
X10032595Y8454314D01*
X10023400Y8432114D01*
Y8408086D01*
X10032595Y8385886D01*
X10049586Y8368895D01*
X10071786Y8359700D01*
X10095814D01*
X10118014Y8368895D01*
X10135005Y8385886D01*
X10144200Y8408086D01*
Y8432114D01*
X10135005Y8454314D01*
X10118014Y8471305D01*
X10095814Y8480500D01*
D02*
G37*
G36*
X10260914Y8455100D02*
X10236886D01*
X10214686Y8445905D01*
X10197695Y8428914D01*
X10188500Y8406714D01*
Y8382686D01*
X10197695Y8360486D01*
X10214686Y8343495D01*
X10236886Y8334300D01*
X10260914D01*
X10283114Y8343495D01*
X10300105Y8360486D01*
X10309300Y8382686D01*
Y8406714D01*
X10300105Y8428914D01*
X10283114Y8445905D01*
X10260914Y8455100D01*
D02*
G37*
G36*
X5787700Y8454700D02*
X5616900D01*
Y8283900D01*
X5787700D01*
Y8454700D01*
D02*
G37*
G36*
X12331014Y8404300D02*
X12306986D01*
X12284786Y8395105D01*
X12267795Y8378114D01*
X12258600Y8355914D01*
Y8331886D01*
X12267795Y8309686D01*
X12284786Y8292695D01*
X12306986Y8283500D01*
X12331014D01*
X12353214Y8292695D01*
X12370205Y8309686D01*
X12379400Y8331886D01*
Y8355914D01*
X12370205Y8378114D01*
X12353214Y8395105D01*
X12331014Y8404300D01*
D02*
G37*
G36*
X11022914Y8353500D02*
X10998886D01*
X10976686Y8344305D01*
X10959695Y8327314D01*
X10950500Y8305114D01*
Y8281086D01*
X10959695Y8258886D01*
X10976686Y8241895D01*
X10998886Y8232700D01*
X11022914D01*
X11045114Y8241895D01*
X11062105Y8258886D01*
X11071300Y8281086D01*
Y8305114D01*
X11062105Y8327314D01*
X11045114Y8344305D01*
X11022914Y8353500D01*
D02*
G37*
G36*
X13702614Y8340800D02*
X13678586D01*
X13656386Y8331605D01*
X13639395Y8314614D01*
X13630200Y8292414D01*
Y8268386D01*
X13639395Y8246186D01*
X13656386Y8229195D01*
X13678586Y8220000D01*
X13702614D01*
X13724814Y8229195D01*
X13741805Y8246186D01*
X13750999Y8268386D01*
Y8292414D01*
X13741805Y8314614D01*
X13724814Y8331605D01*
X13702614Y8340800D01*
D02*
G37*
G36*
X13347014Y8302700D02*
X13322986D01*
X13300786Y8293505D01*
X13283795Y8276514D01*
X13274600Y8254314D01*
Y8230286D01*
X13283795Y8208086D01*
X13300786Y8191095D01*
X13322986Y8181900D01*
X13347014D01*
X13369214Y8191095D01*
X13386205Y8208086D01*
X13395399Y8230286D01*
Y8254314D01*
X13386205Y8276514D01*
X13369214Y8293505D01*
X13347014Y8302700D01*
D02*
G37*
G36*
X13816914Y8188400D02*
X13792886D01*
X13770686Y8179205D01*
X13753696Y8162214D01*
X13744501Y8140014D01*
Y8115986D01*
X13753696Y8093786D01*
X13770686Y8076795D01*
X13792886Y8067600D01*
X13816914D01*
X13839114Y8076795D01*
X13856105Y8093786D01*
X13865300Y8115986D01*
Y8140014D01*
X13856105Y8162214D01*
X13839114Y8179205D01*
X13816914Y8188400D01*
D02*
G37*
G36*
X9765614Y8112200D02*
X9741586D01*
X9719386Y8103005D01*
X9702395Y8086014D01*
X9693200Y8063814D01*
Y8039786D01*
X9702395Y8017586D01*
X9719386Y8000595D01*
X9741586Y7991400D01*
X9765614D01*
X9787814Y8000595D01*
X9804805Y8017586D01*
X9814000Y8039786D01*
Y8063814D01*
X9804805Y8086014D01*
X9787814Y8103005D01*
X9765614Y8112200D01*
D02*
G37*
G36*
X10438714Y8099500D02*
X10414686D01*
X10392486Y8090305D01*
X10375495Y8073314D01*
X10366300Y8051114D01*
Y8027086D01*
X10375495Y8004886D01*
X10392486Y7987895D01*
X10414686Y7978700D01*
X10438714D01*
X10460914Y7987895D01*
X10477905Y8004886D01*
X10487100Y8027086D01*
Y8051114D01*
X10477905Y8073314D01*
X10460914Y8090305D01*
X10438714Y8099500D01*
D02*
G37*
G36*
X11010214D02*
X10986186D01*
X10963986Y8090305D01*
X10946995Y8073314D01*
X10937800Y8051114D01*
Y8027086D01*
X10946995Y8004886D01*
X10963986Y7987895D01*
X10986186Y7978700D01*
X11010214D01*
X11032414Y7987895D01*
X11034653Y7990134D01*
X11061296Y7992186D01*
X11078286Y7975195D01*
X11100486Y7966000D01*
X11124514D01*
X11146714Y7975195D01*
X11163705Y7992186D01*
X11172900Y8014386D01*
Y8038414D01*
X11163705Y8060614D01*
X11146714Y8077605D01*
X11124514Y8086800D01*
X11100486D01*
X11078286Y8077605D01*
X11076047Y8075366D01*
X11049404Y8073314D01*
X11032414Y8090305D01*
X11010214Y8099500D01*
D02*
G37*
G36*
X9192614Y8009100D02*
X9168586D01*
X9146386Y7999905D01*
X9129396Y7982914D01*
X9120200Y7960714D01*
Y7936686D01*
X9129396Y7914486D01*
X9146386Y7897496D01*
X9168586Y7888300D01*
X9192614D01*
X9214814Y7897496D01*
X9231805Y7914486D01*
X9241000Y7936686D01*
Y7960714D01*
X9231805Y7982914D01*
X9214814Y7999905D01*
X9192614Y8009100D01*
D02*
G37*
G36*
X10680014Y7997900D02*
X10655986D01*
X10633786Y7988705D01*
X10616795Y7971714D01*
X10607600Y7949514D01*
Y7925486D01*
X10610424Y7918669D01*
X10615076Y7895157D01*
X10598086Y7878166D01*
X10588890Y7855967D01*
Y7831938D01*
X10598086Y7809739D01*
X10615077Y7792748D01*
X10637276Y7783552D01*
X10661305D01*
X10683504Y7792748D01*
X10700495Y7809739D01*
X10709690Y7831938D01*
Y7855967D01*
X10706867Y7862783D01*
X10702214Y7886296D01*
X10719205Y7903286D01*
X10728400Y7925486D01*
Y7949514D01*
X10719205Y7971714D01*
X10702214Y7988705D01*
X10680014Y7997900D01*
D02*
G37*
G36*
X9446614Y7845500D02*
X9422586D01*
X9400386Y7836305D01*
X9383396Y7819314D01*
X9374200Y7797114D01*
Y7773086D01*
X9383396Y7750886D01*
X9400386Y7733895D01*
X9422586Y7724700D01*
X9446614D01*
X9468814Y7733895D01*
X9485805Y7750886D01*
X9495000Y7773086D01*
Y7797114D01*
X9485805Y7819314D01*
X9468814Y7836305D01*
X9446614Y7845500D01*
D02*
G37*
G36*
X12597714Y7820100D02*
X12573686D01*
X12551486Y7810905D01*
X12534495Y7793914D01*
X12525300Y7771714D01*
Y7747686D01*
X12534495Y7725486D01*
X12551486Y7708495D01*
X12573686Y7699300D01*
X12597714D01*
X12619914Y7708495D01*
X12622153Y7710734D01*
X12648796Y7712786D01*
X12665786Y7695795D01*
X12687986Y7686600D01*
X12712014D01*
X12734214Y7695795D01*
X12751205Y7712786D01*
X12760400Y7734986D01*
Y7759014D01*
X12751205Y7781214D01*
X12734214Y7798205D01*
X12712014Y7807400D01*
X12687986D01*
X12665786Y7798205D01*
X12663547Y7795966D01*
X12636904Y7793914D01*
X12619914Y7810905D01*
X12597714Y7820100D01*
D02*
G37*
G36*
X13357864Y7805550D02*
X13333836D01*
X13311636Y7796355D01*
X13294646Y7779364D01*
X13285451Y7757164D01*
Y7733136D01*
X13294646Y7710936D01*
X13311636Y7693945D01*
X13333836Y7684750D01*
X13357864D01*
X13380064Y7693945D01*
X13397055Y7710936D01*
X13406250Y7733136D01*
Y7757164D01*
X13397055Y7779364D01*
X13380064Y7796355D01*
X13357864Y7805550D01*
D02*
G37*
G36*
X10400614Y7858200D02*
X10376586D01*
X10354386Y7849005D01*
X10337395Y7832014D01*
X10328200Y7809814D01*
Y7785786D01*
X10337395Y7763586D01*
X10354386Y7746596D01*
X10356359Y7736677D01*
X10350095Y7730414D01*
X10340900Y7708214D01*
Y7684186D01*
X10350095Y7661986D01*
X10367086Y7644995D01*
X10389286Y7635800D01*
X10413314D01*
X10435514Y7644995D01*
X10452505Y7661986D01*
X10461700Y7684186D01*
Y7708214D01*
X10452505Y7730414D01*
X10435514Y7747404D01*
X10433541Y7757323D01*
X10439805Y7763586D01*
X10449000Y7785786D01*
Y7809814D01*
X10439805Y7832014D01*
X10422814Y7849005D01*
X10400614Y7858200D01*
D02*
G37*
G36*
X11086414Y7832800D02*
X11062386D01*
X11040186Y7823605D01*
X11023195Y7806614D01*
X11014000Y7784414D01*
Y7760386D01*
X11023195Y7738186D01*
X11029538Y7731843D01*
X11037377Y7715250D01*
X11029538Y7698657D01*
X11023195Y7692314D01*
X11014000Y7670114D01*
Y7646086D01*
X11023195Y7623886D01*
X11040186Y7606895D01*
X11062386Y7597700D01*
X11086414D01*
X11108614Y7606895D01*
X11125605Y7623886D01*
X11134800Y7646086D01*
Y7670114D01*
X11125605Y7692314D01*
X11119262Y7698657D01*
X11111423Y7715250D01*
X11119262Y7731843D01*
X11125605Y7738186D01*
X11134800Y7760386D01*
Y7784414D01*
X11125605Y7806614D01*
X11108614Y7823605D01*
X11086414Y7832800D01*
D02*
G37*
G36*
X14286813Y7693100D02*
X14262785D01*
X14240585Y7683905D01*
X14223595Y7666914D01*
X14214400Y7644714D01*
Y7620686D01*
X14223595Y7598486D01*
X14240585Y7581495D01*
X14262785Y7572300D01*
X14286813D01*
X14309013Y7581495D01*
X14326006Y7598486D01*
X14335201Y7620686D01*
Y7644714D01*
X14326006Y7666914D01*
X14309013Y7683905D01*
X14286813Y7693100D01*
D02*
G37*
G36*
X11391214D02*
X11367186D01*
X11344986Y7683905D01*
X11327995Y7666914D01*
X11318800Y7644714D01*
Y7620686D01*
X11327995Y7598486D01*
X11344986Y7581495D01*
X11367186Y7572300D01*
X11391214D01*
X11413414Y7581495D01*
X11430405Y7598486D01*
X11439600Y7620686D01*
Y7644714D01*
X11430405Y7666914D01*
X11413414Y7683905D01*
X11391214Y7693100D01*
D02*
G37*
G36*
X7759014D02*
X7734986D01*
X7712786Y7683905D01*
X7695795Y7666914D01*
X7686600Y7644714D01*
Y7620686D01*
X7695795Y7598486D01*
X7712786Y7581495D01*
X7734986Y7572300D01*
X7759014D01*
X7781214Y7581495D01*
X7798205Y7598486D01*
X7807400Y7620686D01*
Y7644714D01*
X7798205Y7666914D01*
X7781214Y7683905D01*
X7759014Y7693100D01*
D02*
G37*
G36*
X12038914Y7667700D02*
X12014886D01*
X11992686Y7658505D01*
X11975695Y7641514D01*
X11966500Y7619314D01*
Y7595286D01*
X11975695Y7573086D01*
X11992686Y7556095D01*
X12014886Y7546900D01*
X12038914D01*
X12061114Y7556095D01*
X12078105Y7573086D01*
X12087300Y7595286D01*
Y7619314D01*
X12078105Y7641514D01*
X12061114Y7658505D01*
X12038914Y7667700D01*
D02*
G37*
G36*
X10413314Y7566100D02*
X10389286D01*
X10367086Y7556905D01*
X10350095Y7539914D01*
X10340900Y7517714D01*
Y7493686D01*
X10350095Y7471486D01*
X10367086Y7454495D01*
X10389286Y7445300D01*
X10413314D01*
X10435514Y7454495D01*
X10452505Y7471486D01*
X10461700Y7493686D01*
Y7517714D01*
X10452505Y7539914D01*
X10435514Y7556905D01*
X10413314Y7566100D01*
D02*
G37*
G36*
X12000814Y7477200D02*
X11976786D01*
X11954586Y7468005D01*
X11937595Y7451014D01*
X11928400Y7428814D01*
Y7404786D01*
X11937595Y7382586D01*
X11954586Y7365595D01*
X11976786Y7356400D01*
X12000814D01*
X12023014Y7365595D01*
X12040005Y7382586D01*
X12049200Y7404786D01*
Y7428814D01*
X12040005Y7451014D01*
X12023014Y7468005D01*
X12000814Y7477200D01*
D02*
G37*
G36*
X10572954Y7444560D02*
X10548925D01*
X10526726Y7435365D01*
X10509735Y7418374D01*
X10500540Y7396174D01*
Y7372146D01*
X10509735Y7349946D01*
X10526726Y7332956D01*
X10548925Y7323760D01*
X10572954D01*
X10595153Y7332956D01*
X10612144Y7349946D01*
X10621339Y7372146D01*
Y7396174D01*
X10612144Y7418374D01*
X10595153Y7435365D01*
X10572954Y7444560D01*
D02*
G37*
G36*
X8254314Y7588400D02*
X8230286D01*
X8208086Y7579205D01*
X8191095Y7562214D01*
X8181900Y7540014D01*
Y7515986D01*
X8191095Y7493786D01*
X8171111Y7480712D01*
X8171092Y7480705D01*
X8154101Y7463714D01*
X8144906Y7441514D01*
Y7417486D01*
X8154101Y7395286D01*
X8171092Y7378295D01*
X8193291Y7369100D01*
X8208868Y7343700D01*
X8207300Y7339914D01*
Y7315886D01*
X8216495Y7293686D01*
X8233486Y7276695D01*
X8255686Y7267500D01*
X8279714D01*
X8301914Y7276695D01*
X8318905Y7293686D01*
X8328100Y7315886D01*
Y7339914D01*
X8318905Y7362114D01*
X8301914Y7379105D01*
X8279714Y7388300D01*
X8264138Y7413700D01*
X8265706Y7417486D01*
Y7441514D01*
X8256511Y7463714D01*
X8276495Y7476788D01*
X8276514Y7476796D01*
X8293505Y7493786D01*
X8302700Y7515986D01*
Y7540014D01*
X8293505Y7562214D01*
X8276514Y7579205D01*
X8254314Y7588400D01*
D02*
G37*
G36*
X11086414Y7464500D02*
X11062386D01*
X11040186Y7455305D01*
X11023195Y7438314D01*
X11014000Y7416114D01*
Y7392086D01*
X11023195Y7369886D01*
X11040186Y7352895D01*
X11062386Y7343700D01*
X11086414D01*
X11092917Y7326116D01*
Y7325486D01*
X11102112Y7303286D01*
X11119103Y7286296D01*
X11141303Y7277100D01*
X11142934D01*
X11165361Y7276444D01*
X11166400Y7253634D01*
Y7252386D01*
X11175595Y7230186D01*
X11192586Y7213195D01*
X11214786Y7204000D01*
X11238814D01*
X11261014Y7213195D01*
X11278005Y7230186D01*
X11287200Y7252386D01*
Y7276414D01*
X11278005Y7298614D01*
X11261014Y7315605D01*
X11238814Y7324800D01*
X11237183D01*
X11214756Y7325456D01*
X11213717Y7348266D01*
Y7349514D01*
X11204521Y7371714D01*
X11187531Y7388705D01*
X11165331Y7397900D01*
X11141303D01*
X11134800Y7415484D01*
Y7416114D01*
X11125605Y7438314D01*
X11108614Y7455305D01*
X11086414Y7464500D01*
D02*
G37*
G36*
X6248135Y7539750D02*
X6223265D01*
X6199244Y7533313D01*
X6177706Y7520879D01*
X6160121Y7503294D01*
X6147687Y7481756D01*
X6141250Y7457735D01*
Y7432865D01*
X6147687Y7408844D01*
X6160121Y7387307D01*
X6177706Y7369721D01*
X6199244Y7357287D01*
X6222680Y7351007D01*
X6223265Y7350850D01*
X6225029Y7326350D01*
X6221919Y7325516D01*
X6204416Y7320826D01*
X6185934Y7310156D01*
X6170844Y7295066D01*
X6160174Y7276584D01*
X6154650Y7255970D01*
Y7234630D01*
X6160174Y7214016D01*
X6170844Y7195534D01*
X6185934Y7180444D01*
X6204416Y7169774D01*
X6225030Y7164250D01*
X6246370D01*
X6266984Y7169774D01*
X6285466Y7180444D01*
X6300556Y7195534D01*
X6311226Y7214016D01*
X6316750Y7234630D01*
Y7255970D01*
X6311226Y7276584D01*
X6300556Y7295066D01*
X6285466Y7310156D01*
X6266984Y7320826D01*
X6249481Y7325516D01*
X6246371Y7326350D01*
X6248135Y7350850D01*
X6248720Y7351007D01*
X6272156Y7357287D01*
X6293694Y7369721D01*
X6311279Y7387307D01*
X6323713Y7408844D01*
X6330150Y7432865D01*
Y7457735D01*
X6323713Y7481756D01*
X6311279Y7503294D01*
X6293694Y7520879D01*
X6272156Y7533313D01*
X6248135Y7539750D01*
D02*
G37*
G36*
X9422714Y7210500D02*
X9398686D01*
X9376486Y7201305D01*
X9359495Y7184314D01*
X9350300Y7162114D01*
Y7138086D01*
X9359495Y7115886D01*
X9376486Y7098895D01*
X9398686Y7089700D01*
X9422714D01*
X9444914Y7098895D01*
X9461905Y7115886D01*
X9471100Y7138086D01*
Y7162114D01*
X9461905Y7184314D01*
X9444914Y7201305D01*
X9422714Y7210500D01*
D02*
G37*
G36*
X9232214Y7197800D02*
X9208186D01*
X9185986Y7188605D01*
X9168995Y7171614D01*
X9159800Y7149414D01*
Y7125386D01*
X9168995Y7103186D01*
X9185986Y7086195D01*
X9208186Y7077000D01*
X9232214D01*
X9254414Y7086195D01*
X9271405Y7103186D01*
X9280600Y7125386D01*
Y7149414D01*
X9271405Y7171614D01*
X9254414Y7188605D01*
X9232214Y7197800D01*
D02*
G37*
G36*
X13347014Y7159700D02*
X13322986D01*
X13300786Y7150505D01*
X13283795Y7133514D01*
X13274600Y7111314D01*
Y7087286D01*
X13283795Y7065086D01*
X13300786Y7048095D01*
X13322986Y7038900D01*
X13347014D01*
X13369214Y7048095D01*
X13386205Y7065086D01*
X13395399Y7087286D01*
Y7111314D01*
X13386205Y7133514D01*
X13369214Y7150505D01*
X13347014Y7159700D01*
D02*
G37*
G36*
X10578414D02*
X10554386D01*
X10532186Y7150505D01*
X10515195Y7133514D01*
X10506000Y7111314D01*
Y7087286D01*
X10515195Y7065086D01*
X10532186Y7048095D01*
X10554386Y7038900D01*
X10578414D01*
X10600614Y7048095D01*
X10617605Y7065086D01*
X10626800Y7087286D01*
Y7111314D01*
X10617605Y7133514D01*
X10600614Y7150505D01*
X10578414Y7159700D01*
D02*
G37*
G36*
X8952814D02*
X8928786D01*
X8906586Y7150505D01*
X8889595Y7133514D01*
X8880400Y7111314D01*
Y7087286D01*
X8889595Y7065086D01*
X8906586Y7048095D01*
X8928786Y7038900D01*
X8952814D01*
X8975014Y7048095D01*
X8992005Y7065086D01*
X9001200Y7087286D01*
Y7111314D01*
X8992005Y7133514D01*
X8975014Y7150505D01*
X8952814Y7159700D01*
D02*
G37*
G36*
X7670114D02*
X7646086D01*
X7623886Y7150505D01*
X7606895Y7133514D01*
X7597700Y7111314D01*
Y7087286D01*
X7606895Y7065086D01*
X7623886Y7048095D01*
X7646086Y7038900D01*
X7670114D01*
X7692314Y7048095D01*
X7709305Y7065086D01*
X7718500Y7087286D01*
Y7111314D01*
X7709305Y7133514D01*
X7692314Y7150505D01*
X7670114Y7159700D01*
D02*
G37*
G36*
X11019559Y7153487D02*
X10995531D01*
X10973331Y7144292D01*
X10956341Y7127301D01*
X10947145Y7105101D01*
Y7081073D01*
X10956341Y7058873D01*
X10973331Y7041882D01*
X10995531Y7032687D01*
X11019559D01*
X11041759Y7041882D01*
X11058750Y7058873D01*
X11067945Y7081073D01*
Y7105101D01*
X11058750Y7127301D01*
X11041759Y7144292D01*
X11019559Y7153487D01*
D02*
G37*
G36*
X12737414Y7350200D02*
X12713386D01*
X12691186Y7341005D01*
X12674195Y7324014D01*
X12665000Y7301814D01*
Y7277786D01*
X12674195Y7255586D01*
X12673248Y7250824D01*
X12667721Y7248535D01*
X12650731Y7231544D01*
X12641535Y7209345D01*
Y7185316D01*
X12643174Y7181361D01*
X12637186Y7172400D01*
X12614986Y7163205D01*
X12597995Y7146214D01*
X12588800Y7124014D01*
Y7099986D01*
X12597995Y7077786D01*
X12614986Y7060795D01*
X12637186Y7051600D01*
X12641534D01*
X12661740Y7048340D01*
X12665000Y7028134D01*
Y7023786D01*
X12674195Y7001586D01*
X12691186Y6984595D01*
X12713386Y6975400D01*
X12737414D01*
X12759614Y6984595D01*
X12776605Y7001586D01*
X12785800Y7023786D01*
Y7047814D01*
X12776605Y7070014D01*
X12759614Y7087005D01*
X12737414Y7096200D01*
X12733066D01*
X12712860Y7099460D01*
X12709600Y7119666D01*
Y7124014D01*
X12707962Y7127969D01*
X12713950Y7136931D01*
X12736149Y7146126D01*
X12753140Y7163117D01*
X12762335Y7185316D01*
Y7209345D01*
X12753140Y7231544D01*
X12754087Y7236306D01*
X12759614Y7238595D01*
X12776605Y7255586D01*
X12785800Y7277786D01*
Y7301814D01*
X12776605Y7324014D01*
X12759614Y7341005D01*
X12737414Y7350200D01*
D02*
G37*
G36*
X6246370Y7126350D02*
X6225030D01*
X6204416Y7120826D01*
X6185934Y7110156D01*
X6170844Y7095066D01*
X6160174Y7076584D01*
X6154650Y7055970D01*
Y7034630D01*
X6160174Y7014016D01*
X6170844Y6995534D01*
X6185934Y6980444D01*
X6204416Y6969774D01*
X6225030Y6964250D01*
X6246370D01*
X6266984Y6969774D01*
X6285466Y6980444D01*
X6300556Y6995534D01*
X6311226Y7014016D01*
X6316750Y7034630D01*
Y7055970D01*
X6311226Y7076584D01*
X6300556Y7095066D01*
X6285466Y7110156D01*
X6266984Y7120826D01*
X6246370Y7126350D01*
D02*
G37*
G36*
X11543614Y6981900D02*
X11519586D01*
X11497386Y6972705D01*
X11480800Y6956118D01*
X11464214Y6972705D01*
X11442014Y6981900D01*
X11417986D01*
X11395786Y6972705D01*
X11378795Y6955714D01*
X11369600Y6933514D01*
Y6909486D01*
X11378795Y6887286D01*
X11395786Y6870295D01*
X11417986Y6861100D01*
X11442014D01*
X11464214Y6870295D01*
X11480800Y6886882D01*
X11497386Y6870295D01*
X11519586Y6861100D01*
X11543614D01*
X11565814Y6870295D01*
X11582805Y6887286D01*
X11592000Y6909486D01*
Y6933514D01*
X11582805Y6955714D01*
X11565814Y6972705D01*
X11543614Y6981900D01*
D02*
G37*
G36*
X8876614Y7032700D02*
X8852586D01*
X8830386Y7023505D01*
X8813395Y7006514D01*
X8804200Y6984314D01*
Y6960286D01*
X8813395Y6938086D01*
X8830386Y6921095D01*
X8852586Y6911900D01*
X8876614D01*
X8898814Y6921095D01*
X8915805Y6938086D01*
X8925000Y6960286D01*
Y6984314D01*
X8915805Y7006514D01*
X8898814Y7023505D01*
X8876614Y7032700D01*
D02*
G37*
G36*
X11975414Y7020000D02*
X11951386D01*
X11929186Y7010805D01*
X11912195Y6993814D01*
X11903000Y6971614D01*
Y6947586D01*
X11912195Y6925386D01*
X11929186Y6908395D01*
X11951386Y6899200D01*
X11975414D01*
X11997614Y6908395D01*
X12014605Y6925386D01*
X12023800Y6947586D01*
Y6971614D01*
X12014605Y6993814D01*
X11997614Y7010805D01*
X11975414Y7020000D01*
D02*
G37*
G36*
X9943414Y6956500D02*
X9919386D01*
X9897186Y6947305D01*
X9880195Y6930314D01*
X9871000Y6908114D01*
Y6903459D01*
X9845600Y6898407D01*
X9842905Y6904914D01*
X9825914Y6921905D01*
X9803714Y6931100D01*
X9779686D01*
X9757486Y6921905D01*
X9740495Y6904914D01*
X9731300Y6882714D01*
Y6858686D01*
X9740495Y6836486D01*
X9757486Y6819495D01*
X9779686Y6810300D01*
X9803714D01*
X9825914Y6819495D01*
X9842905Y6836486D01*
X9852100Y6858686D01*
Y6863341D01*
X9877500Y6868393D01*
X9880195Y6861886D01*
X9897186Y6844895D01*
X9919386Y6835700D01*
X9943414D01*
X9965614Y6844895D01*
X9987461Y6830821D01*
X9997896Y6820385D01*
X10020096Y6811190D01*
X10044124D01*
X10066324Y6820385D01*
X10090546Y6808685D01*
X10093227Y6806004D01*
X10115427Y6796808D01*
X10139455D01*
X10161655Y6806004D01*
X10178646Y6822994D01*
X10187841Y6845194D01*
Y6869222D01*
X10178646Y6891422D01*
X10161655Y6908413D01*
X10139455Y6917608D01*
X10115427D01*
X10093228Y6908413D01*
X10069006Y6920112D01*
X10066324Y6922794D01*
X10044124Y6931989D01*
X10020096D01*
X9997897Y6922794D01*
X9976050Y6936869D01*
X9965614Y6947305D01*
X9943414Y6956500D01*
D02*
G37*
G36*
X10984814Y7007300D02*
X10960786D01*
X10938586Y6998105D01*
X10921595Y6981114D01*
X10912400Y6958914D01*
Y6934886D01*
X10921595Y6912686D01*
X10938586Y6895695D01*
X10960786Y6886500D01*
X10984814D01*
X11007014Y6895695D01*
X11024005Y6912686D01*
X11033200Y6934886D01*
Y6958914D01*
X11024005Y6981114D01*
X11007014Y6998105D01*
X10984814Y7007300D01*
D02*
G37*
G36*
X11162614Y7096200D02*
X11138586D01*
X11116386Y7087005D01*
X11099395Y7070014D01*
X11090200Y7047814D01*
Y7023786D01*
X11099395Y7001586D01*
X11116386Y6984596D01*
X11117303Y6979988D01*
X11107398Y6970084D01*
X11098203Y6947884D01*
Y6923856D01*
X11107398Y6901656D01*
X11124389Y6884665D01*
X11146589Y6875470D01*
X11170617D01*
X11192817Y6884665D01*
X11209808Y6901656D01*
X11219003Y6923856D01*
Y6947884D01*
X11209808Y6970084D01*
X11192817Y6987074D01*
X11191900Y6991682D01*
X11201805Y7001586D01*
X11211000Y7023786D01*
Y7047814D01*
X11201805Y7070014D01*
X11184814Y7087005D01*
X11162614Y7096200D01*
D02*
G37*
G36*
X13715735Y7168350D02*
X13690865D01*
X13666844Y7161913D01*
X13645306Y7149479D01*
X13627721Y7131894D01*
X13615286Y7110356D01*
X13608850Y7086335D01*
Y7061465D01*
X13615286Y7037444D01*
X13627721Y7015906D01*
X13645306Y6998321D01*
X13664096Y6987473D01*
X13665974Y6973900D01*
X13664096Y6960327D01*
X13645306Y6949479D01*
X13627721Y6931894D01*
X13615286Y6910357D01*
X13608850Y6886335D01*
Y6861466D01*
X13615286Y6837444D01*
X13627721Y6815907D01*
X13645306Y6798321D01*
X13666844Y6785887D01*
X13690865Y6779450D01*
X13715735D01*
X13739755Y6785887D01*
X13761295Y6798321D01*
X13778879Y6815907D01*
X13791313Y6837444D01*
X13797749Y6861466D01*
Y6886335D01*
X13791313Y6910357D01*
X13778879Y6931894D01*
X13761295Y6949479D01*
X13742503Y6960327D01*
X13740627Y6973900D01*
X13742503Y6987473D01*
X13761295Y6998321D01*
X13778879Y7015906D01*
X13791313Y7037444D01*
X13797749Y7061465D01*
Y7086335D01*
X13791313Y7110356D01*
X13778879Y7131894D01*
X13761295Y7149479D01*
X13739755Y7161913D01*
X13715735Y7168350D01*
D02*
G37*
G36*
X8546414Y6740600D02*
X8522386D01*
X8500186Y6731405D01*
X8483195Y6714414D01*
X8474000Y6692214D01*
Y6668186D01*
X8483195Y6645986D01*
X8500186Y6628995D01*
X8522386Y6619800D01*
X8546414D01*
X8568614Y6628995D01*
X8585605Y6645986D01*
X8594800Y6668186D01*
Y6692214D01*
X8585605Y6714414D01*
X8568614Y6731405D01*
X8546414Y6740600D01*
D02*
G37*
G36*
X7354464Y6729750D02*
X7330436D01*
X7308236Y6720555D01*
X7291246Y6703564D01*
X7282050Y6681364D01*
Y6657336D01*
X7291246Y6635136D01*
X7308236Y6618146D01*
X7330436Y6608950D01*
X7354464D01*
X7376664Y6618146D01*
X7393655Y6635136D01*
X7402850Y6657336D01*
Y6681364D01*
X7393655Y6703564D01*
X7376664Y6720555D01*
X7354464Y6729750D01*
D02*
G37*
G36*
X10578414Y6727900D02*
X10554386D01*
X10532186Y6718705D01*
X10515195Y6701714D01*
X10506000Y6679514D01*
Y6655486D01*
X10515195Y6633286D01*
X10532186Y6616295D01*
X10554386Y6607100D01*
X10578414D01*
X10600614Y6616295D01*
X10617605Y6633286D01*
X10626800Y6655486D01*
Y6679514D01*
X10617605Y6701714D01*
X10600614Y6718705D01*
X10578414Y6727900D01*
D02*
G37*
G36*
X12026214Y6651700D02*
X12002186D01*
X11979986Y6642505D01*
X11962995Y6625514D01*
X11953800Y6603314D01*
Y6579286D01*
X11962995Y6557086D01*
X11979986Y6540095D01*
X12002186Y6530900D01*
X12026214D01*
X12048414Y6540095D01*
X12065405Y6557086D01*
X12074600Y6579286D01*
Y6603314D01*
X12065405Y6625514D01*
X12048414Y6642505D01*
X12026214Y6651700D01*
D02*
G37*
G36*
X8127314Y6575500D02*
X8103286D01*
X8081086Y6566305D01*
X8064095Y6549314D01*
X8054900Y6527114D01*
Y6503086D01*
X8064095Y6480886D01*
X8081086Y6463895D01*
X8103286Y6454700D01*
X8127314D01*
X8149514Y6463895D01*
X8166505Y6480886D01*
X8175700Y6503086D01*
Y6527114D01*
X8166505Y6549314D01*
X8149514Y6566305D01*
X8127314Y6575500D01*
D02*
G37*
G36*
X12661214Y6461200D02*
X12637186D01*
X12614986Y6452005D01*
X12597995Y6435014D01*
X12588800Y6412814D01*
Y6388786D01*
X12597995Y6366586D01*
X12614986Y6349595D01*
X12637186Y6340400D01*
X12661214D01*
X12683414Y6349595D01*
X12700405Y6366586D01*
X12709600Y6388786D01*
Y6412814D01*
X12700405Y6435014D01*
X12683414Y6452005D01*
X12661214Y6461200D01*
D02*
G37*
G36*
X7487150Y6174264D02*
X7463122D01*
X7440922Y6165069D01*
X7423931Y6148078D01*
X7414736Y6125878D01*
Y6101850D01*
X7423931Y6079650D01*
X7440922Y6062659D01*
X7463122Y6053464D01*
X7487150D01*
X7509350Y6062659D01*
X7526341Y6079650D01*
X7535536Y6101850D01*
Y6125878D01*
X7526341Y6148078D01*
X7509350Y6165069D01*
X7487150Y6174264D01*
D02*
G37*
G36*
X9562414Y6092900D02*
X9538386D01*
X9516186Y6083705D01*
X9499195Y6066714D01*
X9490000Y6044514D01*
Y6020486D01*
X9499195Y5998286D01*
X9516186Y5981295D01*
X9538386Y5972100D01*
X9562414D01*
X9584614Y5981295D01*
X9601605Y5998286D01*
X9610800Y6020486D01*
Y6044514D01*
X9601605Y6066714D01*
X9584614Y6083705D01*
X9562414Y6092900D01*
D02*
G37*
G36*
X13352599Y5878114D02*
X13327730D01*
X13303708Y5871677D01*
X13282172Y5859243D01*
X13264584Y5841658D01*
X13252151Y5820120D01*
X13245714Y5796099D01*
Y5771230D01*
X13251331Y5750272D01*
X13243060Y5739347D01*
X13232133Y5731077D01*
X13211177Y5736693D01*
X13186308D01*
X13162286Y5730256D01*
X13140749Y5717821D01*
X13123164Y5700236D01*
X13110728Y5678699D01*
X13104292Y5654677D01*
Y5629808D01*
X13109908Y5608851D01*
X13101639Y5597925D01*
X13090714Y5589656D01*
X13069756Y5595271D01*
X13044887D01*
X13020865Y5588835D01*
X12999329Y5576400D01*
X12981743Y5558815D01*
X12969308Y5537278D01*
X12962871Y5513256D01*
Y5488387D01*
X12968488Y5467430D01*
X12960217Y5456504D01*
X12949292Y5448234D01*
X12928336Y5453850D01*
X12903465D01*
X12879443Y5447413D01*
X12857906Y5434979D01*
X12840321Y5417394D01*
X12827887Y5395856D01*
X12821449Y5371835D01*
Y5346965D01*
X12827887Y5322944D01*
X12840321Y5301406D01*
X12857906Y5283821D01*
X12879443Y5271387D01*
X12903465Y5264950D01*
X12928336D01*
X12952356Y5271387D01*
X12973894Y5283821D01*
X12991479Y5301406D01*
X13003912Y5322944D01*
X13010350Y5346965D01*
Y5371835D01*
X13004733Y5392792D01*
X13013004Y5403717D01*
X13023930Y5411987D01*
X13044887Y5406371D01*
X13069756D01*
X13093777Y5412808D01*
X13115315Y5425243D01*
X13132899Y5442828D01*
X13145335Y5464365D01*
X13151772Y5488387D01*
Y5513256D01*
X13146156Y5534213D01*
X13154425Y5545139D01*
X13165350Y5553408D01*
X13186308Y5547793D01*
X13211177D01*
X13235199Y5554229D01*
X13256737Y5566664D01*
X13274321Y5584249D01*
X13286755Y5605786D01*
X13293193Y5629808D01*
Y5654677D01*
X13287576Y5675634D01*
X13295847Y5686560D01*
X13306772Y5694830D01*
X13327730Y5689214D01*
X13352599D01*
X13376620Y5695651D01*
X13398158Y5708085D01*
X13415742Y5725671D01*
X13428177Y5747208D01*
X13434615Y5771230D01*
Y5796099D01*
X13428177Y5820120D01*
X13415742Y5841658D01*
X13398158Y5859243D01*
X13376620Y5871677D01*
X13352599Y5878114D01*
D02*
G37*
G36*
X9867214Y5864300D02*
X9843186D01*
X9820986Y5855105D01*
X9803995Y5838114D01*
X9794800Y5815914D01*
Y5791886D01*
X9803995Y5769686D01*
X9820986Y5752695D01*
X9843186Y5743500D01*
X9867214D01*
X9873166Y5745965D01*
X9898356Y5751525D01*
X9915346Y5734535D01*
X9937546Y5725340D01*
X9961574D01*
X9983774Y5734535D01*
X9996467Y5747228D01*
X10005846Y5751134D01*
X10027408Y5749474D01*
X10036886Y5739995D01*
X10059086Y5730800D01*
X10083114D01*
X10105314Y5739995D01*
X10122305Y5756986D01*
X10131500Y5779186D01*
Y5803214D01*
X10122305Y5825414D01*
X10105314Y5842405D01*
X10083114Y5851600D01*
X10059086D01*
X10036886Y5842405D01*
X10024193Y5829712D01*
X10014814Y5825805D01*
X9993253Y5827466D01*
X9983774Y5836944D01*
X9961574Y5846139D01*
X9937546D01*
X9931594Y5843674D01*
X9911712Y5839286D01*
X9893500Y5851019D01*
X9889414Y5855105D01*
X9867214Y5864300D01*
D02*
G37*
G36*
X9638614Y5940500D02*
X9614586D01*
X9592386Y5931305D01*
X9575395Y5914314D01*
X9566200Y5892114D01*
Y5868086D01*
X9575395Y5845886D01*
X9592386Y5828895D01*
X9614586Y5819700D01*
X9618636D01*
X9639091Y5803381D01*
X9639300Y5796234D01*
Y5779186D01*
X9648496Y5756986D01*
X9665486Y5739995D01*
X9687686Y5730800D01*
X9711714D01*
X9733914Y5739995D01*
X9750905Y5756986D01*
X9760100Y5779186D01*
Y5803214D01*
X9750905Y5825414D01*
X9733914Y5842405D01*
X9711714Y5851600D01*
X9707664D01*
X9687209Y5867919D01*
X9687000Y5875066D01*
Y5892114D01*
X9677805Y5914314D01*
X9660814Y5931305D01*
X9638614Y5940500D01*
D02*
G37*
G36*
X6306470Y6208314D02*
X6281601D01*
X6257580Y6201877D01*
X6236042Y6189443D01*
X6218457Y6171858D01*
X6206023Y6150320D01*
X6199586Y6126299D01*
Y6101430D01*
X6206023Y6077408D01*
X6218457Y6055871D01*
X6236042Y6038285D01*
X6257580Y6025851D01*
X6281601Y6019414D01*
X6306470D01*
X6327428Y6025030D01*
X6338353Y6016760D01*
X6346623Y6005834D01*
X6341007Y5984877D01*
Y5960008D01*
X6347444Y5935986D01*
X6359879Y5914449D01*
X6377464Y5896864D01*
X6399001Y5884429D01*
X6423023Y5877993D01*
X6447892D01*
X6468849Y5883608D01*
X6479775Y5875339D01*
X6488044Y5864413D01*
X6482429Y5843456D01*
Y5818587D01*
X6488865Y5794565D01*
X6501300Y5773028D01*
X6518885Y5755443D01*
X6540422Y5743008D01*
X6564444Y5736571D01*
X6589313D01*
X6610270Y5742187D01*
X6621196Y5733917D01*
X6629466Y5722992D01*
X6623850Y5702035D01*
Y5677165D01*
X6630287Y5653144D01*
X6642721Y5631606D01*
X6660306Y5614021D01*
X6681844Y5601587D01*
X6705865Y5595150D01*
X6730735D01*
X6754756Y5601587D01*
X6776294Y5614021D01*
X6793879Y5631606D01*
X6806313Y5653144D01*
X6812750Y5677165D01*
Y5702035D01*
X6806313Y5726056D01*
X6793879Y5747594D01*
X6776294Y5765179D01*
X6754756Y5777613D01*
X6730735Y5784050D01*
X6705865D01*
X6684908Y5778434D01*
X6673983Y5786704D01*
X6665713Y5797630D01*
X6671329Y5818587D01*
Y5843456D01*
X6664892Y5867478D01*
X6652457Y5889015D01*
X6634872Y5906600D01*
X6613335Y5919035D01*
X6589313Y5925471D01*
X6564444D01*
X6543487Y5919856D01*
X6532561Y5928125D01*
X6524292Y5939051D01*
X6529907Y5960008D01*
Y5984877D01*
X6523471Y6008899D01*
X6511036Y6030436D01*
X6493451Y6048021D01*
X6471914Y6060456D01*
X6447892Y6066893D01*
X6423023D01*
X6402066Y6061277D01*
X6391140Y6069547D01*
X6382870Y6080472D01*
X6388486Y6101430D01*
Y6126299D01*
X6382049Y6150320D01*
X6369615Y6171858D01*
X6352029Y6189443D01*
X6330492Y6201877D01*
X6306470Y6208314D01*
D02*
G37*
G36*
X11886514Y5305500D02*
X11862486D01*
X11840286Y5296305D01*
X11823295Y5279314D01*
X11814100Y5257114D01*
Y5233086D01*
X11823295Y5210886D01*
X11840286Y5193895D01*
X11862486Y5184700D01*
X11886514D01*
X11908714Y5193895D01*
X11925705Y5210886D01*
X11934900Y5233086D01*
Y5257114D01*
X11925705Y5279314D01*
X11908714Y5296305D01*
X11886514Y5305500D01*
D02*
G37*
G36*
X11759514Y5203900D02*
X11735486D01*
X11713286Y5194705D01*
X11696295Y5177714D01*
X11695093Y5174812D01*
X11688453Y5172030D01*
X11665933Y5170786D01*
X11654714Y5182005D01*
X11632514Y5191200D01*
X11608486D01*
X11586286Y5182005D01*
X11569295Y5165014D01*
X11560100Y5142814D01*
Y5118786D01*
X11569295Y5096586D01*
X11586286Y5079595D01*
X11608486Y5070400D01*
X11632514D01*
X11654714Y5079595D01*
X11671705Y5096586D01*
X11672907Y5099488D01*
X11679547Y5102270D01*
X11702067Y5103514D01*
X11713286Y5092295D01*
X11735486Y5083100D01*
X11759514D01*
X11781714Y5092295D01*
X11798705Y5109286D01*
X11807900Y5131486D01*
Y5155514D01*
X11798705Y5177714D01*
X11781714Y5194705D01*
X11759514Y5203900D01*
D02*
G37*
G36*
X11251514Y5254700D02*
X11227486D01*
X11205286Y5245505D01*
X11188295Y5228514D01*
X11179100Y5206314D01*
Y5182286D01*
X11188295Y5160086D01*
X11205286Y5143095D01*
X11227486Y5133900D01*
X11251514D01*
X11273714Y5143095D01*
X11290705Y5160086D01*
X11299900Y5182286D01*
Y5206314D01*
X11290705Y5228514D01*
X11273714Y5245505D01*
X11251514Y5254700D01*
D02*
G37*
G36*
X12000814Y5165800D02*
X11976786D01*
X11954586Y5156605D01*
X11937595Y5139614D01*
X11928400Y5117414D01*
Y5093386D01*
X11937595Y5071186D01*
X11954586Y5054195D01*
X11976786Y5045000D01*
X12000814D01*
X12023014Y5054195D01*
X12040005Y5071186D01*
X12049200Y5093386D01*
Y5117414D01*
X12040005Y5139614D01*
X12023014Y5156605D01*
X12000814Y5165800D01*
D02*
G37*
G36*
X11391214D02*
X11367186D01*
X11344986Y5156605D01*
X11327995Y5139614D01*
X11318800Y5117414D01*
Y5093386D01*
X11327995Y5071186D01*
X11344986Y5054195D01*
X11367186Y5045000D01*
X11391214D01*
X11413414Y5054195D01*
X11430405Y5071186D01*
X11439600Y5093386D01*
Y5117414D01*
X11430405Y5139614D01*
X11413414Y5156605D01*
X11391214Y5165800D01*
D02*
G37*
G36*
X7076006Y5438778D02*
X7051137D01*
X7027115Y5432341D01*
X7005578Y5419907D01*
X6987993Y5402322D01*
X6975559Y5380785D01*
X6969122Y5356763D01*
Y5331894D01*
X6975559Y5307872D01*
X6987993Y5286335D01*
X7005578Y5268749D01*
X7027115Y5256315D01*
X7051137Y5249878D01*
X7076006D01*
X7096963Y5255494D01*
X7107889Y5247224D01*
X7116159Y5236298D01*
X7110543Y5215341D01*
Y5190472D01*
X7116980Y5166450D01*
X7129414Y5144913D01*
X7147000Y5127328D01*
X7168537Y5114894D01*
X7192559Y5108457D01*
X7217428D01*
X7238385Y5114072D01*
X7249311Y5105803D01*
X7257580Y5094877D01*
X7251965Y5073920D01*
Y5049051D01*
X7258401Y5025029D01*
X7270836Y5003492D01*
X7288421Y4985907D01*
X7309958Y4973472D01*
X7333980Y4967036D01*
X7358849D01*
X7382871Y4973472D01*
X7404408Y4985907D01*
X7421993Y5003492D01*
X7434428Y5025029D01*
X7440864Y5049051D01*
Y5073920D01*
X7434428Y5097942D01*
X7421993Y5119479D01*
X7404408Y5137064D01*
X7382871Y5149499D01*
X7358849Y5155935D01*
X7333980D01*
X7313023Y5150320D01*
X7302097Y5158589D01*
X7293828Y5169515D01*
X7299443Y5190472D01*
Y5215341D01*
X7293006Y5239363D01*
X7280572Y5260900D01*
X7262987Y5278486D01*
X7241450Y5290920D01*
X7217428Y5297357D01*
X7192559D01*
X7171602Y5291741D01*
X7160676Y5300011D01*
X7152406Y5310937D01*
X7158022Y5331894D01*
Y5356763D01*
X7151585Y5380785D01*
X7139151Y5402322D01*
X7121565Y5419907D01*
X7100028Y5432341D01*
X7076006Y5438778D01*
D02*
G37*
G36*
X11518214Y5076900D02*
X11494186D01*
X11471986Y5067705D01*
X11454995Y5050714D01*
X11445800Y5028514D01*
Y5004486D01*
X11454995Y4982286D01*
X11471986Y4965295D01*
X11494186Y4956100D01*
X11518214D01*
X11540414Y4965295D01*
X11557405Y4982286D01*
X11566600Y5004486D01*
Y5028514D01*
X11557405Y5050714D01*
X11540414Y5067705D01*
X11518214Y5076900D01*
D02*
G37*
G36*
X8635314Y5051500D02*
X8611286D01*
X8589086Y5042305D01*
X8572095Y5025314D01*
X8562900Y5003114D01*
Y4979086D01*
X8572095Y4956886D01*
X8589086Y4939895D01*
X8611286Y4930700D01*
X8619360D01*
X8625197Y4923622D01*
X8633229Y4905300D01*
X8626400Y4888814D01*
Y4864786D01*
X8635595Y4842586D01*
X8652586Y4825595D01*
X8674786Y4816400D01*
X8698814D01*
X8721014Y4825595D01*
X8738005Y4842586D01*
X8747200Y4864786D01*
Y4888814D01*
X8738005Y4911014D01*
X8721014Y4928005D01*
X8698814Y4937200D01*
X8690740D01*
X8684903Y4944278D01*
X8676871Y4962600D01*
X8683700Y4979086D01*
Y5003114D01*
X8674505Y5025314D01*
X8657514Y5042305D01*
X8635314Y5051500D01*
D02*
G37*
G36*
X12360277Y4885793D02*
X12335408D01*
X12311386Y4879356D01*
X12289849Y4866921D01*
X12272264Y4849336D01*
X12259829Y4827799D01*
X12253393Y4803777D01*
Y4778908D01*
X12259008Y4757951D01*
X12250739Y4747025D01*
X12239813Y4738756D01*
X12218856Y4744371D01*
X12193987D01*
X12169965Y4737935D01*
X12148428Y4725500D01*
X12130843Y4707915D01*
X12118408Y4686378D01*
X12111971Y4662356D01*
Y4637487D01*
X12118408Y4613465D01*
X12130843Y4591928D01*
X12148428Y4574343D01*
X12169965Y4561908D01*
X12193987Y4555471D01*
X12218856D01*
X12242878Y4561908D01*
X12264415Y4574343D01*
X12282000Y4591928D01*
X12294435Y4613465D01*
X12300871Y4637487D01*
Y4662356D01*
X12295256Y4683313D01*
X12303525Y4694239D01*
X12314451Y4702508D01*
X12335408Y4696893D01*
X12360277D01*
X12384299Y4703329D01*
X12405836Y4715764D01*
X12423421Y4733349D01*
X12435856Y4754886D01*
X12442293Y4778908D01*
Y4803777D01*
X12435856Y4827799D01*
X12423421Y4849336D01*
X12405836Y4866921D01*
X12384299Y4879356D01*
X12360277Y4885793D01*
D02*
G37*
G36*
X8978214Y4848300D02*
X8954186D01*
X8931986Y4839105D01*
X8914995Y4822114D01*
X8905800Y4799914D01*
Y4775886D01*
X8914995Y4753686D01*
X8931986Y4736695D01*
X8954186Y4727500D01*
X8978214D01*
X9000414Y4736695D01*
X9017405Y4753686D01*
X9026600Y4775886D01*
Y4799914D01*
X9017405Y4822114D01*
X9000414Y4839105D01*
X8978214Y4848300D01*
D02*
G37*
G36*
X8724214Y4772100D02*
X8700186D01*
X8677986Y4762905D01*
X8660995Y4745914D01*
X8651800Y4723714D01*
Y4699686D01*
X8660995Y4677486D01*
X8677986Y4660495D01*
X8700186Y4651300D01*
X8724214D01*
X8746414Y4660495D01*
X8763405Y4677486D01*
X8772600Y4699686D01*
Y4723714D01*
X8763405Y4745914D01*
X8746414Y4762905D01*
X8724214Y4772100D01*
D02*
G37*
G36*
X8978214Y4695900D02*
X8954186D01*
X8931986Y4686705D01*
X8914995Y4669714D01*
X8905800Y4647514D01*
Y4623486D01*
X8914995Y4601286D01*
X8931986Y4584295D01*
X8954186Y4575100D01*
X8978214D01*
X9000414Y4584295D01*
X9017405Y4601286D01*
X9026600Y4623486D01*
Y4647514D01*
X9017405Y4669714D01*
X9000414Y4686705D01*
X8978214Y4695900D01*
D02*
G37*
G36*
X8800414Y4543500D02*
X8776386D01*
X8754186Y4534305D01*
X8737195Y4517314D01*
X8728000Y4495114D01*
Y4471086D01*
X8737195Y4448886D01*
X8754186Y4431895D01*
X8776386Y4422700D01*
X8800414D01*
X8822614Y4431895D01*
X8839605Y4448886D01*
X8848800Y4471086D01*
Y4495114D01*
X8839605Y4517314D01*
X8822614Y4534305D01*
X8800414Y4543500D01*
D02*
G37*
G36*
X9016314Y4429200D02*
X8992286D01*
X8970086Y4420005D01*
X8953095Y4403014D01*
X8943900Y4380814D01*
Y4356786D01*
X8953095Y4334586D01*
X8970086Y4317595D01*
X8992286Y4308400D01*
X9016314D01*
X9038514Y4317595D01*
X9055505Y4334586D01*
X9064700Y4356786D01*
Y4380814D01*
X9055505Y4403014D01*
X9038514Y4420005D01*
X9016314Y4429200D01*
D02*
G37*
G36*
X7783113Y4731671D02*
X7758244D01*
X7734222Y4725235D01*
X7712685Y4712800D01*
X7695100Y4695215D01*
X7682665Y4673678D01*
X7676229Y4649656D01*
Y4624787D01*
X7682665Y4600765D01*
X7695100Y4579228D01*
X7712685Y4561643D01*
X7734222Y4549208D01*
X7758244Y4542771D01*
X7783113D01*
X7804070Y4548387D01*
X7814996Y4540117D01*
X7823266Y4529192D01*
X7817650Y4508235D01*
Y4483365D01*
X7824087Y4459344D01*
X7836521Y4437806D01*
X7854106Y4420221D01*
X7875644Y4407787D01*
X7899665Y4401350D01*
X7924535D01*
X7945492Y4406966D01*
X7956417Y4398696D01*
X7964687Y4387770D01*
X7959071Y4366813D01*
Y4341944D01*
X7965508Y4317922D01*
X7977943Y4296385D01*
X7995528Y4278800D01*
X8017065Y4266365D01*
X8041087Y4259929D01*
X8065956D01*
X8089978Y4266365D01*
X8111515Y4278800D01*
X8129100Y4296385D01*
X8141535Y4317922D01*
X8147971Y4341944D01*
Y4366813D01*
X8141535Y4390835D01*
X8129100Y4412372D01*
X8111515Y4429957D01*
X8089978Y4442392D01*
X8065956Y4448829D01*
X8041087D01*
X8020130Y4443213D01*
X8009204Y4451483D01*
X8000934Y4462408D01*
X8006550Y4483365D01*
Y4508235D01*
X8000113Y4532256D01*
X7987679Y4553794D01*
X7970094Y4571379D01*
X7948556Y4583813D01*
X7924535Y4590250D01*
X7899665D01*
X7878708Y4584634D01*
X7867783Y4592904D01*
X7859513Y4603830D01*
X7865129Y4624787D01*
Y4649656D01*
X7858692Y4673678D01*
X7846257Y4695215D01*
X7828672Y4712800D01*
X7807135Y4725235D01*
X7783113Y4731671D01*
D02*
G37*
G36*
X9892831Y4080700D02*
X9868369D01*
X9844742Y4074369D01*
X9823558Y4062138D01*
X9806262Y4044842D01*
X9794031Y4023658D01*
X9793748Y4022602D01*
X9767452D01*
X9767169Y4023658D01*
X9754938Y4044842D01*
X9737642Y4062138D01*
X9716458Y4074369D01*
X9692830Y4080700D01*
X9668369D01*
X9644742Y4074369D01*
X9623558Y4062138D01*
X9606261Y4044842D01*
X9594031Y4023658D01*
X9593748Y4022602D01*
X9567452D01*
X9567169Y4023658D01*
X9554938Y4044842D01*
X9537642Y4062138D01*
X9516458Y4074369D01*
X9492831Y4080700D01*
X9468369D01*
X9444742Y4074369D01*
X9423558Y4062138D01*
X9406262Y4044842D01*
X9394031Y4023658D01*
X9393748Y4022602D01*
X9367452D01*
X9367169Y4023658D01*
X9354938Y4044842D01*
X9337642Y4062138D01*
X9316458Y4074369D01*
X9292831Y4080700D01*
X9268369D01*
X9244742Y4074369D01*
X9223558Y4062138D01*
X9206261Y4044842D01*
X9194031Y4023658D01*
X9193748Y4022602D01*
X9167452D01*
X9167169Y4023658D01*
X9154939Y4044842D01*
X9137642Y4062138D01*
X9116458Y4074369D01*
X9092831Y4080700D01*
X9068369D01*
X9044742Y4074369D01*
X9023558Y4062138D01*
X9006262Y4044842D01*
X8998900Y4032091D01*
X8973500Y4038897D01*
Y4080700D01*
X8787700D01*
Y3894900D01*
X8973500D01*
Y3936703D01*
X8998900Y3943509D01*
X9006262Y3930758D01*
X9023558Y3913462D01*
X9044742Y3901231D01*
X9068369Y3894900D01*
X9092831D01*
X9116458Y3901231D01*
X9137642Y3913462D01*
X9154939Y3930758D01*
X9167169Y3951942D01*
X9167452Y3952998D01*
X9193748D01*
X9194031Y3951942D01*
X9206261Y3930758D01*
X9223558Y3913462D01*
X9244742Y3901231D01*
X9268369Y3894900D01*
X9292831D01*
X9316458Y3901231D01*
X9337642Y3913462D01*
X9354938Y3930758D01*
X9367169Y3951942D01*
X9367452Y3952998D01*
X9393748D01*
X9394031Y3951942D01*
X9406262Y3930758D01*
X9423558Y3913462D01*
X9444742Y3901231D01*
X9468369Y3894900D01*
X9492831D01*
X9516458Y3901231D01*
X9537642Y3913462D01*
X9554938Y3930758D01*
X9567169Y3951942D01*
X9567452Y3952998D01*
X9593748D01*
X9594031Y3951942D01*
X9606261Y3930758D01*
X9623558Y3913462D01*
X9644742Y3901231D01*
X9668369Y3894900D01*
X9692830D01*
X9716458Y3901231D01*
X9737642Y3913462D01*
X9754938Y3930758D01*
X9767169Y3951942D01*
X9767452Y3952998D01*
X9793748D01*
X9794031Y3951942D01*
X9806262Y3930758D01*
X9823558Y3913462D01*
X9844742Y3901231D01*
X9868369Y3894900D01*
X9892831D01*
X9916458Y3901231D01*
X9937642Y3913462D01*
X9954938Y3930758D01*
X9967169Y3951942D01*
X9973500Y3975569D01*
Y4000031D01*
X9967169Y4023658D01*
X9954938Y4044842D01*
X9937642Y4062138D01*
X9916458Y4074369D01*
X9892831Y4080700D01*
D02*
G37*
G36*
X11121735Y4056850D02*
X11096866D01*
X11072844Y4050413D01*
X11051307Y4037979D01*
X11033721Y4020394D01*
X11022873Y4001604D01*
X11009300Y3999725D01*
X10995727Y4001604D01*
X10984879Y4020394D01*
X10967294Y4037979D01*
X10945756Y4050413D01*
X10921735Y4056850D01*
X10896865D01*
X10872844Y4050413D01*
X10851306Y4037979D01*
X10833721Y4020394D01*
X10822873Y4001604D01*
X10809300Y3999726D01*
X10795727Y4001604D01*
X10784879Y4020394D01*
X10767294Y4037979D01*
X10745757Y4050413D01*
X10721735Y4056850D01*
X10696866D01*
X10672844Y4050413D01*
X10651307Y4037979D01*
X10633721Y4020394D01*
X10622873Y4001604D01*
X10609300Y3999725D01*
X10595727Y4001604D01*
X10584879Y4020394D01*
X10567294Y4037979D01*
X10545756Y4050413D01*
X10521735Y4056850D01*
X10496865D01*
X10472844Y4050413D01*
X10451307Y4037979D01*
X10433721Y4020394D01*
X10421287Y3998856D01*
X10414850Y3974835D01*
Y3949965D01*
X10421287Y3925944D01*
X10433721Y3904406D01*
X10451307Y3886821D01*
X10472844Y3874387D01*
X10496865Y3867950D01*
X10521735D01*
X10545756Y3874387D01*
X10567294Y3886821D01*
X10584879Y3904406D01*
X10595727Y3923196D01*
X10609300Y3925075D01*
X10622873Y3923196D01*
X10633721Y3904406D01*
X10651307Y3886821D01*
X10672844Y3874387D01*
X10696866Y3867950D01*
X10721735D01*
X10745757Y3874387D01*
X10767294Y3886821D01*
X10784879Y3904406D01*
X10795727Y3923196D01*
X10809300Y3925074D01*
X10822873Y3923196D01*
X10833721Y3904406D01*
X10851306Y3886821D01*
X10872844Y3874387D01*
X10896865Y3867950D01*
X10921735D01*
X10945756Y3874387D01*
X10967294Y3886821D01*
X10984879Y3904406D01*
X10995727Y3923196D01*
X11009300Y3925075D01*
X11022873Y3923196D01*
X11033721Y3904406D01*
X11051307Y3886821D01*
X11072844Y3874387D01*
X11096866Y3867950D01*
X11121735D01*
X11145756Y3874387D01*
X11167294Y3886821D01*
X11184879Y3904406D01*
X11197313Y3925944D01*
X11203750Y3949965D01*
Y3974835D01*
X11197313Y3998856D01*
X11184879Y4020394D01*
X11167294Y4037979D01*
X11145756Y4050413D01*
X11121735Y4056850D01*
D02*
G37*
G36*
X9702114Y3451300D02*
X9678086D01*
X9655886Y3442105D01*
X9638895Y3425114D01*
X9629700Y3402914D01*
Y3378886D01*
X9638895Y3356686D01*
X9655886Y3339695D01*
X9678086Y3330500D01*
X9702114D01*
X9724314Y3339695D01*
X9741305Y3356686D01*
X9750500Y3378886D01*
Y3402914D01*
X9741305Y3425114D01*
X9724314Y3442105D01*
X9702114Y3451300D01*
D02*
G37*
%LPD*%
D57*
X12110311Y10012391D02*
D03*
D58*
X11650691Y10472011D02*
D03*
X12428509Y10330589D02*
D03*
X11968889Y10790209D02*
D03*
D59*
X12933765Y10983779D02*
D03*
X12792343Y11125200D02*
D03*
X12509500Y11408043D02*
D03*
X12650921Y11266621D02*
D03*
X12933765Y10700936D02*
D03*
X12509500Y11125200D02*
D03*
X12368079Y11266621D02*
D03*
X12792342Y10842357D02*
D03*
X12650921Y10983779D02*
D03*
D60*
X13568764Y9596036D02*
D03*
X13144501Y10020300D02*
D03*
D61*
X11785600Y11709400D02*
D03*
Y3683000D02*
D03*
X8166100Y11709400D02*
D03*
Y3683000D02*
D03*
D62*
X13703300Y7273900D02*
D03*
Y6673900D02*
D03*
X12489264Y4932764D02*
D03*
X12065000Y4508500D02*
D03*
X7629257Y4778643D02*
D03*
X7487836Y4920064D02*
D03*
X6235700Y6845300D02*
D03*
Y7445300D02*
D03*
X8053521Y4354379D02*
D03*
X13057321Y5500821D02*
D03*
X7912100Y4495800D02*
D03*
X7204993Y5202907D02*
D03*
X10709300Y3962400D02*
D03*
X12347843Y4791343D02*
D03*
X10509300Y3962400D02*
D03*
X7346415Y5061485D02*
D03*
X12206421Y4649921D02*
D03*
X13703300Y6873900D02*
D03*
X10909300Y3962400D02*
D03*
X12915900Y5359400D02*
D03*
X7770679Y4637221D02*
D03*
X13703300Y7073900D02*
D03*
X6294036Y6113864D02*
D03*
X11109300Y3962400D02*
D03*
X7063572Y5344328D02*
D03*
X6576879Y5831021D02*
D03*
X13340164Y5783664D02*
D03*
X6435457Y5972443D02*
D03*
X13198743Y5642243D02*
D03*
X6718300Y5689600D02*
D03*
X6235700Y7045300D02*
D03*
Y7245300D02*
D03*
D63*
X9529100Y11685100D02*
D03*
X8664100D02*
D03*
D64*
X9529100Y12023100D02*
D03*
X8664100D02*
D03*
D65*
X9394100Y11722100D02*
D03*
X8799100D02*
D03*
Y11587100D02*
D03*
X9394100D02*
D03*
X9054100Y11722100D02*
D03*
X9139100Y11587100D02*
D03*
Y11722100D02*
D03*
X9054100Y11587100D02*
D03*
X9309100D02*
D03*
X8884100D02*
D03*
Y11722100D02*
D03*
X9309100D02*
D03*
X9224100Y11587100D02*
D03*
X8969100D02*
D03*
Y11722100D02*
D03*
X9224100D02*
D03*
D66*
X6502400Y10198100D02*
D03*
X5702300Y8619300D02*
D03*
D67*
X13075185Y10842357D02*
D03*
D68*
X11580595Y10098305D02*
D03*
D69*
X6679177Y10374877D02*
D03*
D70*
X9880600Y3987800D02*
D03*
X9680600D02*
D03*
X9480600D02*
D03*
X9280600D02*
D03*
X9080600D02*
D03*
D71*
X8880600D02*
D03*
D72*
X5702300Y8369300D02*
D03*
D73*
X11760200Y9918700D02*
D03*
D74*
X12026900Y7607300D02*
D03*
X12839700Y10223500D02*
D03*
X13728700Y8915400D02*
D03*
X13846957Y8898742D02*
D03*
X13499995Y9899997D02*
D03*
X13349995Y10199997D02*
D03*
X12899995Y9899997D02*
D03*
X12306300Y9296400D02*
D03*
X13398500Y8978900D02*
D03*
X14249995Y8399997D02*
D03*
X13106400Y8978900D02*
D03*
X11785600Y9715500D02*
D03*
X11423400Y9353300D02*
D03*
X10649997Y11999996D02*
D03*
X10349997D02*
D03*
X11849100Y9156700D02*
D03*
X11699996Y8099998D02*
D03*
X11399997D02*
D03*
X10655300Y8255000D02*
D03*
X14084300Y8046204D02*
D03*
X13335001Y8089900D02*
D03*
X14249995Y7199998D02*
D03*
X13347701Y7594600D02*
D03*
Y6946900D02*
D03*
X14249995Y6599998D02*
D03*
X14099995Y6899998D02*
D03*
Y6299998D02*
D03*
X13949995Y5999998D02*
D03*
X13799995Y6299998D02*
D03*
X14249995Y5999998D02*
D03*
X14099995Y5699998D02*
D03*
X13949995Y5399998D02*
D03*
X13499995Y5099998D02*
D03*
X13199995D02*
D03*
X13349995Y4799999D02*
D03*
X12509500Y6400800D02*
D03*
X13049995Y4799999D02*
D03*
X12899995Y5099998D02*
D03*
Y4499999D02*
D03*
X12599996D02*
D03*
X12749996Y4199999D02*
D03*
X11849996Y7799998D02*
D03*
X11549996D02*
D03*
X11569700Y6578600D02*
D03*
X10515600Y7823200D02*
D03*
X10426700Y7023100D02*
D03*
X12449996Y4199999D02*
D03*
X12299996Y3899999D02*
D03*
X12153900Y5867400D02*
D03*
X12149996Y4199999D02*
D03*
X11099997Y3299999D02*
D03*
X11061700Y6184900D02*
D03*
X10299700Y11569700D02*
D03*
X9740900Y11366500D02*
D03*
X9588500Y11137900D02*
D03*
X9149997Y11999996D02*
D03*
X9385300Y10401300D02*
D03*
X9563100Y8775700D02*
D03*
X8999997Y9899997D02*
D03*
X9149997Y8399997D02*
D03*
X8999997Y9299997D02*
D03*
X8849997Y9599997D02*
D03*
X8712200Y11264900D02*
D03*
X7649998Y11399997D02*
D03*
X6299998Y9899997D02*
D03*
X5999998D02*
D03*
X5849998Y9599997D02*
D03*
X6749998D02*
D03*
X6449998D02*
D03*
X6599998Y9299997D02*
D03*
X6149998Y9599997D02*
D03*
X5699998Y9299997D02*
D03*
X5999998D02*
D03*
X8750300Y8547100D02*
D03*
X6646058Y8720942D02*
D03*
X6449998Y8999997D02*
D03*
X6299998Y9299997D02*
D03*
X5849998Y8999997D02*
D03*
X6149998D02*
D03*
X8877300Y7683500D02*
D03*
X8420100Y6883400D02*
D03*
X10049997Y4199999D02*
D03*
X9817100Y3187700D02*
D03*
X9449997Y6599998D02*
D03*
X9299997Y6299998D02*
D03*
X9149997Y5999998D02*
D03*
X9588500Y3797300D02*
D03*
X8699997Y3299999D02*
D03*
X8077200Y7518400D02*
D03*
X7199998Y8099998D02*
D03*
X8140700Y7353300D02*
D03*
X6899998Y8099998D02*
D03*
X6599998D02*
D03*
X6449998Y7799998D02*
D03*
X5999998Y8099998D02*
D03*
X5699998D02*
D03*
X5849998Y7799998D02*
D03*
X6749998D02*
D03*
X5699998Y7499998D02*
D03*
X7799998Y6299998D02*
D03*
X8128000Y6146800D02*
D03*
X7499998Y3899999D02*
D03*
X7353300Y7010400D02*
D03*
X7349998Y5399998D02*
D03*
X6899998Y4499999D02*
D03*
X6749998Y5399998D02*
D03*
X6299998Y5099998D02*
D03*
X13284200Y10568121D02*
D03*
X13335001Y8242300D02*
D03*
X12877800Y8877300D02*
D03*
X12268200Y11442700D02*
D03*
X11929507Y11117969D02*
D03*
X11264900Y10706100D02*
D03*
X10972800Y9359900D02*
D03*
X13345850Y7745150D02*
D03*
X14274800Y7632700D02*
D03*
X13335001Y7099300D02*
D03*
X12649200Y6400800D02*
D03*
X12014200Y6591300D02*
D03*
X10477500Y10375900D02*
D03*
X9779000Y10363200D02*
D03*
X9245600Y10160000D02*
D03*
X9906000Y9918700D02*
D03*
X9575800Y8636000D02*
D03*
X8242300Y10782300D02*
D03*
X8864600Y9067800D02*
D03*
X8699500D02*
D03*
X8509000Y8890000D02*
D03*
X8280400D02*
D03*
X8699500D02*
D03*
X8864600D02*
D03*
X8597900Y8534400D02*
D03*
X7226300Y9334500D02*
D03*
X6642100Y8851900D02*
D03*
X10426700Y8039100D02*
D03*
X10401300Y7505700D02*
D03*
X10083800Y8420100D02*
D03*
X9753600Y8051800D02*
D03*
X10566400Y7099300D02*
D03*
Y6667500D02*
D03*
X9434600Y7785100D02*
D03*
X8534400Y6680200D02*
D03*
X9690100Y3390900D02*
D03*
X7342450Y6669350D02*
D03*
X8115300Y6515100D02*
D03*
X8712200Y4711700D02*
D03*
X11379200Y7632700D02*
D03*
X10114345Y9161845D02*
D03*
X10020300Y9096300D02*
D03*
X10071100Y9296400D02*
D03*
X10649290Y7843952D02*
D03*
X10668000Y7937500D02*
D03*
X11074400Y7772400D02*
D03*
X11404600Y8636000D02*
D03*
X10109200Y10756900D02*
D03*
X11506200Y5016500D02*
D03*
X12701935Y7197331D02*
D03*
X11010900Y8293100D02*
D03*
X10401300Y7696200D02*
D03*
X10845800Y9906000D02*
D03*
X10934700Y10706100D02*
D03*
X11074400Y7658100D02*
D03*
X8205306Y7429500D02*
D03*
X10782300Y10731500D02*
D03*
X10718800Y9969500D02*
D03*
X11544300Y8648700D02*
D03*
X10426700Y10515600D02*
D03*
X11963400Y6959600D02*
D03*
X11150600Y7035800D02*
D03*
X11239500Y5194300D02*
D03*
X8623300Y4991100D02*
D03*
X10248900Y8394700D02*
D03*
X7658100Y7099300D02*
D03*
X7475136Y6113864D02*
D03*
X8788400Y4483100D02*
D03*
X8966200Y4635500D02*
D03*
X9004300Y4368800D02*
D03*
X8966200Y4787900D02*
D03*
X11988800Y5105400D02*
D03*
X11874500Y5245100D02*
D03*
X11988800Y7416800D02*
D03*
X12585700Y7759700D02*
D03*
X12700000Y7747000D02*
D03*
X11747500Y5143500D02*
D03*
X11620500Y5130800D02*
D03*
X8864600Y6972300D02*
D03*
X8940800Y7099300D02*
D03*
X10998200Y8039100D02*
D03*
X11531600Y6921500D02*
D03*
X9180600Y7948700D02*
D03*
X10388600Y7797800D02*
D03*
X11430000Y6921500D02*
D03*
X9880600Y8445500D02*
D03*
X11226800Y7264400D02*
D03*
X12598400Y8686800D02*
D03*
X13804900Y8128000D02*
D03*
X9652000Y10134600D02*
D03*
X11353800Y9664700D02*
D03*
X9093200Y10134600D02*
D03*
X11279363Y8481837D02*
D03*
X11112500Y8026400D02*
D03*
X10160000Y9525000D02*
D03*
X11153317Y7337500D02*
D03*
X12319000Y8343900D02*
D03*
X8242300Y7528000D02*
D03*
X10560940Y7384160D02*
D03*
X8267700Y7327900D02*
D03*
X11036300Y8610600D02*
D03*
X10446400Y10827400D02*
D03*
X11007545Y7093087D02*
D03*
X12725400Y7289800D02*
D03*
X11290300Y9867900D02*
D03*
X11288167Y8600033D02*
D03*
X10642600Y10782300D02*
D03*
X10579100Y9982200D02*
D03*
X11074400Y7404100D02*
D03*
X7747000Y7632700D02*
D03*
X11379200Y5105400D02*
D03*
X11158603Y6935870D02*
D03*
X8686800Y4876800D02*
D03*
X9220200Y7137400D02*
D03*
X7823200Y8775700D02*
D03*
X10972800Y6946900D02*
D03*
X12725400Y8674100D02*
D03*
X13690601Y8280400D02*
D03*
X12725400Y7035800D02*
D03*
X9410700Y7150100D02*
D03*
X12649200Y7112000D02*
D03*
X9791700Y6870700D02*
D03*
X10127441Y6857208D02*
D03*
X10071100Y5791200D02*
D03*
X9855200Y5803900D02*
D03*
X9949560Y5785740D02*
D03*
X9699700Y5791200D02*
D03*
X9550400Y6032500D02*
D03*
X9626600Y5880100D02*
D03*
X9931400Y6896100D02*
D03*
X10032110Y6871590D02*
D03*
%TF.MD5,ad6f41ab5a5aab94067dd2a4aee261ae*%
M02*
