%TF.GenerationSoftware,Altium Limited,Altium Designer,25.6.2 (33)*%
G04 Layer_Color=16711935*
%FSLAX45Y45*%
%MOMM*%
%TF.SameCoordinates,FD7FA593-DE0F-41FC-BB63-5AA315FDC3F2*%
%TF.FilePolarity,Negative*%
%TF.FileFunction,Soldermask,Bot*%
%TF.Part,Single*%
G01*
G75*
%TA.AperFunction,ComponentPad*%
%ADD57P,2.17789X4X270.0*%
%ADD58C,1.54000*%
G04:AMPARAMS|DCode=63|XSize=0.9mm|YSize=2.4mm|CornerRadius=0.45mm|HoleSize=0mm|Usage=FLASHONLY|Rotation=180.000|XOffset=0mm|YOffset=0mm|HoleType=Round|Shape=RoundedRectangle|*
%AMROUNDEDRECTD63*
21,1,0.90000,1.50000,0,0,180.0*
21,1,0.00000,2.40000,0,0,180.0*
1,1,0.90000,0.00000,0.75000*
1,1,0.90000,0.00000,0.75000*
1,1,0.90000,0.00000,-0.75000*
1,1,0.90000,0.00000,-0.75000*
%
%ADD63ROUNDEDRECTD63*%
G04:AMPARAMS|DCode=64|XSize=0.9mm|YSize=1.7mm|CornerRadius=0.45mm|HoleSize=0mm|Usage=FLASHONLY|Rotation=180.000|XOffset=0mm|YOffset=0mm|HoleType=Round|Shape=RoundedRectangle|*
%AMROUNDEDRECTD64*
21,1,0.90000,0.80000,0,0,180.0*
21,1,0.00000,1.70000,0,0,180.0*
1,1,0.90000,0.00000,0.40000*
1,1,0.90000,0.00000,0.40000*
1,1,0.90000,0.00000,-0.40000*
1,1,0.90000,0.00000,-0.40000*
%
%ADD64ROUNDEDRECTD64*%
%ADD65C,0.65000*%
%ADD119C,1.62820*%
%ADD120C,1.50320*%
%TA.AperFunction,ViaPad*%
%ADD121C,6.40320*%
%TA.AperFunction,ComponentPad*%
%ADD122C,1.58420*%
%ADD123C,1.40320*%
%ADD124P,2.30262X4X180.0*%
%ADD125P,2.62082X4X360.0*%
%ADD126P,1.98443X4X270.0*%
%ADD127C,1.55320*%
%ADD128R,1.55320X1.55320*%
%ADD129R,1.40320X1.40320*%
%ADD130C,1.85320*%
%TA.AperFunction,SMDPad,CuDef*%
%ADD131R,1.40320X2.00320*%
%ADD132R,0.80320X1.75320*%
D57*
X12110311Y10012391D02*
D03*
D58*
X11650691Y10472011D02*
D03*
X12428509Y10330589D02*
D03*
X11968889Y10790209D02*
D03*
D63*
X9529100Y11685100D02*
D03*
X8664100D02*
D03*
D64*
X9529100Y12023100D02*
D03*
X8664100D02*
D03*
D65*
X9394100Y11722100D02*
D03*
X8799100D02*
D03*
Y11587100D02*
D03*
X9394100D02*
D03*
X9054100Y11722100D02*
D03*
X9139100Y11587100D02*
D03*
Y11722100D02*
D03*
X9054100Y11587100D02*
D03*
X9309100D02*
D03*
X8884100D02*
D03*
Y11722100D02*
D03*
X9309100D02*
D03*
X9224100Y11587100D02*
D03*
X8969100D02*
D03*
Y11722100D02*
D03*
X9224100D02*
D03*
D119*
X12933765Y10983779D02*
D03*
X12792343Y11125200D02*
D03*
X12509500Y11408043D02*
D03*
X12650921Y11266621D02*
D03*
X12933765Y10700936D02*
D03*
X12509500Y11125200D02*
D03*
X12368079Y11266621D02*
D03*
X12792342Y10842357D02*
D03*
X12650921Y10983779D02*
D03*
D120*
X13568764Y9596036D02*
D03*
X13144501Y10020300D02*
D03*
D121*
X11785600Y11709400D02*
D03*
Y3683000D02*
D03*
X8166100Y11709400D02*
D03*
Y3683000D02*
D03*
D122*
X13703300Y7273900D02*
D03*
Y6673900D02*
D03*
X12489264Y4932764D02*
D03*
X12065000Y4508500D02*
D03*
X7629257Y4778643D02*
D03*
X7487836Y4920064D02*
D03*
X6235700Y6845300D02*
D03*
Y7445300D02*
D03*
X8053521Y4354379D02*
D03*
X13057321Y5500821D02*
D03*
X7912100Y4495800D02*
D03*
X7204993Y5202907D02*
D03*
X10709300Y3962400D02*
D03*
X12347843Y4791343D02*
D03*
X10509300Y3962400D02*
D03*
X7346415Y5061485D02*
D03*
X12206421Y4649921D02*
D03*
X13703300Y6873900D02*
D03*
X10909300Y3962400D02*
D03*
X12915900Y5359400D02*
D03*
X7770679Y4637221D02*
D03*
X13703300Y7073900D02*
D03*
X6294036Y6113864D02*
D03*
X11109300Y3962400D02*
D03*
X7063572Y5344328D02*
D03*
X6576879Y5831021D02*
D03*
X13340164Y5783664D02*
D03*
X6435457Y5972443D02*
D03*
X13198743Y5642243D02*
D03*
X6718300Y5689600D02*
D03*
X6235700Y7045300D02*
D03*
Y7245300D02*
D03*
D123*
X6502400Y10198100D02*
D03*
X5702300Y8619300D02*
D03*
D124*
X13075185Y10842357D02*
D03*
D125*
X11580595Y10098305D02*
D03*
D126*
X6679177Y10374877D02*
D03*
D127*
X9880600Y3987800D02*
D03*
X9680600D02*
D03*
X9480600D02*
D03*
X9280600D02*
D03*
X9080600D02*
D03*
D128*
X8880600D02*
D03*
D129*
X5702300Y8369300D02*
D03*
D130*
X11760200Y9918700D02*
D03*
D131*
X10361400Y3190700D02*
D03*
X9501400D02*
D03*
D132*
X9631400Y3578200D02*
D03*
X9731400D02*
D03*
X10231400D02*
D03*
X10131400D02*
D03*
X10031400D02*
D03*
X9931400D02*
D03*
X9831400D02*
D03*
%TF.MD5,6a979553661fe0346a8df7e5f11afa67*%
M02*
