%TF.GenerationSoftware,Altium Limited,Altium Designer,25.6.2 (33)*%
G04 Layer_Color=65535*
%FSLAX45Y45*%
%MOMM*%
%TF.SameCoordinates,FD7FA593-DE0F-41FC-BB63-5AA315FDC3F2*%
%TF.FilePolarity,Positive*%
%TF.FileFunction,Legend,Bot*%
%TF.Part,Single*%
G01*
G75*
%TA.AperFunction,NonConductor*%
%ADD78C,0.20000*%
%ADD80C,0.10000*%
%ADD82C,0.15000*%
G36*
X5649816Y6955094D02*
X5475384D01*
Y8183305D01*
X5649816D01*
Y6955094D01*
D02*
G37*
%LPC*%
G36*
X5621853Y8158305D02*
X5503347D01*
Y8131271D01*
X5503532Y8129605D01*
Y8127753D01*
X5503717Y8125716D01*
Y8123494D01*
X5504272Y8119050D01*
X5504828Y8114421D01*
X5505754Y8109977D01*
X5506309Y8108125D01*
X5506865Y8106459D01*
Y8106274D01*
X5507050Y8106088D01*
X5507605Y8105163D01*
X5508346Y8103496D01*
X5509642Y8101644D01*
X5511309Y8099608D01*
X5513346Y8097386D01*
X5515753Y8095164D01*
X5518530Y8093127D01*
X5518901Y8092942D01*
X5520012Y8092386D01*
X5521678Y8091460D01*
X5523900Y8090534D01*
X5526863Y8089609D01*
X5530011Y8088683D01*
X5533714Y8088127D01*
X5537788Y8087942D01*
X5537973D01*
X5538343D01*
X5538898D01*
X5539639D01*
X5541861Y8088313D01*
X5544639Y8088683D01*
X5547786Y8089423D01*
X5550934Y8090349D01*
X5554267Y8091831D01*
X5557415Y8093682D01*
X5557785Y8093867D01*
X5558711Y8094793D01*
X5560007Y8096089D01*
X5561859Y8097941D01*
X5563711Y8100163D01*
X5565748Y8103126D01*
X5567599Y8106644D01*
X5569266Y8110532D01*
X5621853Y8082387D01*
X5503347D01*
X5621853D01*
Y8158305D01*
D02*
G37*
G36*
Y8063871D02*
X5503347D01*
Y7999248D01*
X5525196D01*
Y8041466D01*
X5546675D01*
Y7999248D01*
X5534848D01*
X5582351D01*
X5568525D01*
Y8041466D01*
X5599633D01*
Y7999248D01*
X5621853D01*
Y8063871D01*
D02*
G37*
G36*
Y7987397D02*
X5503347D01*
Y7881112D01*
X5621853Y7923885D01*
Y7945550D01*
X5503347Y7987397D01*
X5621853D01*
D02*
G37*
G36*
X5588338Y7862040D02*
X5567784D01*
Y7821118D01*
X5588338D01*
Y7862040D01*
D02*
G37*
G36*
X5621853Y7793713D02*
X5503347D01*
Y7771123D01*
X5503532Y7769642D01*
Y7766124D01*
X5503902Y7762235D01*
X5504272Y7758162D01*
X5504828Y7754458D01*
X5505198Y7752792D01*
X5505569Y7751310D01*
Y7751125D01*
X5505754Y7750755D01*
X5505939Y7750199D01*
X5506124Y7749644D01*
X5506865Y7747607D01*
X5507976Y7745200D01*
X5509272Y7742608D01*
X5511124Y7739830D01*
X5513346Y7737053D01*
X5516123Y7734460D01*
X5516493Y7734090D01*
X5517419Y7733349D01*
X5519086Y7732423D01*
X5521123Y7731127D01*
X5523900Y7730016D01*
X5526863Y7728905D01*
X5530381Y7728165D01*
X5534084Y7727979D01*
X5534455D01*
X5535195D01*
X5536491Y7728165D01*
X5538158Y7728350D01*
X5540009Y7728720D01*
X5542046Y7729276D01*
X5544268Y7730016D01*
X5546305Y7730942D01*
X5546490Y7731127D01*
X5547231Y7731498D01*
X5548342Y7732238D01*
X5549638Y7733164D01*
X5551305Y7734460D01*
X5552971Y7735942D01*
X5554823Y7737978D01*
X5556674Y7740200D01*
Y7740015D01*
X5556860Y7739645D01*
X5557230Y7739089D01*
X5557600Y7738349D01*
X5558711Y7736497D01*
X5560193Y7734275D01*
X5562044Y7731683D01*
X5564266Y7729090D01*
X5566673Y7726498D01*
X5569451Y7724461D01*
X5569821Y7724276D01*
X5570747Y7723721D01*
X5572414Y7722795D01*
X5574450Y7721869D01*
X5577228Y7720943D01*
X5580191Y7720017D01*
X5583709Y7719462D01*
X5587412Y7719277D01*
X5503347D01*
X5589078D01*
X5590930Y7719462D01*
X5593522Y7719832D01*
X5596300Y7720573D01*
X5599448Y7721499D01*
X5602596Y7722795D01*
X5605743Y7724461D01*
X5606114Y7724646D01*
X5607040Y7725387D01*
X5608521Y7726498D01*
X5610373Y7728165D01*
X5612224Y7730016D01*
X5614261Y7732423D01*
X5616298Y7735016D01*
X5617964Y7737978D01*
X5618150Y7738349D01*
X5618520Y7739460D01*
X5619261Y7741311D01*
X5619816Y7743904D01*
X5620557Y7747052D01*
X5621297Y7750940D01*
X5621668Y7755384D01*
X5621853Y7760384D01*
Y7719277D01*
D01*
Y7793713D01*
D02*
G37*
G36*
Y7665208D02*
X5575932Y7632063D01*
X5534269Y7662246D01*
Y7665208D01*
Y7636693D01*
X5558156Y7619287D01*
X5534269Y7602067D01*
Y7606696D01*
Y7577069D01*
X5575561Y7606696D01*
X5621853Y7572996D01*
Y7665208D01*
D02*
G37*
%LPD*%
G36*
Y7598548D02*
X5593152Y7619472D01*
X5621853Y7640211D01*
Y7598548D01*
D02*
G37*
%LPC*%
G36*
Y7572810D02*
X5575932Y7539666D01*
X5534269Y7569848D01*
Y7572810D01*
X5621853D01*
X5534269D01*
Y7544295D01*
X5558156Y7526889D01*
X5534269Y7509669D01*
Y7514298D01*
Y7484671D01*
X5575561Y7514298D01*
X5621853Y7480598D01*
Y7572810D01*
D02*
G37*
%LPD*%
G36*
Y7506151D02*
X5593152Y7527074D01*
X5621853Y7547813D01*
Y7506151D01*
D02*
G37*
%LPC*%
G36*
X5588338Y7466155D02*
X5567784D01*
Y7425233D01*
X5588338D01*
Y7466155D01*
D02*
G37*
G36*
X5624816Y7406531D02*
X5500384D01*
Y7323392D01*
Y7364128D01*
X5500569Y7363202D01*
Y7362091D01*
X5500754Y7360795D01*
X5501125Y7357833D01*
X5502050Y7354314D01*
X5503161Y7350611D01*
X5504643Y7346723D01*
X5506865Y7343205D01*
Y7343019D01*
X5507235Y7342834D01*
X5507976Y7341723D01*
X5509457Y7339872D01*
X5511679Y7337835D01*
X5514457Y7335428D01*
X5517790Y7333020D01*
X5521678Y7330613D01*
X5526307Y7328576D01*
X5526492D01*
X5526863Y7328391D01*
X5527603Y7328021D01*
X5528714Y7327836D01*
X5530011Y7327280D01*
X5531677Y7326910D01*
X5533529Y7326540D01*
X5535751Y7325984D01*
X5538343Y7325429D01*
X5540935Y7325058D01*
X5543898Y7324503D01*
X5547231Y7324132D01*
X5550749Y7323947D01*
X5554452Y7323577D01*
X5558526Y7323392D01*
X5566673D01*
X5568710Y7323577D01*
X5570932D01*
X5573525Y7323762D01*
X5576117Y7324132D01*
X5582042Y7324688D01*
X5588153Y7325614D01*
X5594078Y7326910D01*
X5596855Y7327836D01*
X5599448Y7328762D01*
X5599633D01*
X5600003Y7328947D01*
X5600744Y7329317D01*
X5601670Y7329687D01*
X5602596Y7330243D01*
X5603892Y7330798D01*
X5606854Y7332465D01*
X5610002Y7334502D01*
X5613150Y7336724D01*
X5616113Y7339501D01*
X5618705Y7342649D01*
Y7342834D01*
X5618890Y7343019D01*
X5619261Y7343575D01*
X5619631Y7344130D01*
X5620557Y7346167D01*
X5621668Y7348574D01*
X5622964Y7351907D01*
X5623890Y7355611D01*
X5624630Y7359869D01*
X5624816Y7364684D01*
Y7365980D01*
X5624630Y7366906D01*
Y7368017D01*
X5624445Y7369498D01*
X5624075Y7372646D01*
X5623334Y7376164D01*
X5622223Y7379867D01*
X5620742Y7383756D01*
X5618705Y7387274D01*
Y7387459D01*
X5618335Y7387644D01*
X5617594Y7388755D01*
X5616113Y7390422D01*
X5614076Y7392459D01*
X5611484Y7394681D01*
X5608151Y7397088D01*
X5604447Y7399495D01*
X5600003Y7401532D01*
X5599818D01*
X5599448Y7401717D01*
X5598707Y7401902D01*
X5597596Y7402272D01*
X5596300Y7402643D01*
X5594633Y7403198D01*
X5592782Y7403569D01*
X5590745Y7403939D01*
X5588338Y7404494D01*
X5585560Y7404865D01*
X5582598Y7405420D01*
X5579450Y7405791D01*
X5575932Y7405976D01*
X5572228Y7406346D01*
X5568155Y7406531D01*
X5624816D01*
D02*
G37*
G36*
Y7314874D02*
D01*
Y7276174D01*
X5624630Y7277285D01*
Y7278582D01*
X5624445Y7280063D01*
X5623705Y7283581D01*
X5622779Y7287655D01*
X5621297Y7292099D01*
X5619075Y7296543D01*
X5617779Y7298765D01*
X5616298Y7300802D01*
X5616113Y7300987D01*
X5615928Y7301172D01*
X5615372Y7301727D01*
X5614631Y7302468D01*
X5613891Y7303394D01*
X5612780Y7304320D01*
X5610002Y7306542D01*
X5606669Y7308949D01*
X5602596Y7311171D01*
X5597781Y7313393D01*
X5592411Y7314874D01*
D01*
Y7291173D01*
X5592597Y7290988D01*
X5593337Y7290617D01*
X5594448Y7290062D01*
X5595559Y7289321D01*
X5597041Y7288395D01*
X5598337Y7287099D01*
X5599818Y7285618D01*
X5600929Y7284137D01*
X5601114Y7283951D01*
X5601299Y7283396D01*
X5601855Y7282470D01*
X5602225Y7281174D01*
X5602781Y7279693D01*
X5603336Y7278026D01*
X5603521Y7276174D01*
X5603707Y7274138D01*
Y7272841D01*
X5603336Y7271545D01*
X5602966Y7269694D01*
X5602410Y7267842D01*
X5601485Y7265620D01*
X5600188Y7263583D01*
X5598522Y7261546D01*
X5598337Y7261361D01*
X5597596Y7260620D01*
X5596300Y7259880D01*
X5594819Y7258769D01*
X5592782Y7257843D01*
X5590375Y7256917D01*
X5587597Y7256362D01*
X5584634Y7256176D01*
X5584449D01*
X5584264D01*
X5583338D01*
X5581857Y7256362D01*
X5579820Y7256732D01*
X5577783Y7257473D01*
X5575561Y7258213D01*
X5573339Y7259509D01*
X5571303Y7261176D01*
X5571117Y7261361D01*
X5570377Y7262102D01*
X5569636Y7263028D01*
X5568525Y7264509D01*
X5567599Y7266175D01*
X5566673Y7268212D01*
X5566118Y7270434D01*
X5565933Y7272841D01*
Y7274138D01*
X5566118Y7275063D01*
X5566673Y7277471D01*
X5567784Y7280248D01*
Y7280433D01*
X5568155Y7280804D01*
X5568525Y7281544D01*
X5569081Y7282470D01*
X5570932Y7284692D01*
X5573339Y7287284D01*
X5569266Y7305616D01*
X5503347Y7291358D01*
Y7235808D01*
X5524270D01*
Y7274508D01*
X5546120Y7279322D01*
Y7279137D01*
X5545935Y7278952D01*
X5545750Y7278026D01*
X5545564Y7276730D01*
X5545194Y7275434D01*
Y7275063D01*
X5545009Y7274138D01*
X5544824Y7272841D01*
Y7270064D01*
X5545009Y7268953D01*
X5545194Y7267472D01*
X5545379Y7265990D01*
X5545750Y7264139D01*
X5546120Y7262287D01*
X5547601Y7258028D01*
X5548342Y7255806D01*
X5549453Y7253584D01*
X5550749Y7251362D01*
X5552230Y7249140D01*
X5553897Y7246918D01*
X5555934Y7244881D01*
X5556119Y7244696D01*
X5556489Y7244326D01*
X5557045Y7243956D01*
X5557971Y7243215D01*
X5558896Y7242474D01*
X5560193Y7241548D01*
X5561859Y7240437D01*
X5563526Y7239512D01*
X5565377Y7238586D01*
X5567599Y7237475D01*
X5569821Y7236549D01*
X5572414Y7235808D01*
X5575006Y7235068D01*
X5577783Y7234512D01*
X5580746Y7234327D01*
X5583894Y7234142D01*
X5585560D01*
X5586856Y7234327D01*
X5588338Y7234512D01*
X5590004Y7234697D01*
X5592041Y7235068D01*
X5594078Y7235623D01*
X5598707Y7237104D01*
X5601114Y7238030D01*
X5603521Y7239141D01*
X5606114Y7240437D01*
X5608521Y7242104D01*
X5610928Y7243956D01*
X5613150Y7245992D01*
X5613335Y7246178D01*
X5613706Y7246548D01*
X5614261Y7247103D01*
X5615002Y7248029D01*
X5615928Y7249325D01*
X5616853Y7250622D01*
X5617964Y7252288D01*
X5618890Y7253955D01*
X5620001Y7255991D01*
X5621112Y7258213D01*
X5622964Y7263028D01*
X5623705Y7265805D01*
X5624260Y7268583D01*
X5624630Y7271545D01*
X5624816Y7274693D01*
Y7234512D01*
Y7314874D01*
D02*
G37*
G36*
X5588338Y7212107D02*
X5567784D01*
Y7171185D01*
X5588338D01*
Y7212107D01*
D02*
G37*
G36*
X5621853Y7153780D02*
X5500384D01*
Y7071566D01*
Y7108044D01*
X5500569Y7106007D01*
X5500939Y7103415D01*
X5501495Y7100452D01*
X5502421Y7097304D01*
X5503532Y7093971D01*
X5505013Y7090823D01*
Y7090638D01*
X5505198Y7090453D01*
X5505939Y7089527D01*
X5506865Y7087861D01*
X5508346Y7086009D01*
X5510198Y7083972D01*
X5512420Y7081750D01*
X5515197Y7079528D01*
X5518160Y7077491D01*
X5518530Y7077306D01*
X5519641Y7076751D01*
X5521308Y7075825D01*
X5523530Y7074899D01*
X5526122Y7074158D01*
X5529085Y7073232D01*
X5532233Y7072677D01*
X5535566Y7072492D01*
X5535751D01*
X5536121D01*
X5536677D01*
X5537417D01*
X5538343Y7072677D01*
X5539454Y7072862D01*
X5542417Y7073232D01*
X5545750Y7073973D01*
X5549638Y7075084D01*
X5553897Y7076565D01*
X5558341Y7078602D01*
X5558526D01*
X5558896Y7078973D01*
X5559637Y7079343D01*
X5560563Y7079713D01*
X5561674Y7080454D01*
X5562970Y7081380D01*
X5564637Y7082491D01*
X5566488Y7083602D01*
X5568525Y7085083D01*
X5570562Y7086750D01*
X5572969Y7088416D01*
X5575561Y7090453D01*
X5578154Y7092675D01*
X5580931Y7095082D01*
X5583894Y7097674D01*
X5587042Y7100637D01*
X5600929Y7114154D01*
Y7071566D01*
X5621853D01*
Y7153780D01*
D02*
G37*
G36*
X5592411Y7060826D02*
D01*
Y7037125D01*
X5592597Y7036940D01*
X5593337Y7036570D01*
X5594448Y7036014D01*
X5595559Y7035273D01*
X5597041Y7034348D01*
X5598337Y7033051D01*
X5599818Y7031570D01*
X5600929Y7030089D01*
X5601114Y7029904D01*
X5601299Y7029348D01*
X5601855Y7028422D01*
X5602225Y7027126D01*
X5602781Y7025645D01*
X5603336Y7023978D01*
X5603521Y7022127D01*
X5603707Y7020090D01*
Y7018794D01*
X5603336Y7017498D01*
X5602966Y7015646D01*
X5602410Y7013794D01*
X5601485Y7011572D01*
X5600188Y7009535D01*
X5598522Y7007499D01*
X5598337Y7007313D01*
X5597596Y7006573D01*
X5596300Y7005832D01*
X5594819Y7004721D01*
X5592782Y7003795D01*
X5590375Y7002869D01*
X5587597Y7002314D01*
X5584634Y7002129D01*
X5584449D01*
X5584264D01*
X5583338D01*
X5581857Y7002314D01*
X5579820Y7002684D01*
X5577783Y7003425D01*
X5575561Y7004166D01*
X5573339Y7005462D01*
X5571303Y7007128D01*
X5571117Y7007313D01*
X5570377Y7008054D01*
X5569636Y7008980D01*
X5568525Y7010461D01*
X5567599Y7012128D01*
X5566673Y7014165D01*
X5566118Y7016387D01*
X5565933Y7018794D01*
Y7020090D01*
X5566118Y7021016D01*
X5566673Y7023423D01*
X5567784Y7026200D01*
Y7026385D01*
X5568155Y7026756D01*
X5568525Y7027496D01*
X5569081Y7028422D01*
X5570932Y7030644D01*
X5573339Y7033237D01*
X5569266Y7051568D01*
X5503347Y7037310D01*
Y6981760D01*
X5524270D01*
Y7020460D01*
X5546120Y7025274D01*
Y7025089D01*
X5545935Y7024904D01*
X5545750Y7023978D01*
X5545564Y7022682D01*
X5545194Y7021386D01*
Y7021016D01*
X5545009Y7020090D01*
X5544824Y7018794D01*
Y7016016D01*
X5545009Y7014905D01*
X5545194Y7013424D01*
X5545379Y7011943D01*
X5545750Y7010091D01*
X5546120Y7008239D01*
X5547601Y7003980D01*
X5548342Y7001758D01*
X5549453Y6999536D01*
X5550749Y6997314D01*
X5552230Y6995092D01*
X5553897Y6992870D01*
X5555934Y6990834D01*
X5556119Y6990648D01*
X5556489Y6990278D01*
X5557045Y6989908D01*
X5557971Y6989167D01*
X5558896Y6988426D01*
X5560193Y6987501D01*
X5561859Y6986390D01*
X5563526Y6985464D01*
X5565377Y6984538D01*
X5567599Y6983427D01*
X5569821Y6982501D01*
X5572414Y6981760D01*
X5575006Y6981020D01*
X5577783Y6980464D01*
X5580746Y6980279D01*
X5583894Y6980094D01*
X5585560D01*
X5586856Y6980279D01*
X5588338Y6980464D01*
X5590004Y6980649D01*
X5592041Y6981020D01*
X5594078Y6981575D01*
X5598707Y6983057D01*
X5601114Y6983982D01*
X5603521Y6985093D01*
X5606114Y6986390D01*
X5608521Y6988056D01*
X5610928Y6989908D01*
X5613150Y6991945D01*
X5613335Y6992130D01*
X5613706Y6992500D01*
X5614261Y6993056D01*
X5615002Y6993981D01*
X5615928Y6995278D01*
X5616853Y6996574D01*
X5617964Y6998240D01*
X5618890Y6999907D01*
X5620001Y7001944D01*
X5621112Y7004166D01*
X5622964Y7008980D01*
X5623705Y7011757D01*
X5624260Y7014535D01*
X5624630Y7017498D01*
X5624816Y7020645D01*
Y7002684D01*
Y7020645D01*
Y7022127D01*
X5624630Y7023238D01*
Y7024534D01*
X5624445Y7026015D01*
X5623705Y7029533D01*
X5622779Y7033607D01*
X5621297Y7038051D01*
X5619075Y7042495D01*
X5617779Y7044717D01*
X5616298Y7046754D01*
X5616113Y7046939D01*
X5615928Y7047124D01*
X5615372Y7047680D01*
X5614631Y7048420D01*
X5613891Y7049346D01*
X5612780Y7050272D01*
X5610002Y7052494D01*
X5606669Y7054901D01*
X5602596Y7057123D01*
X5597781Y7059345D01*
X5592411Y7060826D01*
D02*
G37*
%LPD*%
G36*
X5549638Y8127197D02*
X5549453Y8125161D01*
X5549268Y8122939D01*
X5548897Y8120531D01*
X5548527Y8118124D01*
X5547786Y8115902D01*
X5546861Y8114051D01*
X5546675Y8113865D01*
X5546305Y8113310D01*
X5545564Y8112754D01*
X5544639Y8111829D01*
X5543342Y8111088D01*
X5541861Y8110532D01*
X5539824Y8109977D01*
X5537602Y8109792D01*
X5537417D01*
X5536862D01*
X5536306Y8109977D01*
X5535380D01*
X5533158Y8110718D01*
X5532047Y8111088D01*
X5530936Y8111829D01*
X5530751D01*
X5530381Y8112199D01*
X5529270Y8113310D01*
X5527974Y8114976D01*
X5526678Y8117384D01*
Y8117569D01*
X5526492Y8118124D01*
X5526307Y8118865D01*
X5525937Y8120161D01*
X5525752Y8121828D01*
X5525567Y8124050D01*
X5525381Y8126642D01*
Y8135900D01*
X5549638D01*
Y8127197D01*
D02*
G37*
G36*
X5621853Y8107014D02*
X5571673Y8133863D01*
Y8135900D01*
X5621853D01*
Y8107014D01*
D02*
G37*
G36*
X5587597Y7934440D02*
X5503347Y7904072D01*
Y7964251D01*
X5587597Y7934440D01*
D02*
G37*
G36*
X5549823Y7765013D02*
X5549638Y7763531D01*
X5549453Y7761680D01*
X5549083Y7759643D01*
X5548342Y7757606D01*
X5547601Y7755569D01*
X5546490Y7753903D01*
X5546305Y7753718D01*
X5545750Y7753347D01*
X5545009Y7752607D01*
X5543898Y7751866D01*
X5542602Y7751125D01*
X5540935Y7750385D01*
X5539084Y7750014D01*
X5537047Y7749829D01*
X5536862D01*
X5536121D01*
X5535195Y7750014D01*
X5533899Y7750385D01*
X5532418Y7750755D01*
X5530936Y7751496D01*
X5529455Y7752421D01*
X5528159Y7753718D01*
X5527974Y7753903D01*
X5527603Y7754458D01*
X5527048Y7755384D01*
X5526492Y7756680D01*
X5525937Y7758347D01*
X5525381Y7760384D01*
X5525011Y7762791D01*
X5524826Y7765568D01*
Y7771308D01*
X5549823D01*
Y7765013D01*
D02*
G37*
G36*
X5600374Y7763531D02*
X5600188Y7762235D01*
Y7760939D01*
X5600003Y7757976D01*
X5599448Y7754829D01*
X5598892Y7751681D01*
X5597966Y7748718D01*
X5597411Y7747607D01*
X5596855Y7746496D01*
X5596670Y7746311D01*
X5596115Y7745755D01*
X5595374Y7744830D01*
X5594263Y7743904D01*
X5592782Y7743163D01*
X5591115Y7742237D01*
X5589078Y7741682D01*
X5586671Y7741497D01*
X5586301D01*
X5585375D01*
X5583894Y7741867D01*
X5582227Y7742237D01*
X5580191Y7742978D01*
X5578154Y7743904D01*
X5576302Y7745385D01*
X5574450Y7747422D01*
X5574265Y7747607D01*
X5573710Y7748533D01*
X5572969Y7750014D01*
X5572228Y7752051D01*
X5571488Y7754643D01*
X5570747Y7757976D01*
X5570192Y7762050D01*
X5570006Y7766679D01*
Y7771308D01*
X5600374D01*
Y7763531D01*
D02*
G37*
G36*
X5558526Y7406346D02*
X5555934Y7406161D01*
X5552786Y7405976D01*
X5549453Y7405605D01*
X5545750Y7405235D01*
X5537973Y7404124D01*
X5530196Y7402272D01*
X5526307Y7401161D01*
X5522789Y7399865D01*
X5519456Y7398199D01*
X5516493Y7396532D01*
X5516308Y7396347D01*
X5515753Y7395977D01*
X5515012Y7395421D01*
X5513901Y7394495D01*
X5512790Y7393385D01*
X5511309Y7391903D01*
X5510013Y7390422D01*
X5508346Y7388385D01*
X5506865Y7386348D01*
X5505383Y7384126D01*
X5504087Y7381534D01*
X5502976Y7378756D01*
X5501865Y7375794D01*
X5501125Y7372461D01*
X5500569Y7369128D01*
X5500384Y7365424D01*
Y7406531D01*
X5560748D01*
X5558526Y7406346D01*
D02*
G37*
G36*
X5569636Y7383756D02*
X5571858Y7383571D01*
X5574080D01*
X5576487Y7383200D01*
X5581672Y7382645D01*
X5586671Y7381719D01*
X5589078Y7381164D01*
X5591486Y7380423D01*
X5593522Y7379682D01*
X5595189Y7378756D01*
X5595559Y7378571D01*
X5596485Y7377831D01*
X5597966Y7376534D01*
X5599448Y7375053D01*
X5600929Y7373016D01*
X5602410Y7370609D01*
X5603336Y7367832D01*
X5603521Y7366350D01*
X5603707Y7364869D01*
Y7364499D01*
X5603521Y7363573D01*
X5603336Y7362091D01*
X5602781Y7360240D01*
X5601670Y7358203D01*
X5600374Y7355981D01*
X5598337Y7353759D01*
X5597226Y7352833D01*
X5595744Y7351907D01*
X5595559D01*
X5595189Y7351722D01*
X5594633Y7351352D01*
X5593893Y7350981D01*
X5592782Y7350611D01*
X5591486Y7350056D01*
X5589819Y7349500D01*
X5587967Y7348945D01*
X5585745Y7348389D01*
X5583338Y7347834D01*
X5580746Y7347278D01*
X5577783Y7346908D01*
X5574450Y7346538D01*
X5570932Y7346167D01*
X5567044Y7345982D01*
X5562970D01*
X5562785D01*
X5561859D01*
X5560748D01*
X5559267D01*
X5557230Y7346167D01*
X5555193D01*
X5552786Y7346352D01*
X5550194Y7346723D01*
X5544824Y7347278D01*
X5539454Y7348204D01*
X5537047Y7348945D01*
X5534640Y7349500D01*
X5532603Y7350426D01*
X5530751Y7351352D01*
X5530566D01*
X5530381Y7351537D01*
X5529270Y7352278D01*
X5527974Y7353389D01*
X5526307Y7355055D01*
X5524641Y7356907D01*
X5523159Y7359314D01*
X5522234Y7361906D01*
X5522048Y7363388D01*
X5521863Y7364869D01*
Y7365795D01*
X5522048Y7366906D01*
X5522234Y7368202D01*
X5522789Y7369868D01*
X5523345Y7371535D01*
X5524270Y7373387D01*
X5525567Y7375053D01*
X5525752Y7375238D01*
X5526307Y7375794D01*
X5527233Y7376534D01*
X5528529Y7377460D01*
X5530196Y7378571D01*
X5532418Y7379682D01*
X5535010Y7380793D01*
X5538158Y7381719D01*
X5538343D01*
X5538528D01*
X5539084Y7381904D01*
X5539824Y7382089D01*
X5540750Y7382275D01*
X5541861Y7382460D01*
X5543157Y7382645D01*
X5544824Y7382830D01*
X5546490Y7383015D01*
X5548342Y7383200D01*
X5550564Y7383386D01*
X5552971Y7383571D01*
X5555378Y7383756D01*
X5558156D01*
X5561118Y7383941D01*
X5564266D01*
X5564451D01*
X5565192D01*
X5566303D01*
X5567970D01*
X5569636Y7383756D01*
D02*
G37*
G36*
X5573710Y7117302D02*
X5573525Y7117117D01*
X5573154Y7116746D01*
X5572414Y7116006D01*
X5571488Y7115080D01*
X5570377Y7114154D01*
X5569081Y7112858D01*
X5565933Y7110081D01*
X5562600Y7107118D01*
X5559082Y7104155D01*
X5555563Y7101563D01*
X5553897Y7100452D01*
X5552230Y7099526D01*
X5552045D01*
X5551860Y7099341D01*
X5550749Y7098785D01*
X5549268Y7098045D01*
X5547231Y7097304D01*
X5545009Y7096563D01*
X5542417Y7095823D01*
X5539824Y7095267D01*
X5537417Y7095082D01*
X5537047D01*
X5536306D01*
X5535010Y7095267D01*
X5533344Y7095638D01*
X5531677Y7096193D01*
X5529825Y7097119D01*
X5527789Y7098230D01*
X5526122Y7099711D01*
X5525937Y7099896D01*
X5525381Y7100452D01*
X5524641Y7101563D01*
X5523715Y7102859D01*
X5522974Y7104526D01*
X5522234Y7106562D01*
X5521678Y7108784D01*
X5521493Y7111377D01*
Y7112673D01*
X5521863Y7113969D01*
X5522234Y7115636D01*
X5522789Y7117672D01*
X5523900Y7119709D01*
X5525196Y7121746D01*
X5527048Y7123598D01*
X5527233Y7123783D01*
X5527974Y7124338D01*
X5529270Y7125079D01*
X5530936Y7126005D01*
X5532973Y7126931D01*
X5535380Y7127671D01*
X5538343Y7128412D01*
X5541491Y7128597D01*
Y7150632D01*
X5541306D01*
X5540565D01*
X5539639Y7150447D01*
X5538343Y7150262D01*
X5536677Y7150076D01*
X5534825Y7149891D01*
X5532788Y7149336D01*
X5530566Y7148780D01*
X5525752Y7147484D01*
X5523345Y7146373D01*
X5520752Y7145262D01*
X5518345Y7143966D01*
X5515938Y7142485D01*
X5513716Y7140818D01*
X5511494Y7138781D01*
X5511309Y7138596D01*
X5510938Y7138226D01*
X5510383Y7137670D01*
X5509827Y7136744D01*
X5508902Y7135633D01*
X5507976Y7134337D01*
X5507050Y7132671D01*
X5505939Y7131004D01*
X5504828Y7128967D01*
X5503902Y7126745D01*
X5502976Y7124338D01*
X5502050Y7121746D01*
X5501495Y7119154D01*
X5500939Y7116191D01*
X5500569Y7113043D01*
X5500384Y7109895D01*
Y7153780D01*
X5611113D01*
X5573710Y7117302D01*
D02*
G37*
D78*
X10291400Y3590700D02*
X10381400D01*
Y3318200D02*
Y3590700D01*
X9591400Y3165700D02*
X10271400D01*
X9481400Y3590700D02*
X9571400D01*
X9481400Y3318200D02*
Y3590700D01*
D80*
X10231400Y3708200D02*
G03*
X10231400Y3698200I0J-5000D01*
G01*
D02*
G03*
X10231400Y3708200I0J5000D01*
G01*
D82*
X9490861Y3758384D02*
X9524184D01*
X9507523D01*
Y3675077D01*
X9524184Y3658416D01*
X9540845D01*
X9557506Y3675077D01*
X9390894Y3758384D02*
X9457539D01*
Y3708400D01*
X9424216Y3725061D01*
X9407555D01*
X9390894Y3708400D01*
Y3675077D01*
X9407555Y3658416D01*
X9440877D01*
X9457539Y3675077D01*
%TF.MD5,2d24ee4c3d013b8a7b089bb61aa94ec8*%
M02*
