%TF.GenerationSoftware,Altium Limited,Altium Designer,25.6.2 (33)*%
G04 Layer_Color=0*
%FSLAX45Y45*%
%MOMM*%
%TF.SameCoordinates,FD7FA593-DE0F-41FC-BB63-5AA315FDC3F2*%
%TF.FilePolarity,Positive*%
%TF.FileFunction,Profile,NP*%
%TF.Part,Single*%
G01*
G75*
%TA.AperFunction,Profile*%
%ADD134C,0.02540*%
D134*
X5655846Y5438913D02*
X7749949Y3344810D01*
X7756572Y3341305D01*
D02*
G03*
X8574734Y3044464I996138J1469647D01*
G01*
X8576013Y3044402D01*
X11251014D01*
X11253605Y3044669D01*
D02*
G03*
X12209652Y3366735I-65416J1774225D01*
G01*
X12216854Y3370337D01*
X14257877Y5411360D01*
X14261282Y5417511D01*
D02*
G03*
X14604115Y6283785I-1421601J1063581D01*
G01*
X14606453Y6291140D01*
Y8950407D01*
X14608369Y8957553D01*
D02*
G03*
X14286040Y9921153I-1774487J-57865D01*
G01*
X14282439Y9928354D01*
X12253862Y11956930D01*
X12248377Y11960164D01*
D02*
G03*
X11276433Y12320617I-1076425J-1411900D01*
G01*
X11271344Y12319878D01*
X8690262D01*
X8687646Y12319606D01*
D02*
G03*
X7731622Y11997539I65443J-1774224D01*
G01*
X7724427Y11993938D01*
X5682856Y9952372D01*
X5679397Y9945982D01*
D02*
G03*
X5335481Y9085573I1419531J-1066342D01*
G01*
X5332903Y9077890D01*
Y6407136D01*
X5332907Y6406723D01*
D02*
G03*
X5655846Y5438913I1774487J57865D01*
G01*
%TF.MD5,e4ad12124eb6ac31bdbfc3dcf8dce7ac*%
M02*
