%TF.GenerationSoftware,Altium Limited,Altium Designer,25.6.2 (33)*%
G04 Layer_Physical_Order=1*
G04 Layer_Color=255*
%FSLAX45Y45*%
%MOMM*%
%TF.SameCoordinates,FD7FA593-DE0F-41FC-BB63-5AA315FDC3F2*%
%TF.FilePolarity,Positive*%
%TF.FileFunction,Copper,L1,Top,Signal*%
%TF.Part,Single*%
G01*
G75*
%TA.AperFunction,Conductor*%
%ADD10C,0.25400*%
%TA.AperFunction,SMDPad,CuDef*%
%ADD11R,0.95000X1.05000*%
G04:AMPARAMS|DCode=12|XSize=0.95mm|YSize=0.8mm|CornerRadius=0mm|HoleSize=0mm|Usage=FLASHONLY|Rotation=315.000|XOffset=0mm|YOffset=0mm|HoleType=Round|Shape=Rectangle|*
%AMROTATEDRECTD12*
4,1,4,-0.61872,0.05303,-0.05303,0.61872,0.61872,-0.05303,0.05303,-0.61872,-0.61872,0.05303,0.0*
%
%ADD12ROTATEDRECTD12*%

G04:AMPARAMS|DCode=13|XSize=1mm|YSize=1.05mm|CornerRadius=0mm|HoleSize=0mm|Usage=FLASHONLY|Rotation=135.000|XOffset=0mm|YOffset=0mm|HoleType=Round|Shape=Rectangle|*
%AMROTATEDRECTD13*
4,1,4,0.72479,0.01768,-0.01768,-0.72479,-0.72479,-0.01768,0.01768,0.72479,0.72479,0.01768,0.0*
%
%ADD13ROTATEDRECTD13*%

%ADD14R,1.50000X1.40000*%
%ADD15R,1.05000X0.95000*%
%ADD16R,0.35000X1.35000*%
%ADD17R,1.35000X0.35000*%
%ADD18R,1.45000X2.00000*%
%ADD19R,0.80000X1.50000*%
%ADD20R,0.65000X1.65000*%
G04:AMPARAMS|DCode=21|XSize=1.4mm|YSize=1.2mm|CornerRadius=0mm|HoleSize=0mm|Usage=FLASHONLY|Rotation=315.000|XOffset=0mm|YOffset=0mm|HoleType=Round|Shape=Rectangle|*
%AMROTATEDRECTD21*
4,1,4,-0.91924,0.07071,-0.07071,0.91924,0.91924,-0.07071,0.07071,-0.91924,-0.91924,0.07071,0.0*
%
%ADD21ROTATEDRECTD21*%

G04:AMPARAMS|DCode=22|XSize=1mm|YSize=1.05mm|CornerRadius=0mm|HoleSize=0mm|Usage=FLASHONLY|Rotation=225.000|XOffset=0mm|YOffset=0mm|HoleType=Round|Shape=Rectangle|*
%AMROTATEDRECTD22*
4,1,4,-0.01768,0.72479,0.72479,-0.01768,0.01768,-0.72479,-0.72479,0.01768,-0.01768,0.72479,0.0*
%
%ADD22ROTATEDRECTD22*%

%ADD23R,1.00000X1.05000*%
%ADD24R,0.80000X0.95000*%
%ADD25R,2.05000X2.05000*%
%ADD26R,0.85000X0.30000*%
%ADD27R,0.50000X0.35000*%
%ADD28R,1.20000X1.20000*%
%ADD29R,0.95000X0.80000*%
G04:AMPARAMS|DCode=30|XSize=6.3mm|YSize=6.1mm|CornerRadius=0mm|HoleSize=0mm|Usage=FLASHONLY|Rotation=315.000|XOffset=0mm|YOffset=0mm|HoleType=Round|Shape=Rectangle|*
%AMROTATEDRECTD30*
4,1,4,-4.38406,0.07071,-0.07071,4.38406,4.38406,-0.07071,0.07071,-4.38406,-4.38406,0.07071,0.0*
%
%ADD30ROTATEDRECTD30*%

G04:AMPARAMS|DCode=31|XSize=2.10292mm|YSize=2.8062mm|CornerRadius=0mm|HoleSize=0mm|Usage=FLASHONLY|Rotation=45.000|XOffset=0mm|YOffset=0mm|HoleType=Round|Shape=Rectangle|*
%AMROTATEDRECTD31*
4,1,4,0.24865,-1.73564,-1.73564,0.24865,-0.24865,1.73564,1.73564,-0.24865,0.24865,-1.73564,0.0*
%
%ADD31ROTATEDRECTD31*%

%ADD32R,1.52500X0.65000*%
%ADD33R,0.45000X1.47500*%
%TA.AperFunction,SMDPad,SMDef*%
%ADD34R,0.47500X0.25000*%
%ADD35R,0.35000X0.47500*%
%TA.AperFunction,SMDPad,CuDef*%
%ADD36R,1.40000X1.50000*%
G04:AMPARAMS|DCode=37|XSize=0.29247mm|YSize=1.08107mm|CornerRadius=0.14624mm|HoleSize=0mm|Usage=FLASHONLY|Rotation=270.000|XOffset=0mm|YOffset=0mm|HoleType=Round|Shape=RoundedRectangle|*
%AMROUNDEDRECTD37*
21,1,0.29247,0.78860,0,0,270.0*
21,1,0.00000,1.08107,0,0,270.0*
1,1,0.29247,-0.39430,0.00000*
1,1,0.29247,-0.39430,0.00000*
1,1,0.29247,0.39430,0.00000*
1,1,0.29247,0.39430,0.00000*
%
%ADD37ROUNDEDRECTD37*%
%ADD38R,4.25000X4.25000*%
%ADD39R,0.29247X1.08107*%
G04:AMPARAMS|DCode=40|XSize=1.08107mm|YSize=0.29247mm|CornerRadius=0.14624mm|HoleSize=0mm|Usage=FLASHONLY|Rotation=270.000|XOffset=0mm|YOffset=0mm|HoleType=Round|Shape=RoundedRectangle|*
%AMROUNDEDRECTD40*
21,1,1.08107,0.00000,0,0,270.0*
21,1,0.78860,0.29247,0,0,270.0*
1,1,0.29247,0.00000,-0.39430*
1,1,0.29247,0.00000,0.39430*
1,1,0.29247,0.00000,0.39430*
1,1,0.29247,0.00000,-0.39430*
%
%ADD40ROUNDEDRECTD40*%
%ADD41R,0.60000X1.10000*%
%ADD42R,1.20000X1.20000*%
G04:AMPARAMS|DCode=43|XSize=1.25mm|YSize=0.6mm|CornerRadius=0mm|HoleSize=0mm|Usage=FLASHONLY|Rotation=135.000|XOffset=0mm|YOffset=0mm|HoleType=Round|Shape=Rectangle|*
%AMROTATEDRECTD43*
4,1,4,0.65407,-0.22981,0.22981,-0.65407,-0.65407,0.22981,-0.22981,0.65407,0.65407,-0.22981,0.0*
%
%ADD43ROTATEDRECTD43*%

%ADD44R,0.30000X0.85000*%
G04:AMPARAMS|DCode=45|XSize=2.8mm|YSize=1.5mm|CornerRadius=0mm|HoleSize=0mm|Usage=FLASHONLY|Rotation=45.000|XOffset=0mm|YOffset=0mm|HoleType=Round|Shape=Rectangle|*
%AMROTATEDRECTD45*
4,1,4,-0.45962,-1.52028,-1.52028,-0.45962,0.45962,1.52028,1.52028,0.45962,-0.45962,-1.52028,0.0*
%
%ADD45ROTATEDRECTD45*%

%ADD46R,1.05490X1.35620*%
%ADD47R,1.50000X1.25000*%
%ADD48O,0.35000X1.35000*%
G04:AMPARAMS|DCode=49|XSize=0.95mm|YSize=0.8mm|CornerRadius=0mm|HoleSize=0mm|Usage=FLASHONLY|Rotation=225.000|XOffset=0mm|YOffset=0mm|HoleType=Round|Shape=Rectangle|*
%AMROTATEDRECTD49*
4,1,4,0.05303,0.61872,0.61872,0.05303,-0.05303,-0.61872,-0.61872,-0.05303,0.05303,0.61872,0.0*
%
%ADD49ROTATEDRECTD49*%

%ADD50R,0.50000X1.00000*%
G04:AMPARAMS|DCode=51|XSize=2.5mm|YSize=1.7mm|CornerRadius=0mm|HoleSize=0mm|Usage=FLASHONLY|Rotation=225.000|XOffset=0mm|YOffset=0mm|HoleType=Round|Shape=Rectangle|*
%AMROTATEDRECTD51*
4,1,4,0.28284,1.48492,1.48492,0.28284,-0.28284,-1.48492,-1.48492,-0.28284,0.28284,1.48492,0.0*
%
%ADD51ROTATEDRECTD51*%

%TA.AperFunction,Conductor*%
%ADD52C,0.30000*%
%ADD53C,0.70000*%
%ADD54C,0.50000*%
%ADD55C,0.12700*%
%ADD56C,0.38100*%
%TA.AperFunction,ComponentPad*%
%ADD57P,2.17789X4X270.0*%
%ADD58C,1.54000*%
%ADD59C,1.42500*%
%ADD60C,1.30000*%
%TA.AperFunction,ViaPad*%
%ADD61C,6.20000*%
%TA.AperFunction,ComponentPad*%
%ADD62C,1.38100*%
G04:AMPARAMS|DCode=63|XSize=0.9mm|YSize=2.4mm|CornerRadius=0.45mm|HoleSize=0mm|Usage=FLASHONLY|Rotation=180.000|XOffset=0mm|YOffset=0mm|HoleType=Round|Shape=RoundedRectangle|*
%AMROUNDEDRECTD63*
21,1,0.90000,1.50000,0,0,180.0*
21,1,0.00000,2.40000,0,0,180.0*
1,1,0.90000,0.00000,0.75000*
1,1,0.90000,0.00000,0.75000*
1,1,0.90000,0.00000,-0.75000*
1,1,0.90000,0.00000,-0.75000*
%
%ADD63ROUNDEDRECTD63*%
G04:AMPARAMS|DCode=64|XSize=0.9mm|YSize=1.7mm|CornerRadius=0.45mm|HoleSize=0mm|Usage=FLASHONLY|Rotation=180.000|XOffset=0mm|YOffset=0mm|HoleType=Round|Shape=RoundedRectangle|*
%AMROUNDEDRECTD64*
21,1,0.90000,0.80000,0,0,180.0*
21,1,0.00000,1.70000,0,0,180.0*
1,1,0.90000,0.00000,0.40000*
1,1,0.90000,0.00000,0.40000*
1,1,0.90000,0.00000,-0.40000*
1,1,0.90000,0.00000,-0.40000*
%
%ADD64ROUNDEDRECTD64*%
%ADD65C,0.65000*%
%ADD66C,1.20000*%
%ADD67P,2.01526X4X180.0*%
%ADD68P,2.33345X4X360.0*%
%ADD69P,1.69706X4X270.0*%
%ADD70C,1.35000*%
%ADD71R,1.35000X1.35000*%
%ADD72R,1.20000X1.20000*%
%ADD73C,1.65000*%
%TA.AperFunction,ViaPad*%
%ADD74C,0.70000*%
G36*
X11309550Y12247848D02*
X11425552Y12232576D01*
X11540306Y12209750D01*
X11653322Y12179467D01*
X11764115Y12141857D01*
X11872210Y12097081D01*
X11977146Y12045332D01*
X12078473Y11986829D01*
X12175756Y11921825D01*
X12268579Y11850597D01*
X12356545Y11773450D01*
X12397910Y11732082D01*
X12397910D01*
X12397917Y11732083D01*
X12789344Y11340656D01*
X12778823Y11315256D01*
X12734444D01*
X12728261Y11325966D01*
X12710266Y11343961D01*
X12688227Y11356685D01*
X12663645Y11363271D01*
X12638197D01*
X12613616Y11356685D01*
X12591577Y11343961D01*
X12573582Y11325966D01*
X12567399Y11315256D01*
X12527924D01*
X12369231Y11473949D01*
X12353453Y11484491D01*
X12334841Y11488193D01*
X12334840Y11488193D01*
X12308125D01*
X12302414Y11493905D01*
X12280214Y11503100D01*
X12256186D01*
X12233986Y11493905D01*
X12216995Y11476914D01*
X12207800Y11454714D01*
Y11430686D01*
X12216995Y11408486D01*
X12233986Y11391495D01*
X12256186Y11382300D01*
X12280214D01*
X12301035Y11390924D01*
X12305127D01*
X12319673Y11373875D01*
X12314736Y11347425D01*
X12308734Y11343960D01*
X12290739Y11325966D01*
X12278015Y11303927D01*
X12271429Y11279345D01*
Y11253897D01*
X12274630Y11241951D01*
X12174427Y11141749D01*
X12156459Y11159718D01*
X12072033Y11075292D01*
X11839100Y11308225D01*
X11824478Y11319445D01*
X11807449Y11326498D01*
X11789176Y11328904D01*
X11728200D01*
Y11348300D01*
X11638049D01*
X11598824Y11387525D01*
X11584202Y11398745D01*
X11567173Y11405798D01*
X11548900Y11408204D01*
X11515200D01*
Y11417600D01*
X11470049D01*
X11217224Y11670424D01*
X11202602Y11681645D01*
X11185574Y11688698D01*
X11167300Y11691104D01*
X10597405D01*
X10579132Y11688698D01*
X10562103Y11681645D01*
X10547481Y11670424D01*
X10506476Y11629419D01*
X10495255Y11614797D01*
X10488202Y11597768D01*
X10485796Y11579495D01*
Y11432800D01*
X10386400D01*
Y11242800D01*
X10397766D01*
Y10864184D01*
X10395196Y10861614D01*
X10386000Y10839414D01*
Y10815386D01*
X10395196Y10793186D01*
X10412186Y10776196D01*
X10434386Y10767000D01*
X10458414D01*
X10480614Y10776196D01*
X10497605Y10793186D01*
X10506800Y10815386D01*
Y10839414D01*
X10497605Y10861614D01*
X10495035Y10864184D01*
Y11242800D01*
X10617766D01*
Y11054845D01*
X10608210Y11045290D01*
X10597668Y11029512D01*
X10593965Y11010900D01*
X10593966Y11010899D01*
Y10819084D01*
X10591395Y10816514D01*
X10582200Y10794314D01*
Y10770286D01*
X10591395Y10748086D01*
X10593966Y10745516D01*
Y10627900D01*
X10575100D01*
Y10507900D01*
X10575099D01*
Y10497900D01*
X10571388Y10474037D01*
X10543855Y10446504D01*
X10478943D01*
X10468422Y10471904D01*
X10477905Y10481386D01*
X10487100Y10503586D01*
Y10527614D01*
X10477905Y10549814D01*
X10460914Y10566805D01*
X10438714Y10576000D01*
X10414686D01*
X10392486Y10566805D01*
X10385750Y10560068D01*
X10358411D01*
X10329100Y10589379D01*
Y10640600D01*
X10310234D01*
Y10845799D01*
X10310235Y10845800D01*
X10306532Y10864412D01*
X10295990Y10880190D01*
X10272134Y10904045D01*
Y11242800D01*
X10286400D01*
Y11432800D01*
X10056400D01*
Y11242800D01*
X10060566D01*
Y10793684D01*
X10057995Y10791114D01*
X10048800Y10768914D01*
Y10744886D01*
X10057995Y10722686D01*
X10060566Y10720116D01*
Y10640600D01*
X10041700D01*
Y10521204D01*
X9866400D01*
X9848126Y10518798D01*
X9831098Y10511745D01*
X9816475Y10500524D01*
X9729076Y10413124D01*
X9717855Y10398502D01*
X9710802Y10381474D01*
X9708396Y10363200D01*
X9710802Y10344926D01*
X9717855Y10327898D01*
X9729076Y10313276D01*
X9743698Y10302055D01*
X9760726Y10295002D01*
X9779000Y10292596D01*
X9797274Y10295002D01*
X9814302Y10302055D01*
X9828924Y10313276D01*
X9895645Y10379996D01*
X10239855D01*
X10293875Y10325976D01*
X10308498Y10314755D01*
X10325526Y10307702D01*
X10343800Y10305296D01*
X10573100D01*
X10591374Y10307702D01*
X10608402Y10314755D01*
X10623025Y10325976D01*
X10664345Y10367296D01*
X10947400D01*
X10965674Y10369702D01*
X10982702Y10376755D01*
X10984194Y10377900D01*
X11014900D01*
Y10417941D01*
X11015598Y10419626D01*
X11018004Y10437900D01*
X11015598Y10456173D01*
X11014900Y10457858D01*
Y10482500D01*
X11014900Y10497899D01*
X11014901D01*
Y10507900D01*
X11014900D01*
Y10627900D01*
X10996034D01*
Y10681330D01*
X10996035Y10681331D01*
X10994017Y10691472D01*
X10995100Y10694086D01*
Y10718114D01*
X10985905Y10740314D01*
X10983334Y10742884D01*
Y11048999D01*
X10983335Y11049000D01*
X10979632Y11067612D01*
X10969090Y11083390D01*
X10969089Y11083390D01*
X10935035Y11117445D01*
Y11242800D01*
X10946400D01*
Y11432800D01*
X10627004D01*
Y11549896D01*
X11138055D01*
X11370200Y11317751D01*
Y11282600D01*
X11411890D01*
X11419898Y11276455D01*
X11436926Y11269402D01*
X11455200Y11266996D01*
X11519655D01*
X11538200Y11248451D01*
Y11168300D01*
X11728200D01*
Y11187696D01*
X11759931D01*
X12019913Y10927713D01*
X12034536Y10916493D01*
X12051564Y10909440D01*
X12053429Y10909195D01*
X12075141Y10887482D01*
X12103455Y10915795D01*
X12105140Y10916493D01*
X12119762Y10927713D01*
X12130983Y10942336D01*
X12131681Y10944021D01*
X12159994Y10972334D01*
X12159994D01*
X12167065Y10979406D01*
X12251918Y11064259D01*
X12243207Y11072970D01*
X12343409Y11173172D01*
X12355355Y11169971D01*
X12380803D01*
X12397334Y11174401D01*
X12403041Y11171329D01*
X12414207Y11160163D01*
X12417279Y11154455D01*
X12412850Y11137924D01*
Y11112476D01*
X12419437Y11087895D01*
X12432161Y11065855D01*
X12450155Y11047861D01*
X12472195Y11035137D01*
X12496776Y11028550D01*
X12522224D01*
X12538755Y11032979D01*
X12544464Y11029907D01*
X12555628Y11018742D01*
X12558701Y11013034D01*
X12554271Y10996503D01*
Y10971055D01*
X12560858Y10946473D01*
X12573582Y10924434D01*
X12591577Y10906439D01*
X12613616Y10893715D01*
X12638197Y10887129D01*
X12663645D01*
X12680176Y10891558D01*
X12685884Y10888486D01*
X12697050Y10877320D01*
X12700122Y10871612D01*
X12695692Y10855081D01*
Y10829633D01*
X12698893Y10817688D01*
X12611391Y10730186D01*
X12588259Y10753318D01*
X12580222Y10745282D01*
X12559614Y10765890D01*
X12543835Y10776432D01*
X12525224Y10780135D01*
X12525223Y10780134D01*
X12446001D01*
X12446000Y10780135D01*
X12427388Y10776432D01*
X12411610Y10765890D01*
X12411610Y10765889D01*
X12195710Y10549990D01*
X12185168Y10534212D01*
X12181465Y10515600D01*
X12181466Y10515599D01*
Y10309475D01*
X12181465Y10309474D01*
X12185168Y10290862D01*
X12195710Y10275084D01*
X12283066Y10187729D01*
Y9824545D01*
X11981355Y9522834D01*
X11551745D01*
X11502490Y9572090D01*
X11486712Y9582632D01*
X11468100Y9586335D01*
X11468099Y9586334D01*
X11388815D01*
X11383763Y9611734D01*
X11388014Y9613495D01*
X11405005Y9630486D01*
X11414200Y9652686D01*
Y9676714D01*
X11405005Y9698914D01*
X11388014Y9715905D01*
X11365814Y9725100D01*
X11362179D01*
X11303246Y9784034D01*
X11311780Y9811421D01*
X11324514Y9816695D01*
X11341505Y9833686D01*
X11350700Y9855886D01*
Y9879914D01*
X11341505Y9902114D01*
X11324514Y9919105D01*
X11302314Y9928300D01*
X11298679D01*
X10981790Y10245190D01*
X10966012Y10255732D01*
X10947400Y10259435D01*
X10947399Y10259434D01*
X9735645D01*
X9394990Y10600090D01*
X9388800Y10604226D01*
Y10653000D01*
X9263800D01*
Y10642600D01*
D01*
Y10557365D01*
X9263799Y10535501D01*
X9241936Y10535500D01*
X9020665D01*
X8998801Y10535501D01*
X8998800Y10557364D01*
Y10653000D01*
X8997246D01*
X8984576Y10678400D01*
X8988040Y10683000D01*
X8998800D01*
Y10800500D01*
X9066300D01*
Y10808500D01*
X9146300D01*
Y10800500D01*
X9241935D01*
X9263799Y10800499D01*
X9263800Y10778636D01*
Y10683000D01*
X9388800D01*
Y10803000D01*
X9288165D01*
X9266301Y10803001D01*
X9266300Y10824864D01*
Y10925500D01*
X9155371D01*
X9155179Y10925788D01*
Y11016216D01*
X9154779Y11018227D01*
Y11065213D01*
X9156366Y11066800D01*
X9162333Y11075731D01*
X9164058Y11084400D01*
X9228900D01*
Y11150018D01*
X9254300Y11162597D01*
X9266000Y11153681D01*
Y11073400D01*
X9385000D01*
Y11202400D01*
X9304932D01*
X9246466Y11260866D01*
X9237535Y11266833D01*
X9228900Y11268551D01*
Y11318400D01*
X9150729D01*
Y11434482D01*
X9155388Y11436272D01*
X9176129Y11438706D01*
X9185132Y11425232D01*
X9282832Y11327533D01*
X9282832Y11327532D01*
X9300711Y11315586D01*
X9321800Y11311391D01*
X9321802Y11311391D01*
X9463500D01*
Y11299000D01*
X9583500D01*
Y11434000D01*
X9463500D01*
Y11421609D01*
X9344627D01*
X9279209Y11487027D01*
Y11516923D01*
X9297583Y11529200D01*
X9320617D01*
X9341898Y11538015D01*
X9358185Y11554302D01*
X9367000Y11575583D01*
Y11598617D01*
X9364209Y11605356D01*
Y11703844D01*
X9367000Y11710583D01*
Y11733617D01*
X9358185Y11754898D01*
X9341898Y11771185D01*
X9320617Y11780000D01*
X9297583D01*
X9276302Y11771185D01*
X9266600Y11761483D01*
X9256898Y11771185D01*
X9235617Y11780000D01*
X9212583D01*
X9191302Y11771185D01*
X9175015Y11754898D01*
X9170194Y11753939D01*
X9164307Y11759825D01*
X9147952Y11766600D01*
X9130248D01*
X9113893Y11759825D01*
X9113193Y11759126D01*
X9096600Y11749948D01*
X9080007Y11759126D01*
X9079307Y11759825D01*
X9062952Y11766600D01*
X9045249D01*
X9024209Y11785378D01*
Y11808100D01*
X9020014Y11829190D01*
X9008068Y11847068D01*
X9008067Y11847069D01*
X8929100Y11926036D01*
X8911222Y11937982D01*
X8890132Y11942177D01*
X8601459D01*
X8563800Y11979836D01*
Y12021900D01*
X8428800D01*
Y11901900D01*
X8485864D01*
X8539664Y11848100D01*
X8557542Y11836154D01*
X8578632Y11831959D01*
X8867305D01*
X8893864Y11805400D01*
X8883343Y11780000D01*
X8872583D01*
X8851302Y11771185D01*
X8835015Y11754898D01*
X8826200Y11733617D01*
Y11710583D01*
X8828991Y11703844D01*
Y11605356D01*
X8826200Y11598617D01*
Y11575583D01*
X8835015Y11554302D01*
X8851302Y11538015D01*
X8872583Y11529200D01*
X8895617D01*
X8916898Y11538015D01*
X8926600Y11547717D01*
X8936302Y11538015D01*
X8957583Y11529200D01*
X8980617D01*
X9001898Y11538015D01*
X9018185Y11554302D01*
X9023006Y11555261D01*
X9028893Y11549375D01*
X9045248Y11542600D01*
X9050197D01*
X9052971Y11539826D01*
Y11319154D01*
X9052467Y11318400D01*
X8982900D01*
Y11268551D01*
X8974265Y11266833D01*
X8965334Y11260866D01*
X8965333Y11260865D01*
X8906868Y11202400D01*
X8826800D01*
Y11073400D01*
X8945800D01*
Y11153681D01*
X8957500Y11162597D01*
X8982900Y11150018D01*
Y11084400D01*
X9047742D01*
X9049467Y11075731D01*
X9055434Y11066800D01*
X9057021Y11065213D01*
Y10998929D01*
X9057421Y10996918D01*
Y10967202D01*
X9032021Y10953625D01*
X9031112Y10954232D01*
X9012500Y10957935D01*
X9012499Y10957934D01*
X8839201D01*
X8839200Y10957935D01*
X8820588Y10954232D01*
X8804810Y10943690D01*
X8804810Y10943689D01*
X8754010Y10892890D01*
X8743468Y10877112D01*
X8742614Y10872820D01*
X8717032Y10856831D01*
X8714366Y10856770D01*
X8697400Y10859004D01*
X8616700D01*
Y10878400D01*
X8426700D01*
Y10859004D01*
X8248400D01*
X8230127Y10856598D01*
X8213098Y10849545D01*
X8198476Y10838325D01*
X8192376Y10832224D01*
X8181155Y10817602D01*
X8174102Y10800574D01*
X8171696Y10782300D01*
X8174102Y10764026D01*
X8181155Y10746998D01*
X8192376Y10732376D01*
X8206998Y10721155D01*
X8224026Y10714102D01*
X8242300Y10711696D01*
X8260574Y10714102D01*
X8269492Y10717796D01*
X8426700D01*
Y10698400D01*
X8616700D01*
Y10717796D01*
X8652400D01*
Y10698400D01*
X8699941D01*
X8701626Y10697702D01*
X8719900Y10695296D01*
X8724900D01*
X8730930Y10696090D01*
X8743410Y10683611D01*
X8743410Y10683610D01*
X8747766Y10680700D01*
X8759188Y10673068D01*
X8773474Y10670226D01*
X8777800Y10669365D01*
X8777801Y10669366D01*
X8855179D01*
X8873800Y10653000D01*
X8873800Y10643965D01*
Y10533000D01*
X8974435D01*
X8996299Y10532999D01*
X8996300Y10511136D01*
Y10410500D01*
X9032666D01*
Y10158570D01*
X9032665Y10158569D01*
X9034316Y10150273D01*
X9032800Y10146614D01*
Y10122586D01*
X9041995Y10100386D01*
X9058986Y10083395D01*
X9081186Y10074200D01*
X9105214D01*
X9127414Y10083395D01*
X9144405Y10100386D01*
X9153600Y10122586D01*
Y10136020D01*
X9177402Y10141726D01*
X9184455Y10124698D01*
X9195676Y10110076D01*
X9210298Y10098855D01*
X9227326Y10091802D01*
X9245600Y10089396D01*
X9263874Y10091802D01*
X9280902Y10098855D01*
X9295524Y10110076D01*
X9306745Y10124698D01*
X9313798Y10141726D01*
X9316204Y10160000D01*
Y10290700D01*
X9313798Y10308974D01*
X9306745Y10326002D01*
X9304100Y10329448D01*
Y10372200D01*
X9285234D01*
Y10440199D01*
X9285235Y10440200D01*
X9281532Y10458811D01*
X9279934Y10461203D01*
Y10473000D01*
X9276232Y10491611D01*
X9266300Y10506477D01*
X9266301Y10532999D01*
X9292520Y10533000D01*
X9294210Y10531311D01*
X9294210Y10531310D01*
X9309988Y10520768D01*
X9328600Y10517065D01*
X9328601Y10517066D01*
X9340455D01*
X9639054Y10218466D01*
X9630520Y10191079D01*
X9617786Y10185805D01*
X9600795Y10168814D01*
X9591600Y10146614D01*
Y10122586D01*
X9600795Y10100386D01*
X9617786Y10083395D01*
X9639986Y10074200D01*
X9664014D01*
X9686214Y10083395D01*
X9688784Y10085966D01*
X10863755D01*
X11293400Y9656321D01*
Y9652686D01*
X11302595Y9630486D01*
X11319586Y9613495D01*
X11323837Y9611734D01*
X11318785Y9586334D01*
X10972801D01*
X10972800Y9586335D01*
X10954188Y9582632D01*
X10938410Y9572090D01*
X10938410Y9572089D01*
X10740101Y9373781D01*
X10716634Y9383501D01*
Y9708055D01*
X10854179Y9845600D01*
X10857814D01*
X10880014Y9854795D01*
X10897005Y9871786D01*
X10906200Y9893986D01*
Y9918014D01*
X10897005Y9940214D01*
X10880014Y9957205D01*
X10857814Y9966400D01*
X10833786D01*
X10811586Y9957205D01*
X10802666Y9948285D01*
X10787743Y9954136D01*
X10779200Y9960740D01*
Y9981514D01*
X10770005Y10003714D01*
X10753014Y10020705D01*
X10730814Y10029900D01*
X10706786D01*
X10684586Y10020705D01*
X10667595Y10003714D01*
X10664280Y9995711D01*
X10652195Y9994981D01*
X10637834Y9998237D01*
X10630305Y10016414D01*
X10613314Y10033405D01*
X10591114Y10042600D01*
X10567086D01*
X10544886Y10033405D01*
X10527895Y10016414D01*
X10518700Y9994214D01*
Y9990579D01*
X10379610Y9851490D01*
X10369068Y9835712D01*
X10365365Y9817100D01*
X10365366Y9817099D01*
Y8864601D01*
X10365365Y8864600D01*
X10369068Y8845988D01*
X10379610Y8830210D01*
X10388001Y8821819D01*
X10386019Y8799518D01*
X10385266Y8795933D01*
X10367935Y8788754D01*
X10352665Y8777037D01*
X10340948Y8761767D01*
X10333582Y8743984D01*
X10331070Y8724901D01*
X10333582Y8705819D01*
X10340948Y8688036D01*
X10345178Y8682522D01*
X10326041Y8665739D01*
X10264990Y8726790D01*
X10249212Y8737332D01*
X10230600Y8741035D01*
X10230599Y8741034D01*
X10146766D01*
X10133334Y8757400D01*
X10129700Y8775672D01*
Y8794900D01*
X10114435D01*
X10103312Y8802332D01*
X10084700Y8806034D01*
X10046045D01*
X9995290Y8856790D01*
X9979512Y8867332D01*
X9960900Y8871035D01*
X9960899Y8871034D01*
X9879700D01*
X9861088Y8867332D01*
X9849965Y8859900D01*
X9834700D01*
Y8840672D01*
X9831066Y8822400D01*
X9834700Y8804128D01*
Y8784900D01*
X9849965D01*
X9861088Y8777468D01*
X9879700Y8773766D01*
X9924661D01*
X9934429Y8757397D01*
X9924664Y8741034D01*
X9879700D01*
X9861088Y8737332D01*
X9849965Y8729900D01*
X9834700D01*
Y8710672D01*
X9831066Y8692400D01*
Y8684634D01*
X9749900D01*
Y8703500D01*
X9697359D01*
X9695674Y8704198D01*
X9677400Y8706604D01*
X9575800D01*
X9557526Y8704198D01*
X9540498Y8697145D01*
X9525876Y8685924D01*
X9478575Y8638624D01*
X9467355Y8624002D01*
X9460302Y8606973D01*
X9457896Y8588700D01*
Y8470036D01*
X9455302Y8463774D01*
X9452896Y8445500D01*
X9455302Y8427226D01*
X9462355Y8410198D01*
X9463500Y8408706D01*
Y8378000D01*
X9503541D01*
X9505226Y8377302D01*
X9523500Y8374896D01*
X9541773Y8377302D01*
X9543458Y8378000D01*
X9568100D01*
X9583499Y8378000D01*
Y8377999D01*
X9593500D01*
Y8378000D01*
X9708399D01*
X9722753Y8356433D01*
X9441355Y8075034D01*
X8686801D01*
X8686800Y8075035D01*
X8668188Y8071332D01*
X8652410Y8060790D01*
X8652410Y8060789D01*
X8567610Y7975990D01*
X8557068Y7960212D01*
X8553365Y7941600D01*
X8553366Y7941599D01*
Y7779800D01*
Y7552401D01*
X8553365Y7552400D01*
X8557068Y7533788D01*
X8567610Y7518010D01*
X8815966Y7269655D01*
Y7009084D01*
X8813395Y7006514D01*
X8804200Y6984314D01*
Y6960286D01*
X8813395Y6938086D01*
X8815966Y6935516D01*
Y6332045D01*
X8793655Y6309734D01*
X8730898D01*
X8718736Y6335134D01*
X8722545Y6340098D01*
X8729598Y6357126D01*
X8732004Y6375400D01*
X8729598Y6393674D01*
X8722545Y6410702D01*
X8711400Y6425226D01*
Y6450400D01*
X8611400D01*
X8601304Y6471618D01*
Y6560902D01*
X8602598Y6564026D01*
X8605004Y6582300D01*
Y6680200D01*
X8602598Y6698474D01*
X8595545Y6715502D01*
X8584324Y6730124D01*
X8569702Y6741345D01*
X8552674Y6748398D01*
X8534400Y6750804D01*
X8516126Y6748398D01*
X8499098Y6741345D01*
X8484476Y6730124D01*
X8473255Y6715502D01*
X8466202Y6698474D01*
X8463796Y6680200D01*
Y6651100D01*
X8463200D01*
Y6598559D01*
X8462502Y6596874D01*
X8460096Y6578600D01*
Y6396100D01*
X8462502Y6377826D01*
X8466863Y6367298D01*
X8468202Y6357126D01*
X8475255Y6340098D01*
X8486400Y6325574D01*
Y6300400D01*
X8494399D01*
X8504921Y6275000D01*
X8502010Y6272090D01*
X8491468Y6256312D01*
X8487765Y6237700D01*
X8486400Y6230400D01*
X8461400D01*
X8460034Y6244400D01*
X8456332Y6263012D01*
X8445790Y6278790D01*
X8445789Y6278790D01*
X8416390Y6308190D01*
X8400612Y6318732D01*
X8382000Y6322435D01*
X8381999Y6322434D01*
X8182800D01*
Y6357699D01*
X8182800Y6357700D01*
Y6367700D01*
X8182800D01*
X8182800Y6383100D01*
Y6407741D01*
X8183498Y6409426D01*
X8185904Y6427700D01*
Y6515100D01*
X8183498Y6533374D01*
X8176445Y6550402D01*
X8165224Y6565024D01*
X8150602Y6576245D01*
X8133574Y6583298D01*
X8115300Y6585704D01*
X8097026Y6583298D01*
X8079998Y6576245D01*
X8065376Y6565024D01*
X8054155Y6550402D01*
X8047102Y6533374D01*
X8044696Y6515100D01*
Y6427700D01*
X8047102Y6409426D01*
X8047800Y6407741D01*
Y6383100D01*
X8047800Y6367700D01*
X8047799D01*
Y6357699D01*
X8047800D01*
Y6237700D01*
X8107370D01*
X8120588Y6228868D01*
X8139200Y6225165D01*
X8139201Y6225166D01*
X8361400D01*
Y6080400D01*
X8461000D01*
X8461400Y6080400D01*
X8486400D01*
X8487766Y6055394D01*
Y5827301D01*
X8487765Y5827300D01*
X8491468Y5808688D01*
X8502010Y5792910D01*
X8569386Y5725534D01*
X8558865Y5700134D01*
X7370744D01*
X7352132Y5696432D01*
X7336354Y5685890D01*
X7336353Y5685889D01*
X7086445Y5435981D01*
X7076006Y5438778D01*
X7051137D01*
X7027115Y5432341D01*
X7005578Y5419907D01*
X6987993Y5402322D01*
X6975559Y5380785D01*
X6969122Y5356763D01*
Y5331894D01*
X6975559Y5307872D01*
X6987993Y5286335D01*
X7005578Y5268749D01*
X7027115Y5256315D01*
X7051137Y5249878D01*
X7076006D01*
X7096963Y5255494D01*
X7107889Y5247224D01*
X7116159Y5236298D01*
X7110543Y5215341D01*
Y5190472D01*
X7116980Y5166450D01*
X7129414Y5144913D01*
X7147000Y5127328D01*
X7168537Y5114894D01*
X7192559Y5108457D01*
X7217428D01*
X7238385Y5114072D01*
X7249311Y5105803D01*
X7257580Y5094877D01*
X7251965Y5073920D01*
Y5049051D01*
X7258401Y5025029D01*
X7270836Y5003492D01*
X7288421Y4985907D01*
X7309958Y4973472D01*
X7333980Y4967036D01*
X7358849D01*
X7382871Y4973472D01*
X7404408Y4985907D01*
X7421993Y5003492D01*
X7434428Y5025029D01*
X7440864Y5049051D01*
Y5073920D01*
X7438067Y5084359D01*
X7880374Y5526666D01*
X8768255D01*
X8950386Y5344534D01*
X8940736Y5319134D01*
X8686800D01*
X8668188Y5315432D01*
X8652410Y5304890D01*
X8652410Y5304889D01*
X7934973Y4587453D01*
X7924535Y4590250D01*
X7899665D01*
X7878708Y4584634D01*
X7867783Y4592904D01*
X7859513Y4603830D01*
X7865129Y4624787D01*
Y4649656D01*
X7858692Y4673678D01*
X7846257Y4695215D01*
X7828672Y4712800D01*
X7807135Y4725235D01*
X7783113Y4731671D01*
X7758244D01*
X7734222Y4725235D01*
X7712685Y4712800D01*
X7695100Y4695215D01*
X7682665Y4673678D01*
X7676229Y4649656D01*
Y4624787D01*
X7682665Y4600765D01*
X7695100Y4579228D01*
X7712685Y4561643D01*
X7734222Y4549208D01*
X7758244Y4542771D01*
X7783113D01*
X7804070Y4548387D01*
X7814996Y4540117D01*
X7823266Y4529192D01*
X7817650Y4508235D01*
Y4483365D01*
X7824087Y4459344D01*
X7836521Y4437806D01*
X7854106Y4420221D01*
X7875644Y4407787D01*
X7899665Y4401350D01*
X7924535D01*
X7945492Y4406966D01*
X7956417Y4398696D01*
X7964687Y4387770D01*
X7959071Y4366813D01*
Y4341944D01*
X7965508Y4317922D01*
X7977943Y4296385D01*
X7995528Y4278800D01*
X8017065Y4266365D01*
X8041087Y4259929D01*
X8065956D01*
X8089978Y4266365D01*
X8111515Y4278800D01*
X8129100Y4296385D01*
X8141535Y4317922D01*
X8147971Y4341944D01*
Y4366813D01*
X8141535Y4390835D01*
X8129100Y4412372D01*
X8111515Y4429957D01*
X8089978Y4442392D01*
X8065956Y4448829D01*
X8041087D01*
X8020130Y4443213D01*
X8009204Y4451483D01*
X8000934Y4462408D01*
X8006550Y4483365D01*
Y4508235D01*
X8003753Y4518673D01*
X8706945Y5221866D01*
X8750236D01*
X8759886Y5196466D01*
X8614920Y5051500D01*
X8611286D01*
X8589086Y5042305D01*
X8572095Y5025314D01*
X8562900Y5003114D01*
Y4979086D01*
X8572095Y4956886D01*
X8589086Y4939895D01*
X8611286Y4930700D01*
X8619360D01*
X8625197Y4923622D01*
X8633229Y4905300D01*
X8626400Y4888814D01*
Y4864786D01*
X8635595Y4842586D01*
X8652586Y4825595D01*
X8674786Y4816400D01*
X8698814D01*
X8721014Y4825595D01*
X8738005Y4842586D01*
X8747200Y4864786D01*
Y4868420D01*
X8878989Y5000209D01*
X8893974Y4998174D01*
X8903152Y4971431D01*
X8703820Y4772100D01*
X8700186D01*
X8677986Y4762905D01*
X8660995Y4745914D01*
X8651800Y4723714D01*
Y4699686D01*
X8660995Y4677486D01*
X8677986Y4660495D01*
X8700186Y4651300D01*
X8724214D01*
X8746414Y4660495D01*
X8763405Y4677486D01*
X8772600Y4699686D01*
Y4703320D01*
X8884751Y4815472D01*
X8906285Y4801084D01*
X8905800Y4799914D01*
Y4775886D01*
X8914995Y4753686D01*
X8931986Y4736695D01*
X8954186Y4727500D01*
X8956586Y4721300D01*
X8954186Y4695900D01*
X8931986Y4686705D01*
X8914995Y4669714D01*
X8905800Y4647514D01*
Y4623486D01*
X8914995Y4601286D01*
X8931986Y4584295D01*
X8954186Y4575100D01*
X8964020Y4549700D01*
X8946055Y4531734D01*
X8825184D01*
X8822614Y4534305D01*
X8800414Y4543500D01*
X8776386D01*
X8754186Y4534305D01*
X8737195Y4517314D01*
X8728000Y4495114D01*
Y4471086D01*
X8737195Y4448886D01*
X8754186Y4431895D01*
X8776386Y4422700D01*
X8800414D01*
X8822614Y4431895D01*
X8825184Y4434466D01*
X8948626D01*
X8959147Y4409066D01*
X8953095Y4403014D01*
X8943900Y4380814D01*
Y4356786D01*
X8953095Y4334586D01*
X8970086Y4317595D01*
X8992286Y4308400D01*
X9016314D01*
X9038514Y4317595D01*
X9055505Y4334586D01*
X9064700Y4356786D01*
Y4360420D01*
X9227645Y4523366D01*
X11658599D01*
X11658600Y4523365D01*
X11677212Y4527068D01*
X11692990Y4537610D01*
X12023189Y4867810D01*
X12023190Y4867810D01*
X12033732Y4883588D01*
X12037435Y4902200D01*
X12037434Y4902201D01*
Y5068616D01*
X12040005Y5071186D01*
X12049200Y5093386D01*
Y5117414D01*
X12040005Y5139614D01*
X12023014Y5156605D01*
X12000814Y5165800D01*
X11976786D01*
X11954586Y5156605D01*
X11948534Y5150553D01*
X11923134Y5161074D01*
Y5208316D01*
X11925705Y5210886D01*
X11934900Y5233086D01*
Y5257114D01*
X11925705Y5279314D01*
X11908714Y5296305D01*
X11886514Y5305500D01*
X11862486D01*
X11840286Y5296305D01*
X11823295Y5279314D01*
X11814100Y5257114D01*
Y5233086D01*
X11823295Y5210886D01*
X11825866Y5208316D01*
Y5178515D01*
X11800466Y5173463D01*
X11798705Y5177714D01*
X11781714Y5194705D01*
X11759514Y5203900D01*
X11735486D01*
X11713286Y5194705D01*
X11696295Y5177714D01*
X11695093Y5174812D01*
X11688453Y5172030D01*
X11665933Y5170786D01*
X11654714Y5182005D01*
X11632514Y5191200D01*
X11608486D01*
X11586286Y5182005D01*
X11569295Y5165014D01*
X11560100Y5142814D01*
Y5118786D01*
X11569295Y5096586D01*
X11570241Y5095641D01*
X11567708Y5071691D01*
X11545356Y5062762D01*
X11540414Y5067705D01*
X11518214Y5076900D01*
X11494186D01*
X11471986Y5067705D01*
X11454995Y5050714D01*
X11445800Y5028514D01*
Y5024879D01*
X11422555Y5001634D01*
X11377486D01*
X11367835Y5027034D01*
X11385801Y5045000D01*
X11391214D01*
X11413414Y5054195D01*
X11430405Y5071186D01*
X11439600Y5093386D01*
Y5117414D01*
X11430405Y5139614D01*
X11413414Y5156605D01*
X11391214Y5165800D01*
X11367186D01*
X11344986Y5156605D01*
X11327995Y5139614D01*
X11318800Y5117414D01*
Y5115558D01*
X11306476Y5103234D01*
X11260695D01*
X11247710Y5128634D01*
X11251514Y5133900D01*
X11273714Y5143095D01*
X11290705Y5160086D01*
X11299900Y5182286D01*
Y5206314D01*
X11290705Y5228514D01*
X11273714Y5245505D01*
X11251514Y5254700D01*
X11227486D01*
X11205286Y5245505D01*
X11188295Y5228514D01*
X11184859Y5220218D01*
X11182176Y5217534D01*
X10591865D01*
X10582214Y5242934D01*
X10842089Y5502810D01*
X10842090Y5502810D01*
X10852632Y5518588D01*
X10856334Y5537200D01*
Y6317155D01*
X11052700Y6513521D01*
X11078100Y6508224D01*
Y6478001D01*
X11076296Y6464300D01*
X11078100Y6450599D01*
Y6393100D01*
X11130641D01*
X11132326Y6392402D01*
X11150600Y6389996D01*
X11168874Y6392402D01*
X11170559Y6393100D01*
X11223100D01*
Y6459321D01*
X11224789Y6461010D01*
X11224790Y6461010D01*
X11234858Y6476079D01*
X11251006Y6492227D01*
X11264467Y6488540D01*
X11275566Y6480865D01*
Y6268945D01*
X11255910Y6249290D01*
X11245368Y6233511D01*
X11241665Y6214900D01*
X11241666Y6214898D01*
Y6117700D01*
X11220300D01*
Y5972700D01*
X11360300D01*
Y6117700D01*
X11338934D01*
Y6194754D01*
X11345024Y6200844D01*
X11369200Y6203800D01*
X11389200D01*
X11413376Y6200844D01*
X11432166Y6182055D01*
Y6117700D01*
X11410800D01*
Y5972700D01*
X11550800D01*
Y6117700D01*
X11529434D01*
Y6202198D01*
X11529435Y6202200D01*
X11525732Y6220811D01*
X11515190Y6236590D01*
X11515189Y6236590D01*
X11482834Y6268945D01*
Y6491551D01*
X11482835Y6491553D01*
X11479132Y6510164D01*
X11468590Y6525942D01*
X11468589Y6525943D01*
X11452437Y6542095D01*
Y6664902D01*
X11741302D01*
X11752822Y6644274D01*
Y6574398D01*
X11756703Y6554889D01*
X11767754Y6538350D01*
X11774796Y6531308D01*
Y6527800D01*
X11777202Y6509526D01*
X11777900Y6507841D01*
Y6455300D01*
X11912900D01*
Y6474696D01*
X11957995D01*
X11964479Y6467113D01*
X11970466Y6452864D01*
X11970794Y6449706D01*
X11964011Y6439555D01*
X11960308Y6420943D01*
X11960309Y6420942D01*
Y6274151D01*
X11895806Y6209649D01*
X11925056Y6180399D01*
X11868976Y6124319D01*
X11845099Y6148195D01*
X11746105Y6049201D01*
X11848635Y5946670D01*
X11947630Y6045665D01*
X11937755Y6055539D01*
X11993836Y6111619D01*
X12018178Y6087278D01*
X12023085Y6082370D01*
X12136222Y6195507D01*
X12115800Y6215928D01*
X12057577Y6274151D01*
Y6293923D01*
Y6355277D01*
Y6400798D01*
X12134850Y6478070D01*
X12149748Y6463172D01*
X12165527Y6452629D01*
X12184138Y6448927D01*
X12184139Y6448927D01*
X12195418D01*
X12197815Y6447326D01*
X12216426Y6443624D01*
X12218420Y6444020D01*
X12252182Y6410258D01*
X12263256Y6385411D01*
X12250325Y6372480D01*
X12239782Y6356702D01*
X12236080Y6338090D01*
X12236080Y6338089D01*
Y6238796D01*
X12171578Y6174293D01*
X12298857Y6047015D01*
X12321036Y6069193D01*
X12358717Y6031512D01*
X12347470Y6020265D01*
X12446465Y5921270D01*
X12548995Y6023801D01*
X12450001Y6122795D01*
X12427497Y6100291D01*
X12389815Y6137973D01*
X12411994Y6160151D01*
X12333349Y6238796D01*
Y6295719D01*
X12346959Y6315482D01*
X12442418Y6410941D01*
X12368455Y6484904D01*
X12357566Y6495794D01*
X12339605Y6513755D01*
X12265641Y6587718D01*
X12232635Y6554712D01*
X12209155Y6564438D01*
X12207985Y6566136D01*
X12207235Y6570896D01*
Y6664902D01*
X12491300D01*
X12505166Y6645246D01*
Y6606801D01*
X12505166Y6606800D01*
X12508868Y6588188D01*
X12519411Y6572410D01*
X12527055Y6564765D01*
X12527668Y6561688D01*
X12537624Y6546788D01*
X12536796Y6540500D01*
X12539202Y6522226D01*
X12539900Y6520541D01*
Y6468000D01*
X12540496D01*
Y6438900D01*
X12542902Y6420626D01*
X12549955Y6403598D01*
X12561176Y6388976D01*
X12599276Y6350876D01*
X12613898Y6339655D01*
X12630926Y6332602D01*
X12649200Y6330196D01*
X12667474Y6332602D01*
X12684502Y6339655D01*
X12699124Y6350876D01*
X12702166Y6354839D01*
X12727566Y6346217D01*
Y5747845D01*
X12172032Y5192311D01*
X12161489Y5176533D01*
X12157787Y5157921D01*
X12157787Y5157920D01*
Y4730904D01*
X12148428Y4725500D01*
X12130843Y4707915D01*
X12118408Y4686378D01*
X12111971Y4662356D01*
Y4637487D01*
X12118408Y4613465D01*
X12130843Y4591928D01*
X12148428Y4574343D01*
X12169965Y4561908D01*
X12193987Y4555471D01*
X12218856D01*
X12242878Y4561908D01*
X12264415Y4574343D01*
X12282000Y4591928D01*
X12294435Y4613465D01*
X12300871Y4637487D01*
Y4662356D01*
X12295256Y4683313D01*
X12303525Y4694239D01*
X12314451Y4702508D01*
X12335408Y4696893D01*
X12360277D01*
X12384299Y4703329D01*
X12405836Y4715764D01*
X12423421Y4733349D01*
X12435856Y4754886D01*
X12442293Y4778908D01*
Y4803777D01*
X12435856Y4827799D01*
X12423421Y4849336D01*
X12405836Y4866921D01*
X12396477Y4872325D01*
Y5126797D01*
X12886789Y5617110D01*
X12886790Y5617110D01*
X12897331Y5632888D01*
X12901035Y5651500D01*
X12901035Y5651501D01*
Y6515099D01*
X12901035Y6515100D01*
X12897331Y6533712D01*
X12886790Y6549490D01*
X12785465Y6650815D01*
X12791300Y6664903D01*
X12791300D01*
Y6722667D01*
X12798732Y6733791D01*
X12802434Y6752402D01*
Y6782257D01*
X12829543Y6809366D01*
X12971954D01*
X13072009Y6709311D01*
X13072009Y6709310D01*
X13087788Y6698768D01*
X13106400Y6695065D01*
X13106401Y6695066D01*
X13573099D01*
X13573100Y6695065D01*
X13591711Y6698768D01*
X13607491Y6709310D01*
X13680428Y6782247D01*
X13690865Y6779450D01*
X13715735D01*
X13739755Y6785887D01*
X13761295Y6798321D01*
X13778879Y6815907D01*
X13791313Y6837444D01*
X13797749Y6861466D01*
Y6886335D01*
X13791313Y6910357D01*
X13778879Y6931894D01*
X13761295Y6949479D01*
X13742503Y6960327D01*
X13740627Y6973900D01*
X13742503Y6987473D01*
X13761295Y6998321D01*
X13778879Y7015906D01*
X13791313Y7037444D01*
X13797749Y7061465D01*
Y7086335D01*
X13791313Y7110356D01*
X13778879Y7131894D01*
X13761295Y7149479D01*
X13739755Y7161913D01*
X13715735Y7168350D01*
X13690865D01*
X13666844Y7161913D01*
X13645306Y7149479D01*
X13627721Y7131894D01*
X13615286Y7110356D01*
X13608850Y7086335D01*
Y7061465D01*
X13611647Y7051027D01*
X13429155Y6868534D01*
X13177345D01*
X13082356Y6963523D01*
X13092879Y6988923D01*
X13160002D01*
X13179510Y6992803D01*
X13196049Y7003854D01*
X13217599Y7025404D01*
X13220700Y7024996D01*
X13238974Y7027402D01*
X13240659Y7028100D01*
X13293201D01*
Y7028696D01*
X13335001D01*
X13353275Y7031102D01*
X13370302Y7038155D01*
X13384924Y7049376D01*
X13396146Y7063998D01*
X13403198Y7081026D01*
X13405605Y7099300D01*
X13403198Y7117574D01*
X13396146Y7134602D01*
X13384924Y7149224D01*
X13370302Y7160445D01*
X13353275Y7167498D01*
X13335001Y7169904D01*
X13224400D01*
X13206126Y7167498D01*
X13195509Y7163100D01*
X13148199D01*
Y7100196D01*
X13138885Y7090882D01*
X13028799D01*
Y7152402D01*
Y7252402D01*
Y7352402D01*
Y7452401D01*
Y7552401D01*
X13028799Y7627401D01*
X13049428Y7638921D01*
X13162302D01*
X13181810Y7642802D01*
X13198349Y7653853D01*
X13217599Y7673104D01*
X13220700Y7672696D01*
X13344000D01*
X13362274Y7675102D01*
X13379301Y7682155D01*
X13393924Y7693376D01*
X13395775Y7695226D01*
X13406995Y7709848D01*
X13414047Y7726877D01*
X13416454Y7745150D01*
X13414047Y7763424D01*
X13406995Y7780452D01*
X13395775Y7795075D01*
X13381152Y7806295D01*
X13364124Y7813348D01*
X13345850Y7815754D01*
X13331798Y7813904D01*
X13220700D01*
X13202426Y7811498D01*
X13200742Y7810800D01*
X13148199D01*
Y7747896D01*
X13141185Y7740880D01*
X13028799D01*
Y7852401D01*
Y7952400D01*
Y8052400D01*
X13028799Y8127400D01*
X13049428Y8138920D01*
X13167000D01*
X13186510Y8142801D01*
X13203049Y8153852D01*
X13217599Y8168404D01*
X13220700Y8167996D01*
X13238974Y8170402D01*
X13240659Y8171100D01*
X13293201D01*
Y8171696D01*
X13335001D01*
X13353275Y8174102D01*
X13370302Y8181155D01*
X13384924Y8192376D01*
X13396146Y8206998D01*
X13403198Y8224026D01*
X13405605Y8242300D01*
X13403198Y8260574D01*
X13396146Y8277602D01*
X13384924Y8292224D01*
X13370302Y8303445D01*
X13353275Y8310498D01*
X13335001Y8312904D01*
X13224400D01*
X13206126Y8310498D01*
X13195509Y8306100D01*
X13148199D01*
Y8243196D01*
X13145885Y8240879D01*
X13028799D01*
Y8352400D01*
Y8441265D01*
X13333955D01*
X13440311Y8334911D01*
X13440311Y8334910D01*
X13456088Y8324368D01*
X13474699Y8320665D01*
X13474701Y8320666D01*
X13614409D01*
X13631381Y8295265D01*
X13630200Y8292414D01*
Y8268386D01*
X13639395Y8246186D01*
X13654666Y8230916D01*
Y7972100D01*
X13650800D01*
Y7767100D01*
X13654666D01*
Y7700200D01*
X13641800D01*
Y7565200D01*
X13761800D01*
X13761800Y7565199D01*
X13771800D01*
Y7565200D01*
X13787199Y7565200D01*
X13811841D01*
X13813525Y7564502D01*
X13831799Y7562096D01*
X14274800D01*
X14293074Y7564502D01*
X14310101Y7571555D01*
X14324724Y7582776D01*
X14335945Y7597398D01*
X14342998Y7614426D01*
X14345404Y7632700D01*
X14342998Y7650974D01*
X14335945Y7668002D01*
X14324724Y7682624D01*
X14310101Y7693845D01*
X14293074Y7700898D01*
X14274800Y7703304D01*
X13831799D01*
X13813525Y7700898D01*
X13811841Y7700200D01*
X13771800D01*
X13751933Y7713561D01*
Y7743301D01*
X13755801Y7767100D01*
X13777800D01*
Y7767100D01*
X13882800D01*
Y7767100D01*
X13904800D01*
Y7767100D01*
X14009801D01*
Y7972100D01*
X14005934D01*
Y8191500D01*
X14002232Y8210112D01*
X13991690Y8225890D01*
X13991689Y8225890D01*
X13827754Y8389825D01*
X13816307Y8407400D01*
X13827754Y8424975D01*
X13864690Y8461910D01*
X13864690Y8461910D01*
X13875232Y8477688D01*
X13877106Y8487100D01*
X13882800Y8487100D01*
X13904800D01*
X13908200Y8487100D01*
X14009801D01*
Y8487100D01*
X14031799D01*
Y8487100D01*
X14136800D01*
Y8692100D01*
X14132935D01*
Y9017000D01*
X14129231Y9035612D01*
X14118690Y9051390D01*
X14118689Y9051390D01*
X13940891Y9229190D01*
X13925111Y9239732D01*
X13906500Y9243435D01*
X13906499Y9243434D01*
X12750801D01*
X12750800Y9243435D01*
X12732188Y9239732D01*
X12716410Y9229190D01*
X12716410Y9229189D01*
X12682599Y9195379D01*
X12671101Y9201225D01*
X12661651Y9210352D01*
X12664573Y9225038D01*
X12664573Y9225039D01*
Y9249018D01*
X12666174Y9251415D01*
X12669876Y9270026D01*
X12669479Y9272020D01*
X12706094Y9308635D01*
X12706094Y9308634D01*
X12724055Y9326595D01*
X12798018Y9400559D01*
X12724435Y9474142D01*
X12734956Y9499542D01*
X12812074D01*
X12812076Y9499542D01*
X12830688Y9503244D01*
X12846466Y9513787D01*
X13178889Y9846210D01*
X13178889Y9846210D01*
X13189432Y9861988D01*
X13193135Y9880600D01*
X13193134Y9880601D01*
Y9943994D01*
X13200008Y9947962D01*
X13216838Y9964793D01*
X13228738Y9985407D01*
X13234900Y10008399D01*
Y10032201D01*
X13228738Y10055193D01*
X13216838Y10075807D01*
X13200008Y10092638D01*
X13179393Y10104539D01*
X13156401Y10110700D01*
X13132599D01*
X13109607Y10104539D01*
X13088992Y10092638D01*
X13072162Y10075807D01*
X13060262Y10055193D01*
X13054100Y10032201D01*
Y10008399D01*
X13060262Y9985407D01*
X13072162Y9964793D01*
X13088992Y9947962D01*
X13095866Y9943994D01*
Y9900745D01*
X12791931Y9596811D01*
X12626114D01*
X12558076Y9664849D01*
X12487366Y9594138D01*
X12596304Y9485200D01*
X12585783Y9459800D01*
X12515546D01*
X12504856Y9470490D01*
X12489077Y9481032D01*
X12470466Y9484735D01*
X12470465Y9484734D01*
X12468076D01*
X12423019Y9529791D01*
X12352309Y9459081D01*
X12468981Y9342409D01*
X12490148Y9363576D01*
X12495400Y9362531D01*
X12495402Y9362531D01*
X12535885D01*
X12545605Y9339064D01*
X12525782Y9319241D01*
X12567304Y9277720D01*
Y9275331D01*
X12567304Y9275330D01*
X12568358Y9270026D01*
X12567304Y9264723D01*
X12567304Y9264722D01*
Y9245183D01*
X12369411Y9047291D01*
X12358868Y9031512D01*
X12355166Y9012901D01*
X12355166Y9012899D01*
Y8964899D01*
X12266301Y8964899D01*
X12254781Y8985527D01*
Y9105499D01*
X12250900Y9125008D01*
X12239849Y9141547D01*
X12227796Y9153600D01*
X12228204Y9156700D01*
Y9285700D01*
X12227743Y9289200D01*
X12228204Y9292700D01*
Y9415440D01*
X12379605Y9566841D01*
X12388017Y9558430D01*
X12458728Y9629140D01*
X12450316Y9637552D01*
X12889624Y10076860D01*
X12900845Y10091483D01*
X12907898Y10108511D01*
X12910304Y10126785D01*
Y10223500D01*
X12907898Y10241774D01*
X12900845Y10258802D01*
X12889624Y10273424D01*
X12740504Y10422545D01*
X12823418Y10505459D01*
X12815242Y10513634D01*
X12909094Y10607487D01*
X12921040Y10604286D01*
X12946487D01*
X12971069Y10610873D01*
X12993109Y10623597D01*
X13011102Y10641591D01*
X13023827Y10663630D01*
X13030414Y10688212D01*
Y10713660D01*
X13030098Y10714840D01*
X13052872Y10727988D01*
X13075185Y10705674D01*
X13211868Y10842357D01*
X13123820Y10930407D01*
Y10970258D01*
X13149220Y10980779D01*
X14092117Y10037882D01*
X14127634Y10002366D01*
X14193871Y9926840D01*
X14255026Y9847144D01*
X14310837Y9763618D01*
X14361066Y9676621D01*
X14405495Y9586524D01*
X14443938Y9493715D01*
X14476227Y9398590D01*
X14502225Y9301556D01*
X14521822Y9203030D01*
X14534930Y9103433D01*
X14541496Y9003192D01*
X14541496Y8952964D01*
X14541495Y8952964D01*
X14541499Y8952961D01*
X14541499Y6357964D01*
X14541501Y6312167D01*
X14535512Y6220768D01*
X14523558Y6129956D01*
X14505690Y6040121D01*
X14481984Y5951647D01*
X14452542Y5864913D01*
X14417490Y5780291D01*
X14376978Y5698142D01*
X14331178Y5618819D01*
X14280290Y5542662D01*
X14224529Y5469996D01*
X14164134Y5401133D01*
X14131749Y5368751D01*
X14131749Y5368751D01*
X14131750Y5368750D01*
X12323885Y3560885D01*
X12287366Y3524364D01*
X12209706Y3456255D01*
X12127758Y3393372D01*
X12041872Y3335983D01*
X11952416Y3284335D01*
X11859773Y3238648D01*
X11764341Y3199119D01*
X11666528Y3165917D01*
X11566752Y3139183D01*
X11465442Y3119033D01*
X11363030Y3105552D01*
X11259956Y3098798D01*
X11208308Y3098800D01*
X8707469D01*
X8657657Y3098799D01*
X8558246Y3105314D01*
X8459474Y3118317D01*
X8361764Y3137752D01*
X8265534Y3163537D01*
X8171197Y3195560D01*
X8079156Y3233684D01*
X7989805Y3277747D01*
X7903528Y3327559D01*
X7820694Y3382908D01*
X7741657Y3443555D01*
X7666756Y3509243D01*
X7631534Y3544465D01*
X7631534Y3544466D01*
X5911927Y5264073D01*
X5871270Y5304730D01*
X5795450Y5391188D01*
X5725446Y5482420D01*
X5661558Y5578035D01*
X5604061Y5677623D01*
X5553201Y5780759D01*
X5509194Y5887000D01*
X5472230Y5995892D01*
X5442467Y6106968D01*
X5420032Y6219753D01*
X5405022Y6333764D01*
X5397500Y6448513D01*
X5397500Y6506010D01*
X5397500Y8922310D01*
X5397499Y8974961D01*
X5404386Y9080038D01*
X5418131Y9184439D01*
X5438674Y9287718D01*
X5465928Y9389432D01*
X5499776Y9489146D01*
X5540074Y9586432D01*
X5586648Y9680874D01*
X5639299Y9772069D01*
X5697802Y9859624D01*
X5761906Y9943166D01*
X5831336Y10022336D01*
X5868566Y10059566D01*
Y10059566D01*
X6096000Y10287000D01*
X7188200Y11379200D01*
X7571754Y11762754D01*
X7610697Y11801698D01*
X7693511Y11874324D01*
X7780898Y11941378D01*
X7872483Y12002573D01*
X7967874Y12057648D01*
X8066663Y12106365D01*
X8168427Y12148517D01*
X8272730Y12183923D01*
X8379126Y12212431D01*
X8487158Y12233920D01*
X8596364Y12248297D01*
X8706277Y12255500D01*
X8761351Y12255499D01*
X8761352Y12255500D01*
X9220200D01*
X11134297Y12255499D01*
X11192798Y12255500D01*
X11309550Y12247848D01*
D02*
G37*
G36*
X13026550Y10983870D02*
Y10930407D01*
X12938503Y10842357D01*
X12960815Y10820043D01*
X12947668Y10797270D01*
X12946487Y10797586D01*
X12921040D01*
X12904509Y10793156D01*
X12898801Y10796229D01*
X12887636Y10807393D01*
X12884563Y10813102D01*
X12888992Y10829633D01*
Y10855081D01*
X12882407Y10879663D01*
X12869682Y10901702D01*
X12851688Y10919696D01*
X12829648Y10932421D01*
X12805067Y10939007D01*
X12779618D01*
X12763088Y10934578D01*
X12757379Y10937650D01*
X12746214Y10948816D01*
X12743142Y10954524D01*
X12747571Y10971055D01*
Y10996503D01*
X12740985Y11021084D01*
X12728261Y11043123D01*
X12710266Y11061118D01*
X12688227Y11073842D01*
X12663645Y11080429D01*
X12638197D01*
X12621666Y11075999D01*
X12615958Y11079072D01*
X12604793Y11090236D01*
X12601721Y11095945D01*
X12606150Y11112476D01*
Y11137924D01*
X12601721Y11154455D01*
X12604793Y11160164D01*
X12615958Y11171328D01*
X12621666Y11174401D01*
X12638197Y11169971D01*
X12663645D01*
X12688227Y11176558D01*
X12710266Y11189282D01*
X12728261Y11207277D01*
X12734444Y11217987D01*
X12792433D01*
X13026550Y10983870D01*
D02*
G37*
G36*
X12827307Y10747064D02*
X12838470Y10735900D01*
X12841544Y10730191D01*
X12837114Y10713660D01*
Y10688212D01*
X12840315Y10676266D01*
X12746462Y10582414D01*
X12727959Y10600918D01*
X12643106Y10516065D01*
X12643106Y10516066D01*
X12625145Y10498105D01*
X12607721Y10480681D01*
X12606036Y10479983D01*
X12591413Y10468762D01*
X12580193Y10454140D01*
X12579495Y10452455D01*
X12551182Y10424141D01*
X12572895Y10402429D01*
X12573140Y10400564D01*
X12580193Y10383536D01*
X12591413Y10368913D01*
X12604411Y10358940D01*
X12769096Y10194255D01*
Y10156030D01*
X12403443Y9790377D01*
X12380034Y9802889D01*
X12380335Y9804400D01*
X12380334Y9804401D01*
Y10207874D01*
X12376632Y10226486D01*
X12366090Y10242264D01*
X12366089Y10242264D01*
X12278734Y10329619D01*
Y10495455D01*
X12466145Y10682866D01*
X12483971D01*
X12503406Y10668465D01*
X12598865Y10573006D01*
X12683718Y10657859D01*
X12680171Y10661406D01*
X12767673Y10748908D01*
X12779618Y10745707D01*
X12805067D01*
X12821597Y10750137D01*
X12827307Y10747064D01*
D02*
G37*
G36*
X12086996Y9156700D02*
X12089402Y9138426D01*
X12090100Y9136741D01*
Y9084200D01*
X12152822D01*
Y8964899D01*
X11716302D01*
X11704782Y8985527D01*
Y9101626D01*
X11700901Y9121135D01*
X11689850Y9137674D01*
X11677087Y9150438D01*
X11679201Y9166497D01*
Y9251196D01*
X12086996D01*
Y9156700D01*
D02*
G37*
G36*
X11497210Y9439811D02*
X11497210Y9439810D01*
X11512988Y9429268D01*
X11531600Y9425566D01*
X12001499D01*
X12001500Y9425565D01*
X12020112Y9429268D01*
X12035890Y9439810D01*
X12065935Y9469856D01*
X12069807Y9468718D01*
X12088560Y9456559D01*
X12086996Y9444685D01*
Y9392404D01*
X11649603D01*
X11631329Y9389998D01*
X11614301Y9382945D01*
X11599678Y9371724D01*
X11558673Y9330719D01*
X11547453Y9316097D01*
X11540399Y9299068D01*
X11537993Y9280795D01*
Y9229200D01*
X11531300D01*
Y9176659D01*
X11530602Y9174974D01*
X11528196Y9156700D01*
X11530602Y9138426D01*
X11531300Y9136741D01*
Y9084200D01*
X11594204D01*
X11595252Y9083152D01*
X11602823Y9078094D01*
Y8964899D01*
X11181116D01*
X11170595Y8990299D01*
X11228248Y9047952D01*
X11239299Y9064491D01*
X11241051Y9073300D01*
X11347200D01*
Y9253300D01*
X11157200D01*
Y9145396D01*
X11156152Y9144348D01*
X11145101Y9127809D01*
X11141220Y9108300D01*
Y9105116D01*
X11067755Y9031651D01*
X11061880Y9022858D01*
X11036480Y9030563D01*
Y9104600D01*
X11032599Y9124109D01*
X11021548Y9140648D01*
X11008596Y9153600D01*
X11009004Y9156700D01*
Y9296255D01*
X11022724Y9309976D01*
X11033945Y9324598D01*
X11040998Y9341626D01*
X11043404Y9359900D01*
X11040998Y9378174D01*
X11033945Y9395202D01*
X11022724Y9409824D01*
X11008102Y9421045D01*
X10991074Y9428098D01*
X10972800Y9430504D01*
X10969926Y9430125D01*
X10958062Y9454183D01*
X10992945Y9489066D01*
X11447955D01*
X11497210Y9439811D01*
D02*
G37*
G36*
X13908665Y9009555D02*
Y8695966D01*
X13904800Y8692100D01*
X13882800D01*
X13879401Y8692100D01*
X13795302D01*
X13776416Y8702178D01*
X13774500Y8716133D01*
Y8755741D01*
X13775198Y8757426D01*
X13777605Y8775700D01*
Y8864455D01*
X13778624Y8865476D01*
X13789845Y8880098D01*
X13796898Y8897126D01*
X13799304Y8915400D01*
X13796898Y8933674D01*
X13789845Y8950702D01*
X13778624Y8965324D01*
X13764001Y8976545D01*
X13746974Y8983598D01*
X13728700Y8986004D01*
X13710426Y8983598D01*
X13693398Y8976545D01*
X13678777Y8965324D01*
X13657076Y8943624D01*
X13645856Y8929002D01*
X13638802Y8911974D01*
X13636395Y8893700D01*
Y8793398D01*
X13635101Y8790274D01*
X13632697Y8772000D01*
Y8589600D01*
X13635101Y8571327D01*
X13642155Y8554298D01*
X13650800Y8543032D01*
Y8494134D01*
X13532945D01*
X13452791Y8574289D01*
X13437012Y8584831D01*
X13418401Y8588534D01*
X13418401Y8588533D01*
X13340202D01*
X13315700Y8590700D01*
Y8770700D01*
X13125700D01*
X13106580Y8785860D01*
Y8808500D01*
X13102699Y8828009D01*
X13091647Y8844548D01*
X13075717Y8860479D01*
X13065648Y8875548D01*
X13064600Y8876596D01*
Y8939500D01*
X13019554D01*
X13005074Y8945498D01*
X12986800Y8947904D01*
X12877800D01*
X12859526Y8945498D01*
X12842497Y8938445D01*
X12827876Y8927224D01*
X12816655Y8912602D01*
X12791300Y8917762D01*
Y8964899D01*
X12752434D01*
Y9013355D01*
X12809045Y9069966D01*
X13848254D01*
X13908665Y9009555D01*
D02*
G37*
G36*
X12827876Y8827376D02*
X12842497Y8816155D01*
X12859526Y8809102D01*
X12877800Y8806696D01*
X12919600D01*
Y8804500D01*
X12972141D01*
X12973827Y8803802D01*
X12991534Y8801471D01*
X12993552Y8798452D01*
X13004620Y8787384D01*
Y8740878D01*
X12941299D01*
X12921791Y8736998D01*
X12907425Y8727399D01*
X12853799D01*
Y8652399D01*
Y8552399D01*
Y8452399D01*
Y8352400D01*
Y8252400D01*
Y8152800D01*
X12853799Y8152400D01*
Y8127400D01*
X12853799Y8127000D01*
Y8002400D01*
Y7888535D01*
X12665902D01*
X12665901Y7888535D01*
X12647289Y7884833D01*
X12631511Y7874290D01*
X12577320Y7820100D01*
X12573686D01*
X12551486Y7810905D01*
X12534495Y7793914D01*
X12525300Y7771714D01*
Y7747686D01*
X12534495Y7725486D01*
X12551486Y7708495D01*
X12573686Y7699300D01*
X12597714D01*
X12619914Y7708495D01*
X12622153Y7710734D01*
X12648796Y7712786D01*
X12665786Y7695795D01*
X12687986Y7686600D01*
X12712014D01*
X12734214Y7695795D01*
X12751205Y7712786D01*
X12760400Y7734986D01*
Y7738621D01*
X12763046Y7741266D01*
X12853799D01*
Y7652801D01*
X12853799Y7652401D01*
Y7627401D01*
X12853799Y7627001D01*
Y7502401D01*
Y7402402D01*
Y7288536D01*
X12795443D01*
X12785800Y7298179D01*
Y7301814D01*
X12776605Y7324014D01*
X12759614Y7341005D01*
X12737414Y7350200D01*
X12713386D01*
X12691186Y7341005D01*
X12674195Y7324014D01*
X12665000Y7301814D01*
Y7277786D01*
X12674195Y7255586D01*
X12673248Y7250824D01*
X12667721Y7248535D01*
X12650731Y7231544D01*
X12641535Y7209345D01*
Y7185316D01*
X12643174Y7181361D01*
X12637186Y7172400D01*
X12614986Y7163205D01*
X12597995Y7146214D01*
X12588800Y7124014D01*
Y7099986D01*
X12597995Y7077786D01*
X12614986Y7060795D01*
X12637186Y7051600D01*
X12641534D01*
X12661740Y7048340D01*
X12665000Y7028134D01*
Y7023786D01*
X12674195Y7001586D01*
X12691186Y6984595D01*
X12713386Y6975400D01*
X12737414D01*
X12759614Y6984595D01*
X12776605Y7001586D01*
X12785800Y7023786D01*
Y7027420D01*
X12799647Y7041268D01*
X12853799D01*
Y7002802D01*
X12853799Y7002402D01*
Y6977402D01*
X12853799Y6977002D01*
Y6906634D01*
X12809399D01*
X12809398Y6906635D01*
X12790786Y6902932D01*
X12775008Y6892390D01*
X12775007Y6892389D01*
X12722520Y6839902D01*
X12654780D01*
Y6890700D01*
X12650899Y6910209D01*
X12639848Y6926748D01*
X12621474Y6945122D01*
X12604935Y6956173D01*
X12585426Y6960053D01*
X12560574D01*
X12559197Y6959780D01*
X12484100D01*
X12464591Y6955899D01*
X12448052Y6944848D01*
X12417753Y6914549D01*
X12406702Y6898010D01*
X12402821Y6878501D01*
Y6839902D01*
X12354780D01*
Y7495499D01*
X12350900Y7515008D01*
X12339849Y7531547D01*
X12152648Y7718748D01*
X12136109Y7729799D01*
X12116600Y7733680D01*
X11429200D01*
X11409691Y7729799D01*
X11393152Y7718748D01*
X11367504Y7693100D01*
X11367186D01*
X11344986Y7683905D01*
X11327995Y7666914D01*
X11318800Y7644714D01*
Y7620686D01*
X11319010Y7620180D01*
X11302038Y7594780D01*
X11132419D01*
X11121898Y7620180D01*
X11125605Y7623886D01*
X11134800Y7646086D01*
Y7670114D01*
X11125605Y7692314D01*
X11119262Y7698657D01*
X11111423Y7715250D01*
X11119262Y7731843D01*
X11125605Y7738186D01*
X11134800Y7760386D01*
Y7784414D01*
X11125605Y7806614D01*
X11108614Y7823605D01*
X11086414Y7832800D01*
X11062386D01*
X11040186Y7823605D01*
X11023195Y7806614D01*
X11015707Y7788535D01*
X10903803D01*
Y7891266D01*
X11025999D01*
X11026000Y7891266D01*
X11044612Y7894968D01*
X11060390Y7905510D01*
X11120879Y7966000D01*
X11124514D01*
X11146714Y7975195D01*
X11163705Y7992186D01*
X11172900Y8014386D01*
Y8038414D01*
X11163705Y8060614D01*
X11146714Y8077605D01*
X11124514Y8086800D01*
X11100486D01*
X11078286Y8077605D01*
X11076047Y8075366D01*
X11049404Y8073314D01*
X11032414Y8090305D01*
X11010214Y8099500D01*
X10986186D01*
X10963986Y8090305D01*
X10946995Y8073314D01*
X10937800Y8051114D01*
X10929204Y8046425D01*
X10903803Y8061503D01*
Y8127000D01*
X10903804Y8127400D01*
Y8152400D01*
X10903803Y8152800D01*
Y8242865D01*
X10975716D01*
X10976686Y8241895D01*
X10998886Y8232700D01*
X11022914D01*
X11045114Y8241895D01*
X11062105Y8258886D01*
X11071300Y8281086D01*
Y8305114D01*
X11062105Y8327314D01*
X11045114Y8344305D01*
X11022914Y8353500D01*
X10998886D01*
X10976686Y8344305D01*
X10972516Y8340134D01*
X10903803D01*
Y8441265D01*
X10979098D01*
X10979099Y8441265D01*
X10997711Y8444967D01*
X11013489Y8455509D01*
X11062155Y8504176D01*
X11062156Y8504177D01*
X11072699Y8519955D01*
X11076401Y8538566D01*
X11076401Y8538568D01*
Y8542552D01*
X11079769Y8544803D01*
X11105169Y8531226D01*
Y8467698D01*
X11105169Y8467697D01*
X11108871Y8449085D01*
X11119413Y8433307D01*
X11243210Y8309511D01*
X11243210Y8309510D01*
X11258988Y8298968D01*
X11277600Y8295265D01*
X11277601Y8295266D01*
X12282216D01*
X12284786Y8292695D01*
X12306986Y8283500D01*
X12331014D01*
X12353214Y8292695D01*
X12370205Y8309686D01*
X12379400Y8331886D01*
Y8355914D01*
X12370205Y8378114D01*
X12353214Y8395105D01*
X12331014Y8404300D01*
X12306986D01*
X12284786Y8395105D01*
X12282216Y8392534D01*
X11317220D01*
X11310335Y8401891D01*
X11313577Y8430633D01*
X11330568Y8447623D01*
X11339763Y8469823D01*
Y8493851D01*
X11330568Y8516051D01*
X11324433Y8522186D01*
X11322539Y8546780D01*
X11326679Y8553126D01*
X11339372Y8565819D01*
X11343492Y8575768D01*
X11369457Y8584483D01*
X11372303Y8584001D01*
X11392586Y8575600D01*
X11416614D01*
X11438814Y8584795D01*
X11455805Y8601786D01*
X11463334Y8619963D01*
X11477695Y8623219D01*
X11488162Y8622587D01*
X11490084Y8621757D01*
X11493095Y8614486D01*
X11510086Y8597495D01*
X11532286Y8588300D01*
X11556314D01*
X11578514Y8597495D01*
X11595505Y8614486D01*
X11604700Y8636686D01*
Y8660714D01*
X11595505Y8682914D01*
X11578514Y8699905D01*
X11556314Y8709100D01*
X11552680D01*
X11552437Y8709343D01*
Y8789899D01*
X11690902D01*
X11691302Y8789899D01*
Y8789898D01*
X11716302D01*
Y8789899D01*
X12240901D01*
X12241301Y8789899D01*
X12266301D01*
X12266701Y8789899D01*
X12605166D01*
Y8762345D01*
X12590020Y8747200D01*
X12586386D01*
X12564186Y8738005D01*
X12547195Y8721014D01*
X12538000Y8698814D01*
Y8674786D01*
X12547195Y8652586D01*
X12564186Y8635595D01*
X12586386Y8626400D01*
X12610414D01*
X12632614Y8635595D01*
X12643833Y8646814D01*
X12666353Y8645570D01*
X12672993Y8642788D01*
X12674195Y8639886D01*
X12691186Y8622895D01*
X12713386Y8613700D01*
X12737414D01*
X12759614Y8622895D01*
X12776605Y8639886D01*
X12785800Y8662086D01*
Y8665721D01*
X12788189Y8668110D01*
X12788190Y8668110D01*
X12798732Y8683888D01*
X12802435Y8702500D01*
X12802434Y8702501D01*
Y8818807D01*
X12827834Y8827429D01*
X12827876Y8827376D01*
D02*
G37*
G36*
X10200266Y8552355D02*
Y8431484D01*
X10197695Y8428914D01*
X10188500Y8406714D01*
Y8382686D01*
X10197695Y8360486D01*
X10214686Y8343495D01*
X10236886Y8334300D01*
X10260914D01*
X10266865Y8336765D01*
X10292265Y8319793D01*
Y7901084D01*
X10207200D01*
X10188588Y7897382D01*
X10186819Y7896200D01*
X9969700D01*
Y7896200D01*
X9969655D01*
X9944699D01*
Y7896200D01*
X9855834D01*
Y7979300D01*
X9913700D01*
Y8031841D01*
X9914398Y8033526D01*
X9916804Y8051800D01*
X9914398Y8070074D01*
X9913700Y8071759D01*
Y8124300D01*
X9778700D01*
X9767176Y8144927D01*
X9765984Y8147804D01*
X10008799Y8390619D01*
X10014730Y8389440D01*
X10036291Y8382190D01*
X10049586Y8368895D01*
X10071786Y8359700D01*
X10095814D01*
X10118014Y8368895D01*
X10135005Y8385886D01*
X10144200Y8408086D01*
Y8432114D01*
X10135005Y8454314D01*
X10118014Y8471304D01*
X10113281Y8495101D01*
X10119089Y8500910D01*
X10119090Y8500910D01*
X10129632Y8516688D01*
X10133335Y8535300D01*
X10133334Y8535301D01*
Y8578766D01*
X10173855D01*
X10200266Y8552355D01*
D02*
G37*
G36*
X10574110Y8305510D02*
X10574111Y8305510D01*
X10589889Y8294967D01*
X10608501Y8291265D01*
X10608502Y8291265D01*
X10728804D01*
Y8202400D01*
X10728803Y8152400D01*
X10708175Y8140880D01*
X10567700D01*
X10548191Y8136999D01*
X10531652Y8125948D01*
X10515408Y8109704D01*
X10426700D01*
X10414934Y8108155D01*
X10397486Y8118687D01*
X10389534Y8126965D01*
Y8454165D01*
X10414934Y8464686D01*
X10574110Y8305510D01*
D02*
G37*
G36*
X10607365Y7949797D02*
X10607600Y7949017D01*
Y7925486D01*
X10610424Y7918669D01*
X10615076Y7895157D01*
X10598086Y7878166D01*
X10588890Y7855967D01*
Y7831938D01*
X10598086Y7809739D01*
X10615077Y7792748D01*
X10637276Y7783552D01*
X10661305D01*
X10679927Y7791266D01*
X10728804D01*
Y7652401D01*
X10708175Y7640881D01*
X10604801D01*
X10585292Y7637000D01*
X10568753Y7625949D01*
X10544100Y7601296D01*
X10541000Y7601704D01*
X10522726Y7599298D01*
X10521041Y7598600D01*
X10471575D01*
X10453553Y7607776D01*
X10448861Y7614604D01*
X10449935Y7620000D01*
X10449934Y7620001D01*
Y7659416D01*
X10452505Y7661986D01*
X10461700Y7684186D01*
Y7708214D01*
X10452505Y7730414D01*
X10435514Y7747404D01*
X10433541Y7757323D01*
X10439805Y7763586D01*
X10449000Y7785786D01*
Y7809814D01*
X10439805Y7832014D01*
X10422814Y7849005D01*
X10400614Y7858200D01*
X10389534Y7877100D01*
Y7951235D01*
X10397486Y7959513D01*
X10414934Y7970045D01*
X10426700Y7968496D01*
X10528300D01*
X10546574Y7970902D01*
X10548259Y7971600D01*
X10589255D01*
X10607365Y7949797D01*
D02*
G37*
G36*
X9685402Y8033526D02*
X9692455Y8016498D01*
X9703676Y8001876D01*
X9718298Y7990655D01*
X9735326Y7983602D01*
X9753600Y7981196D01*
X9758566D01*
Y7896200D01*
X9719700D01*
Y7808700D01*
X9786819D01*
X9788589Y7807518D01*
X9807200Y7803815D01*
X9825812Y7807518D01*
X9827581Y7808700D01*
X9944699D01*
Y7808699D01*
D01*
X9956800D01*
X9969700D01*
Y7808700D01*
X10146371D01*
X10153814Y7807105D01*
X10167222Y7783300D01*
X10164816Y7771200D01*
X10168518Y7752589D01*
X10169700Y7750819D01*
Y7747000D01*
Y7738700D01*
X10177797D01*
X10179060Y7736810D01*
X10194838Y7726268D01*
X10213450Y7722566D01*
X10331311D01*
X10340900Y7708214D01*
Y7684186D01*
X10350095Y7661986D01*
X10348332Y7635811D01*
X10287543Y7575022D01*
X10258599Y7582000D01*
X10256699Y7587889D01*
X10257200Y7588700D01*
X10257200Y7603923D01*
Y7653700D01*
X10169700D01*
Y7645400D01*
Y7611996D01*
X10157200Y7588585D01*
X10138588Y7584882D01*
X10136819Y7583700D01*
X10027581D01*
X10025812Y7584882D01*
X10007200Y7588585D01*
X9988588Y7584882D01*
X9986819Y7583700D01*
X9927581D01*
X9925811Y7584882D01*
X9907200Y7588585D01*
X9888588Y7584882D01*
X9886819Y7583700D01*
X9769700D01*
Y7496200D01*
X9858565D01*
Y7372100D01*
X9809400D01*
Y7182100D01*
X9989400D01*
Y7314334D01*
X10012866Y7324054D01*
X10035000Y7301921D01*
Y7247700D01*
X10154999D01*
X10155000Y7247700D01*
X10165000D01*
Y7247700D01*
X10180400Y7247700D01*
X10205041D01*
X10206726Y7247002D01*
X10225000Y7244596D01*
X10240772Y7246673D01*
X10242796Y7244711D01*
X10247125Y7217104D01*
X10165255Y7135234D01*
X9488685D01*
X9471100Y7152820D01*
Y7162114D01*
X9461905Y7184314D01*
X9444914Y7201305D01*
X9422714Y7210500D01*
X9398686D01*
X9376486Y7201305D01*
X9359495Y7184314D01*
X9357941Y7180560D01*
X9337035Y7173807D01*
X9327677Y7173870D01*
X9315012Y7182332D01*
X9296400Y7186035D01*
X9296399Y7186034D01*
X9256984D01*
X9254414Y7188605D01*
X9232214Y7197800D01*
X9208186D01*
X9185986Y7188605D01*
X9168995Y7171614D01*
X9159800Y7149414D01*
Y7125386D01*
X9168995Y7103186D01*
X9185986Y7086195D01*
X9208186Y7077000D01*
X9232214D01*
X9254414Y7086195D01*
X9256984Y7088766D01*
X9276255D01*
X9389010Y6976011D01*
X9389010Y6976010D01*
X9404788Y6965468D01*
X9423400Y6961765D01*
X9423401Y6961766D01*
X9875726D01*
X9886247Y6936366D01*
X9880195Y6930314D01*
X9871000Y6908114D01*
Y6903459D01*
X9845600Y6898407D01*
X9842905Y6904914D01*
X9825914Y6921905D01*
X9803714Y6931100D01*
X9779686D01*
X9757486Y6921905D01*
X9740495Y6904914D01*
X9731300Y6882714D01*
Y6858686D01*
X9740495Y6836486D01*
X9757486Y6819495D01*
X9779686Y6810300D01*
X9783320D01*
X9803566Y6790055D01*
Y6652727D01*
X9787200Y6630085D01*
X9773690Y6627398D01*
X9762238Y6619745D01*
X9754585Y6608293D01*
X9751898Y6594783D01*
Y6527648D01*
X9744028Y6511972D01*
X9728352Y6504102D01*
X9661217D01*
X9647707Y6501415D01*
X9636255Y6493762D01*
X9628602Y6482310D01*
X9625915Y6468800D01*
X9628602Y6455291D01*
X9629107Y6454535D01*
X9634164Y6436300D01*
X9629107Y6418065D01*
X9628602Y6417309D01*
X9625915Y6403800D01*
X9628602Y6390290D01*
X9636255Y6378838D01*
Y6363762D01*
X9628602Y6352310D01*
X9625915Y6338800D01*
X9628602Y6325291D01*
X9636255Y6313838D01*
X9647707Y6306186D01*
X9661217Y6303498D01*
X9740076D01*
X9753586Y6306186D01*
X9765039Y6313838D01*
X9772691Y6325291D01*
X9775378Y6338800D01*
X9772691Y6352310D01*
X9765039Y6363762D01*
Y6378838D01*
X9766300Y6380725D01*
X9772691Y6390290D01*
X9775378Y6403800D01*
X9772691Y6417309D01*
X9766300Y6426875D01*
Y6445725D01*
X9772691Y6455291D01*
X9775378Y6468800D01*
X9787200Y6480622D01*
X9800709Y6483309D01*
X9803097Y6484904D01*
X9812162Y6490961D01*
X9827238D01*
X9829125Y6489700D01*
X9838691Y6483309D01*
X9852200Y6480622D01*
X9865710Y6483309D01*
X9877162Y6490961D01*
X9892238D01*
X9894125Y6489700D01*
X9903690Y6483309D01*
X9917200Y6480622D01*
X9930709Y6483309D01*
X9942162Y6490961D01*
X9957238D01*
X9959125Y6489700D01*
X9968691Y6483309D01*
X9982200Y6480622D01*
X9995709Y6483309D01*
X10007162Y6490961D01*
X10022238D01*
X10024125Y6489700D01*
X10033691Y6483309D01*
X10047200Y6480622D01*
X10060710Y6483309D01*
X10072162Y6490961D01*
X10079815Y6502414D01*
X10082502Y6515924D01*
Y6522329D01*
X10092132Y6536742D01*
X10095835Y6555353D01*
Y6628735D01*
Y6756822D01*
X10135821Y6796808D01*
X10139455D01*
X10161655Y6806004D01*
X10178646Y6822994D01*
X10187841Y6845194D01*
Y6869222D01*
X10178646Y6891422D01*
X10161655Y6908413D01*
X10139455Y6917608D01*
X10115427D01*
X10107310Y6914246D01*
X10083315Y6905804D01*
X10066324Y6922794D01*
X10044124Y6931989D01*
X10020096D01*
X9997897Y6922794D01*
X9976611Y6936507D01*
X9987074Y6961766D01*
X10210799D01*
X10210800Y6961765D01*
X10229412Y6965468D01*
X10245190Y6976010D01*
X10410447Y7141267D01*
X10480523D01*
X10497799Y7118113D01*
X10497977Y7115867D01*
X10495796Y7099300D01*
X10498202Y7081026D01*
X10504996Y7064624D01*
Y6984800D01*
X10507402Y6966526D01*
X10514455Y6949498D01*
X10520600Y6941490D01*
Y6905100D01*
X10520600Y6899801D01*
X10520599D01*
Y6879699D01*
X10520600D01*
Y6838010D01*
X10514455Y6830002D01*
X10507402Y6812974D01*
X10504996Y6794700D01*
Y6702176D01*
X10498202Y6685774D01*
X10495796Y6667500D01*
X10498202Y6649226D01*
X10505255Y6632198D01*
X10516476Y6617576D01*
X10531098Y6606355D01*
X10548126Y6599302D01*
X10566400Y6596896D01*
X10568012Y6597108D01*
X10606666Y6558455D01*
Y6484445D01*
X10541000Y6418780D01*
D01*
X10532479Y6410258D01*
X10512511Y6390290D01*
X10510320Y6388100D01*
X10505320Y6383100D01*
X10366900D01*
Y6378888D01*
X10341500Y6370304D01*
X10338614Y6373190D01*
X10322836Y6383732D01*
X10304224Y6387435D01*
X10304223Y6387435D01*
X10263753D01*
X10245142Y6383732D01*
X10230729Y6374102D01*
X10224324D01*
X10210814Y6371415D01*
X10199361Y6363762D01*
X10198100Y6361875D01*
D01*
X10191709Y6352310D01*
X10189022Y6338800D01*
X10191709Y6325291D01*
X10198100Y6315725D01*
Y6296875D01*
X10191709Y6287309D01*
X10189022Y6273800D01*
X10191709Y6260291D01*
X10198100Y6250725D01*
Y6231875D01*
X10191709Y6222309D01*
D01*
X10189022Y6208800D01*
X10191709Y6195290D01*
X10199361Y6183838D01*
Y6168762D01*
X10198100Y6166875D01*
D01*
X10191709Y6157310D01*
X10189022Y6143800D01*
X10191709Y6130291D01*
X10199361Y6118838D01*
X10203282Y6116218D01*
D01*
X10210814Y6111185D01*
X10223308Y6108700D01*
X10224324Y6108498D01*
X10230729D01*
X10245142Y6098868D01*
X10263753Y6095166D01*
X10384155D01*
X10390766Y6088555D01*
Y5735145D01*
X10355755Y5700134D01*
X9962045D01*
X9961575Y5725340D01*
X9983774Y5734535D01*
X9996467Y5747228D01*
X10005846Y5751134D01*
X10027408Y5749474D01*
X10036886Y5739995D01*
X10059086Y5730800D01*
X10083114D01*
X10105314Y5739995D01*
X10122305Y5756986D01*
X10131500Y5779186D01*
Y5803214D01*
X10122305Y5825414D01*
X10105314Y5842405D01*
X10097512Y5845636D01*
X10095835Y5847314D01*
Y5992247D01*
X10092132Y6010858D01*
X10082502Y6025271D01*
Y6031676D01*
X10079815Y6045186D01*
X10072162Y6056639D01*
X10070275Y6057900D01*
D01*
X10060710Y6064291D01*
X10047200Y6066978D01*
X10033691Y6064291D01*
X10024125Y6057900D01*
D01*
X10022238Y6056639D01*
X10007162D01*
X10005275Y6057900D01*
X9995709Y6064291D01*
X9982200Y6066978D01*
X9968691Y6064291D01*
X9959125Y6057900D01*
D01*
X9957238Y6056639D01*
X9942162D01*
X9940275Y6057900D01*
X9930709Y6064291D01*
X9917200Y6066978D01*
X9903690Y6064291D01*
X9894125Y6057900D01*
D01*
X9892238Y6056639D01*
X9877162D01*
X9875275Y6057900D01*
X9865710Y6064291D01*
X9852200Y6066978D01*
X9838691Y6064291D01*
X9829125Y6057900D01*
D01*
X9827238Y6056639D01*
X9812162D01*
X9810275Y6057900D01*
X9800709Y6064291D01*
X9787200Y6066978D01*
X9775378Y6078800D01*
X9772691Y6092309D01*
X9766300Y6101875D01*
Y6120725D01*
X9772691Y6130291D01*
X9775378Y6143800D01*
X9772691Y6157310D01*
X9766300Y6166875D01*
D01*
X9765039Y6168762D01*
Y6183838D01*
X9772691Y6195290D01*
X9775378Y6208800D01*
X9772691Y6222309D01*
X9767694Y6229788D01*
X9766300Y6231875D01*
D01*
X9765039Y6233762D01*
X9753586Y6241414D01*
X9740076Y6244102D01*
X9661217D01*
X9647707Y6241414D01*
X9636255Y6233762D01*
X9628602Y6222309D01*
X9625915Y6208800D01*
X9628602Y6195290D01*
X9636255Y6183838D01*
Y6168762D01*
X9628602Y6157310D01*
X9625915Y6143800D01*
X9603273Y6127434D01*
X9596701D01*
X9596700Y6127435D01*
X9578088Y6123732D01*
X9562310Y6113190D01*
X9562310Y6113189D01*
X9542021Y6092900D01*
X9538386D01*
X9516186Y6083705D01*
X9499195Y6066714D01*
X9490000Y6044514D01*
Y6020486D01*
X9499195Y5998286D01*
X9516186Y5981295D01*
X9538386Y5972100D01*
X9562414D01*
X9584614Y5981295D01*
X9601605Y5998286D01*
X9610800Y6020486D01*
Y6024121D01*
X9616845Y6030165D01*
X9700647D01*
X9719258Y6033868D01*
X9722332Y6033690D01*
X9736695Y6028295D01*
X9742090Y6013932D01*
X9742268Y6010858D01*
X9738565Y5992247D01*
Y5972962D01*
X9694338Y5928734D01*
X9663384D01*
X9660814Y5931305D01*
X9638614Y5940500D01*
X9614586D01*
X9592386Y5931305D01*
X9575395Y5914314D01*
X9566200Y5892114D01*
Y5868086D01*
X9575395Y5845886D01*
X9592386Y5828895D01*
X9614586Y5819700D01*
X9618636D01*
X9639091Y5803381D01*
X9639300Y5796234D01*
Y5779186D01*
X9648496Y5756986D01*
X9665486Y5739995D01*
X9687686Y5730800D01*
X9711714D01*
X9733914Y5739995D01*
X9750905Y5756986D01*
X9755218Y5767399D01*
X9757594Y5769775D01*
X9773479Y5772935D01*
X9774793Y5773813D01*
X9803760Y5769719D01*
X9807691Y5765990D01*
X9820986Y5752695D01*
X9843186Y5743500D01*
X9867214D01*
X9873166Y5745965D01*
X9898356Y5751525D01*
X9915346Y5734535D01*
X9937546Y5725340D01*
X9937075Y5700134D01*
X9138745D01*
X8975190Y5863690D01*
X8959412Y5874232D01*
X8940800Y5877935D01*
X8940799Y5877934D01*
X8719645D01*
X8710034Y5887545D01*
Y6080400D01*
X8711400D01*
Y6106766D01*
X8847799D01*
X8847800Y6106765D01*
X8866412Y6110468D01*
X8882190Y6121010D01*
X8975190Y6214010D01*
X8985732Y6229788D01*
X8989435Y6248400D01*
X8989434Y6248401D01*
Y7062516D01*
X8992005Y7065086D01*
X9001200Y7087286D01*
Y7111314D01*
X8992005Y7133514D01*
X8989434Y7136084D01*
Y7315199D01*
X8989435Y7315200D01*
X8985732Y7333812D01*
X8975190Y7349590D01*
X8975189Y7349590D01*
X8853081Y7471699D01*
X8862801Y7495166D01*
X8940799D01*
X8940800Y7495165D01*
X8959412Y7498868D01*
X8975190Y7509410D01*
X9024445Y7558666D01*
X9120600D01*
Y7539800D01*
X9240599D01*
X9240600Y7539799D01*
X9250600D01*
Y7539800D01*
X9266000Y7539800D01*
X9290641D01*
X9292326Y7539102D01*
X9310600Y7536696D01*
X9328873Y7539102D01*
X9330558Y7539800D01*
X9370600D01*
Y7570506D01*
X9371745Y7571998D01*
X9378798Y7589027D01*
X9381204Y7607300D01*
Y7714496D01*
X9512300D01*
X9521000Y7692700D01*
X9520999Y7692700D01*
X9521000D01*
X9521000Y7692699D01*
Y7572700D01*
X9656000D01*
Y7622566D01*
X9750950D01*
X9769562Y7626268D01*
X9785340Y7636810D01*
X9786603Y7638700D01*
X9794700D01*
Y7645400D01*
Y7650819D01*
X9795882Y7652588D01*
X9799584Y7671200D01*
X9795882Y7689812D01*
X9794700Y7691581D01*
Y7700819D01*
X9795882Y7702588D01*
X9799584Y7721200D01*
X9795882Y7739812D01*
X9794700Y7741581D01*
Y7747000D01*
Y7753700D01*
X9786603D01*
X9785340Y7755590D01*
X9769562Y7766132D01*
X9764700Y7767100D01*
X9762405Y7767556D01*
X9750950Y7769834D01*
X9658165D01*
X9656698Y7780974D01*
X9656000Y7782659D01*
Y7822700D01*
X9625294D01*
X9623802Y7823845D01*
X9616807Y7826742D01*
X9608525Y7835024D01*
X9593902Y7846245D01*
X9576874Y7853298D01*
X9558600Y7855704D01*
X9310600D01*
X9292327Y7853298D01*
X9290642Y7852600D01*
X9250600D01*
X9229235Y7862340D01*
Y7901566D01*
X9499599D01*
X9499600Y7901565D01*
X9518212Y7905268D01*
X9533990Y7915810D01*
X9658843Y8040663D01*
X9685402Y8033526D01*
D02*
G37*
G36*
X9131966Y7852600D02*
X9120600D01*
Y7717600D01*
X9239996D01*
Y7674800D01*
X9120600D01*
Y7655934D01*
X9004300D01*
X8985688Y7652232D01*
X8969910Y7641690D01*
X8969910Y7641689D01*
X8920655Y7592434D01*
X8833945D01*
X8780634Y7645745D01*
Y7779800D01*
X8776932Y7798412D01*
X8774500Y7802052D01*
Y7873550D01*
X8767968D01*
X8754391Y7898950D01*
X8756139Y7901566D01*
X9131966D01*
Y7852600D01*
D02*
G37*
G36*
X7795549Y5579399D02*
X7369288Y5153138D01*
X7358849Y5155935D01*
X7333980D01*
X7313023Y5150320D01*
X7302097Y5158589D01*
X7293828Y5169515D01*
X7299443Y5190472D01*
Y5215341D01*
X7293006Y5239363D01*
X7280572Y5260900D01*
X7262987Y5278486D01*
X7241450Y5290920D01*
X7217428Y5297357D01*
X7192559D01*
X7171602Y5291741D01*
X7160676Y5300011D01*
X7152406Y5310937D01*
X7158022Y5331894D01*
Y5356763D01*
X7155225Y5367201D01*
X7390889Y5602866D01*
X7785828D01*
X7795549Y5579399D01*
D02*
G37*
%LPC*%
G36*
X7581900Y10795180D02*
X7580997Y10795000D01*
D01*
X7562391Y10791299D01*
X7545852Y10780248D01*
X7126752Y10361148D01*
X7115701Y10344609D01*
X7115022Y10341195D01*
X7087461Y10332835D01*
X6817848Y10602448D01*
X6801309Y10613499D01*
X6781800Y10617380D01*
X6667500D01*
X6651227Y10614143D01*
X6647991Y10613499D01*
X6631452Y10602448D01*
X6491752Y10462748D01*
X6480701Y10446209D01*
X6476820Y10426700D01*
Y10337800D01*
X6480701Y10318291D01*
X6491752Y10301752D01*
X6641920Y10151584D01*
Y10020300D01*
X6645801Y10000791D01*
X6656852Y9984252D01*
X6987052Y9654052D01*
X7003591Y9643001D01*
X7023100Y9639120D01*
X7137400D01*
X7156909Y9643001D01*
X7173448Y9654052D01*
X7177254Y9657858D01*
X7200720Y9648138D01*
Y9639300D01*
X7204601Y9619791D01*
X7215652Y9603252D01*
X7456952Y9361952D01*
X7473491Y9350901D01*
X7493000Y9347020D01*
X7569200D01*
X7581720Y9336745D01*
Y9296400D01*
X7585601Y9276891D01*
X7596652Y9260352D01*
X8091952Y8765052D01*
X8108491Y8754001D01*
X8119676Y8751776D01*
X8130515Y8726694D01*
X7987020Y8583200D01*
X7920800D01*
Y8478600D01*
X7920800Y8463200D01*
X7920800Y8437800D01*
Y8333200D01*
X7937320D01*
Y8262200D01*
X7908300D01*
Y8102200D01*
X8068300D01*
Y8262200D01*
X8039280D01*
Y8333200D01*
X8055800D01*
Y8437800D01*
X8055800Y8453200D01*
X8055800Y8478600D01*
Y8514420D01*
X8230345Y8688966D01*
X8338999D01*
X8348719Y8665499D01*
X8266420Y8583200D01*
X8200200D01*
Y8478600D01*
X8200200Y8463200D01*
X8200200Y8437800D01*
Y8333200D01*
X8219066D01*
Y8262200D01*
X8187700D01*
Y8102200D01*
X8347700D01*
Y8262200D01*
X8316334D01*
Y8333200D01*
X8335200D01*
Y8437800D01*
X8335200Y8453200D01*
X8335200Y8478600D01*
Y8514420D01*
X8433545Y8612766D01*
X8543317D01*
X8551939Y8587366D01*
X8547976Y8584324D01*
X8536755Y8569702D01*
X8529702Y8552674D01*
X8527296Y8534400D01*
Y8436500D01*
X8529702Y8418226D01*
X8534100Y8407609D01*
Y8360300D01*
X8553366D01*
Y8222200D01*
X8557068Y8203588D01*
X8559500Y8199948D01*
Y8128450D01*
X8644500D01*
Y8199948D01*
X8646932Y8203588D01*
X8650634Y8222200D01*
Y8360300D01*
X8669100D01*
Y8505300D01*
X8668504D01*
Y8534400D01*
X8666098Y8552674D01*
X8659045Y8569702D01*
X8647824Y8584324D01*
X8643861Y8587366D01*
X8652483Y8612766D01*
X9245599D01*
X9245600Y8612765D01*
X9264212Y8616468D01*
X9279990Y8627010D01*
X9700645Y9047665D01*
X9983516D01*
X9986086Y9045095D01*
X10008286Y9035900D01*
X10032314D01*
X10054514Y9045095D01*
X10071505Y9062086D01*
X10080700Y9084285D01*
X10102331Y9101445D01*
X10126359D01*
X10148559Y9110640D01*
X10165549Y9127631D01*
X10174745Y9149831D01*
Y9173859D01*
X10165549Y9196059D01*
X10148559Y9213049D01*
X10126359Y9222245D01*
X10115550D01*
X10109323Y9236206D01*
X10107763Y9247645D01*
X10122305Y9262186D01*
X10131500Y9284386D01*
Y9308414D01*
X10122305Y9330614D01*
X10105314Y9347605D01*
X10083114Y9356800D01*
X10059086D01*
X10036886Y9347605D01*
X10034316Y9345034D01*
X10005600D01*
Y9363900D01*
X9901000D01*
X9885600Y9363900D01*
X9860200Y9363900D01*
X9755600D01*
Y9345034D01*
X9655800D01*
Y9376400D01*
X9495800D01*
Y9216400D01*
X9556199D01*
X9566721Y9191000D01*
X9161955Y8786234D01*
X9031217D01*
X9021497Y8809701D01*
X9027648Y8815852D01*
X9038699Y8832391D01*
X9042580Y8851900D01*
Y9080500D01*
X9038699Y9100009D01*
X9027648Y9116548D01*
X8976848Y9167348D01*
X8960309Y9178399D01*
X8940800Y9182280D01*
X8630519D01*
X8629411Y9183019D01*
X8626223Y9186208D01*
X8622057Y9187934D01*
X8617589Y9190919D01*
X8612318Y9191968D01*
X8607846Y9193820D01*
X8602921Y9194800D01*
X8597900D01*
X8594349Y9198351D01*
X8307852Y9484848D01*
X8291313Y9495899D01*
X8271804Y9499780D01*
X8250716D01*
X8250019Y9500477D01*
X8245843Y9503267D01*
X8242293Y9506818D01*
X8237654Y9508739D01*
X8233480Y9511528D01*
X8232111Y9511801D01*
X8231364Y9512300D01*
X8229600D01*
X8226049Y9515851D01*
D01*
X8015752Y9726148D01*
X7999213Y9737199D01*
X7979704Y9741080D01*
X7937680D01*
Y9779000D01*
X7933799Y9798509D01*
X7922748Y9815048D01*
X7759880Y9977916D01*
Y10126184D01*
X7986248Y10352552D01*
X7997299Y10369091D01*
X8001180Y10388600D01*
Y10451920D01*
Y10452100D01*
X7997299Y10471609D01*
X7986248Y10488148D01*
X7694148Y10780248D01*
X7677609Y10791299D01*
X7658100Y10795179D01*
X7581900Y10795180D01*
D02*
G37*
G36*
X11276914Y10766500D02*
X11252886D01*
X11230686Y10757305D01*
X11213695Y10740314D01*
X11204500Y10718114D01*
Y10694086D01*
X11213695Y10671886D01*
X11230686Y10654895D01*
X11252886Y10645700D01*
X11276914D01*
X11299114Y10654895D01*
X11316105Y10671886D01*
X11325300Y10694086D01*
Y10718114D01*
X11316105Y10740314D01*
X11299114Y10757305D01*
X11276914Y10766500D01*
D02*
G37*
G36*
X13296214Y10628521D02*
X13272186D01*
X13249986Y10619326D01*
X13232996Y10602335D01*
X13223801Y10580136D01*
Y10556107D01*
X13232996Y10533908D01*
X13249986Y10516917D01*
X13272186Y10507721D01*
X13296214D01*
X13318414Y10516917D01*
X13335405Y10533908D01*
X13344600Y10556107D01*
Y10580136D01*
X13335405Y10602335D01*
X13318414Y10619326D01*
X13296214Y10628521D01*
D02*
G37*
G36*
X11580595Y10250899D02*
X11428001Y10098305D01*
X11580595Y9945712D01*
X11733188Y10098305D01*
X11580595Y10250899D01*
D02*
G37*
G36*
X11664173Y10574411D02*
X11637210D01*
X11611167Y10567432D01*
X11587816Y10553951D01*
X11568751Y10534886D01*
X11555270Y10511535D01*
X11548291Y10485492D01*
Y10458530D01*
X11555270Y10432486D01*
X11568751Y10409136D01*
X11587816Y10390070D01*
X11611167Y10376589D01*
X11637210Y10369611D01*
X11664173D01*
X11666068Y10370119D01*
X11994646Y10041542D01*
X11965496Y10012391D01*
X12049135Y9928751D01*
Y9857116D01*
X12028668Y9841663D01*
X12006016Y9848299D01*
X11981769Y9872546D01*
X11961922Y9885808D01*
X11938511Y9890464D01*
X11906070D01*
X11868100Y9928434D01*
Y9932905D01*
X11860747Y9960348D01*
X11846541Y9984952D01*
X11826452Y10005041D01*
X11801848Y10019247D01*
X11774405Y10026600D01*
X11745995D01*
X11718552Y10019247D01*
X11693948Y10005041D01*
X11673859Y9984952D01*
X11659653Y9960348D01*
X11652300Y9932905D01*
Y9904495D01*
X11659653Y9877052D01*
X11673859Y9852448D01*
X11693948Y9832359D01*
X11718552Y9818153D01*
X11745995Y9810800D01*
X11774405D01*
X11801848Y9818153D01*
X11804069Y9819435D01*
X11837473Y9786031D01*
X11857319Y9772770D01*
X11880730Y9768113D01*
X11913172D01*
X11934145Y9747140D01*
X11926137Y9739132D01*
X12025132Y9640137D01*
X12127663Y9742668D01*
X12121423Y9748908D01*
X12153568Y9781054D01*
X12166830Y9800900D01*
X12171486Y9824311D01*
Y9928751D01*
X12255126Y10012391D01*
X12110311Y10157207D01*
X12081160Y10128056D01*
X11752583Y10456634D01*
X11753091Y10458530D01*
Y10485492D01*
X11746113Y10511535D01*
X11732632Y10534886D01*
X11713566Y10553951D01*
X11690216Y10567432D01*
X11664173Y10574411D01*
D02*
G37*
G36*
X9906000Y9989304D02*
X9887726Y9986898D01*
X9870698Y9979845D01*
X9856076Y9968624D01*
X9844855Y9954002D01*
X9837802Y9936974D01*
X9835396Y9918700D01*
X9837802Y9900426D01*
X9844855Y9883398D01*
X9831407Y9859200D01*
X9755600D01*
Y9840334D01*
X9659200D01*
Y9871700D01*
X9499200D01*
Y9711700D01*
X9659200D01*
Y9743066D01*
X9755600D01*
Y9724200D01*
X9875599D01*
X9875600Y9724199D01*
X9885600D01*
Y9724200D01*
X9901000Y9724200D01*
X9925641D01*
X9927326Y9723502D01*
X9945600Y9721096D01*
X9963873Y9723502D01*
X9965558Y9724200D01*
X10005600D01*
Y9754906D01*
X10006745Y9756398D01*
X10013798Y9773426D01*
X10016204Y9791700D01*
X10013798Y9809974D01*
X10011204Y9816236D01*
Y9884100D01*
X10008798Y9902374D01*
X10001745Y9919402D01*
X9990524Y9934025D01*
X9955924Y9968624D01*
X9941302Y9979845D01*
X9924274Y9986898D01*
X9906000Y9989304D01*
D02*
G37*
G36*
X9659200Y9630400D02*
X9499200D01*
Y9470400D01*
X9659200D01*
Y9501766D01*
X9754100D01*
Y9482900D01*
X9858700D01*
X9874100Y9482900D01*
X9899500Y9482900D01*
X10004100D01*
Y9501766D01*
X10102386D01*
X10105564Y9498588D01*
X10108795Y9490786D01*
X10125786Y9473795D01*
X10147986Y9464600D01*
X10172014D01*
X10194214Y9473795D01*
X10211205Y9490786D01*
X10220400Y9512986D01*
Y9537014D01*
X10211205Y9559214D01*
X10194214Y9576205D01*
X10172014Y9585400D01*
X10156008D01*
X10141143Y9595332D01*
X10122531Y9599035D01*
X10122530Y9599034D01*
X10004100D01*
Y9617900D01*
X9899500D01*
X9884100Y9617900D01*
X9858700Y9617900D01*
X9754100D01*
Y9599034D01*
X9659200D01*
Y9630400D01*
D02*
G37*
G36*
X6786800Y8931504D02*
X6784300Y8931175D01*
X6781800Y8931504D01*
X6651100D01*
X6632827Y8929098D01*
X6615798Y8922045D01*
X6601176Y8910825D01*
X6592176Y8901824D01*
X6580955Y8887202D01*
X6573902Y8870174D01*
X6571496Y8851900D01*
X6573902Y8833626D01*
X6580955Y8816598D01*
X6592176Y8801976D01*
X6606798Y8790755D01*
X6623826Y8783702D01*
X6642100Y8781296D01*
X6660374Y8783702D01*
X6676294Y8790296D01*
X6757555D01*
X6783976Y8763876D01*
X6798598Y8752655D01*
X6815627Y8745602D01*
X6833900Y8743196D01*
X7018600D01*
X7036873Y8745602D01*
X7053902Y8752655D01*
X7065168Y8761300D01*
X7114850D01*
Y8866300D01*
X7065168D01*
X7053902Y8874945D01*
X7036873Y8881998D01*
X7018600Y8884404D01*
X6863145D01*
X6854300Y8893249D01*
Y8928400D01*
X6806759D01*
X6805074Y8929098D01*
X6786800Y8931504D01*
D02*
G37*
G36*
X6934200Y9406604D02*
X6915926Y9404198D01*
X6898898Y9397145D01*
X6897406Y9396000D01*
X6866700D01*
Y9355959D01*
X6866002Y9354274D01*
X6863596Y9336000D01*
X6866002Y9317727D01*
X6866700Y9316042D01*
Y9291400D01*
X6866700Y9276001D01*
X6866700D01*
Y9266000D01*
X6866700D01*
Y9146000D01*
X6928470D01*
X6934610Y9136810D01*
X7419010Y8652411D01*
X7419010Y8652410D01*
X7434788Y8641868D01*
X7441899Y8640453D01*
X7464750Y8634300D01*
Y8634300D01*
X7657250D01*
Y8638166D01*
X7686576D01*
X7711066Y8613676D01*
Y8364045D01*
X7344310Y7997290D01*
X7333768Y7981512D01*
X7330065Y7962900D01*
X7330066Y7962899D01*
Y7232116D01*
X7330065Y7232115D01*
X7333768Y7213503D01*
X7344310Y7197725D01*
X7502524Y7039511D01*
X7502525Y7039510D01*
X7622166Y6919870D01*
Y6662245D01*
X7472855Y6512934D01*
X6927315D01*
X6908703Y6509232D01*
X6892925Y6498690D01*
X6892924Y6498689D01*
X6458330Y6064096D01*
X6447892Y6066893D01*
X6423023D01*
X6402066Y6061277D01*
X6391140Y6069547D01*
X6382870Y6080472D01*
X6388486Y6101430D01*
Y6126299D01*
X6382049Y6150320D01*
X6369615Y6171858D01*
X6352029Y6189443D01*
X6330492Y6201877D01*
X6306470Y6208314D01*
X6281601D01*
X6257580Y6201877D01*
X6236042Y6189443D01*
X6218457Y6171858D01*
X6206023Y6150320D01*
X6199586Y6126299D01*
Y6101430D01*
X6206023Y6077408D01*
X6218457Y6055871D01*
X6236042Y6038285D01*
X6257580Y6025851D01*
X6281601Y6019414D01*
X6306470D01*
X6327428Y6025030D01*
X6338353Y6016760D01*
X6346623Y6005834D01*
X6341007Y5984877D01*
Y5960008D01*
X6347444Y5935986D01*
X6359879Y5914449D01*
X6377464Y5896864D01*
X6399001Y5884429D01*
X6423023Y5877993D01*
X6447892D01*
X6468849Y5883608D01*
X6479775Y5875339D01*
X6488044Y5864413D01*
X6482429Y5843456D01*
Y5818587D01*
X6488865Y5794565D01*
X6501300Y5773028D01*
X6518885Y5755443D01*
X6540422Y5743008D01*
X6564444Y5736571D01*
X6589313D01*
X6610270Y5742187D01*
X6621196Y5733917D01*
X6629466Y5722992D01*
X6623850Y5702035D01*
Y5677165D01*
X6630287Y5653144D01*
X6642721Y5631606D01*
X6660306Y5614021D01*
X6681844Y5601587D01*
X6705865Y5595150D01*
X6730735D01*
X6754756Y5601587D01*
X6776294Y5614021D01*
X6793879Y5631606D01*
X6806313Y5653144D01*
X6812750Y5677165D01*
Y5702035D01*
X6806313Y5726056D01*
X6793879Y5747594D01*
X6776294Y5765179D01*
X6754756Y5777613D01*
X6730735Y5784050D01*
X6705865D01*
X6684908Y5778434D01*
X6673983Y5786704D01*
X6665713Y5797630D01*
X6671329Y5818587D01*
Y5843456D01*
X6664892Y5867478D01*
X6652457Y5889015D01*
X6634872Y5906600D01*
X6613335Y5919035D01*
X6589313Y5925471D01*
X6564444D01*
X6543487Y5919856D01*
X6532561Y5928125D01*
X6524292Y5939051D01*
X6529907Y5960008D01*
Y5984877D01*
X6527110Y5995316D01*
X6947460Y6415666D01*
X7492999D01*
X7493000Y6415665D01*
X7507686Y6418587D01*
X7516814Y6409136D01*
X7522659Y6397639D01*
X7440746Y6315726D01*
X7430204Y6299948D01*
X7426501Y6281336D01*
X7426502Y6281335D01*
Y6150648D01*
X7423931Y6148078D01*
X7414736Y6125878D01*
Y6101850D01*
X7423931Y6079650D01*
X7440922Y6062659D01*
X7463122Y6053464D01*
X7487150D01*
X7509350Y6062659D01*
X7526341Y6079650D01*
X7535536Y6101850D01*
Y6125878D01*
X7526341Y6148078D01*
X7523770Y6150648D01*
Y6261191D01*
X7806790Y6544210D01*
X7817332Y6559988D01*
X7821035Y6578600D01*
X7821034Y6578601D01*
Y6997068D01*
X7821035Y6997069D01*
X7817332Y7015680D01*
X7806790Y7031459D01*
X7806789Y7031459D01*
X7712536Y7125712D01*
X7709305Y7133514D01*
X7692314Y7150505D01*
X7670114Y7159700D01*
X7646086D01*
X7623886Y7150505D01*
X7606895Y7133514D01*
X7599604Y7115911D01*
X7582928Y7108976D01*
X7572300Y7107294D01*
X7571304Y7108290D01*
X7571304Y7108290D01*
X7516561Y7163033D01*
X7526281Y7186500D01*
X7657250D01*
Y7190366D01*
X8178799D01*
X8178800Y7190365D01*
X8197412Y7194068D01*
X8213190Y7204610D01*
X8276079Y7267500D01*
X8279714D01*
X8301914Y7276695D01*
X8318905Y7293686D01*
X8328100Y7315886D01*
Y7339914D01*
X8318905Y7362114D01*
X8301914Y7379105D01*
X8279714Y7388300D01*
X8264138Y7413700D01*
X8265706Y7417486D01*
Y7441514D01*
X8256511Y7463714D01*
X8276495Y7476788D01*
X8276514Y7476796D01*
X8293505Y7493786D01*
X8302700Y7515986D01*
Y7540014D01*
X8293505Y7562214D01*
X8276514Y7579205D01*
X8254314Y7588400D01*
X8241079D01*
X8175090Y7654390D01*
X8159312Y7664932D01*
X8140700Y7668635D01*
X8140699Y7668634D01*
X7915801D01*
X7915800Y7668635D01*
X7897188Y7664932D01*
X7881410Y7654390D01*
X7825832Y7598812D01*
X7804299Y7613200D01*
X7807400Y7620686D01*
Y7644714D01*
X7798205Y7666914D01*
X7781214Y7683905D01*
X7759014Y7693100D01*
X7734986D01*
X7712786Y7683905D01*
X7703866Y7674984D01*
X7567350D01*
X7554860Y7672500D01*
X7464750D01*
Y7567500D01*
X7464750Y7567500D01*
Y7545500D01*
X7464750D01*
X7464750Y7542100D01*
Y7440500D01*
X7464750D01*
Y7418500D01*
X7464750D01*
Y7313500D01*
X7464750D01*
Y7291500D01*
X7464750D01*
Y7259502D01*
X7439350Y7248073D01*
X7427334Y7257548D01*
Y7942755D01*
X7794089Y8309510D01*
X7794090Y8309510D01*
X7804632Y8325288D01*
X7808334Y8343900D01*
Y8633821D01*
X7804632Y8652433D01*
X7794090Y8668211D01*
X7794089Y8668211D01*
X7741111Y8721190D01*
X7725333Y8731732D01*
X7706721Y8735435D01*
X7706720Y8735434D01*
X7688000D01*
X7679241Y8750043D01*
X7677798Y8761695D01*
X7681049Y8765166D01*
X7752886D01*
X7768764Y8749288D01*
X7771995Y8741486D01*
X7788986Y8724495D01*
X7811186Y8715300D01*
X7835214D01*
X7857414Y8724495D01*
X7874405Y8741486D01*
X7883600Y8763686D01*
Y8787714D01*
X7874405Y8809914D01*
X7857414Y8826905D01*
X7835214Y8836100D01*
X7819511D01*
X7807421Y8848190D01*
X7791643Y8858732D01*
X7773031Y8862435D01*
X7773030Y8862434D01*
X7657250D01*
Y8866300D01*
X7464750D01*
X7444953Y8879827D01*
X7166800Y9157980D01*
Y9263896D01*
X7226300D01*
X7244574Y9266302D01*
X7261602Y9273355D01*
X7276224Y9284576D01*
X7287445Y9299198D01*
X7294498Y9316226D01*
X7296904Y9334500D01*
X7294498Y9352774D01*
X7287445Y9369802D01*
X7276224Y9384424D01*
X7261602Y9395645D01*
X7244574Y9402698D01*
X7226300Y9405104D01*
X7104247D01*
X7098550Y9405854D01*
X6939897D01*
X6934200Y9406604D01*
D02*
G37*
G36*
X6343400Y8738600D02*
X6153400D01*
Y8689904D01*
X5750810D01*
X5735263Y8698880D01*
X5713543Y8704700D01*
X5691057D01*
X5669337Y8698880D01*
X5649863Y8687637D01*
X5633963Y8671737D01*
X5622720Y8652263D01*
X5616900Y8630543D01*
Y8608057D01*
X5622720Y8586337D01*
X5633963Y8566863D01*
X5649863Y8550963D01*
X5669337Y8539720D01*
X5691057Y8533900D01*
X5713543D01*
X5735263Y8539720D01*
X5750810Y8548696D01*
X6199100D01*
X6217373Y8551102D01*
X6234402Y8558155D01*
X6249024Y8569376D01*
X6253249Y8573600D01*
X6343400D01*
Y8585496D01*
X6370155D01*
X6398758Y8556893D01*
X6401655Y8549898D01*
X6402800Y8548406D01*
Y8517700D01*
X6428558D01*
X6437564Y8492300D01*
X6431769Y8487600D01*
X6402800D01*
Y8456894D01*
X6401655Y8455402D01*
X6398758Y8448407D01*
X6359555Y8409204D01*
X6275900D01*
X6257626Y8406798D01*
X6245199Y8401650D01*
X6227624Y8419224D01*
X6213002Y8430445D01*
X6195973Y8437498D01*
X6177700Y8439904D01*
X5787700D01*
Y8454700D01*
X5616900D01*
Y8283900D01*
X5787700D01*
Y8298696D01*
X6148455D01*
X6153400Y8293751D01*
Y8228600D01*
X6343400D01*
Y8267996D01*
X6388800D01*
X6407073Y8270402D01*
X6424102Y8277455D01*
X6438724Y8288675D01*
X6498937Y8348888D01*
X6522800Y8352599D01*
X6532800D01*
Y8352600D01*
X6652800D01*
Y8371466D01*
X6709300D01*
Y8356300D01*
X6854300D01*
Y8384166D01*
X6922350D01*
Y8380300D01*
X7114850D01*
Y8481900D01*
X7114850Y8485300D01*
Y8507300D01*
X7114850Y8510700D01*
Y8612300D01*
X6922350D01*
Y8608434D01*
X6854300D01*
Y8636300D01*
X6709300D01*
Y8608434D01*
X6652800D01*
Y8652700D01*
X6532800D01*
Y8652700D01*
X6522800D01*
X6498937Y8656412D01*
X6449324Y8706024D01*
X6434702Y8717245D01*
X6417673Y8724298D01*
X6399400Y8726704D01*
X6343400D01*
Y8738600D01*
D02*
G37*
G36*
X6790500Y7546500D02*
X6671500D01*
Y7460909D01*
X6527801D01*
X6527799Y7460909D01*
X6520640Y7459485D01*
X6514570Y7455429D01*
X6514569Y7455429D01*
X6451070Y7391930D01*
X6447015Y7385860D01*
X6445591Y7378700D01*
Y7219171D01*
X6407929Y7181509D01*
X6319650D01*
X6302411Y7198748D01*
X6311226Y7214016D01*
X6316750Y7234630D01*
Y7255970D01*
X6311226Y7276584D01*
X6300556Y7295066D01*
X6285466Y7310156D01*
X6266984Y7320826D01*
X6249481Y7325516D01*
X6246371Y7326350D01*
X6248135Y7350850D01*
X6248720Y7351007D01*
X6272156Y7357287D01*
X6293694Y7369721D01*
X6311279Y7387307D01*
X6323713Y7408844D01*
X6330150Y7432865D01*
Y7457735D01*
X6323713Y7481756D01*
X6311279Y7503294D01*
X6293694Y7520879D01*
X6272156Y7533313D01*
X6248135Y7539750D01*
X6223265D01*
X6199244Y7533313D01*
X6177706Y7520879D01*
X6160121Y7503294D01*
X6147687Y7481756D01*
X6141250Y7457735D01*
Y7432865D01*
X6147687Y7408844D01*
X6160121Y7387307D01*
X6177706Y7369721D01*
X6199244Y7357287D01*
X6222680Y7351007D01*
X6223265Y7350850D01*
X6225029Y7326350D01*
X6221919Y7325516D01*
X6204416Y7320826D01*
X6185934Y7310156D01*
X6170844Y7295066D01*
X6160174Y7276584D01*
X6154650Y7255970D01*
Y7234630D01*
X6160174Y7214016D01*
X6170844Y7195534D01*
X6185934Y7180444D01*
X6204416Y7169774D01*
X6225030Y7164250D01*
X6246370D01*
X6266984Y7169774D01*
X6274264Y7173977D01*
X6298141Y7150100D01*
X6268178Y7120137D01*
X6266984Y7120826D01*
X6246370Y7126350D01*
X6225030D01*
X6204416Y7120826D01*
X6185934Y7110156D01*
X6170844Y7095066D01*
X6160174Y7076584D01*
X6154650Y7055970D01*
Y7034630D01*
X6160174Y7014016D01*
X6170844Y6995534D01*
X6185934Y6980444D01*
X6204416Y6969774D01*
X6225030Y6964250D01*
X6246370D01*
X6266984Y6969774D01*
X6285466Y6980444D01*
X6300556Y6995534D01*
X6311226Y7014016D01*
X6316750Y7034630D01*
Y7055970D01*
X6311226Y7076584D01*
X6300556Y7095066D01*
X6298290Y7097331D01*
X6319650Y7118691D01*
X6426200D01*
X6433360Y7120115D01*
X6439430Y7124170D01*
X6454309Y7139049D01*
X6454309Y7139050D01*
X6488049Y7172790D01*
X6488051Y7172791D01*
X6502930Y7187670D01*
X6506985Y7193740D01*
X6508409Y7200900D01*
Y7360430D01*
X6546070Y7398090D01*
X6671500D01*
Y7312500D01*
X6790500D01*
Y7398090D01*
X6873371D01*
X6873372Y7398091D01*
X6930350D01*
Y7321500D01*
X6944857D01*
X6956825Y7296100D01*
X6953027Y7291500D01*
X6922350D01*
Y7186500D01*
X6947596D01*
Y7051967D01*
X6947131Y7048435D01*
Y6882310D01*
X6944925D01*
Y6706690D01*
X7235545D01*
Y6723896D01*
X7273696D01*
Y6671200D01*
X7276102Y6652926D01*
X7283155Y6635898D01*
X7294376Y6621276D01*
X7308998Y6610055D01*
X7326026Y6603002D01*
X7344300Y6600596D01*
X7362574Y6603002D01*
X7379602Y6610055D01*
X7394224Y6621276D01*
X7405445Y6635898D01*
X7412498Y6652926D01*
X7414904Y6671200D01*
Y6794500D01*
X7412498Y6812774D01*
X7411800Y6814459D01*
Y6867000D01*
X7276800D01*
Y6865104D01*
X7235545D01*
Y6882310D01*
X7088339D01*
Y7045368D01*
X7088804Y7048900D01*
Y7186500D01*
X7114850D01*
Y7291500D01*
X7084173D01*
X7080375Y7296100D01*
X7092342Y7321500D01*
X7106850D01*
Y7410500D01*
X6981765D01*
X6970695Y7429500D01*
X6981765Y7448500D01*
X7106850D01*
Y7537500D01*
X6930350D01*
Y7460909D01*
X6862850D01*
X6862849Y7460909D01*
X6790500D01*
Y7546500D01*
D02*
G37*
G36*
X13352599Y5878114D02*
X13327730D01*
X13303708Y5871677D01*
X13282172Y5859243D01*
X13264584Y5841658D01*
X13252151Y5820120D01*
X13245714Y5796099D01*
Y5771230D01*
X13251331Y5750272D01*
X13243060Y5739347D01*
X13232133Y5731077D01*
X13211177Y5736693D01*
X13186308D01*
X13162286Y5730256D01*
X13140749Y5717821D01*
X13123164Y5700236D01*
X13110728Y5678699D01*
X13104292Y5654677D01*
Y5629808D01*
X13109908Y5608851D01*
X13101639Y5597925D01*
X13090714Y5589656D01*
X13069756Y5595271D01*
X13044887D01*
X13020865Y5588835D01*
X12999329Y5576400D01*
X12981743Y5558815D01*
X12969308Y5537278D01*
X12962871Y5513256D01*
Y5488387D01*
X12968488Y5467430D01*
X12960217Y5456504D01*
X12949292Y5448234D01*
X12928336Y5453850D01*
X12903465D01*
X12879443Y5447413D01*
X12857906Y5434979D01*
X12840321Y5417394D01*
X12827887Y5395856D01*
X12821449Y5371835D01*
Y5346965D01*
X12827887Y5322944D01*
X12840321Y5301406D01*
X12857906Y5283821D01*
X12879443Y5271387D01*
X12903465Y5264950D01*
X12928336D01*
X12952356Y5271387D01*
X12973894Y5283821D01*
X12991479Y5301406D01*
X13003912Y5322944D01*
X13010350Y5346965D01*
Y5371835D01*
X13004733Y5392792D01*
X13013004Y5403717D01*
X13023930Y5411987D01*
X13044887Y5406371D01*
X13069756D01*
X13093777Y5412808D01*
X13115315Y5425243D01*
X13132899Y5442828D01*
X13145335Y5464365D01*
X13151772Y5488387D01*
Y5513256D01*
X13146156Y5534213D01*
X13154425Y5545139D01*
X13165350Y5553408D01*
X13186308Y5547793D01*
X13211177D01*
X13235199Y5554229D01*
X13256737Y5566664D01*
X13274321Y5584249D01*
X13286755Y5605786D01*
X13293193Y5629808D01*
Y5654677D01*
X13287576Y5675634D01*
X13295847Y5686560D01*
X13306772Y5694830D01*
X13327730Y5689214D01*
X13352599D01*
X13376620Y5695651D01*
X13398158Y5708085D01*
X13415742Y5725671D01*
X13428177Y5747208D01*
X13434615Y5771230D01*
Y5796099D01*
X13428177Y5820120D01*
X13415742Y5841658D01*
X13398158Y5859243D01*
X13376620Y5871677D01*
X13352599Y5878114D01*
D02*
G37*
G36*
X9892831Y4080700D02*
X9868369D01*
X9844742Y4074369D01*
X9823558Y4062138D01*
X9806262Y4044842D01*
X9794031Y4023658D01*
X9793748Y4022602D01*
X9767452D01*
X9767169Y4023658D01*
X9754938Y4044842D01*
X9737642Y4062138D01*
X9716458Y4074369D01*
X9692830Y4080700D01*
X9668369D01*
X9644742Y4074369D01*
X9623558Y4062138D01*
X9606261Y4044842D01*
X9594031Y4023658D01*
X9593748Y4022602D01*
X9567452D01*
X9567169Y4023658D01*
X9554938Y4044842D01*
X9537642Y4062138D01*
X9516458Y4074369D01*
X9492831Y4080700D01*
X9468369D01*
X9444742Y4074369D01*
X9423558Y4062138D01*
X9406262Y4044842D01*
X9394031Y4023658D01*
X9393748Y4022602D01*
X9367452D01*
X9367169Y4023658D01*
X9354938Y4044842D01*
X9337642Y4062138D01*
X9316458Y4074369D01*
X9292831Y4080700D01*
X9268369D01*
X9244742Y4074369D01*
X9223558Y4062138D01*
X9206261Y4044842D01*
X9194031Y4023658D01*
X9193748Y4022602D01*
X9167452D01*
X9167169Y4023658D01*
X9154939Y4044842D01*
X9137642Y4062138D01*
X9116458Y4074369D01*
X9092831Y4080700D01*
X9068369D01*
X9044742Y4074369D01*
X9023558Y4062138D01*
X9006262Y4044842D01*
X8998900Y4032091D01*
X8973500Y4038897D01*
Y4080700D01*
X8787700D01*
Y3894900D01*
X8973500D01*
Y3936703D01*
X8998900Y3943509D01*
X9006262Y3930758D01*
X9023558Y3913462D01*
X9044742Y3901231D01*
X9068369Y3894900D01*
X9092831D01*
X9116458Y3901231D01*
X9137642Y3913462D01*
X9154939Y3930758D01*
X9167169Y3951942D01*
X9167452Y3952998D01*
X9193748D01*
X9194031Y3951942D01*
X9206261Y3930758D01*
X9223558Y3913462D01*
X9244742Y3901231D01*
X9268369Y3894900D01*
X9292831D01*
X9316458Y3901231D01*
X9337642Y3913462D01*
X9354938Y3930758D01*
X9367169Y3951942D01*
X9367452Y3952998D01*
X9393748D01*
X9394031Y3951942D01*
X9406262Y3930758D01*
X9423558Y3913462D01*
X9444742Y3901231D01*
X9468369Y3894900D01*
X9492831D01*
X9516458Y3901231D01*
X9537642Y3913462D01*
X9554938Y3930758D01*
X9567169Y3951942D01*
X9567452Y3952998D01*
X9593748D01*
X9594031Y3951942D01*
X9606261Y3930758D01*
X9623558Y3913462D01*
X9644742Y3901231D01*
X9668369Y3894900D01*
X9692830D01*
X9716458Y3901231D01*
X9737642Y3913462D01*
X9754938Y3930758D01*
X9767169Y3951942D01*
X9767452Y3952998D01*
X9793748D01*
X9794031Y3951942D01*
X9806262Y3930758D01*
X9823558Y3913462D01*
X9844742Y3901231D01*
X9868369Y3894900D01*
X9892831D01*
X9916458Y3901231D01*
X9937642Y3913462D01*
X9954938Y3930758D01*
X9967169Y3951942D01*
X9973500Y3975569D01*
Y4000031D01*
X9967169Y4023658D01*
X9954938Y4044842D01*
X9937642Y4062138D01*
X9916458Y4074369D01*
X9892831Y4080700D01*
D02*
G37*
G36*
X11121735Y4056850D02*
X11096866D01*
X11072844Y4050413D01*
X11051307Y4037979D01*
X11033721Y4020394D01*
X11022873Y4001604D01*
X11009300Y3999725D01*
X10995727Y4001604D01*
X10984879Y4020394D01*
X10967294Y4037979D01*
X10945756Y4050413D01*
X10921735Y4056850D01*
X10896865D01*
X10872844Y4050413D01*
X10851306Y4037979D01*
X10833721Y4020394D01*
X10822873Y4001604D01*
X10809300Y3999726D01*
X10795727Y4001604D01*
X10784879Y4020394D01*
X10767294Y4037979D01*
X10745757Y4050413D01*
X10721735Y4056850D01*
X10696866D01*
X10672844Y4050413D01*
X10651307Y4037979D01*
X10633721Y4020394D01*
X10622873Y4001604D01*
X10609300Y3999725D01*
X10595727Y4001604D01*
X10584879Y4020394D01*
X10567294Y4037979D01*
X10545756Y4050413D01*
X10521735Y4056850D01*
X10496865D01*
X10472844Y4050413D01*
X10451307Y4037979D01*
X10433721Y4020394D01*
X10421287Y3998856D01*
X10414850Y3974835D01*
Y3949965D01*
X10421287Y3925944D01*
X10433721Y3904406D01*
X10451307Y3886821D01*
X10472844Y3874387D01*
X10496865Y3867950D01*
X10521735D01*
X10545756Y3874387D01*
X10567294Y3886821D01*
X10584879Y3904406D01*
X10595727Y3923196D01*
X10609300Y3925075D01*
X10622873Y3923196D01*
X10633721Y3904406D01*
X10651307Y3886821D01*
X10672844Y3874387D01*
X10696866Y3867950D01*
X10721735D01*
X10745757Y3874387D01*
X10767294Y3886821D01*
X10784879Y3904406D01*
X10795727Y3923196D01*
X10809300Y3925074D01*
X10822873Y3923196D01*
X10833721Y3904406D01*
X10851306Y3886821D01*
X10872844Y3874387D01*
X10896865Y3867950D01*
X10921735D01*
X10945756Y3874387D01*
X10967294Y3886821D01*
X10984879Y3904406D01*
X10995727Y3923196D01*
X11009300Y3925075D01*
X11022873Y3923196D01*
X11033721Y3904406D01*
X11051307Y3886821D01*
X11072844Y3874387D01*
X11096866Y3867950D01*
X11121735D01*
X11145756Y3874387D01*
X11167294Y3886821D01*
X11184879Y3904406D01*
X11197313Y3925944D01*
X11203750Y3949965D01*
Y3974835D01*
X11197313Y3998856D01*
X11184879Y4020394D01*
X11167294Y4037979D01*
X11145756Y4050413D01*
X11121735Y4056850D01*
D02*
G37*
G36*
X9702114Y3451300D02*
X9678086D01*
X9655886Y3442105D01*
X9638895Y3425114D01*
X9629700Y3402914D01*
Y3378886D01*
X9638895Y3356686D01*
X9655886Y3339695D01*
X9678086Y3330500D01*
X9702114D01*
X9724314Y3339695D01*
X9741305Y3356686D01*
X9750500Y3378886D01*
Y3402914D01*
X9741305Y3425114D01*
X9724314Y3442105D01*
X9702114Y3451300D01*
D02*
G37*
%LPD*%
G36*
X7366000Y9982200D02*
Y9918700D01*
X7137400Y9690100D01*
X7023100D01*
X6692900Y10020300D01*
Y10172700D01*
X6527800Y10337800D01*
Y10426700D01*
X6667500Y10566400D01*
X6781800D01*
X7366000Y9982200D01*
D02*
G37*
G36*
X7658100Y10744200D02*
X7950200Y10452100D01*
Y10388600D01*
X7708900Y10147300D01*
Y9956800D01*
X7886700Y9779000D01*
Y9715500D01*
X7569200Y9398000D01*
X7493000D01*
X7251700Y9639300D01*
Y9728200D01*
X7429500Y9906000D01*
Y9994900D01*
X7162800Y10261600D01*
Y10325100D01*
X7581900Y10744200D01*
X7658100Y10744200D01*
D02*
G37*
G36*
X8193552Y9476252D02*
X8210091Y9465201D01*
X8213971Y9464429D01*
X8229600Y9448800D01*
X8271804D01*
X8561852Y9158752D01*
X8578391Y9147701D01*
X8597900Y9143820D01*
X8598080D01*
X8610600Y9131300D01*
X8940800D01*
X8991600Y9080500D01*
Y8851900D01*
X8940800Y8801100D01*
X8128000D01*
X7632700Y9296400D01*
Y9389404D01*
X7922748Y9679452D01*
X7929863Y9690100D01*
X7979704D01*
X8193552Y9476252D01*
D02*
G37*
G36*
X8180024Y7511897D02*
X8178874Y7493703D01*
X8171092Y7480704D01*
X8168522Y7478134D01*
X7890401D01*
X7890400Y7478135D01*
X7881700Y7485275D01*
Y7517120D01*
X7935945Y7571366D01*
X8120555D01*
X8180024Y7511897D01*
D02*
G37*
G36*
X8171092Y7378295D02*
X8193291Y7369100D01*
X8208868Y7343700D01*
X8207300Y7339914D01*
Y7336279D01*
X8158655Y7287634D01*
X7881700D01*
Y7352020D01*
X7910545Y7380866D01*
X8168522D01*
X8171092Y7378295D01*
D02*
G37*
D10*
X10553700Y8944222D02*
G03*
X10528300Y8969622I-25400J0D01*
G01*
X10515966Y9020422D02*
G03*
X10515966Y8969622I0J-25400D01*
G01*
X10584238Y9020422D02*
G03*
X10584238Y9071222I0J25400D01*
G01*
X10515966Y9122022D02*
G03*
X10515966Y9071222I0J-25400D01*
G01*
X10580580Y9122022D02*
G03*
X10580580Y9172822I0J25400D01*
G01*
X10528297Y9223622D02*
G03*
X10528297Y9172822I0J-25400D01*
G01*
X10528300Y9223622D02*
G03*
X10553700Y9249022I0J25400D01*
G01*
X10439400Y8674101D02*
G03*
X10414000Y8699501I-25400J0D01*
G01*
X10404800Y8750301D02*
G03*
X10404800Y8699501I0J-25400D01*
G01*
X10414000Y8750301D02*
G03*
X10439400Y8775701I0J25400D01*
G01*
X12026900Y7607300D02*
X12203801Y7430399D01*
Y6752402D02*
Y7430399D01*
X8936300Y10668000D02*
X9131300D01*
X12503800Y6569200D02*
Y6752402D01*
X12475100Y6540500D02*
X12503800Y6569200D01*
X10045700Y8928100D02*
X10084700Y8889100D01*
X9728200Y8928100D02*
X10045700D01*
X10084700Y8822400D02*
Y8889100D01*
X9677400Y8877300D02*
X9728200Y8928100D01*
X9677400Y8781000D02*
Y8877300D01*
X9701000Y8757400D02*
X9879700D01*
X9672100Y8775700D02*
X9677100D01*
X8732000Y8222200D02*
X8797000D01*
X8732000Y8418200D02*
X8750300Y8436500D01*
X8732000Y8222200D02*
Y8418200D01*
X8667000Y8222200D02*
X8732000D01*
X9957200Y8017800D02*
X9991200Y8051800D01*
X9957200Y7723779D02*
Y7852450D01*
Y8017800D01*
X10009779Y7671200D02*
X10213450D01*
X9957200Y7723779D02*
X10009779Y7671200D01*
X8797000Y7728550D02*
X8842050Y7683500D01*
X8877300D01*
X8797000Y7728550D02*
Y7779800D01*
X13075185Y10842357D02*
Y11004015D01*
X12650921Y11266621D02*
X12812579D01*
X13075185Y11004015D01*
X12507779Y11266621D02*
X12650921D01*
X12334841Y11439559D02*
X12507779Y11266621D01*
X12271341Y11439559D02*
X12334841D01*
X12268200Y11442700D02*
X12271341Y11439559D01*
X12612400Y6540500D02*
X12620100D01*
X12553800Y6752402D02*
Y6902300D01*
X12560574Y6909074D01*
X12572600Y6580300D02*
Y6588000D01*
Y6580300D02*
X12612400Y6540500D01*
X12553800Y6606800D02*
X12572600Y6588000D01*
X12553800Y6606800D02*
Y6752402D01*
X11803802D02*
Y7004898D01*
X11341800Y7100000D02*
X11708700D01*
X11253803Y7012003D02*
X11341800Y7100000D01*
X11708700D02*
X11803802Y7004898D01*
X11253803Y6752402D02*
Y7012003D01*
X11250102Y6560103D02*
Y6748702D01*
X11253803Y6752402D01*
X10566400Y6667500D02*
X10655300Y6578600D01*
X11190400Y6500400D02*
X11250102Y6560103D01*
X11190400Y6495400D02*
Y6500400D01*
X11155600Y6460600D02*
X11190400Y6495400D01*
X10655300Y6464300D02*
Y6578600D01*
X11150600Y6460600D02*
X11155600D01*
X9231300Y10445500D02*
X9236600Y10440200D01*
Y10299700D02*
Y10440200D01*
X9960900Y8822400D02*
X10025900Y8757400D01*
X9879700Y8822400D02*
X9960900D01*
X9960900Y8692400D02*
X10025900Y8757400D01*
X10084700D01*
X9879700Y8692400D02*
X9960900D01*
X9879700Y8627400D02*
Y8692400D01*
X9872200Y8627400D02*
X9879700D01*
X9863600Y8636000D02*
X9872200Y8627400D01*
X9677400Y8636000D02*
X9863600D01*
X9012500Y10909300D02*
X9031300Y10890500D01*
X8839200Y10909300D02*
X9012500D01*
X9031300Y10863000D02*
Y10890500D01*
X8788400Y10815579D02*
Y10858500D01*
X8839200Y10909300D01*
X8773521Y10800700D02*
X8788400Y10815579D01*
X8759700Y10800700D02*
X8773521D01*
X9231300Y10445500D02*
Y10473000D01*
X9181300D02*
X9231300D01*
X8724900Y10765900D02*
X8759700Y10800700D01*
X8777800Y10718000D02*
X8936300D01*
X8729900Y10765900D02*
X8777800Y10718000D01*
X8597900Y8436500D02*
X8602000Y8432400D01*
X9846200Y8046800D02*
Y8051800D01*
X9807200Y8007800D02*
X9846200Y8046800D01*
X9807200Y7852450D02*
Y8007800D01*
X10515121Y6324121D02*
X10655300Y6464300D01*
X10447921Y6324121D02*
X10515121D01*
X10304224Y6338800D02*
X10327424Y6315600D01*
X10263753Y6338800D02*
X10304224D01*
X10439400Y6315600D02*
X10447921Y6324121D01*
X10327424Y6315600D02*
X10439400D01*
X10263753Y6273800D02*
Y6338800D01*
X9596000Y7762700D02*
X9637500Y7721200D01*
X9750950D01*
X8602000Y8222200D02*
Y8432400D01*
X11203803Y6644503D02*
Y6752402D01*
X11125200Y6565900D02*
X11203803Y6644503D01*
X12653800Y6637500D02*
X12776200Y6515100D01*
Y5727700D02*
Y6515100D01*
X12653800Y6637500D02*
Y6752402D01*
X10553700Y8610600D02*
X10624401Y8539899D01*
X10816303D01*
X11153803Y8467697D02*
Y8877399D01*
Y8467697D02*
X11277600Y8343900D01*
X8267700Y8182200D02*
Y8393200D01*
X10106790Y9169400D02*
X10114345Y9161845D01*
X9613900Y9169400D02*
X10106790D01*
X9680500Y9096300D02*
X10020300D01*
X9245600Y8661400D02*
X9680500Y9096300D01*
X9182100Y8737600D02*
X9613900Y9169400D01*
X8413400Y8661400D02*
X9245600D01*
X8275200Y8523200D02*
X8413400Y8661400D01*
X8267700Y8523200D02*
X8275200D01*
X7988300D02*
X7995800D01*
X8210200Y8737600D01*
X9182100D01*
X9945600Y9296400D02*
X10071100D01*
X10653342Y7839900D02*
X10816303D01*
X10668000Y7937500D02*
X10715600Y7889900D01*
X10816303D01*
X10649290Y7843952D02*
X10653342Y7839900D01*
X10816303Y7939900D02*
X11026000D01*
X11112500Y8026400D01*
X11054601Y7739901D02*
X11074400Y7759700D01*
Y7772400D01*
X10816303Y7739901D02*
X11054601D01*
X10109200Y11330600D02*
X10116400Y11337800D01*
X11404600Y8636000D02*
Y8640974D01*
X11453803Y8690176D02*
Y8877399D01*
X11404600Y8640974D02*
X11453803Y8690176D01*
X10109200Y10756900D02*
Y11330600D01*
Y10580600D02*
Y10756900D01*
X11442700Y4953000D02*
X11506200Y5016500D01*
X8953500Y4953000D02*
X11442700D01*
X8712200Y4711700D02*
X8953500Y4953000D01*
X12701935Y7197331D02*
X12706109Y7193157D01*
X12938045D02*
X12941299Y7189902D01*
X12706109Y7193157D02*
X12938045D01*
X11009300Y8291500D02*
X11010900Y8293100D01*
X10817904Y8291500D02*
X11009300D01*
X10816303Y8289900D02*
X10817904Y8291500D01*
X10401300Y7620000D02*
Y7696200D01*
X10248900Y7467600D02*
X10401300Y7620000D01*
X10172700Y7467600D02*
X10248900D01*
X10157200Y7483100D02*
Y7539950D01*
Y7483100D02*
X10172700Y7467600D01*
X10714101Y8589899D02*
X10816303D01*
X10934700Y10694031D02*
X10947400Y10681331D01*
X10934700Y10694031D02*
Y10706100D01*
X10947400Y10567900D02*
Y10681331D01*
X10934700Y10706100D02*
Y11049000D01*
X10886400Y11097300D02*
X10934700Y11049000D01*
X10886400Y11097300D02*
Y11337800D01*
X10668000Y9728200D02*
X10845800Y9906000D01*
X10668000Y8636000D02*
X10714101Y8589899D01*
X10668000Y8636000D02*
Y9728200D01*
X10816303Y7689901D02*
X11042599D01*
X11074400Y7658100D01*
X7890400Y7429500D02*
X8205306D01*
X7821700Y7360800D02*
X7890400Y7429500D01*
X7809000Y7366000D02*
X7821700Y7353300D01*
X7561000Y7366000D02*
X7809000D01*
X10776400Y11337800D02*
X10782300Y11331900D01*
X10795000Y10567900D02*
Y10706731D01*
X10782300Y10719431D02*
Y11331900D01*
Y10719431D02*
X10795000Y10706731D01*
X10553700Y9804400D02*
X10718800Y9969500D01*
X10553700Y9779000D02*
Y9804400D01*
Y8931521D02*
Y8944222D01*
X10515966Y8969622D02*
X10528300D01*
X10515966Y9020422D02*
X10584238D01*
X10515966Y9071222D02*
X10584238D01*
X10515966Y9122022D02*
X10580580D01*
X10528297Y9172822D02*
X10580580D01*
X10528297Y9223622D02*
X10528300D01*
X10553700Y9249022D02*
Y9779000D01*
Y8610600D02*
Y8931521D01*
X11503802Y8689198D02*
Y8877399D01*
Y8689198D02*
X11544300Y8648700D01*
X10261600Y10580600D02*
Y10845800D01*
X10223500Y10883900D02*
X10261600Y10845800D01*
X10223500Y10883900D02*
Y11334900D01*
X10226400Y11337800D01*
X10269100Y10580600D02*
X10338266Y10511434D01*
X10422534D01*
X10426700Y10515600D01*
X7912100Y4495800D02*
X8686800Y5270500D01*
X10541000D02*
X10807700Y5537200D01*
X8686800Y5270500D02*
X10541000D01*
X11036300Y6565900D02*
X11125200D01*
X10807700Y5537200D02*
Y6337300D01*
X11036300Y6565900D01*
X11903802Y6900002D02*
X11963400Y6959600D01*
X11903802Y6752402D02*
Y6900002D01*
X11053803Y6939003D02*
X11150600Y7035800D01*
X11053803Y6752402D02*
Y6939003D01*
X11227721Y5194300D02*
X11239500D01*
X11202321Y5168900D02*
X11227721Y5194300D01*
X8801100Y5168900D02*
X11202321D01*
X8623300Y4991100D02*
X8801100Y5168900D01*
X11860869Y6047433D02*
X12016014Y6202578D01*
X11846867Y6047433D02*
X11860869D01*
X10998200Y7175500D02*
X11925300D01*
X10933798Y7239902D02*
X10998200Y7175500D01*
X10230600Y8692400D02*
X10340900Y8582100D01*
Y7877100D02*
Y8582100D01*
X10248900Y8394700D02*
Y8572500D01*
X10194000Y8627400D02*
X10248900Y8572500D01*
X8864600Y6311900D02*
Y7289800D01*
X10316250Y7852450D02*
X10340900Y7877100D01*
X10439400Y8509000D02*
X10608501Y8339899D01*
X10816303D01*
X10439400Y8509000D02*
Y8661400D01*
X7475136Y6281336D02*
X7772400Y6578600D01*
X7475136Y6113864D02*
Y6281336D01*
X7772400Y6578600D02*
Y6997069D01*
X7670169Y7099300D02*
X7772400Y6997069D01*
X7658100Y7099300D02*
X7670169D01*
X7536915Y7073900D02*
X7670800Y6940015D01*
Y6642100D02*
Y6940015D01*
X7493000Y6464300D02*
X7670800Y6642100D01*
X6927315Y6464300D02*
X7493000D01*
X6435457Y5972443D02*
X6927315Y6464300D01*
X7378700Y7232115D02*
X7536915Y7073900D01*
X7378700Y7232115D02*
Y7962900D01*
X7759700Y8343900D01*
X8178800Y7239000D02*
X8267700Y7327900D01*
X7561000Y7239000D02*
X8178800D01*
X8788400Y4483100D02*
X8966200D01*
X9156700Y4673600D01*
X11607800D01*
X8966200Y4635500D02*
X9093200Y4762500D01*
X11544300D01*
X9004300Y4368800D02*
X9207500Y4572000D01*
X8966200Y4787900D02*
X9029700Y4851400D01*
X9207500Y4572000D02*
X11658600D01*
X11988800Y4902200D01*
Y5105400D01*
X11607800Y4673600D02*
X11874500Y4940300D01*
Y5245100D01*
X11544300Y4762500D02*
X11747500Y4965700D01*
Y5143500D01*
X9029700Y4851400D02*
X11480800D01*
X11620500Y4991100D01*
Y5130800D01*
X11988800Y7239000D02*
Y7416800D01*
X11925300Y7175500D02*
X11988800Y7239000D01*
X12665901Y7839900D02*
X12941299D01*
X12585700Y7759700D02*
X12665901Y7839900D01*
X12742901Y7789901D02*
X12941299D01*
X12700000Y7747000D02*
X12742901Y7789901D01*
X8940800Y7099300D02*
Y7315200D01*
Y6248400D02*
Y7099300D01*
X8712200Y7950200D02*
X9182100D01*
X10949000Y7989900D02*
X10998200Y8039100D01*
X10816303Y7989900D02*
X10949000D01*
X8667000Y7779800D02*
Y7905000D01*
X8712200Y7950200D01*
X9499600D02*
X10084700Y8535300D01*
Y8627400D01*
X10194000D01*
X8661400Y6155400D02*
X8847800D01*
X8940800Y6248400D01*
X8667000Y7589000D02*
X8940800Y7315200D01*
X8667000Y7589000D02*
Y7779800D01*
X11503802Y6752402D02*
Y6893702D01*
X11531600Y6921500D01*
X9182100Y7950200D02*
X9499600D01*
X9180600Y7948700D02*
X9182100Y7950200D01*
X9180600Y7785100D02*
Y7948700D01*
X10404300Y6143800D02*
X10439400Y6108700D01*
X10263753Y6143800D02*
X10404300D01*
X10439400Y5715000D02*
Y6108700D01*
X10375900Y5651500D02*
X10439400Y5715000D01*
X9118600Y5651500D02*
X10375900D01*
X8661400Y5867400D02*
Y6155400D01*
Y5867400D02*
X8699500Y5829300D01*
X8940800D01*
X9118600Y5651500D01*
X10213450Y7771200D02*
X10349931D01*
X10376531Y7797800D02*
X10388600D01*
X10349931Y7771200D02*
X10376531Y7797800D01*
X8602000Y7779800D02*
Y7941600D01*
X10007600Y8572500D02*
Y8661400D01*
X10038600Y8692400D01*
X10084700D01*
X10230600D01*
X10207200Y7852450D02*
X10316250D01*
X8536400Y6155400D02*
Y6237700D01*
X8559800Y6261100D01*
X8813800D01*
X8602000Y7552400D02*
Y7779800D01*
X8813800Y6261100D02*
X8864600Y6311900D01*
X8602000Y7552400D02*
X8864600Y7289800D01*
X11453803Y6752402D02*
Y6897697D01*
X11430000Y6921500D02*
X11453803Y6897697D01*
X8686800Y8026400D02*
X9461500D01*
X8602000Y7941600D02*
X8686800Y8026400D01*
X9461500D02*
X9880600Y8445500D01*
X10007600Y8572500D01*
X9653500Y8445500D02*
X9880600D01*
X10453600Y6208800D02*
X10515600Y6146800D01*
X10263753Y6208800D02*
X10453600D01*
X8536400Y5827300D02*
Y6155400D01*
Y5827300D02*
X8623300Y5740400D01*
X8890000D01*
X9067800Y5562600D01*
X10515600Y5664200D02*
Y6146800D01*
X10414000Y5562600D02*
X10515600Y5664200D01*
X9067800Y5562600D02*
X10414000D01*
X11010900Y7264400D02*
X11226800D01*
X10935398Y7339902D02*
X11010900Y7264400D01*
X10816303Y7339902D02*
X10935398D01*
X12703800Y6663700D02*
X12852400Y6515100D01*
X12703800Y6663700D02*
Y6752402D01*
X12347843Y4791343D02*
Y5146943D01*
X12852400Y5651500D01*
Y6515100D01*
X12653800Y8742200D02*
Y8877399D01*
X12598400Y8686800D02*
X12653800Y8742200D01*
X13804900Y8115931D02*
Y8128000D01*
Y8115931D02*
X13830299Y8090531D01*
Y7821900D02*
Y8090531D01*
X9652000Y10134600D02*
X10883900D01*
X11353800Y9664700D01*
X9081300Y10158569D02*
Y10473000D01*
Y10158569D02*
X9093200Y10146669D01*
Y10134600D02*
Y10146669D01*
X11214100Y8547100D02*
X11279363Y8481837D01*
X11214100Y8547100D02*
Y8674100D01*
X11303803Y8763803D01*
Y8877399D01*
X10122531Y9550400D02*
X10147931Y9525000D01*
X10160000D01*
X9944100Y9550400D02*
X10122531D01*
X11144783Y7328967D02*
X11153317Y7337500D01*
X11035502Y7327900D02*
X11080848D01*
X11081914Y7328967D01*
X11144783D01*
X10973501Y7389901D02*
X11035502Y7327900D01*
X10816303Y7389901D02*
X10973501D01*
X12153801Y6752402D02*
X12158601Y6747602D01*
X12221730Y6497562D02*
X12260338D01*
X12211123D02*
X12216426Y6492259D01*
X12158601Y6523099D02*
X12184138Y6497562D01*
X12158601Y6523099D02*
Y6747602D01*
X12216426Y6492259D02*
X12221730Y6497562D01*
X12184138D02*
X12211123D01*
X12733262Y10510762D02*
X12743590D01*
X12933765Y10700936D01*
X11277600Y8343900D02*
X12319000D01*
X7821700Y7525900D02*
X7915800Y7620000D01*
X8140700D01*
X7630150Y7518400D02*
X7821700D01*
X7604750Y7493000D02*
X7630150Y7518400D01*
X7561000Y7493000D02*
X7604750D01*
X8232700Y7528000D02*
X8242300D01*
X8140700Y7620000D02*
X8232700Y7528000D01*
X10666680Y7489901D02*
X10816303D01*
X10560940Y7384160D02*
X10666680Y7489901D01*
X10502900Y5372100D02*
X10706100Y5575300D01*
X8991600Y5372100D02*
X10502900D01*
X8788400Y5575300D02*
X8991600Y5372100D01*
X11099003Y6747602D02*
X11103803Y6752402D01*
X11099003Y6666703D02*
Y6747602D01*
X11049000Y6616700D02*
X11099003Y6666703D01*
X10998200Y6616700D02*
X11049000D01*
X7346415Y5061485D02*
X7860229Y5575300D01*
X8788400D01*
X10706100D02*
Y6324600D01*
X10998200Y6616700D01*
X11290300Y6045200D02*
Y6214900D01*
X11324200Y6248800D01*
X11353800Y6752399D02*
X11353803Y6752402D01*
X11324200Y6485500D02*
X11353800Y6515100D01*
Y6752399D01*
X11324200Y6273800D02*
Y6485500D01*
Y6248800D02*
Y6273800D01*
X12206421Y5157921D02*
X12776200Y5727700D01*
X12206421Y4649921D02*
Y5157921D01*
X12753800Y6752402D02*
Y6802402D01*
X12809398Y6858000D01*
X12992101D01*
X13106400Y6743700D01*
X13573100D01*
X13703300Y6873900D01*
X13957300Y7821900D02*
Y8191500D01*
X12941299Y8489899D02*
X13354102D01*
X13474699Y8369300D02*
X13779500D01*
X13957300Y8191500D01*
X13354102Y8489899D02*
X13474699Y8369300D01*
X11027766Y8602066D02*
X11036300Y8610600D01*
X10979099Y8489899D02*
X11027766Y8538566D01*
Y8602066D01*
X10816303Y8489899D02*
X10979099D01*
X10446400Y10827400D02*
Y11337800D01*
X10816303Y7089902D02*
X10817896Y7091495D01*
X11005953D02*
X11007545Y7093087D01*
X10817896Y7091495D02*
X11005953D01*
X12775298Y7239902D02*
X12941299D01*
X12725400Y7289800D02*
X12775298Y7239902D01*
X13906500Y9194800D02*
X14084300Y9017000D01*
Y8611900D02*
Y9017000D01*
X12750800Y9194800D02*
X13906500D01*
X12603800Y9047800D02*
X12750800Y9194800D01*
X12603800Y8877399D02*
Y9047800D01*
X10947400Y10210800D02*
X11290300Y9867900D01*
X9328600Y10565700D02*
X9360600D01*
X9326300Y10568000D02*
X9328600Y10565700D01*
X9715500Y10210800D02*
X10947400D01*
X9360600Y10565700D02*
X9715500Y10210800D01*
X11288167Y8600033D02*
X11289333Y8601199D01*
Y8673133D01*
X11353803Y8737603D01*
Y8877399D01*
X10635100Y10567900D02*
X10642600D01*
Y11010900D01*
X10666400Y11034700D01*
Y11337800D01*
X10439400Y8661400D02*
Y8674101D01*
X10404800Y8699501D02*
X10414000D01*
X10404800Y8750301D02*
X10414000D01*
X10439400Y8775701D02*
Y8839200D01*
X10414000Y8864600D02*
Y9817100D01*
Y8864600D02*
X10439400Y8839200D01*
X10414000Y9817100D02*
X10579100Y9982200D01*
X10816303Y7439901D02*
X11038599D01*
X11074400Y7404100D01*
X7740650Y7626350D02*
X7747000Y7632700D01*
X7567350Y7626350D02*
X7740650D01*
X7561000Y7620000D02*
X7567350Y7626350D01*
X11153803Y6931070D02*
X11158603Y6935870D01*
X11153803Y6752402D02*
Y6931070D01*
X11377421Y5105400D02*
X11379200D01*
X11326621Y5054600D02*
X11377421Y5105400D01*
X8864600Y5054600D02*
X11326621D01*
X8686800Y4876800D02*
X8864600Y5054600D01*
X11480800Y6045200D02*
Y6202200D01*
X11434200Y6248800D02*
X11480800Y6202200D01*
X11434200Y6248800D02*
Y6273800D01*
X11403803Y6521950D02*
Y6752402D01*
Y6521950D02*
X11434200Y6491553D01*
Y6273800D02*
Y6491553D01*
X12941299Y6939902D02*
X13037198D01*
X13157201Y6819900D01*
X13449300D01*
X13703300Y7073900D01*
X10816303Y7239902D02*
X10933798D01*
X9220200Y7137400D02*
X9296400D01*
X9423400Y7010400D01*
X7099300Y9204500D02*
X7114721Y9189079D01*
Y9141279D02*
Y9189079D01*
X10390302Y7189902D02*
X10816303D01*
X10210800Y7010400D02*
X10390302Y7189902D01*
X9423400Y7010400D02*
X10210800D01*
X7114721Y9141279D02*
X7442200Y8813800D01*
X7561000D01*
X7811131Y8775700D02*
X7823200D01*
X7773031Y8813800D02*
X7811131Y8775700D01*
X7561000Y8813800D02*
X7773031D01*
X10971910Y6947790D02*
X10972800Y6946900D01*
X10971910Y6947790D02*
Y6998590D01*
X10816303Y7039902D02*
X10930598D01*
X10971910Y6998590D01*
X11003803Y6705000D02*
Y6752402D01*
X10993166Y6700566D02*
X10999369D01*
X11003803Y6705000D01*
X7370744Y5651500D02*
X8839200D01*
X7063572Y5344328D02*
X7370744Y5651500D01*
X8839200D02*
X9017000Y5473700D01*
X10464800D01*
X10617200Y5626100D01*
Y6324600D01*
X10993166Y6700566D01*
X12161762Y11069562D02*
X12171019D01*
X12368079Y11266621D01*
X12753800Y8702500D02*
Y8877399D01*
X12725400Y8674100D02*
X12753800Y8702500D01*
X13690601Y8268331D02*
X13703300Y8255631D01*
Y7821900D02*
Y8255631D01*
X13690601Y8268331D02*
Y8280400D01*
X13701801Y7632700D02*
X13703300Y7634200D01*
Y7821900D01*
X12779502Y7089902D02*
X12941299D01*
X12725400Y7035800D02*
X12779502Y7089902D01*
X12941299Y8539899D02*
X13418401D01*
X13512801Y8445500D01*
X13779500D01*
X13830299Y8496300D01*
Y8611900D01*
X12615938Y9225038D02*
Y9264723D01*
Y9275330D02*
X12621241Y9270026D01*
X12403801Y9012901D02*
X12615938Y9225038D01*
X12403801Y8877399D02*
Y9012901D01*
X12615938Y9264723D02*
X12621241Y9270026D01*
X12615938Y9275330D02*
Y9313938D01*
X9410700Y7144440D02*
Y7150100D01*
Y7144440D02*
X9468540Y7086600D01*
X10185400D01*
X6941700Y9206000D02*
X6969000Y9178700D01*
Y9171200D02*
Y9178700D01*
X6934200Y9206000D02*
X6941700D01*
X6969000Y9171200D02*
X7453400Y8686800D01*
X7561000D01*
X10388702Y7289902D02*
X10816303D01*
X10185400Y7086600D02*
X10388702Y7289902D01*
X7759700Y8343900D02*
Y8633821D01*
X7706721Y8686800D02*
X7759700Y8633821D01*
X7561000Y8686800D02*
X7706721D01*
X12008943Y6209649D02*
X12016014Y6202578D01*
X12008943Y6209649D02*
Y6420943D01*
X12103801Y6515801D02*
Y6752402D01*
X12008943Y6420943D02*
X12103801Y6515801D01*
X12649200Y7112000D02*
X12651516Y7114316D01*
X12722300D01*
X12747886Y7139902D01*
X12941299D01*
X13957300Y8611900D02*
Y9029700D01*
X13868401Y9118600D02*
X13957300Y9029700D01*
X12703800Y8877399D02*
Y9033500D01*
X12788900Y9118600D02*
X13868401D01*
X12703800Y9033500D02*
X12788900Y9118600D01*
X12593562Y10663162D02*
X12613147D01*
X12792342Y10842357D01*
X10761503Y8694699D02*
X10811503D01*
X10731500Y8724702D02*
X10761503Y8694699D01*
X10811503D02*
X10816303Y8689899D01*
X10731500Y8724702D02*
Y9296400D01*
X10972800Y9537700D01*
X11468100D01*
X11531600Y9474200D01*
X12446000Y10731500D02*
X12525224D01*
X12593562Y10663162D01*
X12593562D01*
X11531600Y9474200D02*
X12001500D01*
X12230100Y10309474D02*
Y10515600D01*
X12446000Y10731500D01*
X12001500Y9474200D02*
X12331700Y9804400D01*
Y10207874D01*
X12230100Y10309474D02*
X12331700Y10207874D01*
X9791700Y6870700D02*
X9852200Y6810200D01*
Y6555353D02*
Y6810200D01*
X10047200Y6776967D02*
X10127441Y6857208D01*
X10047200Y6555353D02*
Y6776967D01*
X9710239Y5791200D02*
X9736906Y5817867D01*
X9754867D01*
X9852200Y5915200D01*
X9699700Y5791200D02*
X9710239D01*
X9949560Y5790279D02*
X9982200Y5822919D01*
X9949560Y5785740D02*
Y5790279D01*
X9982200Y5822919D02*
Y5992247D01*
X10047200Y5827169D02*
Y5992247D01*
Y5827169D02*
X10071100Y5803269D01*
Y5791200D02*
Y5803269D01*
X9855200Y5803900D02*
X9917200Y5865900D01*
Y5992247D01*
X9852200Y5915200D02*
Y5992247D01*
X9917200Y6869831D02*
X9931400Y6884031D01*
Y6896100D01*
X9917200Y6555353D02*
Y6869831D01*
X9982200Y6555353D02*
Y6818121D01*
X10032110Y6868031D01*
Y6871590D01*
X9550400Y6032500D02*
X9596700Y6078800D01*
X9700647D01*
X9626600Y5880100D02*
X9714483D01*
X9787200Y5952817D01*
Y5992247D01*
X8732000Y7625600D02*
Y7779800D01*
Y7625600D02*
X8813800Y7543800D01*
X8940800D01*
X9004300Y7607300D01*
X9180600D01*
X9575800Y9296400D02*
X9815600D01*
X9579200Y9550400D02*
X9814100D01*
X9579200Y9791700D02*
X9815600D01*
X8115300Y6297700D02*
X8139200Y6273800D01*
X8382000D01*
X8411400Y6244400D01*
Y6155400D02*
Y6244400D01*
X8266200Y6781800D02*
X8286400Y6761600D01*
Y6375400D02*
Y6761600D01*
X12812076Y9548176D02*
X13144501Y9880600D01*
X12604038Y9548176D02*
X12812076D01*
X13144501Y9880600D02*
Y10020300D01*
X12581057Y9571157D02*
X12604038Y9548176D01*
X12446000Y9436100D02*
X12470466D01*
X12495400Y9411165D01*
X12702559D01*
X12707862Y9405862D01*
X12291786Y6167222D02*
X12436975Y6022033D01*
X12448233D01*
X12352262Y6405638D02*
Y6405638D01*
X12284715Y6338090D02*
X12352262Y6405638D01*
X12284715Y6174293D02*
Y6338090D01*
Y6174293D02*
X12291786Y6167222D01*
X6778100Y8420100D02*
X6781800Y8423800D01*
X6592800Y8420100D02*
X6778100D01*
X6781800Y8423800D02*
X6790800Y8432800D01*
X7018600D01*
X6592800Y8585200D02*
X6618200Y8559800D01*
X7018600D01*
X9899400Y7277100D02*
X9907200Y7284900D01*
Y7539950D01*
X10089000Y7316700D02*
X10096500D01*
X10007200Y7398500D02*
X10089000Y7316700D01*
X10007200Y7398500D02*
Y7539950D01*
X9588500Y7632700D02*
X9596000D01*
X9634500Y7671200D01*
X9750950D01*
D11*
X13852000Y8775700D02*
D03*
X13707001D02*
D03*
X12302600Y9156700D02*
D03*
X11743800D02*
D03*
X11083400D02*
D03*
X12462400Y6540500D02*
D03*
X11700400Y6527800D02*
D03*
X10443100Y6972300D02*
D03*
Y6807200D02*
D03*
X9470500Y11137900D02*
D03*
X9381600Y10299700D02*
D03*
X8741300Y11137900D02*
D03*
X8746600Y8432800D02*
D03*
X9991200Y8051800D02*
D03*
X8385700Y6578600D02*
D03*
X7162800Y7048500D02*
D03*
X7489300Y6794500D02*
D03*
X12157600Y9156700D02*
D03*
X11598800D02*
D03*
X10938400D02*
D03*
X12607400Y6540500D02*
D03*
X11845400Y6527800D02*
D03*
X9236600Y10299700D02*
D03*
X9846200Y8051800D02*
D03*
X10588100Y6972300D02*
D03*
Y6807200D02*
D03*
X8601600Y8432800D02*
D03*
X8530700Y6578600D02*
D03*
X7344300Y6794500D02*
D03*
X9325500Y11137900D02*
D03*
X8886300D02*
D03*
X7017800Y7048500D02*
D03*
D12*
X12501638Y10571238D02*
D03*
X12641338Y10418838D02*
D03*
X12069838Y10977638D02*
D03*
X12733262Y10510762D02*
D03*
X12161762Y11069562D02*
D03*
X12615938Y9313938D02*
D03*
X12593562Y10663162D02*
D03*
X12707862Y9405862D02*
D03*
D13*
X11920834Y9634834D02*
D03*
X12342167Y5915967D02*
D03*
X12448233Y6022033D02*
D03*
X12026900Y9740900D02*
D03*
D14*
X13220700Y8870700D02*
D03*
X11633200Y11068300D02*
D03*
X11252200Y9353300D02*
D03*
X8521700Y10598400D02*
D03*
X11633200Y11258300D02*
D03*
X8521700Y10788400D02*
D03*
X13220700Y8680700D02*
D03*
X11252200Y9163300D02*
D03*
D15*
X12992101Y9017000D02*
D03*
X11442700Y11205100D02*
D03*
X10528300Y8184100D02*
D03*
X13220700Y8093600D02*
D03*
Y6950600D02*
D03*
Y7598300D02*
D03*
X10541000Y7676100D02*
D03*
X11150600Y6315600D02*
D03*
X10439400Y6460600D02*
D03*
X9677400Y8781000D02*
D03*
X8724900Y10620900D02*
D03*
X6781800Y8715900D02*
D03*
X6604000Y6994000D02*
D03*
Y6849000D02*
D03*
X12992101Y8872000D02*
D03*
X13220700Y8238600D02*
D03*
X11442700Y11350100D02*
D03*
X13220700Y7743300D02*
D03*
Y7095600D02*
D03*
X11150600Y6460600D02*
D03*
X9677400Y8636000D02*
D03*
X8724900Y10765900D02*
D03*
X6781800Y8860900D02*
D03*
X10528300Y8039100D02*
D03*
X10541000Y7531100D02*
D03*
X10439400Y6315600D02*
D03*
X6781800Y8568800D02*
D03*
Y8423800D02*
D03*
D16*
X12253801Y8877399D02*
D03*
X11703802D02*
D03*
X11053803D02*
D03*
X12503800Y6752402D02*
D03*
X11753802D02*
D03*
X12203801Y8877399D02*
D03*
X11653802D02*
D03*
X11003803D02*
D03*
X12603800Y6752402D02*
D03*
X12553800D02*
D03*
X12453801D02*
D03*
X11803802D02*
D03*
X11253803D02*
D03*
X11103803Y8877399D02*
D03*
X11153803D02*
D03*
X11203803D02*
D03*
X11253803D02*
D03*
X11303803D02*
D03*
X11353803D02*
D03*
X11403803D02*
D03*
X11453803D02*
D03*
X11503802D02*
D03*
X11553802D02*
D03*
X11603802D02*
D03*
X11753802D02*
D03*
X11803802D02*
D03*
X11853802D02*
D03*
X11903802D02*
D03*
X11953802D02*
D03*
X12003801D02*
D03*
X12053801D02*
D03*
X12103801D02*
D03*
X12153801D02*
D03*
X12303801D02*
D03*
X12353801D02*
D03*
X12403801D02*
D03*
X12453801D02*
D03*
X12503800D02*
D03*
X12553800D02*
D03*
X12603800D02*
D03*
X12653800D02*
D03*
X12703800D02*
D03*
X12753800D02*
D03*
Y6752402D02*
D03*
X12703800D02*
D03*
X12653800D02*
D03*
X12403801D02*
D03*
X12353801D02*
D03*
X12303801D02*
D03*
X12253801D02*
D03*
X12203801D02*
D03*
X12153801D02*
D03*
X12103801D02*
D03*
X12053801D02*
D03*
X12003801D02*
D03*
X11953802D02*
D03*
X11903802D02*
D03*
X11853802D02*
D03*
X11703802D02*
D03*
X11653802D02*
D03*
X11603802D02*
D03*
X11553802D02*
D03*
X11503802D02*
D03*
X11453803D02*
D03*
X11403803D02*
D03*
X11353803D02*
D03*
X11303803D02*
D03*
X11203803D02*
D03*
X11153803D02*
D03*
X11103803D02*
D03*
X11053803D02*
D03*
D17*
X12941299Y8139900D02*
D03*
X10816303D02*
D03*
X12941299Y7639901D02*
D03*
Y6989902D02*
D03*
X10816303Y7639901D02*
D03*
X12941299Y8689899D02*
D03*
Y8189900D02*
D03*
Y7689901D02*
D03*
Y7039902D02*
D03*
X10816303Y7589901D02*
D03*
Y8089900D02*
D03*
Y6989902D02*
D03*
Y6939902D02*
D03*
Y7039902D02*
D03*
Y7089902D02*
D03*
Y7139902D02*
D03*
Y7189902D02*
D03*
Y7239902D02*
D03*
Y7289902D02*
D03*
Y7339902D02*
D03*
Y7389901D02*
D03*
Y7439901D02*
D03*
Y7489901D02*
D03*
Y7539901D02*
D03*
Y7689901D02*
D03*
Y7739901D02*
D03*
Y7789901D02*
D03*
Y7839900D02*
D03*
Y7889900D02*
D03*
Y7939900D02*
D03*
Y7989900D02*
D03*
Y8039900D02*
D03*
Y8189900D02*
D03*
Y8239900D02*
D03*
Y8289900D02*
D03*
Y8339899D02*
D03*
Y8389899D02*
D03*
Y8439899D02*
D03*
Y8489899D02*
D03*
Y8539899D02*
D03*
Y8589899D02*
D03*
Y8639899D02*
D03*
Y8689899D02*
D03*
X12941299Y8639899D02*
D03*
Y8589899D02*
D03*
Y8539899D02*
D03*
Y8489899D02*
D03*
Y8439899D02*
D03*
Y8389899D02*
D03*
Y8339899D02*
D03*
Y8289900D02*
D03*
Y8239900D02*
D03*
Y8089900D02*
D03*
Y8039900D02*
D03*
Y7989900D02*
D03*
Y7939900D02*
D03*
Y7889900D02*
D03*
Y7839900D02*
D03*
Y7789901D02*
D03*
Y7739901D02*
D03*
Y7589901D02*
D03*
Y7539901D02*
D03*
Y7489901D02*
D03*
Y7439901D02*
D03*
Y7389901D02*
D03*
Y7339902D02*
D03*
Y7289902D02*
D03*
Y7239902D02*
D03*
Y7189902D02*
D03*
Y7139902D02*
D03*
Y7089902D02*
D03*
Y6939902D02*
D03*
D18*
X11253900Y11907800D02*
D03*
Y11077800D02*
D03*
X9878900Y11907800D02*
D03*
Y11077800D02*
D03*
D19*
X10336400Y11337800D02*
D03*
X10556400D02*
D03*
X10116400D02*
D03*
X10886400D02*
D03*
X10776400D02*
D03*
X10226400D02*
D03*
X10446400D02*
D03*
X10666400D02*
D03*
D20*
X14084300Y7869600D02*
D03*
X13703300Y8589600D02*
D03*
Y7869600D02*
D03*
X13830299D02*
D03*
X13957300D02*
D03*
X14084300Y8589600D02*
D03*
X13957300D02*
D03*
X13830299D02*
D03*
D21*
X12171578Y6047014D02*
D03*
X12136222Y6322786D02*
D03*
X12016014Y6202578D02*
D03*
X12291786Y6167222D02*
D03*
D22*
X11952933Y5941367D02*
D03*
X11846867Y6047433D02*
D03*
D23*
X11480800Y5895200D02*
D03*
X11290300D02*
D03*
Y6045200D02*
D03*
X11480800D02*
D03*
D24*
X9653500Y11366500D02*
D03*
X7951700Y7518400D02*
D03*
Y7353300D02*
D03*
X13831799Y7632700D02*
D03*
X9945600Y9791700D02*
D03*
X10225000Y7315200D02*
D03*
X9523500Y8445500D02*
D03*
X9310600Y7785100D02*
D03*
X9310600Y7607300D02*
D03*
X7821700Y7518400D02*
D03*
Y7353300D02*
D03*
X9180600Y7785100D02*
D03*
X9653500Y8445500D02*
D03*
X9944100Y9550400D02*
D03*
X13701801Y7632700D02*
D03*
X9945600Y9296400D02*
D03*
X10095000Y7315200D02*
D03*
X9815600Y9296400D02*
D03*
X9814100Y9550400D02*
D03*
X9815600Y9791700D02*
D03*
X9523500Y11366500D02*
D03*
X9180600Y7607300D02*
D03*
X6592800Y8585200D02*
D03*
X6462800D02*
D03*
X6592800Y8420100D02*
D03*
X6462800D02*
D03*
D25*
X9131300Y10668000D02*
D03*
D26*
X8936300D02*
D03*
X9326300D02*
D03*
X8936300Y10718000D02*
D03*
X9326300Y10568000D02*
D03*
Y10618000D02*
D03*
Y10718000D02*
D03*
Y10768000D02*
D03*
X8936300D02*
D03*
Y10618000D02*
D03*
Y10568000D02*
D03*
D27*
X10084700Y8822400D02*
D03*
X9879700Y8757400D02*
D03*
X10084700D02*
D03*
X9879700Y8692400D02*
D03*
Y8822400D02*
D03*
Y8627400D02*
D03*
X10084700D02*
D03*
Y8692400D02*
D03*
D28*
X9369200Y9791700D02*
D03*
Y9550400D02*
D03*
X9365800Y9296400D02*
D03*
X9579200Y9791700D02*
D03*
Y9550400D02*
D03*
X9575800Y9296400D02*
D03*
D29*
X8496300Y12091900D02*
D03*
X10947400Y10437900D02*
D03*
X10795000D02*
D03*
X10642600D02*
D03*
X10109200Y10450600D02*
D03*
X10261600D02*
D03*
X7099300Y9334500D02*
D03*
X6934200Y9336000D02*
D03*
X9588500Y7762700D02*
D03*
X8115300Y6427700D02*
D03*
X9042400Y11136400D02*
D03*
Y11266400D02*
D03*
X9169400Y11136400D02*
D03*
Y11266400D02*
D03*
X10109200Y10580600D02*
D03*
X10947400Y10567900D02*
D03*
X10795000D02*
D03*
X10261600Y10580600D02*
D03*
X7988300Y8393200D02*
D03*
Y8523200D02*
D03*
X10642600Y10567900D02*
D03*
X7099300Y9204500D02*
D03*
X8267700Y8523200D02*
D03*
X6934200Y9206000D02*
D03*
X9588500Y7632700D02*
D03*
X8267700Y8393200D02*
D03*
X6731000Y7494500D02*
D03*
Y7364500D02*
D03*
X8115300Y6297700D02*
D03*
X8496300Y11961900D02*
D03*
D30*
X8280400Y10020300D02*
D03*
D31*
X8572032Y9384832D02*
D03*
X7860832Y10731032D02*
D03*
X8395168Y9207968D02*
D03*
X7683968Y10554168D02*
D03*
D32*
X7561000Y8559800D02*
D03*
Y8432800D02*
D03*
X7018600Y8686800D02*
D03*
Y7620000D02*
D03*
Y8813800D02*
D03*
X7561000Y7366000D02*
D03*
Y7493000D02*
D03*
Y7239000D02*
D03*
Y7620000D02*
D03*
Y8813800D02*
D03*
Y8686800D02*
D03*
X7018600Y7239000D02*
D03*
Y7366000D02*
D03*
Y7493000D02*
D03*
Y8432800D02*
D03*
Y8559800D02*
D03*
D33*
X8732000Y8222200D02*
D03*
X8667000D02*
D03*
X8797000Y7779800D02*
D03*
Y8222200D02*
D03*
X8602000D02*
D03*
X8667000Y7779800D02*
D03*
X8602000D02*
D03*
X8732000D02*
D03*
D34*
X10213450Y7721200D02*
D03*
X9750950Y7771200D02*
D03*
X10213450Y7671200D02*
D03*
X9750950Y7621200D02*
D03*
Y7721200D02*
D03*
X10213450Y7771200D02*
D03*
Y7621200D02*
D03*
X9750950Y7671200D02*
D03*
D35*
X9957200Y7852450D02*
D03*
X9757200Y7539950D02*
D03*
X9807200Y7852450D02*
D03*
X10157200Y7539950D02*
D03*
X10207200Y7852450D02*
D03*
X9757200D02*
D03*
X9857200D02*
D03*
X9907200D02*
D03*
X10007200D02*
D03*
X10057200D02*
D03*
X10107200D02*
D03*
X10157200D02*
D03*
X10207200Y7539950D02*
D03*
X10107200D02*
D03*
X10057200D02*
D03*
X10007200D02*
D03*
X9957200D02*
D03*
X9907200D02*
D03*
X9857200D02*
D03*
X9807200D02*
D03*
D36*
X9709400Y7277100D02*
D03*
X9899400D02*
D03*
D37*
X10263753Y6468800D02*
D03*
Y6078800D02*
D03*
Y6403800D02*
D03*
X9700647Y6273800D02*
D03*
X10263753Y6338800D02*
D03*
Y6273800D02*
D03*
Y6143800D02*
D03*
Y6208800D02*
D03*
X9700647Y6078800D02*
D03*
Y6143800D02*
D03*
Y6208800D02*
D03*
Y6338800D02*
D03*
Y6403800D02*
D03*
Y6468800D02*
D03*
D38*
X9982200Y6273800D02*
D03*
D39*
X10177200Y6555353D02*
D03*
D40*
X10112200D02*
D03*
X10177200Y5992247D02*
D03*
X10112200D02*
D03*
X10047200D02*
D03*
X9982200D02*
D03*
X9917200D02*
D03*
X9852200D02*
D03*
X9787200D02*
D03*
Y6555353D02*
D03*
X9852200D02*
D03*
X9917200D02*
D03*
X9982200D02*
D03*
X10047200D02*
D03*
D41*
X8411400Y6375400D02*
D03*
X8286400Y6155400D02*
D03*
X8661400Y6375400D02*
D03*
X8536400D02*
D03*
X8661400Y6155400D02*
D03*
X8536400D02*
D03*
X8411400D02*
D03*
X8286400Y6375400D02*
D03*
D42*
X8267700Y7972200D02*
D03*
X7988300D02*
D03*
Y8182200D02*
D03*
X8267700D02*
D03*
D43*
X12365036Y9652121D02*
D03*
X12581057Y9571157D02*
D03*
X12446000Y9436100D02*
D03*
D44*
X9231300Y10473000D02*
D03*
X9031300Y10863000D02*
D03*
X9181300Y10473000D02*
D03*
X9231300Y10863000D02*
D03*
X9181300D02*
D03*
X9131300D02*
D03*
X9081300D02*
D03*
X9031300Y10473000D02*
D03*
X9081300D02*
D03*
X9131300D02*
D03*
D45*
X8000103Y9416713D02*
D03*
X7676813Y9740003D02*
D03*
D46*
X7162800Y6794500D02*
D03*
X7017670D02*
D03*
D47*
X6248400Y8656100D02*
D03*
Y8311100D02*
D03*
D48*
X11003803Y6752402D02*
D03*
D49*
X12260338Y6497562D02*
D03*
X12352262Y6405638D02*
D03*
D50*
X11324200Y6273800D02*
D03*
X11434200D02*
D03*
D51*
X7083157Y9991457D02*
D03*
X7366000Y10274300D02*
D03*
D52*
X11379200Y7632700D02*
X11429200Y7682700D01*
X12116600D01*
X12303801Y7495499D01*
X11468100Y7543800D02*
X11976100D01*
X12090400Y7429500D01*
Y7213600D02*
Y7429500D01*
X13169400Y8139900D02*
X13215700Y8093600D01*
X13220700D01*
X12302600Y9151700D02*
Y9156700D01*
X12253801Y9102901D02*
X12302600Y9151700D01*
X12941299Y8139900D02*
X13169400D01*
X12253801Y8877399D02*
Y9102901D01*
X11743800Y9151700D02*
Y9156700D01*
X11703802Y9111702D02*
X11743800Y9151700D01*
X11703802Y8877399D02*
Y9111702D01*
X11053803Y9127103D02*
X11083400Y9156700D01*
X11053803Y8877399D02*
Y9127103D01*
X10577500Y8139900D02*
X10816303D01*
X10528300Y8184100D02*
X10533300D01*
X10577500Y8139900D01*
X13215700Y7598300D02*
X13220700D01*
X12941299Y7639901D02*
X13174100D01*
X13215700Y7598300D01*
X12941299Y6989902D02*
X13176398D01*
X13215700Y6950600D01*
X13220700D01*
X10582199Y7639901D02*
X10816303D01*
X10546000Y7676100D02*
X10582199Y7639901D01*
X11753802Y6586202D02*
Y6752402D01*
X11700400Y6532800D02*
X11753802Y6586202D01*
X13055600Y8707473D02*
Y8808500D01*
X13038026Y8689899D02*
X13055600Y8707473D01*
X13167000Y8189900D02*
X13215700Y8238600D01*
X13220700D01*
X13029601Y8834500D02*
Y8839500D01*
X12997099Y8872000D02*
X13029601Y8839500D01*
X12992101Y8872000D02*
X12997099D01*
X13029601Y8834500D02*
X13055600Y8808500D01*
X12941299Y8689899D02*
X13038026D01*
X12941299Y8189900D02*
X13167000D01*
X11598800Y9151700D02*
Y9156700D01*
X11631300Y9119200D02*
X11636228D01*
X11598800Y9151700D02*
X11631300Y9119200D01*
X12157600Y9151700D02*
X12203801Y9105499D01*
Y8877399D02*
Y9105499D01*
X11653802Y8877399D02*
Y9101626D01*
X11636228Y9119200D02*
X11653802Y9101626D01*
X10985500Y8945702D02*
X11003803Y8927399D01*
Y8877399D02*
Y8927399D01*
X10938400Y9151700D02*
X10985500Y9104600D01*
Y8945702D02*
Y9104600D01*
X13215700Y7743300D02*
X13220700D01*
X13162302Y7689901D02*
X13215700Y7743300D01*
X12941299Y7689901D02*
X13162302D01*
X13215700Y7095600D02*
X13220700D01*
X13160002Y7039902D02*
X13215700Y7095600D01*
X12941299Y7039902D02*
X13160002D01*
X12603800Y6752402D02*
Y6890700D01*
X12585426Y6909074D02*
X12603800Y6890700D01*
X12560574Y6909074D02*
X12585426D01*
X12560300Y6908800D02*
X12560574Y6909074D01*
X12484100Y6908800D02*
X12560300D01*
X12453801Y6878501D02*
X12484100Y6908800D01*
X11467826Y7544074D02*
X11468100Y7543800D01*
X11442974Y7544074D02*
X11467826D01*
X10977499Y7589901D02*
X11023600Y7543800D01*
X10816303Y7589901D02*
X10977499D01*
X11442700Y7543800D02*
X11442974Y7544074D01*
X11023600Y7543800D02*
X11442700D01*
X11881698Y7004898D02*
X12090400Y7213600D01*
X11803802Y7004898D02*
X11881698D01*
X10813803Y6987402D02*
X10816303Y6989902D01*
X10604801Y7589901D02*
X10816303D01*
X10567700Y8089900D02*
X10816303D01*
X10746602Y6987402D02*
X10813803D01*
X10588100Y6967300D02*
Y6972300D01*
X10763803Y6937402D02*
X10766304Y6939902D01*
X10816303D01*
X10763803Y6928403D02*
Y6937402D01*
X10680700Y6921500D02*
X10746602Y6987402D01*
X10588100Y6967300D02*
X10620600Y6934800D01*
X10625600D01*
X12453801Y6752402D02*
Y6878501D01*
X11803802Y6574398D02*
Y6752402D01*
Y6574398D02*
X11845400Y6532800D01*
X10663026Y6827626D02*
X10763803Y6928403D01*
X10638900Y6921500D02*
X10680700D01*
X10625600Y6934800D02*
X10638900Y6921500D01*
X10588100Y6807200D02*
X10608526Y6827626D01*
X10663026D01*
X10533300Y8055500D02*
X10567700Y8089900D01*
X10546000Y7531100D02*
X10604801Y7589901D01*
X12303801Y6752402D02*
Y7495499D01*
X11103803Y8877399D02*
Y8995603D01*
X11192200Y9084000D01*
Y9108300D02*
X11247200Y9163300D01*
X11252200D01*
X11192200Y9084000D02*
Y9108300D01*
X7988300Y8182200D02*
Y8393200D01*
X9127250Y11176000D02*
Y11216800D01*
X9136900Y11226450D01*
Y11241400D01*
X9161900Y11266400D01*
X9169400D01*
X9123200Y11305100D02*
X9186900Y11241400D01*
X9084550Y11176000D02*
Y11216800D01*
X9042400Y11266400D02*
X9049900D01*
X9074900Y11241400D01*
Y11226450D02*
Y11241400D01*
Y11226450D02*
X9084550Y11216800D01*
X9127250Y11076616D02*
X9136900Y11086266D01*
Y11111400D01*
X9161900Y11136400D01*
X9169400D01*
X9127250Y11016616D02*
Y11076616D01*
Y11016616D02*
X9127650Y11016216D01*
Y10916576D02*
Y11016216D01*
Y10916576D02*
X9131300Y10912926D01*
Y10863000D02*
Y10912926D01*
X9054100Y11722100D02*
X9060797Y11715403D01*
Y11665603D02*
Y11715403D01*
Y11665603D02*
X9139100Y11587300D01*
Y11577629D02*
Y11587300D01*
X9123200Y11305100D02*
Y11561729D01*
X9139100Y11577629D01*
X9325500Y11137900D02*
Y11142900D01*
X9227000Y11241400D02*
X9325500Y11142900D01*
X9186900Y11241400D02*
X9227000D01*
X9054100Y11577629D02*
Y11587100D01*
X9074900Y11291400D02*
Y11303374D01*
X9054100Y11577629D02*
X9080500Y11551229D01*
X9074900Y11303374D02*
X9080500Y11308974D01*
Y11551229D01*
X9049900Y11266400D02*
X9074900Y11291400D01*
X9042400Y11136400D02*
X9049900D01*
X9081300Y10912926D02*
X9084950Y10916576D01*
X9049900Y11136400D02*
X9074900Y11111400D01*
X9084950Y10916576D02*
Y10998529D01*
X9081300Y10863000D02*
Y10912926D01*
X9084550Y10998929D02*
Y11076616D01*
Y10998929D02*
X9084950Y10998529D01*
X9074900Y11086266D02*
X9084550Y11076616D01*
X9074900Y11086266D02*
Y11111400D01*
X8886300Y11137900D02*
Y11142900D01*
X8984800Y11241400D01*
X9017400D01*
X9042400Y11266400D01*
X13215700Y8680700D02*
X13220700D01*
X13145599Y8610600D02*
X13215700Y8680700D01*
X12941299Y8639899D02*
X12943800Y8637399D01*
X13054201D02*
X13081000Y8610600D01*
X12943800Y8637399D02*
X13054201D01*
X13081000Y8610600D02*
X13145599D01*
D53*
X12157600Y9444685D02*
X12839700Y10126785D01*
X12644362Y10418838D02*
X12839700Y10223500D01*
Y10126785D02*
Y10223500D01*
X12641338Y10418838D02*
X12644362D01*
X13707001Y8775700D02*
Y8893700D01*
X13846957Y8898742D02*
X13852000Y8893700D01*
X13707001Y8893700D02*
X13728700Y8915400D01*
X13852000Y8775700D02*
Y8893700D01*
X12506941Y10558864D02*
Y10565935D01*
X12501638Y10571238D02*
X12506941Y10565935D01*
X11840167Y9715500D02*
X11920833Y9634834D01*
X12302600Y9292700D02*
X12306300Y9296400D01*
X11920833Y9634834D02*
X11920834D01*
X12302600Y9156700D02*
Y9292700D01*
X13333900Y8978900D02*
X13398500D01*
X13225700Y8870700D02*
X13333900Y8978900D01*
X13107500D02*
X13215700Y8870700D01*
X13225700D01*
X13004601Y9004500D02*
X13080800D01*
X13106400Y8978900D01*
X12992101Y9017000D02*
X13004601Y9004500D01*
X13106400Y8978900D02*
X13107500D01*
X11447700Y11205100D02*
X11549500Y11103300D01*
X11598200D02*
X11633200Y11068300D01*
X11549500Y11103300D02*
X11598200D01*
X11375400Y11142800D02*
X11437700Y11205100D01*
X11447700D01*
X11785600Y9715500D02*
X11840167D01*
X11291400Y11142800D02*
X11375400D01*
X10336400Y11337800D02*
Y11533000D01*
X11252200Y9353300D02*
X11423400D01*
X11253900Y11077800D02*
Y11105300D01*
X11291400Y11142800D01*
X11217200Y9318300D02*
X11252200Y9353300D01*
X11743800Y9156700D02*
X11849100D01*
X11191489Y9318300D02*
X11217200D01*
X11095900Y9169200D02*
Y9222711D01*
X11191489Y9318300D01*
X11083400Y9156700D02*
X11095900Y9169200D01*
X10604200Y8255000D02*
X10655300D01*
X10533300Y8184100D02*
X10604200Y8255000D01*
X14084300Y7869600D02*
Y8046204D01*
X13224400Y8089900D02*
X13335001D01*
X13224400Y6946900D02*
X13347701D01*
X13344000Y7598300D02*
X13347701Y7594600D01*
X13220700Y8093600D02*
X13224400Y8089900D01*
X13220700Y7598300D02*
X13344000D01*
X13220700Y6950600D02*
X13224400Y6946900D01*
X12458700Y6451600D02*
X12509500Y6400800D01*
X10546000Y7676100D02*
Y7683600D01*
X10541000Y7676100D02*
X10546000D01*
X11569700Y6578600D02*
X11603000Y6545300D01*
X10541000Y7688600D02*
Y7797800D01*
Y7688600D02*
X10546000Y7683600D01*
X10515600Y7823200D02*
X10541000Y7797800D01*
X10443100Y6807200D02*
Y6972300D01*
X10430600Y6984800D02*
Y7019200D01*
X10426700Y7023100D02*
X10430600Y7019200D01*
Y6984800D02*
X10443100Y6972300D01*
X12458700Y6451600D02*
Y6536800D01*
X12462400Y6540500D01*
X11700400Y6527800D02*
Y6532800D01*
X11687900Y6545300D02*
X11700400Y6532800D01*
X11603000Y6545300D02*
X11687900D01*
X11145600Y6315600D02*
X11150600D01*
X11061700Y6231700D02*
X11145600Y6315600D01*
X11061700Y6184900D02*
Y6231700D01*
X9609812Y11907800D02*
X9878900D01*
X10299700Y11569700D02*
X10336400Y11533000D01*
X9529100Y11988512D02*
X9609812Y11907800D01*
X9529100Y11988512D02*
Y12023100D01*
X9653500Y11366500D02*
X9740900D01*
X9648600Y11077800D02*
X9878900D01*
X9588500Y11137900D02*
X9648600Y11077800D01*
X9470500Y11137900D02*
X9588500D01*
X9563100Y8775700D02*
X9672100D01*
X9381600Y10299700D02*
X9385300Y10303400D01*
Y10401300D01*
X8712200Y11264900D02*
X8728800Y11248300D01*
Y11150400D02*
Y11248300D01*
Y11150400D02*
X8741300Y11137900D01*
X8750300Y8436500D02*
Y8547100D01*
X7340600Y8559800D02*
X7561000D01*
X7213600Y8686800D02*
X7340600Y8559800D01*
X7561000Y8432800D02*
Y8559800D01*
X6651100Y8715900D02*
X6781800D01*
X6815900Y8686800D02*
X7018600D01*
X7213600D01*
X6646058Y8720942D02*
X6651100Y8715900D01*
X6786800Y8715900D02*
X6815900Y8686800D01*
X8401200Y6864500D02*
X8420100Y6883400D01*
X8401200Y6786800D02*
Y6864500D01*
X8396200Y6781800D02*
X8401200Y6786800D01*
X8411400Y6375400D02*
Y6547900D01*
X8385700Y6573600D02*
X8411400Y6547900D01*
X7951700Y7518400D02*
X8077200D01*
X7951700Y7353300D02*
X8140700D01*
X7200900Y7010400D02*
X7442200D01*
X7175300Y7031000D02*
X7180300D01*
X7162800Y7043500D02*
X7175300Y7031000D01*
X7180300D02*
X7200900Y7010400D01*
X7162800Y7043500D02*
Y7048500D01*
X8396200Y6589100D02*
Y6781800D01*
X8385700Y6578600D02*
X8396200Y6589100D01*
X7489300Y6794500D02*
Y6963300D01*
X7442200Y7010400D02*
X7489300Y6963300D01*
X8128000Y6146800D02*
X8136600Y6155400D01*
X8286400D01*
X6602150Y6847150D02*
X6604000Y6849000D01*
Y6994000D01*
X6235700Y6845300D02*
X6237550Y6847150D01*
X6602150D01*
X13703300Y8589600D02*
Y8772000D01*
X13224400Y8242300D02*
X13335001D01*
X13220700Y8238600D02*
X13224400Y8242300D01*
X12986800Y8877300D02*
X12992101Y8872000D01*
X12877800Y8877300D02*
X12986800D01*
X11548900Y11337600D02*
X11628200Y11258300D01*
X11633200D02*
X11789176D01*
X11628200D02*
X11633200D01*
X11789176D02*
X12069838Y10977638D01*
X11442700Y11350100D02*
X11455200Y11337600D01*
X11548900D01*
X11167300Y11620500D02*
X11437700Y11350100D01*
X10597405Y11620500D02*
X11167300D01*
X11437700Y11350100D02*
X11442700D01*
X10795000Y10437900D02*
X10947400D01*
X10642600D02*
X10795000D01*
X12157600Y9292700D02*
Y9444685D01*
Y9156700D02*
Y9285700D01*
X11649603Y9321800D02*
X12150600D01*
X11608597Y9166497D02*
Y9280795D01*
X10938400Y9325500D02*
X10972800Y9359900D01*
X11608597Y9280795D02*
X11649603Y9321800D01*
X11598800Y9156700D02*
X11608597Y9166497D01*
X10635100Y10437900D02*
X10642600D01*
X10938400Y9156700D02*
Y9325500D01*
X13344000Y7743300D02*
X13345850Y7745150D01*
X13831799Y7632700D02*
X14274800D01*
X13220700Y7743300D02*
X13344000D01*
X13220700Y7095600D02*
X13224400Y7099300D01*
X13335001D01*
X12611100Y6438900D02*
X12649200Y6400800D01*
X12611100Y6438900D02*
Y6536800D01*
X12607400Y6540500D02*
X12611100Y6536800D01*
X11857900Y6545300D02*
X11968200D01*
X12014200Y6591300D01*
X11845400Y6532800D02*
X11857900Y6545300D01*
X11845400Y6527800D02*
Y6532800D01*
X11146900Y6464300D02*
X11150600Y6460600D01*
X10556400Y11337800D02*
Y11579495D01*
X10597405Y11620500D01*
X9866400Y10450600D02*
X10109200D01*
X10261600D02*
X10269100D01*
X10109200D02*
X10261600D01*
X10573100Y10375900D02*
X10635100Y10437900D01*
X10343800Y10375900D02*
X10477500D01*
X10573100D01*
X10269100Y10450600D02*
X10343800Y10375900D01*
X9779000Y10363200D02*
X9866400Y10450600D01*
X9236600Y10299700D02*
X9245600Y10290700D01*
Y10160000D02*
Y10290700D01*
X9940600Y9796700D02*
Y9884100D01*
Y9796700D02*
X9945600Y9791700D01*
X9906000Y9918700D02*
X9940600Y9884100D01*
X9575800Y8636000D02*
X9677400D01*
X9528500Y8588700D02*
X9575800Y8636000D01*
X9528500Y8450500D02*
Y8588700D01*
X8719900Y10765900D02*
X8724900D01*
X8521700Y10788400D02*
X8697400D01*
X8719900Y10765900D01*
X8242300Y10782300D02*
X8248400Y10788400D01*
X8521700D01*
X6934200Y9336000D02*
X6934950Y9335250D01*
X7098550D01*
X7099300Y9334500D02*
X7226300D01*
X7098550Y9335250D02*
X7099300Y9334500D01*
X6651100Y8860900D02*
X6781800D01*
X6642100Y8851900D02*
X6651100Y8860900D01*
X6786800D02*
X6833900Y8813800D01*
X7018600D01*
X10426700Y8039100D02*
X10528300D01*
X10528500Y7518600D02*
X10541000Y7531100D01*
X10414200Y7518600D02*
X10528500D01*
X10401300Y7505700D02*
X10414200Y7518600D01*
X10401300Y7499000D02*
Y7505700D01*
X10230000Y7327700D02*
X10401300Y7499000D01*
X9753600Y8051800D02*
X9846200D01*
X10575600Y6984800D02*
Y7090100D01*
Y6794700D02*
X10588100Y6807200D01*
X10575600Y6984800D02*
X10588100Y6972300D01*
X10566400Y7099300D02*
X10575600Y7090100D01*
Y6676700D02*
Y6794700D01*
X10566400Y6667500D02*
X10575600Y6676700D01*
X10230000Y7320200D02*
Y7327700D01*
X10225000Y7315200D02*
X10230000Y7320200D01*
X9434600Y7785100D02*
X9558600D01*
X9581000Y7762700D02*
X9588500D01*
X9558600Y7785100D02*
X9581000Y7762700D01*
X9523500Y8445500D02*
X9528500Y8450500D01*
X9310600Y7785100D02*
X9434600D01*
X9310600Y7607300D02*
Y7785100D01*
X9310600Y7607300D02*
X9310600Y7607300D01*
X8597900Y8436500D02*
Y8534400D01*
X8536400Y6375400D02*
Y6390400D01*
X8530700Y6396100D02*
X8536400Y6390400D01*
X8534400Y6582300D02*
Y6680200D01*
X8530700Y6396100D02*
Y6578600D01*
X8534400Y6582300D01*
X8536400Y6375400D02*
X8661400D01*
X7344300Y6671200D02*
Y6794500D01*
X7162800D02*
X7344300D01*
X8115300Y6427700D02*
Y6515100D01*
X6462800Y8412600D02*
Y8420100D01*
X6388800Y8338600D02*
X6462800Y8412600D01*
X6275900Y8338600D02*
X6388800D01*
X6248400Y8311100D02*
X6275900Y8338600D01*
X6462800Y8585200D02*
Y8592700D01*
X6399400Y8656100D02*
X6462800Y8592700D01*
X6248400Y8656100D02*
X6399400D01*
X6235900Y8311100D02*
X6248400D01*
X6177700Y8369300D02*
X6235900Y8311100D01*
X5702300Y8369300D02*
X6177700D01*
X6235900Y8656100D02*
X6248400D01*
X6199100Y8619300D02*
X6235900Y8656100D01*
X5702300Y8619300D02*
X6199100D01*
X7018200Y7238600D02*
X7018600Y7239000D01*
X7018200Y7048900D02*
Y7238600D01*
X7017800Y7048500D02*
X7018200Y7048900D01*
X7017735Y7048435D02*
X7017800Y7048500D01*
X7017735Y6794565D02*
Y7048435D01*
X7017670Y6794500D02*
X7017735Y6794565D01*
D54*
X11650691Y10472011D02*
X12110311Y10012391D01*
Y9824311D02*
Y10012391D01*
X12026900Y9740900D02*
X12110311Y9824311D01*
X12026900Y9740900D02*
Y9740900D01*
X11938511Y9829289D02*
X12026900Y9740900D01*
X11880730Y9829289D02*
X11938511D01*
X11791319Y9918700D02*
X11880730Y9829289D01*
X11760200Y9918700D02*
X11791319D01*
D55*
X6311900Y7137400D02*
X6426200D01*
X6489700Y7200900D02*
Y7368179D01*
X6441079Y7152279D02*
Y7152279D01*
X6426200Y7137400D02*
X6441079Y7152279D01*
X6464300Y7211421D02*
X6464300D01*
X6311900Y7162800D02*
X6415679D01*
X6441079Y7152279D02*
X6474821Y7186021D01*
X6474821D02*
X6489700Y7200900D01*
X6415679Y7162800D02*
X6464300Y7211421D01*
X6415679Y7162800D02*
Y7162800D01*
X6464300Y7211421D02*
Y7378700D01*
X6474821Y7186021D02*
X6474821D01*
X6538320Y7416800D02*
X6683100D01*
X6527799Y7442200D02*
X6683100D01*
X6464300Y7378700D02*
X6527799Y7442200D01*
X6489700Y7368179D02*
X6538320Y7416800D01*
X6235700Y7045300D02*
Y7061200D01*
X6311900Y7137400D01*
X6724189Y7364500D02*
X6731000D01*
X6690539Y7398150D02*
Y7409360D01*
X6683100Y7416800D02*
X6690539Y7409360D01*
Y7398150D02*
X6724189Y7364500D01*
X6235700Y7239000D02*
X6311900Y7162800D01*
X6235700Y7239000D02*
Y7245300D01*
X6690540Y7460850D02*
X6724190Y7494500D01*
X6731000D01*
X6683100Y7442200D02*
X6690540Y7449639D01*
Y7460850D01*
X6981540Y7366000D02*
X7018600D01*
X6947950Y7416800D02*
X6955389Y7409360D01*
Y7392150D02*
Y7409360D01*
X6778900Y7416800D02*
X6873371D01*
X6873371Y7416800D01*
X6947950D01*
X6771461Y7398150D02*
Y7409360D01*
X6778900Y7416800D01*
X6731000Y7364500D02*
X6737811D01*
X6771461Y7398150D01*
X6955389Y7392150D02*
X6981540Y7366000D01*
Y7493000D02*
X7018600D01*
X6955389Y7466850D02*
X6981540Y7493000D01*
X6862850Y7442200D02*
X6947950D01*
X6862850Y7442200D02*
X6862850Y7442200D01*
X6947950D02*
X6955389Y7449640D01*
X6731000Y7494500D02*
X6737810D01*
X6771460Y7449639D02*
X6778900Y7442200D01*
X6771460Y7449639D02*
Y7460850D01*
X6737810Y7494500D02*
X6771460Y7460850D01*
X6778900Y7442200D02*
X6862850D01*
X6955389Y7449640D02*
Y7466850D01*
D56*
X8884100Y11587100D02*
Y11722100D01*
X9309100Y11587100D02*
Y11722100D01*
X9224100Y11464200D02*
X9321800Y11366500D01*
X9523500D01*
X9224100Y11464200D02*
Y11587100D01*
X8969100Y11722100D02*
Y11808100D01*
X8578632Y11887068D02*
X8890132D01*
X8969100Y11808100D01*
X8503800Y11961900D02*
X8578632Y11887068D01*
X8496300Y11961900D02*
X8503800D01*
D57*
X12110311Y10012391D02*
D03*
D58*
X11650691Y10472011D02*
D03*
X12428509Y10330589D02*
D03*
X11968889Y10790209D02*
D03*
D59*
X12933765Y10983779D02*
D03*
X12792343Y11125200D02*
D03*
X12509500Y11408043D02*
D03*
X12650921Y11266621D02*
D03*
X12933765Y10700936D02*
D03*
X12509500Y11125200D02*
D03*
X12368079Y11266621D02*
D03*
X12792342Y10842357D02*
D03*
X12650921Y10983779D02*
D03*
D60*
X13568764Y9596036D02*
D03*
X13144501Y10020300D02*
D03*
D61*
X11785600Y11709400D02*
D03*
Y3683000D02*
D03*
X8166100Y11709400D02*
D03*
Y3683000D02*
D03*
D62*
X13703300Y7273900D02*
D03*
Y6673900D02*
D03*
X12489264Y4932764D02*
D03*
X12065000Y4508500D02*
D03*
X7629257Y4778643D02*
D03*
X7487836Y4920064D02*
D03*
X6235700Y6845300D02*
D03*
Y7445300D02*
D03*
X8053521Y4354379D02*
D03*
X13057321Y5500821D02*
D03*
X7912100Y4495800D02*
D03*
X7204993Y5202907D02*
D03*
X10709300Y3962400D02*
D03*
X12347843Y4791343D02*
D03*
X10509300Y3962400D02*
D03*
X7346415Y5061485D02*
D03*
X12206421Y4649921D02*
D03*
X13703300Y6873900D02*
D03*
X10909300Y3962400D02*
D03*
X12915900Y5359400D02*
D03*
X7770679Y4637221D02*
D03*
X13703300Y7073900D02*
D03*
X6294036Y6113864D02*
D03*
X11109300Y3962400D02*
D03*
X7063572Y5344328D02*
D03*
X6576879Y5831021D02*
D03*
X13340164Y5783664D02*
D03*
X6435457Y5972443D02*
D03*
X13198743Y5642243D02*
D03*
X6718300Y5689600D02*
D03*
X6235700Y7045300D02*
D03*
Y7245300D02*
D03*
D63*
X9529100Y11685100D02*
D03*
X8664100D02*
D03*
D64*
X9529100Y12023100D02*
D03*
X8664100D02*
D03*
D65*
X9394100Y11722100D02*
D03*
X8799100D02*
D03*
Y11587100D02*
D03*
X9394100D02*
D03*
X9054100Y11722100D02*
D03*
X9139100Y11587100D02*
D03*
Y11722100D02*
D03*
X9054100Y11587100D02*
D03*
X9309100D02*
D03*
X8884100D02*
D03*
Y11722100D02*
D03*
X9309100D02*
D03*
X9224100Y11587100D02*
D03*
X8969100D02*
D03*
Y11722100D02*
D03*
X9224100D02*
D03*
D66*
X6502400Y10198100D02*
D03*
X5702300Y8619300D02*
D03*
D67*
X13075185Y10842357D02*
D03*
D68*
X11580595Y10098305D02*
D03*
D69*
X6679177Y10374877D02*
D03*
D70*
X9880600Y3987800D02*
D03*
X9680600D02*
D03*
X9480600D02*
D03*
X9280600D02*
D03*
X9080600D02*
D03*
D71*
X8880600D02*
D03*
D72*
X5702300Y8369300D02*
D03*
D73*
X11760200Y9918700D02*
D03*
D74*
X12026900Y7607300D02*
D03*
X12839700Y10223500D02*
D03*
X13728700Y8915400D02*
D03*
X13846957Y8898742D02*
D03*
X13499995Y9899997D02*
D03*
X13349995Y10199997D02*
D03*
X12899995Y9899997D02*
D03*
X12306300Y9296400D02*
D03*
X13398500Y8978900D02*
D03*
X14249995Y8399997D02*
D03*
X13106400Y8978900D02*
D03*
X11785600Y9715500D02*
D03*
X11423400Y9353300D02*
D03*
X10649997Y11999996D02*
D03*
X10349997D02*
D03*
X11849100Y9156700D02*
D03*
X11699996Y8099998D02*
D03*
X11399997D02*
D03*
X10655300Y8255000D02*
D03*
X14084300Y8046204D02*
D03*
X13335001Y8089900D02*
D03*
X14249995Y7199998D02*
D03*
X13347701Y7594600D02*
D03*
Y6946900D02*
D03*
X14249995Y6599998D02*
D03*
X14099995Y6899998D02*
D03*
Y6299998D02*
D03*
X13949995Y5999998D02*
D03*
X13799995Y6299998D02*
D03*
X14249995Y5999998D02*
D03*
X14099995Y5699998D02*
D03*
X13949995Y5399998D02*
D03*
X13499995Y5099998D02*
D03*
X13199995D02*
D03*
X13349995Y4799999D02*
D03*
X12509500Y6400800D02*
D03*
X13049995Y4799999D02*
D03*
X12899995Y5099998D02*
D03*
Y4499999D02*
D03*
X12599996D02*
D03*
X12749996Y4199999D02*
D03*
X11849996Y7799998D02*
D03*
X11549996D02*
D03*
X11569700Y6578600D02*
D03*
X10515600Y7823200D02*
D03*
X10426700Y7023100D02*
D03*
X12449996Y4199999D02*
D03*
X12299996Y3899999D02*
D03*
X12153900Y5867400D02*
D03*
X12149996Y4199999D02*
D03*
X11099997Y3299999D02*
D03*
X11061700Y6184900D02*
D03*
X10299700Y11569700D02*
D03*
X9740900Y11366500D02*
D03*
X9588500Y11137900D02*
D03*
X9149997Y11999996D02*
D03*
X9385300Y10401300D02*
D03*
X9563100Y8775700D02*
D03*
X8999997Y9899997D02*
D03*
X9149997Y8399997D02*
D03*
X8999997Y9299997D02*
D03*
X8849997Y9599997D02*
D03*
X8712200Y11264900D02*
D03*
X7649998Y11399997D02*
D03*
X6299998Y9899997D02*
D03*
X5999998D02*
D03*
X5849998Y9599997D02*
D03*
X6749998D02*
D03*
X6449998D02*
D03*
X6599998Y9299997D02*
D03*
X6149998Y9599997D02*
D03*
X5699998Y9299997D02*
D03*
X5999998D02*
D03*
X8750300Y8547100D02*
D03*
X6646058Y8720942D02*
D03*
X6449998Y8999997D02*
D03*
X6299998Y9299997D02*
D03*
X5849998Y8999997D02*
D03*
X6149998D02*
D03*
X8877300Y7683500D02*
D03*
X8420100Y6883400D02*
D03*
X10049997Y4199999D02*
D03*
X9817100Y3187700D02*
D03*
X9449997Y6599998D02*
D03*
X9299997Y6299998D02*
D03*
X9149997Y5999998D02*
D03*
X9588500Y3797300D02*
D03*
X8699997Y3299999D02*
D03*
X8077200Y7518400D02*
D03*
X7199998Y8099998D02*
D03*
X8140700Y7353300D02*
D03*
X6899998Y8099998D02*
D03*
X6599998D02*
D03*
X6449998Y7799998D02*
D03*
X5999998Y8099998D02*
D03*
X5699998D02*
D03*
X5849998Y7799998D02*
D03*
X6749998D02*
D03*
X5699998Y7499998D02*
D03*
X7799998Y6299998D02*
D03*
X8128000Y6146800D02*
D03*
X7499998Y3899999D02*
D03*
X7353300Y7010400D02*
D03*
X7349998Y5399998D02*
D03*
X6899998Y4499999D02*
D03*
X6749998Y5399998D02*
D03*
X6299998Y5099998D02*
D03*
X13284200Y10568121D02*
D03*
X13335001Y8242300D02*
D03*
X12877800Y8877300D02*
D03*
X12268200Y11442700D02*
D03*
X11929507Y11117969D02*
D03*
X11264900Y10706100D02*
D03*
X10972800Y9359900D02*
D03*
X13345850Y7745150D02*
D03*
X14274800Y7632700D02*
D03*
X13335001Y7099300D02*
D03*
X12649200Y6400800D02*
D03*
X12014200Y6591300D02*
D03*
X10477500Y10375900D02*
D03*
X9779000Y10363200D02*
D03*
X9245600Y10160000D02*
D03*
X9906000Y9918700D02*
D03*
X9575800Y8636000D02*
D03*
X8242300Y10782300D02*
D03*
X8864600Y9067800D02*
D03*
X8699500D02*
D03*
X8509000Y8890000D02*
D03*
X8280400D02*
D03*
X8699500D02*
D03*
X8864600D02*
D03*
X8597900Y8534400D02*
D03*
X7226300Y9334500D02*
D03*
X6642100Y8851900D02*
D03*
X10426700Y8039100D02*
D03*
X10401300Y7505700D02*
D03*
X10083800Y8420100D02*
D03*
X9753600Y8051800D02*
D03*
X10566400Y7099300D02*
D03*
Y6667500D02*
D03*
X9434600Y7785100D02*
D03*
X8534400Y6680200D02*
D03*
X9690100Y3390900D02*
D03*
X7342450Y6669350D02*
D03*
X8115300Y6515100D02*
D03*
X8712200Y4711700D02*
D03*
X11379200Y7632700D02*
D03*
X10114345Y9161845D02*
D03*
X10020300Y9096300D02*
D03*
X10071100Y9296400D02*
D03*
X10649290Y7843952D02*
D03*
X10668000Y7937500D02*
D03*
X11074400Y7772400D02*
D03*
X11404600Y8636000D02*
D03*
X10109200Y10756900D02*
D03*
X11506200Y5016500D02*
D03*
X12701935Y7197331D02*
D03*
X11010900Y8293100D02*
D03*
X10401300Y7696200D02*
D03*
X10845800Y9906000D02*
D03*
X10934700Y10706100D02*
D03*
X11074400Y7658100D02*
D03*
X8205306Y7429500D02*
D03*
X10782300Y10731500D02*
D03*
X10718800Y9969500D02*
D03*
X11544300Y8648700D02*
D03*
X10426700Y10515600D02*
D03*
X11963400Y6959600D02*
D03*
X11150600Y7035800D02*
D03*
X11239500Y5194300D02*
D03*
X8623300Y4991100D02*
D03*
X10248900Y8394700D02*
D03*
X7658100Y7099300D02*
D03*
X7475136Y6113864D02*
D03*
X8788400Y4483100D02*
D03*
X8966200Y4635500D02*
D03*
X9004300Y4368800D02*
D03*
X8966200Y4787900D02*
D03*
X11988800Y5105400D02*
D03*
X11874500Y5245100D02*
D03*
X11988800Y7416800D02*
D03*
X12585700Y7759700D02*
D03*
X12700000Y7747000D02*
D03*
X11747500Y5143500D02*
D03*
X11620500Y5130800D02*
D03*
X8864600Y6972300D02*
D03*
X8940800Y7099300D02*
D03*
X10998200Y8039100D02*
D03*
X11531600Y6921500D02*
D03*
X9180600Y7948700D02*
D03*
X10388600Y7797800D02*
D03*
X11430000Y6921500D02*
D03*
X9880600Y8445500D02*
D03*
X11226800Y7264400D02*
D03*
X12598400Y8686800D02*
D03*
X13804900Y8128000D02*
D03*
X9652000Y10134600D02*
D03*
X11353800Y9664700D02*
D03*
X9093200Y10134600D02*
D03*
X11279363Y8481837D02*
D03*
X11112500Y8026400D02*
D03*
X10160000Y9525000D02*
D03*
X11153317Y7337500D02*
D03*
X12319000Y8343900D02*
D03*
X8242300Y7528000D02*
D03*
X10560940Y7384160D02*
D03*
X8267700Y7327900D02*
D03*
X11036300Y8610600D02*
D03*
X10446400Y10827400D02*
D03*
X11007545Y7093087D02*
D03*
X12725400Y7289800D02*
D03*
X11290300Y9867900D02*
D03*
X11288167Y8600033D02*
D03*
X10642600Y10782300D02*
D03*
X10579100Y9982200D02*
D03*
X11074400Y7404100D02*
D03*
X7747000Y7632700D02*
D03*
X11379200Y5105400D02*
D03*
X11158603Y6935870D02*
D03*
X8686800Y4876800D02*
D03*
X9220200Y7137400D02*
D03*
X7823200Y8775700D02*
D03*
X10972800Y6946900D02*
D03*
X12725400Y8674100D02*
D03*
X13690601Y8280400D02*
D03*
X12725400Y7035800D02*
D03*
X9410700Y7150100D02*
D03*
X12649200Y7112000D02*
D03*
X9791700Y6870700D02*
D03*
X10127441Y6857208D02*
D03*
X10071100Y5791200D02*
D03*
X9855200Y5803900D02*
D03*
X9949560Y5785740D02*
D03*
X9699700Y5791200D02*
D03*
X9550400Y6032500D02*
D03*
X9626600Y5880100D02*
D03*
X9931400Y6896100D02*
D03*
X10032110Y6871590D02*
D03*
%TF.MD5,f51979a769b94e210e9ba00fccf86751*%
M02*
